<?xml version="1.0" encoding="utf-8"?>
<!-- Generator: Adobe Illustrator 25.2.3, SVG Export Plug-In . SVG Version: 6.00 Build 0)  -->
<svg version="1.1" xmlns="http://www.w3.org/2000/svg" xmlns:xlink="http://www.w3.org/1999/xlink" x="0px" y="0px"
	 viewBox="0 0 600 600" style="enable-background:new 0 0 600 600;" xml:space="preserve">
<style type="text/css">
	.st0{fill:#9AB3DA;}
	.st1{fill:#ECBDBB;}
	.st2{fill:#404B7C;}
	.st3{fill:#F68D88;}
	.st4{fill:none;stroke:#9AB3DA;stroke-linecap:round;stroke-linejoin:round;stroke-miterlimit:10;}
	.st5{fill:none;stroke:#404B7C;stroke-linecap:round;stroke-linejoin:round;stroke-miterlimit:10;}
	.st6{fill:none;stroke:#ECBDBB;stroke-width:0.8584007;stroke-linecap:round;stroke-linejoin:round;stroke-miterlimit:10;}
	.st7{fill:none;stroke:#F68D88;stroke-linecap:round;stroke-linejoin:round;stroke-miterlimit:10;}
	.st8{fill:#FFFFFF;}
</style>
<g id="BACK_SHIRT">
	<path class="st0" d="M66.4958496,386.9534302c0,0,84.316864,41.0362854,133.9131927,20.4492798
		s56.7777252-84.609314,56.7777252-84.609314c-12.1712494-0.1625061-23.0009155-10.8028259-33.8320312-21.4317932
		l-93.9786377,30.3309631C114.3107834,360.5011902,94.1861572,380.3937988,66.4958496,386.9534302z"/>
</g>
<g id="LEFT_LEG">
	<g>
		<g>
			<path class="st1" d="M303.4373169,522.8339844l-3.6545715,19.5534668c0,0-4.8166809,2.3070679-9.7764893-1.3908691
				l1.5412903-21.3502808L303.4373169,522.8339844z"/>
			<g>
				<path class="st2" d="M280.2225037,557.1844482c-1.2594604,5.0767212-1.5293274,11.5706787-1.0931396,19.076416
					l4.2772522,0.6084595c0,0,3.5939331-11.2397461,6.5238342-16.0594482
					C292.8603821,555.9901123,282.9432983,552.9584961,280.2225037,557.1844482z"/>
				<path class="st3" d="M288.9570618,537.8549805c0,0,4.3135071,2.982605,12.7094421,1.8081665
					c0,0,10.0340271,24.1192017,13.9819336,28.7952271c3.947876,4.6760864,13.2207031,10.4837646,16.3816833,12.8036499
					c3.1609802,2.3199463-23.182373-0.0563965-29.1362-2.0255127c-5.9538574-1.9691772-9.9912109-10.3983765-14.5327454-15.2835693
					s-8.1386719-6.7684326-8.1386719-6.7684326S283.1836548,546.0105591,288.9570618,537.8549805z"/>
			</g>
		</g>
		<g>
			<g>
				<path class="st2" d="M329.8641357,434.9026184l-22.655365,90.3381042c0,0-14.1164551,0.6135864-20.0362549-3.7911377
					c0,0,2.5710754-32.5466614,2.7802734-49.7161255c0.1307068-11.1760864,2.0657349-21.7652283,4.3424988-31.4300842
					c-17.8756714-11.3268127-43.747757-28.3929138-66.394104-45.8609619
					c-39.3271637-30.3374329-55.9496918-53.1210327-44.9374542-69.0091858
					c11.023056-15.9035034,28.6616364-11.3373718,28.6616364-11.3373718s37.325592,21.0478821,49.898468,33.135498
					c12.5707703,12.0744629,62.9206848,67.2420349,62.9206848,67.2420349l0,0
					C329.644928,419.897522,331.6919861,427.6139832,329.8641357,434.9026184z"/>
			</g>
			<line class="st4" x1="296.7218018" y1="517.3950195" x2="307.9562683" y2="432.8129883"/>
			<path class="st4" d="M290.4661865,517.3950195c0,0,7.8820801,3.5574951,16.3875122,2.2512817"/>
		</g>
	</g>
</g>
<g id="RIGHT_LEG">
	<g>
		<g>
			<path class="st1" d="M356.350708,495.3338013l14.5160828,15.8379822c0,0-0.7002258,5.2945862-6.5076294,7.4273376
				l-17.1757507-15.0501709L356.350708,495.3338013z"/>
			<g>
				<path class="st2" d="M372.5690308,535.6392212c3.5632629,3.8292236,8.8542175,7.604126,15.3783569,11.3406982
					l2.8470764-3.2495117c0,0-7.4487915-9.1522827-9.8839111-14.2399292S370.5168762,531.0512085,372.5690308,535.6392212z"/>
				<path class="st3" d="M361.1548157,517.7609253c0,0,4.8551025-1.9824219,8.4599304-9.6555176
					c0,0,25.6824341,4.7779541,31.7559814,4.0272217s16.0048218-5.3424683,19.6751099-6.7218323
					c3.6702881-1.3793945-12.7163696,19.3835144-17.6192017,23.2934265
					c-4.902832,3.9099731-14.1683655,2.6845703-20.7414856,3.8181763
					c-6.5730896,1.133606-10.1160583,3.1168823-10.1160583,3.1168823S364.8296204,527.0529175,361.1548157,517.7609253z"/>
			</g>
		</g>
		<g>
			<g>
				<path class="st2" d="M353.8904419,502.3382568c-5.6871948,6.5091248-10.1017761,5.26297-10.1017761,5.26297
					s-45.5907288-37.4906311-55.798584-48.878418c-4.9182739-5.5148315-10.5923157-12.9255066-16.0010986-19.9516907
					c-2.9960632-1.5510559-5.700531-2.8370056-7.9144287-3.6722107
					c-10.0487976-3.7914734-66.0594635-21.9535217-88.3841248-32.2409363
					c-22.3247681-10.2741394-54.3535385-33.2219238-45.7365112-58.2642822
					c8.6170197-25.0291443,41.2841644-32.8928528,57.2721405-26.1318359l24.2563019,28.8240356
					c0,0,59.1125488,41.8289795,82.3538208,59.1110229c2.230957,1.6589355,4.103302,3.7460022,5.5241089,6.1356812
					c0.0058594,0.0098572,0.0117188,0.0196838,0.0175476,0.02948c9.7438354,16.425415,60.0805664,77.9111938,60.0805664,77.9111938
					S359.5909119,495.8423157,353.8904419,502.3382568z"/>
			</g>
			<path class="st4" d="M340.7180176,501.9591675c0,0,7.6299438-1.3217163,12.2571716-13.1264038"/>
			<path class="st4" d="M153.9130249,345.1595459l12.1971588,20.3285828
				c4.5269623,7.5449524,11.1692963,13.5949402,19.1030731,17.3995361l91.7926025,44.0187378
				c0,0,30.9262695,40.133728,67.0744629,69.1940308"/>
		</g>
		<g>
			<path class="st4" d="M315.7138062,484.0102234c-8.112915-6.960144-16.3131104-14.1573486-22.0412598-19.5815735"/>
			<path class="st4" d="M187.226059,318.461853l24.2563019,28.8240356c0,0,59.1125488,41.8289795,82.3538208,59.1110229
				c2.230957,1.6589355,4.103302,3.7460022,5.5241089,6.1356812c0.0058594,0.0098572,0.0117188,0.0196838,0.0175476,0.02948
				c3.8595886,6.5061951,14.0881653,20.0823059,25.0345764,34.1066895"/>
			<polyline class="st4" points="211.4823608,347.2858887 213.2937012,338.4260559 202.2681122,322.793396 			"/>
		</g>
	</g>
</g>
<g id="LEFT_ARM">
	<g>
		<path class="st3" d="M165.3032684,183.9478149c0,0,26.1755219,4.8058472,69.4202728,19.4737701l13.5370331,4.7843628
			c0,0,6.8472443,25.3481903,1.4819794,28.7031555c-5.3652496,3.3549652-54.2734222-3.5401154-80.0591888-17.6775665
			C143.8975983,205.094101,165.3032684,183.9478149,165.3032684,183.9478149z"/>
		<path class="st2" d="M232.982254,199.8580017c0,0-6.6972198,14.5788727,1.160675,30.1247864
			c5.7937622,11.462265,14.5619965,11.3996277,14.5619965,11.3996277l7.9664001-7.082077
			c0,0,1.9498901-12.9537811-1.7354431-24.2592621c-3.6853485-11.305481-10.234848-16.4805145-10.234848-16.4805145
			L232.982254,199.8580017z"/>
		<g>
			<path class="st1" d="M319.2076721,159.6351929c0.879425-2.6289825,0.2101746-4.0761414-1.2692871-3.1614685
				c-0.662384,0.4095306-2.0691833,1.516983-3.6593933,2.8217773c0.730957-2.7100372-0.7964478-4.3357086-2.6417847-2.9187164
				c-0.4759216,0.3652954-1.2381897,1.1031036-2.1245728,2.0133057c-0.2526855-1.8625183-1.6701965-2.5865784-3.0217285-1.2184143
				c-1.1233521,1.1371002-3.8529663,5.0807343-5.9047852,8.1263885c-1.2974243,0.0997009-2.5024719,0.1956024-3.5265198,0.2886047
				c0.7608032-2.5050964,1.6786499-5.690979,1.6986084-6.5480042c0.0340271-1.4665985-1.105072-2.5292664-1.8925476-1.8359375
				c-0.56073,0.4938202-6.0678101,8.574295-9.1980896,13.1946716c-3.0301514,2.3851471-5.8865662,4.8278198-5.8865662,4.8278198
				l-37.3188019,24.0358124c0,0-1.6968384,15.3673248,5.6075592,26.9593811c0,0,37.7037354-44.4202576,40.4863586-46.5995941
				c2.782959-2.1794128,21.1762695-7.539032,23.4083862-8.8273315c2.2324524-1.2883606,7.9779663-10.255661,8.0610657-12.0509949
				C322.0600586,157.9998169,320.8007812,158.6101685,319.2076721,159.6351929z"/>
			<g>
				<polyline class="st5" points="300.5861206,165.2980652 312.4635315,164.7746582 319.2076721,159.6351929 				"/>
				<line class="st5" x1="314.2789917" y1="159.2955017" x2="310.8761597" y2="163.0885773"/>
				<line class="st5" x1="309.5126343" y1="158.3900909" x2="306.2471008" y2="162.6874695"/>
			</g>
		</g>
	</g>
</g>
<g id="BODY">
	<g>
		<g>
			<path class="st0" d="M124.4868164,181.656723L106.36026,212.5619202c0,0,17.4701157,139.0711365,18.5230865,138.7170105
				s38.9925079-1.0023804,68.1069946-17.4358521c29.1144867-16.4334412,32.0153351-26.3949585,32.0153351-26.3949585
				l-43.4232788-79.1620483l-17.2636566-40.2955627L124.4868164,181.656723z"/>
			<path class="st5" d="M124.8833466,351.2789307c1.0529709-0.354126,38.9925079-1.0023804,68.1069946-17.4358521
				c29.1144867-16.4334412,32.0153351-26.3949585,32.0153351-26.3949585"/>
			<path class="st5" d="M139.110321,343.6290894c0,0,51.9613953-12.0058289,79.5287323-37.6862488"/>
		</g>
		<path class="st3" d="M159.014801,284.3217163c14.8158722,54.1365662-24.8615723,117.3045959-24.8615723,117.3045959
			c-42.3728943,6.5106506-67.6573868-14.6729126-67.6573868-14.6729126s47.2613449-39.5172119,41.5486679-71.9768066
			s-16.597496-98.571167-16.597496-98.571167s13.6707001-23.5227814,25.7151871-33.3871002
			c1.5732651,6.7689819,8.3698273,34.6914978,17.2447357,53.319809
			C144.5770874,257.6562805,159.014801,284.3217163,159.014801,284.3217163z"/>
		<g>
			<path class="st3" d="M130.2962799,178.60112c0,0,17.7801208,0.5917053,35.0069885,5.3466949l2.8920746,8.5992889
				c0,0,15.6339264,22.0904694,17.4604797,26.3598175s3.276062,20.776947,3.276062,20.776947
				s29.7071686,56.1576843,59.4861908,50.7704163c0,0,19.3469391,24.6998901,6.658432,45.9635315
				c0,0-39.190918-9.2329407-48.3092194-32.4729004c-9.1182861-23.2399292-18.2135468-37.892395-18.2135468-37.892395
				s-32.0673828-51.2049713-39.1611176-61.8422852S130.2962799,178.60112,130.2962799,178.60112z"/>
			<path class="st6" d="M166.1592407,186.492981l2.0361023,6.0541229c0,0,15.6339264,22.0904694,17.4604797,26.3598175
				s3.276062,20.776947,3.276062,20.776947"/>
		</g>
		<g>
			<path class="st3" d="M120.0438461,176.9650116c-6.7004242,3.4857178-7.5545502,21.2939301-5.5045547,36.1019287
				l10.3661423,4.5879822l-3.2047806,16.7054901c0,0,21.8696289,25.7234497,37.3141479,49.9613037
				c0,0-17.5220337-42.0319061-27.6156616-65.0740509c-7.7945862-24.5316315,3.1384583-29.197113,19.9215393-9.3045654
				c17.313324,22.4372711,37.2330627,56.1094208,37.2330627,56.1094208s-11.2619476-36.5839081-19.7050323-55.4928589
				l-14.7295227-5.0739746l0.4407654-10.3062134C154.5599518,195.1794739,132.7902527,170.3340302,120.0438461,176.9650116z"/>
			<path class="st6" d="M188.5537415,266.0525208c0,0-11.2619476-36.5839081-19.7050323-55.4928589l-14.7295227-5.0739746
				l0.4407654-10.3062134c0,0-7.3747101-8.4166565-16.0527039-14.1450195"/>
			<path class="st6" d="M114.4260941,187.9342651c-1.2822113,7.1938477-1.0604477,16.654953,0.1131973,25.1326752
				l10.3661423,4.5879822l-3.2047806,16.7054901c0,0,16.6972504,19.6396027,31.2156982,40.7670593"/>
		</g>
	</g>
</g>
<g id="RIGHT_ARM">
	<g>
		<g>
			<path class="st3" d="M106.1353226,212.45224c-3.0934601-4.2778473-9.4874649-4.1677704-12.4285278,0.2162628
				c-5.0322189,7.5011749-9.7309647,18.8983917-9.7275162,37.513443c0.0037918,20.4258118,2.8418274,62.9023743,7.831337,68.8123169
				c4.9895172,5.9099426,16.9380569,3.1603088,16.9380569,3.1603088s14.0096893-16.250885,14.9859238-21.308197
				c0.9762268-5.057312-1.7066727-7.9259644-1.7066727-7.9259644l-5.7525558-0.8223267
				c0,0,3.0731125-38.3861542,1.3391647-54.2691345C116.603447,228.5673676,110.7991028,218.9016418,106.1353226,212.45224z"/>
			<path class="st6" d="M116.2753677,292.0980835c0,0,3.0731125-38.3861542,1.3391647-54.2691345
				c-0.6693573-6.1313629-3.439476-12.4398651-6.5886688-17.8750153"/>
			<path class="st2" d="M118.124321,290.4542847l13.7345047,1.5836792c0,0,3.9923706,6.8841858-1.1625824,16.9935608
				c-5.1549454,10.109375-15.7290726,17.5238342-15.7290726,17.5238342s-13.8616714-0.2102966-13.6876907-0.4267883
				c0.1739731-0.2164917-3.2946777-8.0682068,0.7069626-19.6982422
				C105.9880905,294.800293,118.124321,290.4542847,118.124321,290.4542847z"/>
		</g>
		<g>
			<g>
				<path class="st1" d="M212.982254,289.9484863c0,0-0.7059937,5.0452576-1.342392,6.3046875
					c-0.6230316,1.2594299-3.5494232,3.7838135-3.5494232,3.7838135s0,2.041626-1.1003571,3.9373779
					c-1.1003418,1.8824463-3.1418915,3.6191101-3.1418915,3.6191101s-0.7953796,3.3142395-1.8957367,4.7194824
					c-1.1003418,1.4185181-10.8707275,4.0964355-14.6489258,4.8918152
					c-3.7782745,0.782196-11.1756897,0.0398254-11.1756897,0.0398254
					c-7.1587067-0.6496582-48.5204315,3.1816101-58.9536514,3.9902649c0,0-4.5736694-14.1186218,11.3612137-24.90979
					l47.101944,9.1075134c1.219696-3.2876892,3.8975525-10.3403931,4.7327423-11.5467529
					c1.1003571-1.5643921,7.8746338-5.9789124,10.5525665-11.1756897c2.6779327-5.1967163,5.8330994,3.7782898,1.1135406,8.1928711
					c-4.732666,4.4012451-2.2138824,4.87854-2.2138824,4.87854s12.766449-5.8330688,15.2853088-7.5564575
					c2.5187683-1.7366638,5.3557739-7.2516174,9.7570953-9.45224
					C219.2793121,276.5589905,212.982254,289.9484863,212.982254,289.9484863z"/>
			</g>
			<line class="st5" x1="211.4823608" y1="291.4491577" x2="202.2681122" y2="296.6469421"/>
			<line class="st5" x1="206.9146118" y1="300.1908875" x2="200.4567719" y2="303.1047668"/>
			<line class="st5" x1="202.5831299" y1="308.0662842" x2="198.2516479" y2="309.2476196"/>
		</g>
	</g>
</g>
<g id="HAIR">
	<g>
		<path class="st2" d="M108.0624542,134.9122925c0,0-4.3137589-10.7620316-12.5749359-13.7332764
			c-8.2611771-2.9712524-14.760498,5.2140732-16.9316788,15.6957855s4.820488,20.2541656,17.5599823,11.3504639
			C106.124115,141.2304077,108.0624542,134.9122925,108.0624542,134.9122925z"/>
		<path class="st2" d="M105.8332214,134.8740845c0,0-14.2819672,6.0065765-14.0500946,18.4979248
			c0.2318802,12.4913635,20.8222961,24.2397766,33.1328354,18.4070129s10.4652786-16.1603241,10.4652786-16.1603241
			s10.3171539,0.1076355,11.4930573-9.7298584c1.1759186-9.8374939-3.7141724-12.0973816-9.0665283-11.6124115
			c0,0,3.1670074-12.0563278-8.05159-14.301651C118.5375671,117.729454,109.3594208,122.9469452,105.8332214,134.8740845z"/>
		<path class="st4" d="M105.8332214,134.8740845c-0.005127,0.0021515-10.498909,4.4174652-13.3469925,13.5470886"/>
	</g>
</g>
<g id="NECK">
	<g>
		<path class="st1" d="M151.3160248,209.9446716c0.4075928,7.0203247-3.6742706,11.5186462-3.6742706,11.5186462
			c-7.6767426,1.9411316-16.245697-2.2094421-16.245697-2.2094421l-8.3056183-24.6957855
			c-2.3459549-6.69664-9.3486099-22.3601837-11.9214096-28.058548c-0.6031113-1.3287354-0.9611893-2.1146393-0.9611893-2.1146393
			l12.4137573-1.4244843c0,0,2.089447,5.3763733,4.61129,11.2950439c2.408699,5.6285095,5.2496567,11.7524261,7.0830002,14.1831665
			C138.0858612,193.4217834,151.3160248,209.9446716,151.3160248,209.9446716z"/>
		<path class="st2" d="M129.1424255,178.60112c-7.3629303,0.1790619-14.65168-8.3585358-17.9733963-12.1015778
			c-0.6031113-1.3287354-0.9611893-2.1146393-0.9611893-2.1146393l12.4137573-1.4244843
			C122.6215973,162.9604187,126.6205826,172.6824493,129.1424255,178.60112z"/>
	</g>
</g>
<g id="HEAD">
	<g>
		<path class="st1" d="M134.3197784,143.9743195c0,0,4.4805908,9.1040039,3.6354828,20.2774048
			c-0.8450928,11.1734161-9.8083649,11.4811401-18.3632812,6.8055267s-12.793396-18.0353241-12.793396-18.0353241
			s-2.940773-11.4612885,5.0300751-15.7767487C119.7995071,132.9297028,129.7007446,135.3216095,134.3197784,143.9743195z"/>
		<path class="st2" d="M112.5818176,140.8566589c0,0,10.9371567,10.5910492,26.2961121,5.90242
			c0,0-8.8117523-21.5425949-27.1298447-13.336853s-11.4367142,23.0409546-2.2636795,26.196991
			C109.4844055,159.6192169,115.2543945,154.0588226,112.5818176,140.8566589z"/>
		<g>
			<g>
				<path class="st1" d="M115.0911484,164.9286499l-3.7297592-6.7023315c0,0-4.185463-4.6391754-8.8173141-2.3759003
					S101.2882767,170.797348,115.0911484,164.9286499z"/>
				<path class="st5" d="M103.6216507,158.7036743c0,0,5.0710983-0.0015106,8.8457184,3.6348572"/>
				<path class="st5" d="M106.9924927,163.5787811c0,0-0.2440109-1.9748688,0.3313522-4.2216492"/>
			</g>
			<path class="st7" d="M110.9217529,164.1369629c1.984024,0.1996155,3.3185196,3.0832977,2.98069,6.4408722
				c-0.337822,3.3575592-2.2200546,5.9175873-4.204071,5.7179565c-1.984024-0.1996307-3.3185196-3.0832977-2.98069-6.4408722
				c0.1303558-1.2955627,0.490654-2.4723816,0.9980316-3.4177246"/>
		</g>
	</g>
</g>
<g id="FACE">
	<g>
		<path class="st2" d="M115.731041,151.8583221c0,0,1.1985016-4.8423462,4.8786087-3.9056396
			c0,0-0.1287155-1.011673,0.7333755-1.2245636c0.8620911-0.2128754,1.5459213,2.4802704,1.5459213,2.4802704
			S118.8384247,149.7566681,115.731041,151.8583221z"/>
		<path class="st2" d="M134.8169708,149.8357239c0,0-1.2464752-4.3885498-3.5424805-2.5897827
			c0,0-0.2465515-0.806488-0.8240814-0.7764435c-0.9989014,0.0519867-0.6335144,2.6494446-0.6335144,2.6494446
			S132.5980225,148.5592194,134.8169708,149.8357239z"/>
		<g>
			
				<ellipse transform="matrix(0.9828557 -0.1843765 0.1843765 0.9828557 -26.6745949 25.085886)" class="st2" cx="121.5543518" cy="155.9773865" rx="1.8728992" ry="2.3155844"/>
			<circle class="st8" cx="121.8086929" cy="155.0938263" r="0.4980209"/>
		</g>
		<g>
			
				<ellipse transform="matrix(0.9828557 -0.1843765 0.1843765 0.9828557 -26.1136169 27.0503731)" class="st2" cx="132.3982697" cy="153.9431458" rx="1.8728992" ry="2.3155844"/>
			<circle class="st8" cx="132.6526184" cy="153.0595856" r="0.4980209"/>
		</g>
		<path class="st5" d="M127.5170288,154.3682556l0.8688049,4.4450226c0,0,3.1905365-0.5722046,2.8192902,1.376297
			c-0.3646851,1.9140167-2.9633636,1.759903-2.9633636,1.759903"/>
		<path class="st5" d="M130.5013275,166.5435638c0,0-3.8563156,2.2303925-8.5817795-1.1225433"/>
	</g>
</g>
<g id="GEAR">
	<path class="st3" d="M420.9872742,253.530304c0.5782166-2.8742676,0.8714905-5.840683,0.8714905-8.8825531
		s-0.2932739-6.0166779-0.8714905-8.8909454h-12.578064c-0.7374268-2.6815491-1.8016663-5.2206421-3.1424255-7.5753632
		l8.8993225-8.8993378c-3.3267517-4.9692078-7.6004639-9.2428741-12.5696716-12.5612946l-8.8993225,8.8993378
		c-2.3547363-1.3491364-4.8938293-2.4049988-7.5753174-3.1424255v-12.5864563
		c-2.8743286-0.5782166-5.8407593-0.8714905-8.8826294-0.8714905c-3.0418396,0-6.0166626,0.2932739-8.8909302,0.8714905v12.5864563
		c-2.6731567,0.7374268-5.2038574,1.7932892-7.5669861,3.1424255l-8.9077148-8.8993378
		c-4.9692078,3.3184204-9.2428894,7.5920868-12.5612793,12.5612946l8.8993225,8.9077301
		c-1.3407593,2.3547058-2.4049988,4.8938141-3.1424255,7.5669708h-12.5863953
		c-0.5782166,2.8742676-0.8715515,5.8490753-0.8715515,8.8909454s0.293335,6.0082855,0.8715515,8.8825531h12.5863953
		c0.7374268,2.6815491,1.7932739,5.2206421,3.1424255,7.5753784l-8.8993225,8.8993225
		c3.3183899,4.9692078,7.5920715,9.2428894,12.5612793,12.5696716l8.9077148-8.8993225
		c2.3631287,1.3491211,4.8938293,2.4049988,7.5669861,3.1424255v12.5780029
		c2.8742676,0.5782166,5.8490906,0.8715515,8.8909302,0.8715515c3.0418701,0,6.0083008-0.293335,8.8826294-0.8715515v-12.5780029
		c2.681488-0.7374268,5.2205811-1.7933044,7.5753174-3.1424255l8.8993225,8.8993225
		c4.9692078-3.3184204,9.2429199-7.6004639,12.5696716-12.5612793l-8.8993225-8.8993835
		c1.3407593-2.3630676,2.4049988-4.9021606,3.1424255-7.5837097H420.9872742z M376.2391663,260.7033997
		c-8.8658142,0-16.0556335-7.1898193-16.0556335-16.0556488s7.1898193-16.0557098,16.0556335-16.0557098
		c8.8658447,0,16.0557251,7.1898804,16.0557251,16.0557098S385.105011,260.7033997,376.2391663,260.7033997z"/>
</g>
<g id="CLOUD">
	<g>
		<path class="st0" d="M457.2376099,135.2178345c-10.0673828,0-19.4918823,2.7310791-27.5947876,7.4749146
			c-0.0009766-0.0042114-0.0018311-0.0085449-0.0028076-0.0127563c-9.1300049-39.6000366-44.6099854-69.1300049-87-69.1300049
			c-49.0100098,0-88.7999878,39.5-89.2700195,88.4000244h-0.0100098v0.0005493c-0.0011597,0-0.0023804-0.000061-0.00354-0.000061
			c-22.835083,0-41.3465576,18.5114746-41.3465576,41.3464966c0,22.835083,18.5114746,41.3465576,41.3465576,41.3465576
			c0.0469971,0,0.0931396-0.0033569,0.1400757-0.00354h53.293457h71.7000122h78.6075439
			c0.046936,0.0001221,0.0930786,0.00354,0.1400757,0.00354c30.2171021,0,54.7128906-24.4957886,54.7128906-54.7128906
			C511.9505005,159.713623,487.4547119,135.2178345,457.2376099,135.2178345z"/>
		<g>
			<path class="st8" d="M467.9507141,186.5413971H391.5112c-2.9417725,0-5.3265381-2.3847504-5.3265381-5.3265076v-0.0000153
				c0-2.9417572,2.3847656-5.3265228,5.3265381-5.3265228h76.4395142c2.9417419,0,5.3265076,2.3847656,5.3265076,5.3265228
				v0.0000153C473.2772217,184.1566467,470.8924561,186.5413971,467.9507141,186.5413971z"/>
			<path class="st8" d="M372.734436,186.5413971L372.734436,186.5413971c-2.9417725,0-5.3265381-2.3847504-5.3265381-5.3265076
				v-0.0000153c0-2.9417572,2.3847656-5.3265228,5.3265381-5.3265228l0,0c2.9417725,0,5.3265381,2.3847656,5.3265381,5.3265228
				v0.0000153C378.0609741,184.1566467,375.6762085,186.5413971,372.734436,186.5413971z"/>
			<path class="st8" d="M467.9507141,211.2327881H391.5112c-2.9417725,0-5.3265381-2.3847656-5.3265381-5.3265228V205.90625
				c0-2.9417572,2.3847656-5.3265228,5.3265381-5.3265228h76.4395142c2.9417419,0,5.3265076,2.3847656,5.3265076,5.3265228
				v0.0000153C473.2772217,208.8480225,470.8924561,211.2327881,467.9507141,211.2327881z"/>
		</g>
	</g>
</g>
<g id="LINK4">
	<g>
		<polyline class="st5" points="308,262.1089172 288.6980286,281.4108887 288.6980286,309.1584167 		"/>
		<circle class="st0" cx="288.6980286" cy="314.2376099" r="5.0792079"/>
	</g>
</g>
<g id="LINK3">
	<g>
		<polyline class="st5" points="444.6534729,262.1089172 463.9554443,281.4108887 463.9554443,309.1584167 		"/>
		<circle class="st0" cx="463.9554443" cy="314.2376099" r="5.0792079"/>
	</g>
</g>
<g id="LINK2">
	<g>
		<polyline class="st5" points="465.8329163,123.3646545 485.1348877,104.0626755 485.1348877,86.4735641 		"/>
		<circle class="st0" cx="485.1348877" cy="81.3943558" r="5.0792079"/>
	</g>
</g>
<g id="LINK">
	<g>
		<polyline class="st5" points="244.2914581,131.1123962 224.9894714,111.8104172 224.9894714,94.2213058 		"/>
		<circle class="st0" cx="224.9894714" cy="89.1420975" r="5.0792079"/>
	</g>
</g>
<g id="LAPTOP">
	<g>
		<path class="st0" d="M343.8019714,361.9108887H302.715332c-2.411438,0-4.366333-1.9548645-4.366333-4.366333v-22.9901123
			c0-2.411438,1.954895-4.366333,4.366333-4.366333h41.0866394c2.4114685,0,4.366333,1.954895,4.366333,4.366333v22.9901123
			C348.1683044,359.9560242,346.2134399,361.9108887,343.8019714,361.9108887z"/>
		<path class="st2" d="M302.715332,357.9111328c-0.2021484,0-0.3662109-0.1640625-0.3662109-0.3662109v-22.9902344
			c0-0.2021484,0.1640625-0.3662109,0.3662109-0.3662109h41.0864258c0.2021484,0,0.3662109,0.1640625,0.3662109,0.3662109
			v22.9902344c0,0.2021484-0.1640625,0.3662109-0.3662109,0.3662109H302.715332z"/>
		<path class="st0" d="M294.3091736,363.9107666L294.3091736,363.9107666c0-1.1044922,0.8953857-1.9998779,1.9998779-1.9998779
			h53.8989868c1.1044922,0,1.9998779,0.8953857,1.9998779,1.9998779l0,0c0,1.1044922-0.8953857,1.9998779-1.9998779,1.9998779
			h-53.8989868C295.2045593,365.9106445,294.3091736,365.0152588,294.3091736,363.9107666z"/>
	</g>
</g>
<g id="CPU">
	<g>
		<path class="st2" d="M481.6943054,336.7282104v41.0866394c0,2.411438-1.9548645,4.366333-4.366333,4.366333h-22.9901123
			c-2.411438,0-4.366333-1.954895-4.366333-4.366333v-41.0866394c0-2.4114685,1.954895-4.366333,4.366333-4.366333h22.9901123
			C479.7394409,332.3618774,481.6943054,334.3167419,481.6943054,336.7282104z"/>
		<g>
			<path class="st0" d="M477.193512,341.9647217L477.193512,341.9647217c0,1.3997803-1.1347351,2.5345154-2.5345154,2.5345154
				h-17.6521301c-1.3997803,0-2.5345459-1.1347351-2.5345459-2.5345154l0,0c0-1.3998108,1.1347656-2.5345459,2.5345459-2.5345459
				h17.6521301C476.0587769,339.4301758,477.193512,340.5649109,477.193512,341.9647217z"/>
			<path class="st0" d="M477.193512,350.8756104L477.193512,350.8756104c0,1.3997803-1.1347351,2.5345154-2.5345154,2.5345154
				h-17.6521301c-1.3997803,0-2.5345459-1.1347351-2.5345459-2.5345154l0,0c0-1.3997803,1.1347656-2.5345459,2.5345459-2.5345459
				h17.6521301C476.0587769,348.3410645,477.193512,349.4758301,477.193512,350.8756104z"/>
		</g>
		<circle class="st0" cx="465.8329163" cy="370.89151" r="3.0903783"/>
	</g>
</g>
<g id="PHONE">
	<g>
		<path class="st0" d="M502.056488,24.0815582V65.16819c0,2.4114609-1.9548645,4.3663406-4.366333,4.3663406h-22.9901123
			c-2.411438,0-4.366333-1.9548798-4.366333-4.3663406V24.0815582c0-2.4114609,1.954895-4.3663368,4.366333-4.3663368h22.9901123
			C500.1016235,19.7152214,502.056488,21.6700974,502.056488,24.0815582z"/>
		<path class="st8" d="M474.3339844,58.5743828V24.081543c0-0.2022533,0.1639709-0.3662109,0.3662109-0.3662109h22.9902344
			c0.20224,0,0.3662109,0.1639576,0.3662109,0.3662109v34.4928398c0,0.2022514-0.1639709,0.3662109-0.3662109,0.3662109h-22.9902344
			C474.4979553,58.9405937,474.3339844,58.7766342,474.3339844,58.5743828z"/>
		<circle class="st8" cx="486.1950989" cy="64.425621" r="3.0903783"/>
	</g>
</g>
<g id="ORNAMENT_7">
	<g>
		<path class="st0" d="M236.3286133,73.1352615h-19.4851532c-2.4922485,0-4.512619-2.0203705-4.512619-4.512619V49.1374931
			c0-2.4922523,2.0203705-4.512619,4.512619-4.512619h19.4851532c2.4922485,0,4.512619,2.0203667,4.512619,4.512619v19.4851494
			C240.8412323,71.1148911,238.8208618,73.1352615,236.3286133,73.1352615z"/>
		<g>
			<path class="st0" d="M270.6652527,56.2650948h-19.4851532c-2.4922485,0-4.512619-2.0203705-4.512619-4.512619v-0.0000076
				c0-2.4922523,2.0203705-4.512619,4.512619-4.512619h19.4851532c2.4922485,0,4.5126038,2.0203667,4.5126038,4.512619v0.0000076
				C275.1778564,54.2447243,273.1575012,56.2650948,270.6652527,56.2650948z"/>
			<path class="st0" d="M260.3330688,70.5202866h-9.1529694c-2.4922485,0-4.512619-2.0203705-4.512619-4.512619v-0.0000076
				c0-2.4922523,2.0203705-4.512619,4.512619-4.512619h9.1529694c2.4922485,0,4.5126343,2.0203667,4.5126343,4.512619v0.0000076
				C264.8457031,68.4999161,262.8253174,70.5202866,260.3330688,70.5202866z"/>
		</g>
	</g>
</g>
<g id="ORNAMENT_6">
	<circle class="st4" cx="489.2854919" cy="290.267334" r="3.5614893"/>
</g>
<g id="ORNAMENT_5">
	<circle class="st4" cx="322.0262451" cy="42.4544563" r="3.5614893"/>
</g>
<g id="ORNAMENT_4">
	<circle class="st0" cx="442.684845" cy="92.2079239" r="2.5527711"/>
</g>
<g id="ORNAMENT_3">
	<g>
		<g>
			<line class="st4" x1="213.8214722" y1="111.4577942" x2="209.4806366" y2="111.4577942"/>
			<line class="st4" x1="201.7403412" y1="111.4577942" x2="206.0811768" y2="111.4577942"/>
		</g>
		<g>
			<line class="st4" x1="207.7809143" y1="117.4983597" x2="207.7809143" y2="113.1575165"/>
			<line class="st4" x1="207.7809143" y1="105.4172287" x2="207.7809143" y2="109.7580643"/>
		</g>
	</g>
</g>
<g id="ORNAMENT_2">
	<g>
		<g>
			<line class="st4" x1="403.2781982" y1="50.0440674" x2="398.9373474" y2="50.0440674"/>
			<line class="st4" x1="391.197052" y1="50.0440674" x2="395.5379028" y2="50.0440674"/>
		</g>
		<g>
			<line class="st4" x1="397.2376099" y1="56.0846329" x2="397.2376099" y2="51.7437935"/>
			<line class="st4" x1="397.2376099" y1="44.0035019" x2="397.2376099" y2="48.3443413"/>
		</g>
	</g>
</g>
<g id="ORNAMENT_1">
	<g>
		<g>
			<line class="st4" x1="527.9306641" y1="244.6477203" x2="522.8812866" y2="244.6477203"/>
			<line class="st4" x1="513.8774414" y1="244.6477203" x2="518.9268799" y2="244.6477203"/>
		</g>
		<g>
			<line class="st4" x1="520.9040527" y1="251.6743317" x2="520.9040527" y2="246.6249084"/>
			<line class="st4" x1="520.9040527" y1="237.621109" x2="520.9040527" y2="242.6705322"/>
		</g>
	</g>
</g>
</svg>
