<svg id="Component_51_1" data-name="Component 51 – 1" xmlns="http://www.w3.org/2000/svg" width="461.064" height="345.02" viewBox="0 0 461.064 345.02">
  <text id="_02" data-name="02" transform="translate(0 145.02)" fill="#ff2d26" font-size="150" font-family="PlayfairDisplay-Regular, Playfair Display"><tspan x="0" y="162">02</tspan></text>
  <g id="Meeting_Deadlines_2_" data-name="Meeting Deadlines (2)" transform="translate(100.294 -22.267)">
    <g id="PLANT" transform="translate(31.432 237.982)">
      <g id="Group_3286" data-name="Group 3286">
        <g id="Group_3278" data-name="Group 3278" transform="translate(22.299)">
          <g id="Group_3277" data-name="Group 3277">
            <path id="Path_2588" data-name="Path 2588" d="M109.565,311.671s-61.257-26.19-58.954-96.445C50.611,215.227,115.194,237.231,109.565,311.671Z" transform="translate(-50.548 -215.227)" fill="#ff2d26"/>
            <g id="Group_3276" data-name="Group 3276" transform="translate(2.306 26.078)">
              <path id="Path_2589" data-name="Path 2589" d="M75.479,245.242a32.576,32.576,0,0,1-22.868-6.689,96.77,96.77,0,0,0,4.959,16.17,33.317,33.317,0,0,0,17.1,1.725c11.266-1.653,19.906-.065,26.174,2.36a86.42,86.42,0,0,0-4.788-8.739A34.734,34.734,0,0,0,75.479,245.242Z" transform="translate(-52.61 -238.553)" fill="#ecbdbb"/>
              <path id="Path_2590" data-name="Path 2590" d="M86.756,266.687a32.655,32.655,0,0,1-24.185-2.495,101.2,101.2,0,0,0,11.281,15.565,34.016,34.016,0,0,0,14.224-1.913,55.676,55.676,0,0,1,18.039-3.3c-.633-2.829-1.381-5.546-2.226-8.157A33.846,33.846,0,0,0,86.756,266.687Z" transform="translate(-51.436 -235.53)" fill="#ecbdbb"/>
            </g>
          </g>
          <line id="Line_137" data-name="Line 137" x2="52.832" y2="85.021" transform="translate(3.971 6.744)" fill="none" stroke="#ecbdbb" stroke-linecap="round" stroke-linejoin="round" stroke-miterlimit="10" stroke-width="0.577"/>
        </g>
        <g id="Group_3279" data-name="Group 3279" transform="translate(0 51.518)">
          <path id="Path_2591" data-name="Path 2591" d="M106.037,306.383S80.563,254.022,30.6,262.171C30.6,262.171,40.143,308.677,106.037,306.383Z" transform="translate(-30.601 -261.31)" fill="#9ab3da"/>
          <path id="Path_2592" data-name="Path 2592" d="M39.824,267.324c.468.063,59.075,35.7,59.075,35.7" transform="translate(-29.513 -260.601)" fill="none" stroke="#6b81be" stroke-linecap="round" stroke-linejoin="round" stroke-miterlimit="10" stroke-width="0.577"/>
        </g>
        <g id="Group_3280" data-name="Group 3280" transform="translate(83.693 30.125)">
          <path id="Path_2593" data-name="Path 2593" d="M110.595,308.723s32.847-31.367,14.92-66.549C125.515,242.174,93.232,260.314,110.595,308.723Z" transform="translate(-105.465 -242.174)" fill="#9ab3da"/>
          <path id="Path_2594" data-name="Path 2594" d="M123.013,250.271c.064.363-12.487,52.372-12.487,52.372" transform="translate(-104.868 -241.219)" fill="none" stroke="#6b81be" stroke-linecap="round" stroke-linejoin="round" stroke-miterlimit="10" stroke-width="0.577"/>
        </g>
        <g id="Group_3283" data-name="Group 3283" transform="translate(252.168 14.091)">
          <g id="Group_3282" data-name="Group 3282">
            <path id="Path_2595" data-name="Path 2595" d="M256.168,310.428s65.276-13.318,77.169-82.6C333.337,227.831,265.646,236.379,256.168,310.428Z" transform="translate(-256.168 -227.831)" fill="#ff2d26"/>
            <g id="Group_3281" data-name="Group 3281" transform="translate(8.304 25.092)">
              <path id="Path_2596" data-name="Path 2596" d="M300.2,252.222a32.576,32.576,0,0,0,23.747-1.946,96.771,96.771,0,0,1-8.113,14.84,33.317,33.317,0,0,1-17.1-1.755c-10.7-3.888-19.485-4.073-26.113-2.959a86.426,86.426,0,0,1,6.45-7.6A34.731,34.731,0,0,1,300.2,252.222Z" transform="translate(-262.532 -250.276)" fill="#ecbdbb"/>
              <path id="Path_2597" data-name="Path 2597" d="M284.143,271.609a32.655,32.655,0,0,0,24.192,2.427A101.2,101.2,0,0,1,294.15,287.01a34.015,34.015,0,0,1-13.547-4.738,55.678,55.678,0,0,0-17.006-6.861q1.784-3.966,3.823-7.542A33.847,33.847,0,0,1,284.143,271.609Z" transform="translate(-263.596 -248.203)" fill="#ecbdbb"/>
            </g>
          </g>
          <line id="Line_138" data-name="Line 138" x1="68.871" y2="72.639" transform="translate(3.112 5.818)" fill="none" stroke="#ecbdbb" stroke-linecap="round" stroke-linejoin="round" stroke-miterlimit="10" stroke-width="0.577"/>
        </g>
        <g id="Group_3285" data-name="Group 3285" transform="translate(248.747 20.103)">
          <g id="Group_3284" data-name="Group 3284">
            <path id="Path_2598" data-name="Path 2598" d="M253.108,271.143s1.323-31.241,27.67-37.934C280.778,233.209,286.045,258.153,253.108,271.143Z" transform="translate(-253.108 -233.209)" fill="#9ab3da"/>
          </g>
        </g>
      </g>
    </g>
    <g id="ORNAMENT_10" transform="translate(322.552 158.979)">
      <g id="Group_3287" data-name="Group 3287">
        <line id="Line_139" data-name="Line 139" y2="3.412" transform="translate(5.233)" fill="none" stroke="#6b81be" stroke-linecap="round" stroke-linejoin="round" stroke-miterlimit="10" stroke-width="0.577"/>
        <line id="Line_140" data-name="Line 140" y2="3.412" transform="translate(5.233 7.054)" fill="none" stroke="#6b81be" stroke-linecap="round" stroke-linejoin="round" stroke-miterlimit="10" stroke-width="0.577"/>
        <line id="Line_141" data-name="Line 141" x1="3.411" transform="translate(7.054 5.233)" fill="none" stroke="#6b81be" stroke-linecap="round" stroke-linejoin="round" stroke-miterlimit="10" stroke-width="0.577"/>
        <line id="Line_142" data-name="Line 142" x1="3.411" transform="translate(0 5.233)" fill="none" stroke="#6b81be" stroke-linecap="round" stroke-linejoin="round" stroke-miterlimit="10" stroke-width="0.577"/>
      </g>
    </g>
    <g id="ORNAMENT_9" transform="translate(210.419 22.966)">
      <g id="Group_3288" data-name="Group 3288">
        <line id="Line_143" data-name="Line 143" y2="1.706" transform="translate(2.616)" fill="none" stroke="#6b81be" stroke-linecap="round" stroke-linejoin="round" stroke-miterlimit="10" stroke-width="0.577"/>
        <line id="Line_144" data-name="Line 144" y2="1.706" transform="translate(2.616 3.527)" fill="none" stroke="#6b81be" stroke-linecap="round" stroke-linejoin="round" stroke-miterlimit="10" stroke-width="0.577"/>
        <line id="Line_145" data-name="Line 145" x1="1.706" transform="translate(3.527 2.616)" fill="none" stroke="#6b81be" stroke-linecap="round" stroke-linejoin="round" stroke-miterlimit="10" stroke-width="0.577"/>
        <line id="Line_146" data-name="Line 146" x1="1.706" transform="translate(0 2.616)" fill="none" stroke="#6b81be" stroke-linecap="round" stroke-linejoin="round" stroke-miterlimit="10" stroke-width="0.577"/>
      </g>
    </g>
    <g id="ORNAMENT_8" transform="translate(28.35 171.579)">
      <g id="Group_3289" data-name="Group 3289">
        <line id="Line_147" data-name="Line 147" y2="4.546" transform="translate(6.973)" fill="none" stroke="#6b81be" stroke-linecap="round" stroke-linejoin="round" stroke-miterlimit="10" stroke-width="0.577"/>
        <line id="Line_148" data-name="Line 148" y2="4.546" transform="translate(6.973 9.399)" fill="none" stroke="#6b81be" stroke-linecap="round" stroke-linejoin="round" stroke-miterlimit="10" stroke-width="0.577"/>
        <line id="Line_149" data-name="Line 149" x1="4.546" transform="translate(9.399 6.973)" fill="none" stroke="#6b81be" stroke-linecap="round" stroke-linejoin="round" stroke-miterlimit="10" stroke-width="0.577"/>
        <line id="Line_150" data-name="Line 150" x1="4.546" transform="translate(0 6.973)" fill="none" stroke="#6b81be" stroke-linecap="round" stroke-linejoin="round" stroke-miterlimit="10" stroke-width="0.577"/>
      </g>
    </g>
    <g id="ORNAMENT_7" transform="translate(35.979 33.114)">
      <g id="Group_3290" data-name="Group 3290">
        <line id="Line_151" data-name="Line 151" y2="2.148" transform="translate(3.294)" fill="none" stroke="#6b81be" stroke-linecap="round" stroke-linejoin="round" stroke-miterlimit="10" stroke-width="0.577"/>
        <line id="Line_152" data-name="Line 152" y2="2.148" transform="translate(3.294 4.44)" fill="none" stroke="#6b81be" stroke-linecap="round" stroke-linejoin="round" stroke-miterlimit="10" stroke-width="0.577"/>
        <line id="Line_153" data-name="Line 153" x1="2.148" transform="translate(4.44 3.294)" fill="none" stroke="#6b81be" stroke-linecap="round" stroke-linejoin="round" stroke-miterlimit="10" stroke-width="0.577"/>
        <line id="Line_154" data-name="Line 154" x1="2.148" transform="translate(0 3.294)" fill="none" stroke="#6b81be" stroke-linecap="round" stroke-linejoin="round" stroke-miterlimit="10" stroke-width="0.577"/>
      </g>
    </g>
    <g id="ORNAMENT_6" transform="translate(65.623 216.565)">
      <g id="Group_3291" data-name="Group 3291">
        <line id="Line_155" data-name="Line 155" y2="2.3" transform="translate(3.527)" fill="none" stroke="#6b81be" stroke-linecap="round" stroke-linejoin="round" stroke-miterlimit="10" stroke-width="0.577"/>
        <line id="Line_156" data-name="Line 156" y2="2.299" transform="translate(3.527 4.755)" fill="none" stroke="#6b81be" stroke-linecap="round" stroke-linejoin="round" stroke-miterlimit="10" stroke-width="0.577"/>
        <line id="Line_157" data-name="Line 157" x1="2.299" transform="translate(4.755 3.527)" fill="none" stroke="#6b81be" stroke-linecap="round" stroke-linejoin="round" stroke-miterlimit="10" stroke-width="0.577"/>
        <line id="Line_158" data-name="Line 158" x1="2.3" transform="translate(0 3.527)" fill="none" stroke="#6b81be" stroke-linecap="round" stroke-linejoin="round" stroke-miterlimit="10" stroke-width="0.577"/>
      </g>
    </g>
    <g id="ORNAMENT_5" transform="translate(116.725 66.712)">
      <g id="Group_3292" data-name="Group 3292">
        <line id="Line_159" data-name="Line 159" y2="2.856" transform="translate(4.38)" fill="none" stroke="#6b81be" stroke-linecap="round" stroke-linejoin="round" stroke-miterlimit="10" stroke-width="0.577"/>
        <line id="Line_160" data-name="Line 160" y2="2.855" transform="translate(4.38 5.904)" fill="none" stroke="#6b81be" stroke-linecap="round" stroke-linejoin="round" stroke-miterlimit="10" stroke-width="0.577"/>
        <line id="Line_161" data-name="Line 161" x1="2.856" transform="translate(5.904 4.38)" fill="none" stroke="#6b81be" stroke-linecap="round" stroke-linejoin="round" stroke-miterlimit="10" stroke-width="0.577"/>
        <line id="Line_162" data-name="Line 162" x1="2.856" transform="translate(0 4.38)" fill="none" stroke="#6b81be" stroke-linecap="round" stroke-linejoin="round" stroke-miterlimit="10" stroke-width="0.577"/>
      </g>
    </g>
    <g id="ORNAMENT_4" transform="translate(31.867 71.359)">
      <circle id="Ellipse_1023" data-name="Ellipse 1023" cx="4.112" cy="4.112" r="4.112" fill="none" stroke="#6b81be" stroke-linecap="round" stroke-linejoin="round" stroke-miterlimit="10" stroke-width="0.577"/>
    </g>
    <g id="ORNAMENT_3" transform="translate(268.578 90.768)">
      <circle id="Ellipse_1024" data-name="Ellipse 1024" cx="2.003" cy="2.003" r="2.003" transform="translate(0 0)" fill="none" stroke="#6b81be" stroke-linecap="round" stroke-linejoin="round" stroke-miterlimit="10" stroke-width="0.577"/>
    </g>
    <g id="ORNAMENT_2" transform="translate(71.062 37.773)">
      <circle id="Ellipse_1025" data-name="Ellipse 1025" cx="1.98" cy="1.98" r="1.98" transform="translate(0)" fill="#e9f3ff"/>
    </g>
    <g id="ORNAMENT_1" transform="translate(320.132 114.887)">
      <circle id="Ellipse_1026" data-name="Ellipse 1026" cx="3.319" cy="3.319" r="3.319" fill="#e9f3ff"/>
    </g>
    <g id="TEAM_3" transform="translate(93.854 220.092)">
      <g id="Group_3294" data-name="Group 3294" transform="translate(0)">
        <path id="Path_2599" data-name="Path 2599" d="M122.617,204.746v17.012a5.522,5.522,0,0,1-5.522,5.522h-9.722l-2.074,4.247a.858.858,0,0,1-1.542,0l-2.074-4.247H91.954a5.519,5.519,0,0,1-5.516-5.522V204.746a5.519,5.519,0,0,1,5.516-5.522h25.141A5.522,5.522,0,0,1,122.617,204.746Z" transform="translate(-86.438 -199.224)" fill="#5222d0"/>
        <g id="Group_3293" data-name="Group 3293" transform="translate(10.001 4.592)">
          <circle id="Ellipse_1027" data-name="Ellipse 1027" cx="4.685" cy="4.685" r="4.685" transform="translate(3.405)" fill="#fff"/>
          <path id="Path_2600" data-name="Path 2600" d="M111.557,221.729H95.384a8.087,8.087,0,1,1,16.173,0Z" transform="translate(-95.384 -202.116)" fill="#fff"/>
        </g>
      </g>
    </g>
    <g id="TEAM_2" transform="translate(279.543 33.144)">
      <g id="Group_3296" data-name="Group 3296">
        <path id="Path_2601" data-name="Path 2601" d="M297.438,38.85V59.963a6.853,6.853,0,0,1-6.853,6.853H278.519l-2.76,5.651a.858.858,0,0,1-1.542,0l-2.76-5.651H259.384a6.849,6.849,0,0,1-6.845-6.853V38.85A6.849,6.849,0,0,1,259.384,32h31.2A6.853,6.853,0,0,1,297.438,38.85Z" transform="translate(-252.538 -31.997)" fill="#5222d0"/>
        <g id="Group_3295" data-name="Group 3295" transform="translate(12.412 5.699)">
          <circle id="Ellipse_1028" data-name="Ellipse 1028" cx="5.814" cy="5.814" r="5.814" transform="translate(4.225)" fill="#fff"/>
          <path id="Path_2602" data-name="Path 2602" d="M283.713,59.926H263.641a10.036,10.036,0,1,1,20.072,0Z" transform="translate(-263.641 -35.586)" fill="#fff"/>
        </g>
      </g>
    </g>
    <g id="TEAM_1" transform="translate(258.382 122.756)">
      <g id="Group_3298" data-name="Group 3298" transform="translate(0 0)">
        <path id="Path_2603" data-name="Path 2603" d="M267.432,117.318v15.9a5.163,5.163,0,0,1-5.163,5.163h-9.089l-1.889,3.867a.858.858,0,0,1-1.542,0l-1.889-3.867h-9.095a5.157,5.157,0,0,1-5.157-5.157V117.312a5.157,5.157,0,0,1,5.157-5.157h23.5A5.162,5.162,0,0,1,267.432,117.318Z" transform="translate(-233.61 -112.156)" fill="#5222d0"/>
        <g id="Group_3297" data-name="Group 3297" transform="translate(9.35 4.293)">
          <circle id="Ellipse_1029" data-name="Ellipse 1029" cx="4.38" cy="4.38" r="4.38" transform="translate(3.182)" fill="#fff"/>
          <path id="Path_2604" data-name="Path 2604" d="M257.093,133.194h-15.12a7.56,7.56,0,1,1,15.12,0Z" transform="translate(-241.974 -114.859)" fill="#fff"/>
        </g>
      </g>
    </g>
    <g id="HOURGLASS" transform="translate(23.551 22.267)">
      <g id="Group_3303" data-name="Group 3303">
        <g id="Group_3299" data-name="Group 3299">
          <path id="Path_2605" data-name="Path 2605" d="M147.634,23.772l10.952,13.212L35.37,139.118,24.418,125.906c-5.695-6.87,17.272-35.3,51.3-63.507S141.939,16.9,147.634,23.772Z" transform="translate(-23.551 -22.267)" fill="#9ab3da"/>
          <ellipse id="Ellipse_1030" data-name="Ellipse 1030" cx="80.02" cy="16.159" rx="80.02" ry="16.159" transform="translate(1.509 104.412) rotate(-39.655)" fill="#6b81be"/>
          <path id="Path_2606" data-name="Path 2606" d="M151.8,39.15c-.819,2.712-3.871,8.757-12.5,18.933-9.377,11.063-22.648,23.879-37.375,36.086S72.142,117.04,59.531,124.2c-11.6,6.589-18.105,8.467-20.923,8.768.821-2.71,3.873-8.754,12.5-18.93.009-.012.017-.018.025-.03,9.374-11.056,22.637-23.86,37.35-36.055S118.238,55.1,130.841,47.94c.013-.006.021-.013.034-.019C142.475,41.332,148.98,39.454,151.8,39.15Z" transform="translate(-21.776 -20.276)" fill="#404b7c"/>
          <path id="Path_2607" data-name="Path 2607" d="M129.519,47.013C120.146,58.069,106.88,70.87,92.167,83.066s-29.753,22.857-42.355,30.017c9.374-11.056,22.637-23.86,37.35-36.055S116.917,54.173,129.519,47.013Z" transform="translate(-20.454 -19.348)" fill="none" stroke="#9ab3da" stroke-linecap="round" stroke-linejoin="round" stroke-miterlimit="10" stroke-width="0.577"/>
        </g>
        <path id="Path_2608" data-name="Path 2608" d="M172.23,178.988c-59.676,49.466-133.621-46.018-133.621-46.018.821-2.71,3.873-8.754,12.5-18.93.009-.012.017-.018.025-.03,9.374-11.056,22.637-23.86,37.35-36.055S118.238,55.1,130.841,47.94c.013-.006.021-.013.034-.019,11.6-6.589,18.105-8.467,20.92-8.771C151.8,39.15,231.906,129.523,172.23,178.988Z" transform="translate(-21.776 -20.276)" fill="#9ab3da" opacity="0.5"/>
        <g id="Group_3300" data-name="Group 3300" transform="translate(39.285 118.392)">
          <path id="Path_2609" data-name="Path 2609" d="M181.568,133.71c0,.013-.006.026-.006.039-2.381,10.812-8.161,19.922-17.541,27.7-11.432,9.477-23.818,13.335-37.875,11.793-26.276-2.884-51.842-23.979-67.422-39.521l-.013-.013C60.039,133.452,123.952,121.375,181.568,133.71Z" transform="translate(-58.69 -128.169)" fill="#ff2d26"/>
          <path id="Path_2610" data-name="Path 2610" d="M181.66,133.729l-.1.019c-2.671.49-60.236,10.812-122.839-.032-.013,0-.019-.006-.032-.006a.05.05,0,0,0,.019-.006c1.329-.252,65.242-12.328,122.858.006Z" transform="translate(-58.692 -128.169)" fill="#ecbdbb"/>
        </g>
        <path id="Path_2611" data-name="Path 2611" d="M156.742,161.246c59.676-49.466,133.621,46.018,133.621,46.018-.821,2.71-3.873,8.754-12.5,18.93-.009.012-.017.018-.025.03-9.374,11.056-22.637,23.86-37.35,36.056s-29.755,22.854-42.358,30.014c-.013.006-.021.013-.034.019-11.6,6.589-18.105,8.467-20.92,8.771C177.177,301.083,97.066,210.711,156.742,161.246Z" transform="translate(-10.45 -7.554)" fill="#9ab3da" opacity="0.5"/>
        <g id="Group_3301" data-name="Group 3301" transform="translate(140.244 161.554)">
          <path id="Path_2612" data-name="Path 2612" d="M277.584,203.7a93.8,93.8,0,0,1-8.683,11.67c-.026.019-.174.2-.174.2-9.032,10.625-21.838,22.967-36.076,34.766-14.212,11.786-28.689,22.057-40.791,28.966l-.135.065-.252.155a92.817,92.817,0,0,1-12.986,6.316,227.752,227.752,0,0,1-19.1-28.057c-.194-.342-.394-.69-.587-1.032-.026-.039-.052-.084-.077-.129-11.87-21.709-7.645-67.022,3.251-68.048a.7.7,0,0,0,.077-.006c11.077-.968,24.063,13.78,65.6,9.9,26.005-2.432,41.3,1.213,49.114,4.29h.006C277.049,203.085,277.326,203.4,277.584,203.7Z" transform="translate(-148.697 -164.214)" fill="#ff2d26"/>
          <path id="Path_2613" data-name="Path 2613" d="M276.689,203.7c-36.366-5.129-51.63,14.638-79.86,15.457s-43.2-27.037-35.753-30.586a.7.7,0,0,0,.077-.006c11.077-.968,24.063,13.78,65.6,9.9,26.005-2.432,41.3,1.213,49.114,4.29h.006C276.154,203.085,276.431,203.4,276.689,203.7Z" transform="translate(-147.801 -164.214)" fill="#ecbdbb"/>
          <path id="Path_2614" data-name="Path 2614" d="M153.36,166.877c-7.278,1.571-4.895,21.913,3.108,20.125S161.075,165.212,153.36,166.877Z" transform="translate(-149.001 -166.778)" fill="#ecbdbb"/>
          <path id="Path_2615" data-name="Path 2615" d="M182.246,178.387c-4.042,1.038-2.718,14.483,1.726,13.3S186.531,177.286,182.246,178.387Z" transform="translate(-145.366 -165.417)" fill="#ecbdbb"/>
        </g>
        <g id="Group_3302" data-name="Group 3302" transform="translate(160.845 194.045)">
          <path id="Path_2616" data-name="Path 2616" d="M291.511,197.348l10.952,13.212L179.247,312.694,168.3,299.482c-5.695-6.87,17.272-35.3,51.3-63.507S285.816,190.477,291.511,197.348Z" transform="translate(-167.429 -195.842)" fill="#9ab3da"/>
          <ellipse id="Ellipse_1031" data-name="Ellipse 1031" cx="80.02" cy="16.159" rx="80.02" ry="16.159" transform="translate(1.509 104.412) rotate(-39.655)" fill="#6b81be"/>
          <path id="Path_2617" data-name="Path 2617" d="M295.672,212.726c-.819,2.712-3.871,8.757-12.5,18.933-9.377,11.063-22.649,23.879-37.375,36.086s-29.782,22.871-42.392,30.033c-11.6,6.589-18.105,8.467-20.923,8.768.821-2.71,3.873-8.754,12.5-18.93.009-.012.017-.018.025-.03,9.374-11.056,22.637-23.86,37.35-36.055s29.755-22.854,42.358-30.014c.013-.006.021-.013.034-.019C286.352,214.908,292.858,213.03,295.672,212.726Z" transform="translate(-165.653 -193.851)" fill="none" stroke="#9ab3da" stroke-linecap="round" stroke-linejoin="round" stroke-miterlimit="10" stroke-width="0.577"/>
          <path id="Path_2618" data-name="Path 2618" d="M240.829,262.208c-16.029,13.286-32.375,24.874-46.027,32.627q-1,.568-1.943,1.087.676-.819,1.408-1.682l.086-.1c10.142-11.955,24.534-25.838,40.533-39.1,15.942-13.214,32.2-24.748,45.8-32.5l.113-.055.2-.125q.954-.541,1.858-1.039-.686.831-1.429,1.707C271.275,235.009,256.857,248.922,240.829,262.208Z" transform="translate(-164.43 -192.837)" fill="none" stroke="#9ab3da" stroke-linecap="round" stroke-linejoin="round" stroke-miterlimit="10" stroke-width="0.577"/>
        </g>
      </g>
    </g>
    <g id="RIGHT_LEG" transform="translate(207.451 105.598)">
      <g id="Group_3305" data-name="Group 3305" transform="translate(0 0)">
        <path id="Path_2619" data-name="Path 2619" d="M234.174,188.1c-6.437-22.073,14.715-22.76,14.715-22.76C252.115,184.271,234.174,188.1,234.174,188.1Z" transform="translate(-182.756 -88.725)" fill="#39a199"/>
        <path id="Path_2620" data-name="Path 2620" d="M231.99,171.567,245.327,181l4.283-6.382-11.842-9.428S232.45,165.244,231.99,171.567Z" transform="translate(-182.87 -88.744)" fill="#fff"/>
        <g id="Group_3304" data-name="Group 3304" transform="translate(58.135 82.955)">
          <path id="Path_2621" data-name="Path 2621" d="M260.656,185.856l-6-8.516-6.211,1.188,3.722,7.329Z" transform="translate(-239.064 -170.266)" fill="#39a199"/>
          <path id="Path_2622" data-name="Path 2622" d="M256.474,183.011l-7.038-3.735,3.722,7.329h8.49c-2.058,8.741-5.29,21.283-9.219,22.909a6.686,6.686,0,0,1-3.432.542c-3.174-.426-4.974-3.645-5.077-6.522-.232-6.438-2.529-14.941-3.568-21.612-1.006-6.522.484-10.645,5.2-10.909a43.474,43.474,0,0,1,14.227,5.827,5.353,5.353,0,0,1,2.135,5.653l-.189.8Z" transform="translate(-240.054 -171.012)" fill="#66fcf1"/>
          <path id="Path_2623" data-name="Path 2623" d="M260.279,181.25c-.1.432-.2.851-.286,1.213l-5.251-.284.508-2.126a2.585,2.585,0,0,1,2.765-1.971h0A2.585,2.585,0,0,1,260.279,181.25Z" transform="translate(-238.322 -170.18)" fill="none" stroke="#9ab3da" stroke-linecap="round" stroke-linejoin="round" stroke-miterlimit="10" stroke-width="0.577"/>
          <path id="Path_2624" data-name="Path 2624" d="M246.635,207.374c-2.915-2.775-.7-8.942,2.183-14.223a76.161,76.161,0,0,0,3.722-8.193h7.342" transform="translate(-239.439 -169.367)" fill="none" stroke="#9ab3da" stroke-linecap="round" stroke-linejoin="round" stroke-miterlimit="10" stroke-width="0.577"/>
          <path id="Path_2625" data-name="Path 2625" d="M255.485,182.14l-7.041-3.738,3.722,7.329h7.572" transform="translate(-239.064 -170.14)" fill="none" stroke="#9ab3da" stroke-linecap="round" stroke-linejoin="round" stroke-miterlimit="10" stroke-width="0.577"/>
        </g>
        <path id="Path_2626" data-name="Path 2626" d="M239.468,196.186s-25.521-19.315-30.121-25.521c-2.226-3.013-6.961-14.709-11.387-26.941-1.368-3.768-2.709-7.587-3.929-11.219-3-8.877-5.342-16.631-5.838-19.786-1.148-7.361,4.826-15.18,13.335-15.87s12.877,7.361,15.638,13.109,7.9,45.862,7.9,45.862l29.121,17.606S235.945,177.638,239.468,196.186Z" transform="translate(-188.052 -96.807)" fill="#66fcf1"/>
        <path id="Path_2627" data-name="Path 2627" d="M201.349,123.171c-.1.464-2.9,12.586-4.019,17.444-1.368-3.768-2.709-7.587-3.929-11.219Z" transform="translate(-187.421 -93.698)" fill="#39a199"/>
        <path id="Path_2628" data-name="Path 2628" d="M201.754,107.1a54.418,54.418,0,0,1,1.558,10.227l7.18,1.082,4.961-2.756a31.26,31.26,0,0,0-1.819-9.508S208.959,103.265,201.754,107.1Z" transform="translate(-186.436 -95.829)" fill="#39a199"/>
        <path id="Path_2629" data-name="Path 2629" d="M198.943,118.923l15.637,42.31,20.542,14.487" transform="translate(-186.767 -94.199)" fill="none" stroke="#deebff" stroke-linecap="round" stroke-linejoin="round" stroke-miterlimit="10" stroke-width="0.577"/>
        <path id="Path_2630" data-name="Path 2630" d="M230.621,183.031s-1.15-15.483,14.64-18.856" transform="translate(-183.034 -88.863)" fill="none" stroke="#deebff" stroke-linecap="round" stroke-linejoin="round" stroke-miterlimit="10" stroke-width="0.577"/>
      </g>
    </g>
    <g id="LEFT_LEG" transform="translate(163.829 106.4)">
      <g id="Group_3308" data-name="Group 3308" transform="translate(0 0)">
        <g id="Group_3306" data-name="Group 3306" transform="translate(11.482 83.472)">
          <path id="Path_2631" data-name="Path 2631" d="M159.3,189.39s19-3.839,26.291-15.56C185.593,173.83,162.2,166.082,159.3,189.39Z" transform="translate(-159.302 -172.144)" fill="#39a199"/>
          <path id="Path_2632" data-name="Path 2632" d="M166.68,191.2l-6.9-13.03,7.742-5.978L173.5,188.9Z" transform="translate(-159.245 -172.191)" fill="#fff"/>
          <path id="Path_2633" data-name="Path 2633" d="M187.361,205.92a4.882,4.882,0,0,1-.116.523c-.006.013-.006.026-.013.039a8.035,8.035,0,0,1-2.664,3.051l-3.226-2.148-2.142-3.348.529,11.019s-2.522,2.987-9.5,5.974-8.267.928-8.267.928c-2.91-5.974.6-9.282,3.668-15.263s-.387-13.793-.387-13.793-.148-4.142,2.993-6.135a7.131,7.131,0,0,1,6.361-.535c3.374,3.451,11.5,16.631,12.567,18.7A1.788,1.788,0,0,1,187.361,205.92Z" transform="translate(-159.116 -170.596)" fill="#66fcf1"/>
          <path id="Path_2634" data-name="Path 2634" d="M162.523,219.371c1.379-1.819,4.938-5.624,12.915-9.9l.923-11.432,2.11,3.624" transform="translate(-158.922 -169.143)" fill="none" stroke="#9ab3da" stroke-linecap="round" stroke-linejoin="round" stroke-miterlimit="10" stroke-width="0.577"/>
          <line id="Line_163" data-name="Line 163" x2="3.033" y2="3.057" transform="translate(16.516 40.33)" fill="none" stroke="#9ab3da" stroke-linecap="round" stroke-linejoin="round" stroke-miterlimit="10" stroke-width="0.577"/>
          <path id="Path_2635" data-name="Path 2635" d="M179.517,205.047c.836-.762,2.9-2.491,4.4-2.5" transform="translate(-156.918 -168.612)" fill="none" stroke="#9ab3da" stroke-linecap="round" stroke-linejoin="round" stroke-miterlimit="10" stroke-width="0.577"/>
        </g>
        <path id="Path_2636" data-name="Path 2636" d="M160.513,198.243s4.216-17.514,26.291-15.56l-12.288-26.476s21.384-16.786,28.167-22.075,5.4-27.938,0-33.687-27.709-4.484-24.949,17.361c0,0-24.719,23.455-28.168,30.583S160.513,198.243,160.513,198.243Z" transform="translate(-149.031 -97.525)" fill="#66fcf1"/>
        <path id="Path_2637" data-name="Path 2637" d="M195.16,135.451l2.083-1.627c6.783-5.289,5.4-27.938,0-33.687" transform="translate(-143.591 -97.217)" fill="none" stroke="#deebff" stroke-linecap="round" stroke-linejoin="round" stroke-miterlimit="10" stroke-width="0.577"/>
        <path id="Path_2638" data-name="Path 2638" d="M185.71,109.535s.848,5.3,1.15,9.121l7.052,1.226,5.9-2.759a75.906,75.906,0,0,0-1-9.964S192.915,105.7,185.71,109.535Z" transform="translate(-144.706 -96.421)" fill="#39a199"/>
        <g id="Group_3307" data-name="Group 3307" transform="translate(6.627 8.784)">
          <path id="Path_2639" data-name="Path 2639" d="M184.508,105.382l1.15,11.612-30.7,32.537,8.61,31.65" transform="translate(-154.959 -105.382)" fill="none" stroke="#deebff" stroke-linecap="round" stroke-linejoin="round" stroke-miterlimit="10" stroke-width="0.577"/>
          <path id="Path_2640" data-name="Path 2640" d="M158.445,183.293s5.059-14.311,23.914-12.05" transform="translate(-154.548 -97.644)" fill="none" stroke="#deebff" stroke-linecap="round" stroke-linejoin="round" stroke-miterlimit="10" stroke-width="0.577"/>
          <path id="Path_2641" data-name="Path 2641" d="M157.222,145.115a43.975,43.975,0,0,0,14.448,4.906" transform="translate(-154.693 -100.697)" fill="none" stroke="#deebff" stroke-linecap="round" stroke-linejoin="round" stroke-miterlimit="10" stroke-width="0.577"/>
        </g>
      </g>
    </g>
    <g id="BODY" transform="translate(174.48 58.556)">
      <g id="Group_3310" data-name="Group 3310">
        <path id="Path_2642" data-name="Path 2642" d="M177.053,54.728a25.087,25.087,0,0,0-16.977,9.2l4.149,4.273,14.226-7.635Z" transform="translate(-158.38 -54.728)" fill="#f68d88"/>
        <g id="Group_3309" data-name="Group 3309" transform="translate(0 5.032)">
          <path id="Path_2643" data-name="Path 2643" d="M189.755,63.113s20.542,11.037,24.681,20.7-5.825,16.863-5.825,16.863Z" transform="translate(-154.88 -58.771)" fill="#ff2d26"/>
          <path id="Path_2644" data-name="Path 2644" d="M223.634,114.619C203.705,70.623,192.5,60.8,192.5,60.8s-11.571-4.154-21.625,1.068S158.9,78.145,158.9,78.145s-1.2,10.711.887,14.674,10.378,13.687,10.378,13.687a56.033,56.033,0,0,1,.731,20.454S199.446,107.276,223.634,114.619Z" transform="translate(-158.559 -59.229)" fill="#ff2d26"/>
          <path id="Path_2645" data-name="Path 2645" d="M171.517,116.308s14.708-9.157,28.973-11.651a38.218,38.218,0,0,1,19.162,1.38" transform="translate(-157.031 -53.942)" fill="none" stroke="#ecbdbb" stroke-linecap="round" stroke-linejoin="round" stroke-miterlimit="10" stroke-width="0.577"/>
          <path id="Path_2646" data-name="Path 2646" d="M210.814,95.6C203.33,80.788,197.579,71.761,193.769,66.5" transform="translate(-154.407 -58.372)" fill="none" stroke="#ecbdbb" stroke-linecap="round" stroke-linejoin="round" stroke-miterlimit="10" stroke-width="0.577"/>
          <path id="Path_2647" data-name="Path 2647" d="M176.55,59.645a22.969,22.969,0,0,0-6.387,2.17,21.469,21.469,0,0,0-5.61,4.208" transform="translate(-157.852 -59.18)" fill="none" stroke="#ecbdbb" stroke-linecap="round" stroke-linejoin="round" stroke-miterlimit="10" stroke-width="0.577"/>
          <path id="Path_2648" data-name="Path 2648" d="M158.9,76.15s-1.2,10.711.887,14.674c1.666,3.159,7.272,9.981,9.477,12.617" transform="translate(-158.559 -57.234)" fill="none" stroke="#ecbdbb" stroke-linecap="round" stroke-linejoin="round" stroke-miterlimit="10" stroke-width="0.577"/>
        </g>
      </g>
    </g>
    <g id="LEFT_ARM" transform="translate(121.105 22.962)">
      <g id="Group_3312" data-name="Group 3312" transform="translate(0)">
        <g id="Group_3311" data-name="Group 3311">
          <path id="Path_2649" data-name="Path 2649" d="M127.773,40.26l-3.334-2.874s-2.644-9.83-2.759-10.52-5.979-4.2-7.071-3.967-.345,1.495-.345,1.495-1.61-.862-2.127-.172.92,1.955.92,1.955-1.84-.747-2.127.057,1.552,2.3,1.552,2.3-1.61-.575-1.667.517,4.484,4.829,4.484,4.829,1.667,5.116,2.012,5.749,2.7,1.207,2.7,1.207l4.541,4.944Z" transform="translate(-110.814 -22.889)" fill="#fff"/>
          <line id="Line_164" data-name="Line 164" x2="4.598" y2="2.989" transform="translate(4.37 1.908)" fill="none" stroke="#404b7c" stroke-linecap="round" stroke-linejoin="round" stroke-miterlimit="10" stroke-width="0.577"/>
          <line id="Line_165" data-name="Line 165" x2="4.254" y2="2.817" transform="translate(2.76 3.69)" fill="none" stroke="#404b7c" stroke-linecap="round" stroke-linejoin="round" stroke-miterlimit="10" stroke-width="0.577"/>
          <line id="Line_166" data-name="Line 166" x2="3.277" y2="2.414" transform="translate(2.415 5.989)" fill="none" stroke="#404b7c" stroke-linecap="round" stroke-linejoin="round" stroke-miterlimit="10" stroke-width="0.577"/>
        </g>
        <path id="Path_2650" data-name="Path 2650" d="M177.734,78.438a8.973,8.973,0,0,1-10.284,2.048L144.516,67.336a27.373,27.373,0,0,1-8.432-5.961L123.773,48.1l-3.129-3.251c-.768-6.877,6.129-7.683,6.129-7.683l3.613,2.561,16.085,12.02,29.31,9.794a8.006,8.006,0,0,1,5.94,4.31C183.863,70.317,180.838,75.087,177.734,78.438Z" transform="translate(-109.662 -21.205)" fill="#ff2d26"/>
        <path id="Path_2651" data-name="Path 2651" d="M175.443,71.06a24.405,24.405,0,0,1-2.653,3.381,8.973,8.973,0,0,1-10.284,2.048" transform="translate(-104.718 -17.208)" fill="none" stroke="#ecbdbb" stroke-linecap="round" stroke-linejoin="round" stroke-miterlimit="10" stroke-width="0.577"/>
        <path id="Path_2652" data-name="Path 2652" d="M125.245,41.781c-1.626,1.555-1.71,4.258-1.471,6.316l-3.129-3.251c-.768-6.877,6.129-7.683,6.129-7.683l3.613,2.561A7.464,7.464,0,0,0,125.245,41.781Z" transform="translate(-109.662 -21.205)" fill="#6b81be"/>
      </g>
    </g>
    <g id="NECK" transform="translate(179.702 54.004)">
      <g id="Group_3313" data-name="Group 3313">
        <path id="Path_2653" data-name="Path 2653" d="M163.229,54.786l2.151,3.4,2.18,3.447,3.7-2.019-3.447-6.868-1.051-2.092Z" transform="translate(-163.229 -50.656)" fill="#ecbdbb"/>
        <path id="Path_2654" data-name="Path 2654" d="M163.229,54.786l2.151,3.4c2.211-1.207,2.569-3.546,2.434-5.439l-1.051-2.092Z" transform="translate(-163.229 -50.656)" fill="#404b7c"/>
      </g>
    </g>
    <g id="HEAD" transform="translate(164.117 40.427)">
      <g id="Group_3314" data-name="Group 3314">
        <path id="Path_2655" data-name="Path 2655" d="M160.827,41.424c5.247.672,12.7,13.06,5.231,16.711S150.137,40.056,160.827,41.424Z" transform="translate(-148.525 -38.175)" fill="#fff"/>
        <path id="Path_2656" data-name="Path 2656" d="M170.685,50.546a30.4,30.4,0,0,0-5.745-4.786s-3.47,4.711-7.982,4.823-9.67-6.62-6.877-9.424S156,41.022,156,41.022,168.891,31.153,170.685,50.546Z" transform="translate(-149.289 -38.511)" fill="#39a199"/>
      </g>
    </g>
    <g id="FACE" transform="translate(172.893 52.406)">
      <g id="Group_3317" data-name="Group 3317">
        <path id="Path_2657" data-name="Path 2657" d="M157.719,52.04c.057.307.575,1.9.575,1.9s-.605.4-.479.939,1.84-.211,1.84-.211-1.341-2.4-1.38-2.453A2.587,2.587,0,0,0,157.719,52.04Z" transform="translate(-157.07 -48.895)" fill="#fff"/>
        <path id="Path_2658" data-name="Path 2658" d="M160.372,49.843s-1.573-1.312-2.564-.108c0,0-.2-.366-.54-.227s.09,1.2.09,1.2A7.882,7.882,0,0,1,160.372,49.843Z" transform="translate(-157.139 -49.227)"/>
        <g id="Group_3315" data-name="Group 3315" transform="translate(1.22 1.701)">
          <ellipse id="Ellipse_1032" data-name="Ellipse 1032" cx="0.769" cy="0.951" rx="0.769" ry="0.951" transform="translate(0 0.665) rotate(-25.634)"/>
          <circle id="Ellipse_1033" data-name="Ellipse 1033" cx="0.204" cy="0.204" r="0.204" transform="translate(0.601 0.755)" fill="#fff"/>
        </g>
        <g id="Group_3316" data-name="Group 3316" transform="translate(0.315 3.026)">
          <path id="Path_2659" data-name="Path 2659" d="M158.957,55.413a1.951,1.951,0,0,0,.52-.3.278.278,0,0,0-.355-.429c-.007.005-.644.519-1.042.148C158,54.75,158,54.7,158,54.687c.025-.171.37-.426.609-.544a.279.279,0,0,0,.129-.368l-.792-1.683a.282.282,0,0,0-.371-.134.279.279,0,0,0-.134.371l.682,1.449a1.37,1.37,0,0,0-.675.827.7.7,0,0,0,.248.632A1.149,1.149,0,0,0,158.957,55.413Z" transform="translate(-157.42 -51.933)"/>
        </g>
        <path id="Path_2660" data-name="Path 2660" d="M160.132,55.354c.2.172.438.349.678.542l1.74-1.083A2.4,2.4,0,0,0,160.132,55.354Z" transform="translate(-156.786 -48.582)"/>
      </g>
    </g>
    <g id="HAIR" transform="translate(169.452 37.107)">
      <path id="Path_2661" data-name="Path 2661" d="M154.062,44.218s.01-.093.042-.259c.227-1.177,1.578-6.043,8.628-7.961a10.549,10.549,0,0,1,13.736,9.616c.131,4.9,6.246,5.571,11.536,6.705,7.995,1.713,11.9,6.752,10.635,14.274-1.615,9.6-24.887,13.352-28.973,7.127s-2.749-13.263-5.442-18.511Z" transform="translate(-154.062 -35.541)" fill="#66fcf1"/>
    </g>
    <g id="EAR" transform="translate(176.677 51.008)">
      <g id="Group_3321" data-name="Group 3321">
        <path id="Path_2662" data-name="Path 2662" d="M160.555,52.916S160,48.449,163.573,48s2.992,6.889-2.473,6.643Z" transform="translate(-160.524 -47.976)" fill="#fff"/>
        <g id="Group_3320" data-name="Group 3320" transform="translate(1.345 1.037)">
          <g id="Group_3318" data-name="Group 3318">
            <path id="Path_2663" data-name="Path 2663" d="M162.044,53.275a.233.233,0,0,0,.148-.216c0-.027.027-2.677,1.843-3.72a.233.233,0,1,0-.232-.4c-2.052,1.178-2.077,4-2.077,4.123a.233.233,0,0,0,.317.217Z" transform="translate(-161.727 -48.904)"/>
          </g>
          <g id="Group_3319" data-name="Group 3319" transform="translate(0.553 1.574)">
            <path id="Path_2664" data-name="Path 2664" d="M163.588,52.031a.232.232,0,0,0,.135-.295,3.3,3.3,0,0,0-1.13-1.378.233.233,0,1,0-.278.373,2.891,2.891,0,0,1,.969,1.162.233.233,0,0,0,.3.139Z" transform="translate(-162.222 -50.313)"/>
          </g>
        </g>
      </g>
    </g>
    <g id="GROUND" transform="translate(32.383 334.67)">
      <g id="Group_3326" data-name="Group 3326">
        <g id="Group_3325" data-name="Group 3325">
          <g id="Group_3322" data-name="Group 3322">
            <line id="Line_167" data-name="Line 167" x2="72.387" transform="translate(244.37)" fill="none" stroke="#6b81be" stroke-linecap="round" stroke-linejoin="round" stroke-miterlimit="10" stroke-width="0.577"/>
            <line id="Line_168" data-name="Line 168" x2="226.997" fill="none" stroke="#6b81be" stroke-linecap="round" stroke-linejoin="round" stroke-miterlimit="10" stroke-width="0.577"/>
          </g>
          <g id="Group_3323" data-name="Group 3323" transform="translate(35.756 12.444)">
            <line id="Line_169" data-name="Line 169" x1="36.174" fill="none" stroke="#6b81be" stroke-linecap="round" stroke-linejoin="round" stroke-miterlimit="10" stroke-width="0.577"/>
            <line id="Line_170" data-name="Line 170" x1="207.696" transform="translate(47.952)" fill="none" stroke="#6b81be" stroke-linecap="round" stroke-linejoin="round" stroke-miterlimit="10" stroke-width="0.577"/>
          </g>
          <g id="Group_3324" data-name="Group 3324" transform="translate(72.212 24.889)">
            <line id="Line_171" data-name="Line 171" x2="24.516" transform="translate(118.339)" fill="none" stroke="#6b81be" stroke-linecap="round" stroke-linejoin="round" stroke-miterlimit="10" stroke-width="0.577"/>
            <line id="Line_172" data-name="Line 172" x2="110.248" fill="none" stroke="#6b81be" stroke-linecap="round" stroke-linejoin="round" stroke-miterlimit="10" stroke-width="0.577"/>
          </g>
        </g>
      </g>
    </g>
  </g>
</svg>
