<svg id="Component_53_1" data-name="Component 53 – 1" xmlns="http://www.w3.org/2000/svg" width="394.606" height="395.288" viewBox="0 0 394.606 395.288">
  <text id="_03" data-name="03" transform="translate(221.606 37.644)" fill="#ff2d26" font-size="150" font-family="PlayfairDisplay-Regular, Playfair Display"><tspan x="0" y="162">03</tspan></text>
  <g id="Celebrating_Success" data-name="Celebrating Success" transform="translate(-36.962 -5.613)">
    <g id="PLANTS" transform="translate(69.368 341.329)">
      <g id="Group_3331" data-name="Group 3331">
        <g id="Group_3327" data-name="Group 3327" transform="translate(67.341 31.846)">
          <path id="Path_2665" data-name="Path 2665" d="M165.177,313.762s-1.785-21.611-21.414-26.2,0,20.307,0,20.307-16.316-12.914-26.258-9.09-1.785,11.794,14.276,15.2Z" transform="translate(-113.169 -286.255)" fill="#5222d0"/>
          <path id="Path_2666" data-name="Path 2666" d="M123.9,287.992c7.248,5.825,4.844,9.323-1.275,4.152S119.736,284.648,123.9,287.992Z" transform="translate(-111.297 -286.431)" fill="#9ab3da"/>
        </g>
        <g id="Group_3328" data-name="Group 3328" transform="translate(227.852)">
          <path id="Path_2667" data-name="Path 2667" d="M266.307,298.843c-.806.67-1.64,1.332-2.494,2-1.517,1.182-3.089,2.357-4.687,3.519-9.327,6.806-19.372,13.106-22.973,17.308,0,0-3.335-20.239,10.5-40.663a53.324,53.324,0,0,1,5.1-6.457,40.113,40.113,0,0,1,13.338-9.7c8.637-3.779,16.55-3.075,20.622-1.367C287.66,272.413,276.993,290.035,266.307,298.843Z" transform="translate(-235.799 -262.1)" fill="#ff2d26"/>
          <path id="Path_2668" data-name="Path 2668" d="M260.094,300.2c-1.517,1.182-3.089,2.357-4.687,3.519,1.387-5.747,1.647-13.488-4.1-19.372a11.478,11.478,0,0,1-3.273-10.441,40.113,40.113,0,0,1,13.338-9.7,15.342,15.342,0,0,0,1.3,14.869C266.517,284.931,263.722,293.37,260.094,300.2Z" transform="translate(-232.081 -261.451)" fill="#ffabab"/>
          <path id="Path_2669" data-name="Path 2669" d="M280.3,265.139s-28.415,14.126-42.764,49.635" transform="translate(-235.262 -261.161)" fill="none" stroke="#ecbdbb" stroke-linecap="round" stroke-linejoin="round" stroke-miterlimit="10" stroke-width="0.545"/>
        </g>
        <g id="Group_3329" data-name="Group 3329" transform="translate(0 29.774)">
          <path id="Path_2670" data-name="Path 2670" d="M71.543,303.226c.4.335.82.667,1.248,1,.759.591,1.545,1.179,2.345,1.76,4.665,3.4,9.69,6.555,11.491,8.657a30.467,30.467,0,0,0-5.25-20.34,26.677,26.677,0,0,0-2.553-3.23,20.064,20.064,0,0,0-6.672-4.853c-4.32-1.89-8.278-1.538-10.315-.684C60.862,290.005,66.2,298.821,71.543,303.226Z" transform="translate(-61.721 -284.847)" fill="#5222d0"/>
          <path id="Path_2671" data-name="Path 2671" d="M70.7,303.9c.759.591,1.545,1.179,2.345,1.76-.694-2.874-.824-6.747,2.051-9.69a5.741,5.741,0,0,0,1.637-5.222,20.064,20.064,0,0,0-6.672-4.853,7.674,7.674,0,0,1-.649,7.437C67.488,296.267,68.886,300.489,70.7,303.9Z" transform="translate(-59.63 -284.523)" fill="#b0c8ea"/>
          <path id="Path_2672" data-name="Path 2672" d="M63.671,286.367a49.753,49.753,0,0,1,21.39,24.827" transform="translate(-61.118 -284.378)" fill="none" stroke="#d4e6fc" stroke-linecap="round" stroke-linejoin="round" stroke-miterlimit="10" stroke-width="0.545"/>
        </g>
        <g id="Group_3330" data-name="Group 3330" transform="translate(248.782 33.572)">
          <path id="Path_2673" data-name="Path 2673" d="M251.79,313.749s6.527-10.849,15.263-18.6c6.738-5.98,18.1-7.928,22.488-7.279-.406,4.628-4.255,11.793-10.416,16.687C271.924,310.275,260.641,313.36,251.79,313.749Z" transform="translate(-251.79 -287.749)" fill="#5222d0"/>
        </g>
      </g>
    </g>
    <g id="ORNAMENT_9" transform="translate(51.924 246.494)">
      <g id="Group_3332" data-name="Group 3332">
        <line id="Line_173" data-name="Line 173" y2="3.949" transform="translate(6.057)" fill="none" stroke="#6b81be" stroke-linecap="round" stroke-linejoin="round" stroke-miterlimit="10" stroke-width="0.545"/>
        <line id="Line_174" data-name="Line 174" y2="3.949" transform="translate(6.057 8.165)" fill="none" stroke="#6b81be" stroke-linecap="round" stroke-linejoin="round" stroke-miterlimit="10" stroke-width="0.545"/>
        <line id="Line_175" data-name="Line 175" x1="3.949" transform="translate(8.165 6.057)" fill="none" stroke="#6b81be" stroke-linecap="round" stroke-linejoin="round" stroke-miterlimit="10" stroke-width="0.545"/>
        <line id="Line_176" data-name="Line 176" x1="3.949" transform="translate(0 6.057)" fill="none" stroke="#6b81be" stroke-linecap="round" stroke-linejoin="round" stroke-miterlimit="10" stroke-width="0.545"/>
      </g>
    </g>
    <g id="ORNAMENT_8" transform="translate(338.07 242.434)">
      <g id="Group_3333" data-name="Group 3333">
        <line id="Line_177" data-name="Line 177" y2="3.949" transform="translate(6.057)" fill="none" stroke="#6b81be" stroke-linecap="round" stroke-linejoin="round" stroke-miterlimit="10" stroke-width="0.545"/>
        <line id="Line_178" data-name="Line 178" y2="3.949" transform="translate(6.057 8.165)" fill="none" stroke="#6b81be" stroke-linecap="round" stroke-linejoin="round" stroke-miterlimit="10" stroke-width="0.545"/>
        <line id="Line_179" data-name="Line 179" x1="3.949" transform="translate(8.165 6.058)" fill="none" stroke="#6b81be" stroke-linecap="round" stroke-linejoin="round" stroke-miterlimit="10" stroke-width="0.545"/>
        <line id="Line_180" data-name="Line 180" x1="3.949" transform="translate(0 6.058)" fill="none" stroke="#6b81be" stroke-linecap="round" stroke-linejoin="round" stroke-miterlimit="10" stroke-width="0.545"/>
      </g>
    </g>
    <g id="ORNAMENT_7" transform="translate(155.371 202.931)">
      <g id="Group_3334" data-name="Group 3334">
        <line id="Line_181" data-name="Line 181" y2="3.248" transform="translate(4.982)" fill="none" stroke="#6b81be" stroke-linecap="round" stroke-linejoin="round" stroke-miterlimit="10" stroke-width="0.545"/>
        <line id="Line_182" data-name="Line 182" y2="3.248" transform="translate(4.982 6.716)" fill="none" stroke="#6b81be" stroke-linecap="round" stroke-linejoin="round" stroke-miterlimit="10" stroke-width="0.545"/>
        <line id="Line_183" data-name="Line 183" x1="3.248" transform="translate(6.716 4.982)" fill="none" stroke="#6b81be" stroke-linecap="round" stroke-linejoin="round" stroke-miterlimit="10" stroke-width="0.545"/>
        <line id="Line_184" data-name="Line 184" x1="3.248" transform="translate(0 4.982)" fill="none" stroke="#6b81be" stroke-linecap="round" stroke-linejoin="round" stroke-miterlimit="10" stroke-width="0.545"/>
      </g>
    </g>
    <g id="ORNAMENT_6" transform="translate(102.704 120.717)">
      <circle id="Ellipse_1034" data-name="Ellipse 1034" cx="3.13" cy="3.13" r="3.13" fill="none" stroke="#6b81be" stroke-linecap="round" stroke-linejoin="round" stroke-miterlimit="10" stroke-width="0.545"/>
    </g>
    <g id="ORNAMENT_5" transform="translate(236.505 370.046)">
      <circle id="Ellipse_1035" data-name="Ellipse 1035" cx="3.13" cy="3.13" r="3.13" fill="none" stroke="#6b81be" stroke-linecap="round" stroke-linejoin="round" stroke-miterlimit="10" stroke-width="0.545"/>
    </g>
    <g id="ORNAMENT_4" transform="translate(50.345 309.484)">
      <circle id="Ellipse_1036" data-name="Ellipse 1036" cx="3.555" cy="3.555" r="3.555" fill="#e9f3ff"/>
    </g>
    <g id="ORNAMENT_3" transform="translate(312.962 102.724)">
      <circle id="Ellipse_1037" data-name="Ellipse 1037" cx="5.357" cy="5.357" r="5.357" fill="#e9f3ff"/>
    </g>
    <g id="ORNAMENT_2" transform="translate(58.85 132.989)">
      <circle id="Ellipse_1038" data-name="Ellipse 1038" cx="5.357" cy="5.357" r="5.357" fill="#e9f3ff"/>
    </g>
    <g id="ORNAMENT_1" transform="translate(319.022 198.503)">
      <circle id="Ellipse_1039" data-name="Ellipse 1039" cx="3.77" cy="3.77" r="3.77" fill="#5222d0"/>
    </g>
    <g id="WOMAN_1_LEFT_ARM" transform="translate(138.746 5.613)">
      <g id="Group_3336" data-name="Group 3336">
        <path id="Path_2674" data-name="Path 2674" d="M120.043,35.683l33.339-4.215,2.261,13.463-30.6,6.188a8.579,8.579,0,0,1-10.31-7.914,12.49,12.49,0,0,1,.184-2.745A5.918,5.918,0,0,1,120.043,35.683Z" transform="translate(-114.725 2.373)" fill="#ff2d26"/>
        <path id="Path_2675" data-name="Path 2675" d="M141.862,30.856l5.38-1.35s6.058,2.081,7.285,8.04-2.816,8.8-2.816,8.8l-7.241,2.266S136.373,40.176,141.862,30.856Z" transform="translate(-106.932 1.767)" fill="#66fcf1"/>
        <g id="Group_3335" data-name="Group 3335" transform="translate(39.727)">
          <path id="Path_2676" data-name="Path 2676" d="M157.446,20.439a130.188,130.188,0,0,1-12.107,19.932c-1.154,4.54,1.645,9.931,5.327,10.261,0,0,7.2-7.64,10.275-28.649,0,0,2.315-1.118,2.844-2.015.507-.858,0-3.756,3.838-7.922a.943.943,0,0,0,.044-1.227h0a.94.94,0,0,0-1.3-.162,15.461,15.461,0,0,0-3.043,2.957,15.557,15.557,0,0,1,2.658-4.757,1.125,1.125,0,0,0-.1-1.572l-.01-.009a1.112,1.112,0,0,0-1.5.024,11.71,11.71,0,0,0-2.842,3.887,12.675,12.675,0,0,1,1.695-4,1.008,1.008,0,0,0-.4-1.469h0a1.011,1.011,0,0,0-1.236.28c-.9,1.132-2.679,3.6-2.972,5.823a22.166,22.166,0,0,1,.658-4.056.9.9,0,0,0-.853-1.134h0a.9.9,0,0,0-.854.547,18.871,18.871,0,0,0-1.52,7.687s-.4-.671-.857-1.623a1,1,0,0,0-1.3-.48h0a1,1,0,0,0-.547,1.228C153.9,15.655,155.319,19.248,157.446,20.439Z" transform="translate(-145.076 -5.613)" fill="#fff"/>
          <path id="Path_2677" data-name="Path 2677" d="M154,12.907c1.048.19,3.623.918,3.418,3.47" transform="translate(-142.319 -3.36)" fill="none" stroke="#404b7c" stroke-linecap="round" stroke-linejoin="round" stroke-miterlimit="10" stroke-width="0.543"/>
          <path id="Path_2678" data-name="Path 2678" d="M154.672,10.906a12.939,12.939,0,0,1,6.606,2.557" transform="translate(-142.112 -3.978)" fill="none" stroke="#404b7c" stroke-linecap="round" stroke-linejoin="round" stroke-miterlimit="10" stroke-width="0.543"/>
        </g>
      </g>
    </g>
    <g id="WOMAN_1_BACK_SHIRT" transform="translate(188.945 43.342)">
      <path id="Path_2679" data-name="Path 2679" d="M153.077,128.51s48.163-16.54,54.642-41.729S186.3,34.438,186.3,34.438L173.367,47.015,163.091,99.261Z" transform="translate(-153.077 -34.438)" fill="#66fcf1"/>
    </g>
    <g id="WOMAN_1_LEFT_LEG" transform="translate(187.778 30.765)">
      <g id="Group_3341" data-name="Group 3341">
        <g id="Group_3338" data-name="Group 3338" transform="translate(113.559 2.143)">
          <path id="Path_2680" data-name="Path 2680" d="M240.814,35.889l9.354,2.306a4.782,4.782,0,0,1-.942,4.689L238.945,41.55Z" transform="translate(-238.945 -23.557)" fill="#fff"/>
          <g id="Group_3337" data-name="Group 3337" transform="translate(8.733)">
            <path id="Path_2681" data-name="Path 2681" d="M252.776,46.346a32.079,32.079,0,0,0,9.194,1.055l.412-2.052a50.833,50.833,0,0,1-7.586-3.6C252.547,40.2,250.808,44.914,252.776,46.346Z" transform="translate(-243.67 -21.841)" fill="#404b7c"/>
            <path id="Path_2682" data-name="Path 2682" d="M245.617,46.216s1.561-2,1.225-6.1c0,0,11.94-4.187,14.31-5.967s5.434-6.1,6.643-7.568-.667,11.209-1.783,14.033-5.3,4.545-7.791,6.606a16.686,16.686,0,0,0-3.5,3.749A33.808,33.808,0,0,1,245.617,46.216Z" transform="translate(-245.617 -26.467)" fill="#5222d0"/>
          </g>
        </g>
        <g id="Group_3340" data-name="Group 3340">
          <g id="Group_3339" data-name="Group 3339">
            <path id="Path_2683" data-name="Path 2683" d="M266.5,47.131c2.295-2.742,2.385-9.58,2.385-9.58L229.944,25.389a12.308,12.308,0,0,0-9.452.884l-5.056,2.691S183.092,45.158,175.8,49.424s-22.016,18.887-22.016,18.887a13.392,13.392,0,0,0,1.507,14.85c5.955,7.232,18.764,2.487,38.088-11.847,14-10.382,28.378-23.235,35.237-29.525a67.607,67.607,0,0,0,13.913,2.626C250.831,44.988,266.5,47.131,266.5,47.131Z" transform="translate(-152.186 -24.83)" fill="#404b7c"/>
          </g>
          <path id="Path_2684" data-name="Path 2684" d="M180.624,61.816,219.243,33.05l35.721,7.1" transform="translate(-143.401 -22.29)" fill="none" stroke="#9ab3da" stroke-linecap="round" stroke-linejoin="round" stroke-miterlimit="10" stroke-width="0.541"/>
        </g>
      </g>
    </g>
    <g id="WOMAN_1_RIGHT_LEG" transform="translate(181.291 64.762)">
      <g id="Group_3346" data-name="Group 3346">
        <g id="Group_3343" data-name="Group 3343" transform="translate(89.683 48.285)">
          <path id="Path_2685" data-name="Path 2685" d="M221.649,87.692l2.1,9.4a4.782,4.782,0,0,1-4.618,1.245l-3.385-9.8Z" transform="translate(-215.748 -87.692)" fill="#fff"/>
          <g id="Group_3342" data-name="Group 3342" transform="translate(1.807 7.831)">
            <path id="Path_2686" data-name="Path 2686" d="M217.363,103.241a32.08,32.08,0,0,0,3.15,8.7l2.02-.545a50.833,50.833,0,0,1-.157-8.394C222.762,100.3,217.769,100.84,217.363,103.241Z" transform="translate(-217.056 -91.351)" fill="#404b7c"/>
            <path id="Path_2687" data-name="Path 2687" d="M217.639,95.293s2.489.506,6-1.618c0,0,9.066,8.826,11.716,10.155s7.885,2.147,9.735,2.577-10.332,4.395-13.359,4.653-6.431-2.725-9.385-4.034a16.687,16.687,0,0,0-4.914-1.462A33.784,33.784,0,0,1,217.639,95.293Z" transform="translate(-217.128 -93.675)" fill="#5222d0"/>
          </g>
        </g>
        <g id="Group_3345" data-name="Group 3345">
          <g id="Group_3344" data-name="Group 3344">
            <path id="Path_2688" data-name="Path 2688" d="M239.166,63.332l5.786,36.108s-6.167,2.965-9.644,2.135c0,0-5.056-14.983-8.243-22.668a56.4,56.4,0,0,1-2.146-6.253c-10.064,1.961-24.908,4.575-38.738,5.955-23.941,2.406-37.37-.08-38.78-9.345a13.4,13.4,0,0,1,6.318-13.521s20.142-5,28.585-4.938,44.524,2.748,44.524,2.748l1.5.073A11.549,11.549,0,0,1,239.166,63.332Z" transform="translate(-147.229 -50.803)" fill="#404b7c"/>
          </g>
          <path id="Path_2689" data-name="Path 2689" d="M177.107,67.232l43.987-5.518,7.959,30.1" transform="translate(-138 -47.432)" fill="none" stroke="#9ab3da" stroke-linecap="round" stroke-linejoin="round" stroke-miterlimit="10" stroke-width="0.541"/>
        </g>
      </g>
    </g>
    <g id="WOMAN_1_BODY" transform="translate(125.455 43.342)">
      <g id="Group_3350" data-name="Group 3350">
        <g id="Group_3347" data-name="Group 3347" transform="translate(8.66 2.402)">
          <path id="Path_2690" data-name="Path 2690" d="M111.187,49.843l6.68,16.016s58.906,33.746,59.076,33.235,10.969-15.381,13.09-31.435-.889-20.077-.889-20.077l-43.282-6.253L125.24,36.273Z" transform="translate(-111.187 -36.273)" fill="#66fcf1"/>
          <path id="Path_2691" data-name="Path 2691" d="M161.424,96.426c.17-.511,10.969-15.381,13.09-31.435s-.889-20.077-.889-20.077" transform="translate(-95.669 -33.604)" fill="none" stroke="#404b7c" stroke-linecap="round" stroke-linejoin="round" stroke-miterlimit="10" stroke-width="0.541"/>
          <path id="Path_2692" data-name="Path 2692" d="M162.328,88.213s10.489-23.6,8.58-41.753" transform="translate(-95.389 -33.126)" fill="none" stroke="#404b7c" stroke-linecap="round" stroke-linejoin="round" stroke-miterlimit="10" stroke-width="0.541"/>
        </g>
        <path id="Path_2693" data-name="Path 2693" d="M163.017,62.419c21.559,12.9,29.816,35.053,29.816,35.053-4.574,11.019-24.772,26.506-24.772,26.506s-7.087-36.27-21.312-43.514-42.179-15.907-42.179-15.907,4.722-11.01,7.054-15.449c3.078,1.363,15.863,6.866,25.657,8.857C148.493,60.239,163.017,62.419,163.017,62.419Z" transform="translate(-104.571 -29.906)" fill="#ff2d26"/>
        <g id="Group_3348" data-name="Group 3348" transform="translate(9.17)">
          <path id="Path_2694" data-name="Path 2694" d="M111.576,47.271s1.144-2.852,3.8-8.2a5.994,5.994,0,0,1,6.161-3.275l6.47.871s10.039-.285,12.223.252,12.058,5.453,12.058,5.453,32.693,1.662,46.83-7.934a61.809,61.809,0,0,1,7.731,12.733A165.358,165.358,0,0,1,162.387,50.2s-29.155-2.5-35.338-2.858S111.576,47.271,111.576,47.271Z" transform="translate(-111.576 -34.438)" fill="#ff2d26"/>
          <path id="Path_2695" data-name="Path 2695" d="M118.717,35.374l7.089,1s10.039-.285,12.223.252,12.058,5.453,12.058,5.453,7.031.2,17.04.352" transform="translate(-109.371 -34.149)" fill="none" stroke="#ecbdbb" stroke-linecap="round" stroke-linejoin="round" stroke-miterlimit="10" stroke-width="0.464"/>
        </g>
        <g id="Group_3349" data-name="Group 3349" transform="translate(5.512 7.223)">
          <path id="Path_2696" data-name="Path 2696" d="M108.82,49.058c-.6,3.608,6.04,9.126,12.367,12.645l4.795-2.675,5.531,6.106a260.026,260.026,0,0,1,30.2.112s-21.369-5.462-33.226-8.267c-11.764-4.129-10.385-9.719,2.2-10.419,13.726-.165,32.558,1.934,32.558,1.934s-17.437-6.3-27.214-8.538l-6.254,4.222-3.86-3.172S109.967,42.194,108.82,49.058Z" transform="translate(-108.782 -39.956)" fill="#f68d88"/>
          <path id="Path_2697" data-name="Path 2697" d="M158.913,47.651s-14.75-5.454-24.527-7.695l-6.254,4.222-3.86-3.172A44.827,44.827,0,0,0,114.123,43.1" transform="translate(-107.132 -39.956)" fill="none" stroke="#ecbdbb" stroke-linecap="round" stroke-linejoin="round" stroke-miterlimit="10" stroke-width="0.464"/>
          <path id="Path_2698" data-name="Path 2698" d="M110.8,51.012a41.786,41.786,0,0,0,9.759,7.277l4.795-2.675,5.531,6.106s12.464-.741,24.868-.206" transform="translate(-108.157 -36.541)" fill="none" stroke="#ecbdbb" stroke-linecap="round" stroke-linejoin="round" stroke-miterlimit="10" stroke-width="0.464"/>
        </g>
      </g>
    </g>
    <g id="WOMAN_1_HAIR" transform="translate(104.922 30.689)">
      <g id="Group_3351" data-name="Group 3351">
        <path id="Path_2699" data-name="Path 2699" d="M102.333,33.531S98.8,29.17,94.547,28.979s-6.082,4.527-5.585,9.688,5.132,8.68,9.751,2.735C102.341,36.732,102.333,33.531,102.333,33.531Z" transform="translate(-88.883 -23.473)" fill="#66fcf1"/>
        <path id="Path_2700" data-name="Path 2700" d="M99.366,35.13s-5.747,4.825-3.85,10.572,13.107,8.231,17.967,3.769,2.526-8.976,2.526-8.976,4.789-1.428,3.923-6.148-3.452-5.065-5.859-4.074c0,0-.262-6.032-5.774-5.463S99.289,29.107,99.366,35.13Z" transform="translate(-86.953 -24.771)" fill="#66fcf1"/>
        <path id="Path_2701" data-name="Path 2701" d="M99.366,32.686s-4.225,3.548-4.234,8.18" transform="translate(-86.953 -22.327)" fill="none" stroke="#9ab3da" stroke-linecap="round" stroke-linejoin="round" stroke-miterlimit="10" stroke-width="0.541"/>
      </g>
    </g>
    <g id="WOMAN_1_NECK" transform="translate(125.488 52.095)">
      <g id="Group_3353" data-name="Group 3353">
        <path id="Path_2702" data-name="Path 2702" d="M130.523,45.108s-10.247.307-13.274.315a26.169,26.169,0,0,1-4.5-.686,2.816,2.816,0,0,0-1.4,5.452c1.983.5,3.81.982,5,1.36l11.976,3.979s4.1-2.107,5.587-5.643A8.127,8.127,0,0,0,130.523,45.108Z" transform="translate(-103.134 -40.032)" fill="#fff"/>
        <g id="Group_3352" data-name="Group 3352">
          <path id="Path_2703" data-name="Path 2703" d="M116.512,47.043c-.795-.639-1.618-1.327-2.406-2-2.365-2.029-4.425-3.916-4.425-3.916L104.6,44.406l.871.712c1.49,1.225,4.626,3.819,7.343,6.164C116.423,50.834,116.648,48.334,116.512,47.043Z" transform="translate(-104.596 -41.125)" fill="#fff"/>
          <path id="Path_2704" data-name="Path 2704" d="M114.106,45.041a10.135,10.135,0,0,1-8.639.077l-.871-.712,5.085-3.281S111.741,43.012,114.106,45.041Z" transform="translate(-104.595 -41.125)" fill="#ededed"/>
        </g>
      </g>
    </g>
    <g id="WOMAN_1_HEAD" transform="translate(116.217 37.082)">
      <g id="Group_3356" data-name="Group 3356">
        <path id="Path_2705" data-name="Path 2705" d="M112.463,33.295a21.055,21.055,0,0,1,4.605,8.9c1.215,5.311-2.9,6.743-7.55,5.8s-8.536-6.536-8.536-6.536-3.014-4.9.067-8.051A7.893,7.893,0,0,1,112.463,33.295Z" transform="translate(-96.849 -29.269)" fill="#fff"/>
        <path id="Path_2706" data-name="Path 2706" d="M102.582,35.36a13.556,13.556,0,0,0,13.063-1.041s-7.191-8.738-14.519-2.292-2,12.347,2.717,12.493C103.842,44.52,105.722,41.107,102.582,35.36Z" transform="translate(-97.513 -29.656)" fill="#66fcf1"/>
        <g id="Group_3355" data-name="Group 3355" transform="translate(2.067 13.304)">
          <g id="Group_3354" data-name="Group 3354">
            <path id="Path_2707" data-name="Path 2707" d="M106.722,43.04l-2.7-2.576s-2.611-1.553-4.437.165S101.156,47.751,106.722,43.04Z" transform="translate(-99.092 -39.82)" fill="#fff"/>
            <path id="Path_2708" data-name="Path 2708" d="M100.168,41.386a6.8,6.8,0,0,1,4.631.416" transform="translate(-98.76 -39.407)" fill="none" stroke="#000" stroke-linecap="round" stroke-linejoin="round" stroke-miterlimit="10" stroke-width="0.543"/>
            <path id="Path_2709" data-name="Path 2709" d="M102.006,43.165a6.16,6.16,0,0,1-.453-2.008" transform="translate(-98.332 -39.407)" fill="none" stroke="#000" stroke-linecap="round" stroke-linejoin="round" stroke-miterlimit="10" stroke-width="0.543"/>
          </g>
          <path id="Path_2710" data-name="Path 2710" d="M103.645,42.462c.95-.193,1.985.955,2.311,2.563s-.18,3.068-1.13,3.26-1.985-.955-2.311-2.563a4.5,4.5,0,0,1-.028-1.731" transform="translate(-98.065 -39.01)" fill="none" stroke="#5222d0" stroke-linecap="round" stroke-linejoin="round" stroke-miterlimit="10" stroke-width="0.543"/>
        </g>
      </g>
    </g>
    <g id="WOMAN_1_FACE" transform="translate(124.307 41.884)">
      <g id="Group_3359" data-name="Group 3359">
        <path id="Path_2711" data-name="Path 2711" d="M103.7,37.7s-.139-2.412,1.7-2.506c0,0-.2-.45.164-.672s1.071.926,1.071.926A9.294,9.294,0,0,0,103.7,37.7Z" transform="translate(-103.694 -32.961)"/>
        <path id="Path_2712" data-name="Path 2712" d="M110.854,34.4s-1.206-1.852-2.01-.691c0,0-.23-.338-.493-.241-.455.167.087,1.317.087,1.317A3.91,3.91,0,0,1,110.854,34.4Z" transform="translate(-102.311 -33.324)"/>
        <g id="Group_3357" data-name="Group 3357" transform="translate(1.999 5.261)">
          <path id="Path_2815" data-name="Path 2815" d="M.907,0a1.032,1.032,0,0,1,.907,1.122A1.032,1.032,0,0,1,.907,2.243,1.032,1.032,0,0,1,0,1.122,1.032,1.032,0,0,1,.907,0Z" transform="translate(0 0.847) rotate(-27.832)"/>
          <circle id="Ellipse_1041" data-name="Ellipse 1041" cx="0.241" cy="0.241" r="0.241" transform="translate(1.076 0.728)" fill="#fff"/>
        </g>
        <g id="Group_3358" data-name="Group 3358" transform="translate(6.725 2.766)">
          <path id="Path_2816" data-name="Path 2816" d="M.907,0a1.032,1.032,0,0,1,.907,1.122A1.032,1.032,0,0,1,.907,2.243,1.032,1.032,0,0,1,0,1.122,1.032,1.032,0,0,1,.907,0Z" transform="translate(0 0.847) rotate(-27.832)"/>
          <circle id="Ellipse_1043" data-name="Ellipse 1043" cx="0.241" cy="0.241" r="0.241" transform="translate(1.076 0.728)" fill="#fff"/>
        </g>
        <path id="Path_2713" data-name="Path 2713" d="M108.165,37.2l1.039,1.932s1.394-.722,1.5.233c.106.938-1.119,1.239-1.119,1.239" transform="translate(-102.312 -32.126)" fill="none" stroke="#000" stroke-linecap="round" stroke-linejoin="round" stroke-miterlimit="10" stroke-width="0.541"/>
        <path id="Path_2714" data-name="Path 2714" d="M112.088,41.85a5.839,5.839,0,0,1-4.691.418,9.1,9.1,0,0,0,4.46-2.312Z" transform="translate(-102.55 -31.275)"/>
      </g>
    </g>
    <g id="WOMAN_1_RIGHT_ARM" transform="translate(69.472 57.349)">
      <g id="Group_3361" data-name="Group 3361">
        <path id="Path_2715" data-name="Path 2715" d="M114.474,52.679,88.009,65.416l4.2,12.99L127.547,68.27S126.774,53.739,114.474,52.679Z" transform="translate(-53.704 -42.81)" fill="#ff2d26"/>
        <path id="Path_2716" data-name="Path 2716" d="M118.86,66.7a22.276,22.276,0,0,0-2.726-8.946" transform="translate(-45.016 -41.241)" fill="none" stroke="#ecbdbb" stroke-linecap="round" stroke-linejoin="round" stroke-miterlimit="10" stroke-width="0.464"/>
        <path id="Path_2717" data-name="Path 2717" d="M92.121,60.273l-5.4,1.281s-4.418,4.639-2.761,10.492,6.555,6.516,6.555,6.516l7.471-1.325S101.287,66.016,92.121,60.273Z" transform="translate(-55.069 -40.464)" fill="#66fcf1"/>
        <g id="Group_3360" data-name="Group 3360">
          <path id="Path_2718" data-name="Path 2718" d="M75.416,57.062A130.181,130.181,0,0,0,95.346,69.174c3.116,3.5,3.116,9.572,0,11.562,0,0-9.911-3.463-22.32-20.692,0,0-2.653-.038-3.537-.59-.845-.528-1.651-3.22-6.972-5.151a.943.943,0,0,1-.6-1.069h0A.94.94,0,0,1,63,52.49a15.462,15.462,0,0,1,4.063,1.222,15.557,15.557,0,0,0-4.551-3,1.125,1.125,0,0,1-.634-1.442l0-.012a1.112,1.112,0,0,1,1.345-.671,11.709,11.709,0,0,1,4.314,2.14,12.675,12.675,0,0,0-3.349-2.773,1.008,1.008,0,0,1-.326-1.486h0a1.011,1.011,0,0,1,1.226-.321c1.322.59,4.038,1.965,5.32,3.8a22.167,22.167,0,0,0-2.453-3.3.9.9,0,0,1,.234-1.4h0a.9.9,0,0,1,1.01.092,18.871,18.871,0,0,1,4.89,6.122s.045-.779.012-1.836a1,1,0,0,1,.934-1.026h0a1,1,0,0,1,1.051.838C76.359,51.183,76.756,55.025,75.416,57.062Z" transform="translate(-61.8 -45.139)" fill="#fff"/>
          <path id="Path_2719" data-name="Path 2719" d="M71.507,50.369a5.138,5.138,0,0,0-2.03,4.506" transform="translate(-59.434 -43.523)" fill="none" stroke="#404b7c" stroke-linecap="round" stroke-linejoin="round" stroke-miterlimit="10" stroke-width="0.543"/>
          <path id="Path_2720" data-name="Path 2720" d="M65.69,53.852a15.413,15.413,0,0,1,4.465-4.967" transform="translate(-60.598 -43.982)" fill="none" stroke="#404b7c" stroke-linecap="round" stroke-linejoin="round" stroke-miterlimit="10" stroke-width="0.543"/>
        </g>
      </g>
    </g>
    <g id="WOMAN_2_HAIR" transform="translate(255.824 151.752)">
      <path id="Path_2721" data-name="Path 2721" d="M215.2,122.284s-1.576,13.462-11.032,17.467c0,0,2.167,10.31,15.826,10.31s17.8-7.552,17.8-7.552-7.355-4.465-5.713-15.432S217.24,114.076,215.2,122.284Z" transform="translate(-204.172 -117.263)" fill="#66fcf1"/>
    </g>
    <g id="WOMAN_2_RIGHT_ARM" transform="translate(185.687 134.779)">
      <g id="Group_3364" data-name="Group 3364">
        <g id="Group_3362" data-name="Group 3362">
          <path id="Path_2722" data-name="Path 2722" d="M172.125,119.478l-1.135-2.184.719-11.6a1.158,1.158,0,0,0-.626-1.28h0a1.158,1.158,0,0,0-1.471.4l-2.887,5.564-7.485-2.253-7.08-3.387a1.1,1.1,0,0,0-1.373.361h0a1.1,1.1,0,0,0,.242,1.509l.666.5h0a2.173,2.173,0,0,0,.454,2.177l.25.272-.056.414a2.173,2.173,0,0,0,.154,1.142l1.434,3.368a4.652,4.652,0,0,0,2.694,2.551l2.079.754,5.664.456,2.522,4.4Z" transform="translate(-150.588 -104.296)" fill="#fff"/>
        </g>
        <g id="Group_3363" data-name="Group 3363" transform="translate(2.016 2.601)">
          <path id="Path_2723" data-name="Path 2723" d="M153.416,110.174l.308-.077a1.434,1.434,0,0,1,1.617.724l.478.909a1.434,1.434,0,0,0,1.04.748l1.592.258" transform="translate(-151.73 -105.118)" fill="none" stroke="#404b7c" stroke-linecap="round" stroke-linejoin="round" stroke-miterlimit="10" stroke-width="0.543"/>
          <line id="Line_185" data-name="Line 185" x2="2.28" y2="5.868" transform="translate(5.87 1.749)" fill="none" stroke="#404b7c" stroke-linecap="round" stroke-linejoin="round" stroke-miterlimit="10" stroke-width="0.543"/>
          <path id="Path_2724" data-name="Path 2724" d="M152.9,108.188l.7-.063a1.434,1.434,0,0,1,1.527,1.114h0q.01.043.022.085l.8,2.76" transform="translate(-151.89 -105.715)" fill="none" stroke="#404b7c" stroke-linecap="round" stroke-linejoin="round" stroke-miterlimit="10" stroke-width="0.543"/>
          <path id="Path_2725" data-name="Path 2725" d="M152.128,106.326l.387-.037a1.434,1.434,0,0,1,1.527,1.086l.274,1.312" transform="translate(-152.128 -106.283)" fill="none" stroke="#404b7c" stroke-linecap="round" stroke-linejoin="round" stroke-miterlimit="10" stroke-width="0.543"/>
        </g>
        <path id="Path_2726" data-name="Path 2726" d="M160.822,120.037l8.232-5.468,27.727,30.247,24,2.273s8.762,1.341,7.26,10.712-11.084,7.682-11.084,7.682l-24.913-7.213a15.086,15.086,0,0,1-8.1-5.743Z" transform="translate(-147.427 -101.122)" fill="#ff2d26"/>
      </g>
    </g>
    <g id="WOMAN_2_RIGHT_LEG" transform="translate(199.759 249.953)">
      <g id="Group_3367" data-name="Group 3367">
        <path id="Path_2727" data-name="Path 2727" d="M172.363,284.5l-2.758,11.82h5.516l3.414-11.295Z" transform="translate(-158.785 -163.804)" fill="#fff"/>
        <g id="Group_3365" data-name="Group 3365" transform="translate(0 126.807)">
          <path id="Path_2728" data-name="Path 2728" d="M180.692,289.169V313.31H161.562a14.142,14.142,0,0,1,.486-7.133,23.309,23.309,0,0,0,1.636-1.931,44.874,44.874,0,0,0,7.421-15.078h9.587Z" transform="translate(-161.339 -289.169)" fill="#ff2d26"/>
          <path id="Path_2729" data-name="Path 2729" d="M180.692,305.767v4.554H161.562a14.143,14.143,0,0,1,.486-7.133,7.33,7.33,0,0,1,1.636-1.931,10.5,10.5,0,0,1,7.074-2.41c6.478,0,7.355,6.92,7.355,6.92h2.579Z" transform="translate(-161.339 -286.179)" fill="#5222d0"/>
          <path id="Path_2730" data-name="Path 2730" d="M174.96,290.956s-1.051,6.3-3.415,9.544" transform="translate(-158.186 -288.617)" fill="none" stroke="#ecbdbb" stroke-linecap="round" stroke-linejoin="round" stroke-miterlimit="10" stroke-width="0.572"/>
          <path id="Path_2731" data-name="Path 2731" d="M170.746,290.956s-1.051,6.3-3.415,9.544" transform="translate(-159.488 -288.617)" fill="none" stroke="#ecbdbb" stroke-linecap="round" stroke-linejoin="round" stroke-miterlimit="10" stroke-width="0.572"/>
        </g>
        <g id="Group_3366" data-name="Group 3366" transform="translate(9.769)">
          <path id="Path_2732" data-name="Path 2732" d="M229.213,197.283l-13.242,32.252-35.607,86.732-11.561-2.89,28.9-121.088,9.894,1.572Z" transform="translate(-168.802 -192.288)" fill="#66fcf1"/>
          <path id="Path_2733" data-name="Path 2733" d="M220.058,196.912l-13.242,32.252-8.377-27.708v-7.967Z" transform="translate(-159.647 -191.918)" fill="#39a199"/>
          <line id="Line_186" data-name="Line 186" x1="33.351" y2="89.725" transform="translate(10.508 30.053)" fill="none" stroke="#d4e6fc" stroke-linecap="round" stroke-linejoin="round" stroke-miterlimit="10" stroke-width="0.545"/>
          <ellipse id="Ellipse_1044" data-name="Ellipse 1044" cx="8.163" cy="5.207" rx="8.163" ry="5.207" transform="translate(13.366 75.847) rotate(-78.16)" fill="none" stroke="#d4e6fc" stroke-linecap="round" stroke-linejoin="round" stroke-miterlimit="10" stroke-width="0.545"/>
          <line id="Line_187" data-name="Line 187" x2="9.719" y2="2.495" transform="translate(2.103 118.596)" fill="none" stroke="#d4e6fc" stroke-linecap="round" stroke-linejoin="round" stroke-miterlimit="10" stroke-width="0.545"/>
        </g>
      </g>
    </g>
    <g id="WOMAN_2_LEFT_LEG" transform="translate(251.789 249.954)">
      <g id="Group_3370" data-name="Group 3370">
        <g id="Group_3368" data-name="Group 3368" transform="translate(15.951 119.12)">
          <path id="Path_2734" data-name="Path 2734" d="M222.276,283.3c.263.263,3.086,5.516,3.086,5.516l-4.071,2.561-4.4-6.5Z" transform="translate(-212.16 -283.297)" fill="#fff"/>
          <path id="Path_2735" data-name="Path 2735" d="M235.8,298.94l-8.077,15.409H213.6s-2.491-11.216,6.242-11.474a33.832,33.832,0,0,0-.789-12.078l7.811-4.989,7.052,10.369Z" transform="translate(-213.276 -282.521)" fill="#ff2d26"/>
          <path id="Path_2736" data-name="Path 2736" d="M221.239,289.169s1.576,6.8.438,11.883" transform="translate(-210.817 -281.483)" fill="none" stroke="#fff" stroke-linecap="round" stroke-linejoin="round" stroke-miterlimit="10" stroke-width="0.572"/>
          <path id="Path_2737" data-name="Path 2737" d="M235.8,296.493,227.725,311.9H213.6s-2.491-11.216,6.242-11.474a7.431,7.431,0,0,1,7.487,5.321l6.588-12.019Z" transform="translate(-213.276 -280.074)" fill="#5222d0"/>
        </g>
        <g id="Group_3369" data-name="Group 3369">
          <path id="Path_2738" data-name="Path 2738" d="M208.626,196.755v22.152L201.3,272.728a22.835,22.835,0,0,0,2.924,14.625l16.5,28.158,9.719-3.217-12.608-35.163,18.81-54.765a22.835,22.835,0,0,0,.866-11.524l-3.391-18.553Z" transform="translate(-201.089 -192.289)" fill="#66fcf1"/>
          <path id="Path_2739" data-name="Path 2739" d="M203.507,199.188l.977,14.6a3.271,3.271,0,0,0,1.926,2.767l2.02.905.195-19.957" transform="translate(-200.343 -190.678)" fill="none" stroke="#d4e6fc" stroke-linecap="round" stroke-linejoin="round" stroke-miterlimit="10" stroke-width="0.545"/>
          <ellipse id="Ellipse_1045" data-name="Ellipse 1045" cx="5.207" cy="8.163" rx="5.207" ry="8.163" transform="matrix(0.982, -0.187, 0.187, 0.982, 0.074, 78.784)" fill="none" stroke="#d4e6fc" stroke-linecap="round" stroke-linejoin="round" stroke-miterlimit="10" stroke-width="0.545"/>
          <path id="Path_2740" data-name="Path 2740" d="M222.862,306.228l-11.59-31.52,19.377-59.226a8.906,8.906,0,0,0,.227-4.714l-2.443-10.921" transform="translate(-197.944 -189.955)" fill="none" stroke="#d4e6fc" stroke-linecap="round" stroke-linejoin="round" stroke-miterlimit="10" stroke-width="0.545"/>
          <line id="Line_188" data-name="Line 188" y1="2.495" x2="7.647" transform="translate(19.567 117.281)" fill="none" stroke="#d4e6fc" stroke-linecap="round" stroke-linejoin="round" stroke-miterlimit="10" stroke-width="0.545"/>
          <path id="Path_2741" data-name="Path 2741" d="M218.843,200.852l1.69,5.195a5.375,5.375,0,0,0,5.379,3.706l2.44-.122" transform="translate(-195.605 -189.645)" fill="none" stroke="#d4e6fc" stroke-linecap="round" stroke-linejoin="round" stroke-miterlimit="10" stroke-width="0.545"/>
        </g>
      </g>
    </g>
    <g id="WOMAN_2_BODY" transform="translate(231.33 179.333)">
      <g id="Group_3371" data-name="Group 3371">
        <path id="Path_2742" data-name="Path 2742" d="M222.364,139.3a142.275,142.275,0,0,1-15.879-.365s-11.964,27.814-11.57,30.7,4.728,9.85,4.728,9.85l-14.184,34.278a40.774,40.774,0,0,0,25.479,9.325c15.76.263,36.773-7.749,36.773-7.749s-10.769-29.419-10.9-32.7,8.143-20.619,8.537-27.974S222.364,139.3,222.364,139.3Z" transform="translate(-185.459 -138.151)" fill="#ff2d26"/>
        <path id="Path_2743" data-name="Path 2743" d="M188.871,194.5s9.587,5.647,20.357,6.567,33.359-6.435,33.359-6.435" transform="translate(-184.406 -120.986)" fill="none" stroke="#ecbdbb" stroke-linecap="round" stroke-linejoin="round" stroke-miterlimit="10" stroke-width="0.572"/>
        <path id="Path_2744" data-name="Path 2744" d="M217.2,138.562c-8.164-1.6-10.332,5.6-10.332,9.981a20.1,20.1,0,0,1,7.968-1.839,16.058,16.058,0,0,1,5.428,5.253S228.841,140.838,217.2,138.562Z" transform="translate(-178.847 -138.335)" fill="#9ab3da"/>
      </g>
    </g>
    <g id="WOMAN_2_NECK" transform="translate(265.392 169.757)">
      <g id="Group_3372" data-name="Group 3372">
        <path id="Path_2745" data-name="Path 2745" d="M220.848,131.019l-.391,2.859-1.451,10.531-5.078,2.808-2.446-3.243,1.8-6.58,1-3.663Z" transform="translate(-211.482 -131.019)" fill="#fff"/>
        <path id="Path_2746" data-name="Path 2746" d="M220.424,131.019l-.391,2.859a10.337,10.337,0,0,1-7.178,3.515l1-3.663Z" transform="translate(-211.058 -131.019)" fill="#ededed"/>
      </g>
    </g>
    <g id="WOMAN_2_HEAD" transform="translate(261.379 146.915)">
      <g id="Group_3375" data-name="Group 3375">
        <path id="Path_2747" data-name="Path 2747" d="M211.576,122.125a25.038,25.038,0,0,0-2.5,11.647c.27,6.473,5.444,6.826,10.479,4.292s7.746-10.172,7.746-10.172,1.923-6.566-2.6-9.215A9.386,9.386,0,0,0,211.576,122.125Z" transform="translate(-208.217 -112.415)" fill="#fff"/>
        <path id="Path_2748" data-name="Path 2748" d="M224.4,121.9a16.12,16.12,0,0,1-15.311,2.9c-3.467-7.02,7.21-16.875,15.938-7.177,12.64,3.309,7.977,16.245.8,15.183C225.821,132.8,222.6,129.478,224.4,121.9Z" transform="translate(-208.416 -113.567)" fill="#66fcf1"/>
        <g id="Group_3374" data-name="Group 3374" transform="translate(14.061 16.781)">
          <g id="Group_3373" data-name="Group 3373">
            <path id="Path_2749" data-name="Path 2749" d="M219.159,131.8l2.286-3.8s2.509-2.6,5.142-1.2S227.02,135.464,219.159,131.8Z" transform="translate(-219.159 -126.388)" fill="#fff"/>
            <path id="Path_2750" data-name="Path 2750" d="M225.539,127.948a8.082,8.082,0,0,0-5.183,1.928" transform="translate(-218.789 -125.907)" fill="none" stroke="#000" stroke-linecap="round" stroke-linejoin="round" stroke-miterlimit="10" stroke-width="0.543"/>
            <path id="Path_2751" data-name="Path 2751" d="M222.78,130.627a7.325,7.325,0,0,0-.109-2.446" transform="translate(-218.074 -125.834)" fill="none" stroke="#000" stroke-linecap="round" stroke-linejoin="round" stroke-miterlimit="10" stroke-width="0.543"/>
          </g>
          <path id="Path_2752" data-name="Path 2752" d="M221.451,130.237c-1.15.077-1.978,1.717-1.848,3.664s1.167,3.463,2.318,3.386c.51-.034.956-.375,1.433-1.19a4.66,4.66,0,0,0,.415-2.474,5.348,5.348,0,0,0-.51-1.995" transform="translate(-219.026 -125.199)" fill="none" stroke="#ff2d26" stroke-linecap="round" stroke-linejoin="round" stroke-miterlimit="10" stroke-width="0.543"/>
        </g>
      </g>
    </g>
    <g id="WOMAN_2_FACE" transform="translate(264.148 157.212)">
      <g id="Group_3378" data-name="Group 3378">
        <path id="Path_2753" data-name="Path 2753" d="M219.856,124.749s-.6-2.811-2.732-2.343c0,0,.094-.58-.4-.719s-.938,1.4-.938,1.4A11.056,11.056,0,0,1,219.856,124.749Z" transform="translate(-208.909 -121.359)" fill="#ff2d26"/>
        <path id="Path_2754" data-name="Path 2754" d="M210.532,123.288s.8-2.5,2.09-1.422c0,0,.158-.459.49-.431.574.049.313,1.537.313,1.537A4.646,4.646,0,0,0,210.532,123.288Z" transform="translate(-210.532 -121.434)" fill="#ff2d26"/>
        <g id="Group_3376" data-name="Group 3376" transform="translate(6.398 5.11)">
          <ellipse id="Ellipse_1046" data-name="Ellipse 1046" cx="1.334" cy="1.079" rx="1.334" ry="1.079" transform="matrix(0.218, -0.976, 0.976, 0.218, 0, 2.604)"/>
          <circle id="Ellipse_1047" data-name="Ellipse 1047" cx="0.287" cy="0.287" r="0.287" transform="translate(0.927 0.736)" fill="#fff"/>
        </g>
        <g id="Group_3377" data-name="Group 3377" transform="translate(0.195 3.728)">
          <ellipse id="Ellipse_1048" data-name="Ellipse 1048" cx="1.334" cy="1.079" rx="1.334" ry="1.079" transform="matrix(0.218, -0.976, 0.976, 0.218, 0, 2.604)"/>
          <circle id="Ellipse_1049" data-name="Ellipse 1049" cx="0.287" cy="0.287" r="0.287" transform="translate(0.927 0.735)" fill="#fff"/>
        </g>
        <path id="Path_2755" data-name="Path 2755" d="M214.378,125.716l-.587,2.542s-1.825-.392-1.65.737c.173,1.109,1.672,1.071,1.672,1.071" transform="translate(-210.039 -120.112)" fill="none" stroke="#000" stroke-linecap="round" stroke-linejoin="round" stroke-miterlimit="10" stroke-width="0.541"/>
        <path id="Path_2756" data-name="Path 2756" d="M212.01,131.946a6.944,6.944,0,0,0,5.513-.99c-2.37-.035-4.483-.3-5.84-1.255Z" transform="translate(-210.177 -118.881)"/>
      </g>
    </g>
    <g id="WOMAN_2_LEFT_ARM" transform="translate(212.342 139.443)">
      <g id="Group_3380" data-name="Group 3380">
        <g id="Group_3379" data-name="Group 3379">
          <path id="Path_2757" data-name="Path 2757" d="M191.581,123.969l-1-2.252,3.092-11.112a1.158,1.158,0,0,0-.544-1.317h0a1.158,1.158,0,0,0-1.493.307l-3.842,5.061-8.361-2.832L172.585,108a1.1,1.1,0,0,0-1.393.274h0a1.1,1.1,0,0,0,.146,1.521l.633.539h0a2.173,2.173,0,0,0,.315,2.2l.232.287-.082.409a2.173,2.173,0,0,0,.082,1.149l1.218,3.452a4.651,4.651,0,0,0,2.528,2.716l2.028.884,5.624.813,2.24,4.551Z" transform="translate(-170.952 -107.859)" fill="#fff"/>
          <line id="Line_189" data-name="Line 189" x2="6.122" y2="4.554" transform="translate(2.214 2.933)" fill="none" stroke="#404b7c" stroke-linecap="round" stroke-linejoin="round" stroke-miterlimit="10" stroke-width="0.543"/>
          <line id="Line_190" data-name="Line 190" x2="4.144" y2="3.472" transform="translate(2.513 5.583)" fill="none" stroke="#404b7c" stroke-linecap="round" stroke-linejoin="round" stroke-miterlimit="10" stroke-width="0.543"/>
          <line id="Line_191" data-name="Line 191" x2="1.642" y2="2.426" transform="translate(3.633 8.308)" fill="none" stroke="#404b7c" stroke-linecap="round" stroke-linejoin="round" stroke-miterlimit="10" stroke-width="0.543"/>
        </g>
        <path id="Path_2758" data-name="Path 2758" d="M180.324,123.786l8.56-4.938,25.764,31.936,23.808,3.783s8.66,1.891,6.57,11.149-11.547,6.968-11.547,6.968l-25.021-8.909a17.17,17.17,0,0,1-9.047-7.481Z" transform="translate(-168.057 -104.465)" fill="#ff2d26"/>
        <line id="Line_192" data-name="Line 192" y1="3.39" x2="5.785" transform="translate(15.459 17.768)" fill="none" stroke="#ecbdbb" stroke-linecap="round" stroke-linejoin="round" stroke-miterlimit="10" stroke-width="0.572"/>
        <path id="Path_2759" data-name="Path 2759" d="M207.057,139.509,211,144.4l23.808,3.783s8.66,1.891,6.57,11.149-11.547,6.968-11.547,6.968l-25.021-8.909a17.17,17.17,0,0,1-9.047-7.482L192.12,143.7" transform="translate(-164.413 -98.082)" fill="none" stroke="#ecbdbb" stroke-linecap="round" stroke-linejoin="round" stroke-miterlimit="10" stroke-width="0.572"/>
      </g>
    </g>
    <g id="MAN_LEFT_ARM" transform="translate(114.586 105.569)">
      <g id="Group_3383" data-name="Group 3383">
        <g id="Group_3381" data-name="Group 3381" transform="translate(39.224)">
          <path id="Path_2760" data-name="Path 2760" d="M131.318,108.708l.673-5.042-2.162-2.5a4.4,4.4,0,0,1-1-2.081l-.669-3.64-1.749-3.121a1.391,1.391,0,0,1,.335-1.759h0a1.391,1.391,0,0,1,2,.262l2.547,3.509,1.212,1.006-.168-5.155L128.232,85.3a1.35,1.35,0,0,1,.015-1.756h0a1.35,1.35,0,0,1,1.916-.121l2.865,2.553-1.411-2.017a1.26,1.26,0,0,1,.286-1.737h0a1.26,1.26,0,0,1,1.632.12l2.58,2.552,1.929,1.357a2.033,2.033,0,0,1,.748.987l.222.631.119.1a4.4,4.4,0,0,1,1.463,4.078l-1.742,10.1-.8,8.743Z" transform="translate(-126.234 -81.979)" fill="#fff"/>
          <path id="Path_2761" data-name="Path 2761" d="M136.071,86.389l-2.089-.524a.858.858,0,0,0-1.038.612h0a.858.858,0,0,0,.522,1.021l1.765.677-.122,4.587" transform="translate(-124.17 -80.787)" fill="none" stroke="#404b7c" stroke-linecap="round" stroke-linejoin="round" stroke-miterlimit="10" stroke-width="0.543"/>
          <path id="Path_2762" data-name="Path 2762" d="M133.713,84.187l-.82-.14a1.174,1.174,0,0,0-1.338.878h0a1.174,1.174,0,0,0,.679,1.358l1.2.515" transform="translate(-124.601 -81.346)" fill="none" stroke="#404b7c" stroke-linecap="round" stroke-linejoin="round" stroke-miterlimit="10" stroke-width="0.543"/>
        </g>
        <g id="Group_3382" data-name="Group 3382" transform="translate(0 25.105)">
          <path id="Path_2763" data-name="Path 2763" d="M139.528,110.115l1.342-5.291-11.5-3.664-1.58,5.15Z" transform="translate(-86.529 -101.16)" fill="#66fcf1"/>
          <path id="Path_2764" data-name="Path 2764" d="M103.176,152.211l26.316-23.923,7.839-24.831,13.423,5s-7.973,28.809-9.02,30.3-32.221,34.184-32.221,34.184C100.407,179.329,88.491,160.361,103.176,152.211Z" transform="translate(-96.267 -100.45)" fill="#39a199"/>
          <circle id="Ellipse_1050" data-name="Ellipse 1050" cx="1.375" cy="1.375" r="1.375" transform="translate(49.374 9.276)" fill="#404b7c"/>
          <line id="Line_193" data-name="Line 193" x2="6.083" y2="4.193" transform="translate(33.858 28.69)" fill="none" stroke="#404b7c" stroke-linecap="round" stroke-linejoin="round" stroke-miterlimit="10" stroke-width="0.572"/>
        </g>
      </g>
    </g>
    <g id="MAN_LEFT_LEG" transform="translate(97.457 260.277)">
      <g id="Group_3388" data-name="Group 3388">
        <g id="Group_3386" data-name="Group 3386" transform="translate(0 104.888)">
          <g id="Group_3384" data-name="Group 3384" transform="translate(9.907)">
            <path id="Path_2765" data-name="Path 2765" d="M103.856,282.2s-2.711,6.323-3.449,8.1c-1.207,2.952-2.826,6.889-2.85,7a26.518,26.518,0,0,1-3.6.391l-3.208-2.142,1.588-5.337,2.914-9.9Z" transform="translate(-90.749 -280.311)" fill="#fff"/>
            <path id="Path_2766" data-name="Path 2766" d="M103.481,282.2s-2.711,6.323-3.449,8.1c-1.873-.024-5.265-.051-8.07-.09l2.914-9.9Z" transform="translate(-90.374 -280.311)" fill="#ededed"/>
          </g>
          <g id="Group_3385" data-name="Group 3385" transform="translate(0 12.285)">
            <path id="Path_2767" data-name="Path 2767" d="M117.361,313.148h-13.7l-20.028-8.275s3.519-11,9.088-15.176c0,0,4.236,3.232,8.6,3.533a87.97,87.97,0,0,0,6.136,8.172,27.566,27.566,0,0,0,3.314,1.524C115.425,304.606,117.361,305.829,117.361,313.148Z" transform="translate(-83.039 -289.697)" fill="#404b7c"/>
            <path id="Path_2768" data-name="Path 2768" d="M99.967,301.246a56.65,56.65,0,0,1-5.29-8.128" transform="translate(-79.629 -288.639)" fill="none" stroke="#9ab3da" stroke-linecap="round" stroke-linejoin="round" stroke-miterlimit="10" stroke-width="0.572"/>
            <path id="Path_2769" data-name="Path 2769" d="M84.8,297.885l-1.616,4.232,20.626,8.5,0-4.533Z" transform="translate(-83.18 -287.167)" fill="#ff2d26"/>
            <path id="Path_2770" data-name="Path 2770" d="M110.572,302.264c-2.614-1.481-6.321-3.572-6.321-3.572-3.659,1.829-5.314,7.144-5.314,7.144v4.53H113.36C113.36,306.968,113.185,303.745,110.572,302.264Z" transform="translate(-78.313 -286.918)" fill="#ff2d26"/>
          </g>
        </g>
        <g id="Group_3387" data-name="Group 3387" transform="translate(8.377)">
          <path id="Path_2771" data-name="Path 2771" d="M113.054,200.177A11.769,11.769,0,0,0,101.307,212.7c1.058,16.414,2.779,43.151,2.768,43.435C104.047,256.685,89.58,310,89.58,310l12.75,3.884s21.106-48.352,22.363-53.663c1.195-5.073,4.872-27.189,7.353-49.809a9.22,9.22,0,0,0-9.158-10.236h-9.834Z" transform="translate(-89.58 -200.176)" fill="#ff2d26"/>
          <ellipse id="Ellipse_1051" data-name="Ellipse 1051" cx="8.814" cy="5.706" rx="8.814" ry="5.706" transform="translate(19.055 66.184) rotate(-69.829)" fill="none" stroke="#ecbdbb" stroke-linecap="round" stroke-linejoin="round" stroke-miterlimit="10" stroke-width="0.572"/>
          <path id="Path_2772" data-name="Path 2772" d="M105.225,205.846l2.395,47.789L92.309,305.481" transform="translate(-88.737 -198.425)" fill="none" stroke="#ecbdbb" stroke-linecap="round" stroke-linejoin="round" stroke-miterlimit="10" stroke-width="0.572"/>
        </g>
      </g>
    </g>
    <g id="MAN_RIGHT_LEG" transform="translate(36.962 231.703)">
      <g id="Group_3393" data-name="Group 3393">
        <g id="Group_3391" data-name="Group 3391" transform="translate(0 131.827)">
          <g id="Group_3390" data-name="Group 3390">
            <path id="Path_2773" data-name="Path 2773" d="M53.471,279.061s-.725,1.353-1.632,3.051c-1.518,2.8-3.537,6.553-3.606,6.641a26.518,26.518,0,0,0,1.98,3.032l3.69,1.123,3.121-4.611,2.885-4.265Z" transform="translate(-33.482 -279.061)" fill="#fff"/>
            <g id="Group_3389" data-name="Group 3389" transform="translate(0 7.573)">
              <path id="Path_2774" data-name="Path 2774" d="M55.227,303.357a120.086,120.086,0,0,0,3.206-12.163,32.18,32.18,0,0,1-6.359-6.347c-3.781.609-8.038,3.732-11.214,5.966-2.166,1.513-3.6,2.753-3.6,2.753l4.486,5.809,9.338,10.74Z" transform="translate(-36.87 -284.847)" fill="#404b7c"/>
              <path id="Path_2775" data-name="Path 2775" d="M47.044,297.8a56.649,56.649,0,0,1,3.6-9" transform="translate(-33.848 -283.626)" fill="none" stroke="#9ab3da" stroke-linecap="round" stroke-linejoin="round" stroke-miterlimit="10" stroke-width="0.572"/>
              <path id="Path_2776" data-name="Path 2776" d="M40.548,289l-3.585,2.768,11.423,20.388,3.781-2.515Z" transform="translate(-36.962 -283.563)" fill="#ff2d26"/>
              <path id="Path_2777" data-name="Path 2777" d="M53.538,297.93c-7.266-.192-7.408,6.956-7.408,6.956l-.44,4.52,15.807.418C61.642,304.3,60.8,298.122,53.538,297.93Z" transform="translate(-34.266 -280.807)" fill="#ff2d26"/>
            </g>
            <path id="Path_2778" data-name="Path 2778" d="M52.619,279.061s-.725,1.353-1.632,3.051c1.206,1.433,3.377,4.04,5.185,6.184l2.885-4.265Z" transform="translate(-32.63 -279.061)" fill="#ededed"/>
          </g>
        </g>
        <g id="Group_3392" data-name="Group 3392" transform="translate(16.8)">
          <path id="Path_2779" data-name="Path 2779" d="M95.733,191.546S79,253.333,75.907,262.288,49.8,308.025,49.8,308.025a28.57,28.57,0,0,0,11.381,8.383c.353-.6,31.167-39.222,33.2-43.144,1.156-2.231,10.109-16.484,17.722-28.55,3.851-6.1,6.071-16.223,7.89-19.464,1.118-7.025,2.086-20.232,7.154-36.588C123.078,174.655,104.809,174.247,95.733,191.546Z" transform="translate(-49.797 -178.346)" fill="#ff2d26"/>
          <path id="Path_2780" data-name="Path 2780" d="M115.639,192.222s-4.848,23.729-6.18,25.259-6.034,3.752-6.034,3.752l4.758-29.885" transform="translate(-33.231 -174.329)" fill="none" stroke="#ecbdbb" stroke-linecap="round" stroke-linejoin="round" stroke-miterlimit="10" stroke-width="0.572"/>
          <ellipse id="Ellipse_1052" data-name="Ellipse 1052" cx="8.814" cy="5.706" rx="8.814" ry="5.706" transform="translate(28.191 98.867) rotate(-70.196)" fill="none" stroke="#ecbdbb" stroke-linecap="round" stroke-linejoin="round" stroke-miterlimit="10" stroke-width="0.572"/>
          <path id="Path_2781" data-name="Path 2781" d="M97.516,193.064S79.909,259.959,77.893,264.4s-25.267,39.077-25.267,39.077" transform="translate(-48.924 -173.799)" fill="none" stroke="#ecbdbb" stroke-linecap="round" stroke-linejoin="round" stroke-miterlimit="10" stroke-width="0.572"/>
        </g>
      </g>
    </g>
    <g id="MAN_BODY" transform="translate(88.367 175.793)">
      <g id="Group_3400" data-name="Group 3400">
        <g id="Group_3395" data-name="Group 3395">
          <g id="Group_3394" data-name="Group 3394">
            <path id="Path_2782" data-name="Path 2782" d="M84.515,203.181c-.36-2.4-5.1-25.795-7.976-39.929a14.982,14.982,0,0,1,7.939-16.394c5.026-2.515,11.024-5.027,15.782-5.56,8.992-3.07,17.314-5.667,17.314-5.667,8.095,17.719,22.63,90.335,22.63,90.335-7.058,8.708-10.8,9.743-19.051,12.479-1.906-7.822-3.524-16-3.524-16l-6.479,17c-13.718-.309-34.493-7.341-34.493-7.341S85.035,206.645,84.515,203.181Z" transform="translate(-76.236 -135.631)" fill="#39a199"/>
            <path id="Path_2783" data-name="Path 2783" d="M107.818,135.631c4.22,9.9,9.745,29.028,11.65,39.814" transform="translate(-66.48 -135.631)" fill="none" stroke="#404b7c" stroke-linecap="round" stroke-linejoin="round" stroke-miterlimit="10" stroke-width="0.572"/>
          </g>
          <path id="Path_2784" data-name="Path 2784" d="M124.1,188.635l2.452,4.23-9.99,6.374-2.523-4.273Z" transform="translate(-64.559 -119.258)" fill="#66fcf1"/>
          <path id="Path_2785" data-name="Path 2785" d="M89.359,194.419l-.882,4.81,13.571,2.2.934-4.874Z" transform="translate(-72.454 -117.471)" fill="#66fcf1"/>
          <path id="Path_2786" data-name="Path 2786" d="M109.725,209.274l1.241-5.007s-2.533-10.613-8.191-32.187" transform="translate(-68.038 -124.371)" fill="none" stroke="#404b7c" stroke-linecap="round" stroke-linejoin="round" stroke-miterlimit="10" stroke-width="0.572"/>
        </g>
        <g id="Group_3399" data-name="Group 3399" transform="translate(5.018 3.762)">
          <path id="Path_2787" data-name="Path 2787" d="M97.7,138.514s4.521-.249,12.981,1.917a39.615,39.615,0,0,1,8.723,10.4l-6.885,3.293,4.585,7-7.741,18.172-23.2-11.634,2.527-9.87-8.619.511s1.818-9.36,3.414-12.042S94.2,138.921,97.7,138.514Z" transform="translate(-80.069 -138.505)" fill="#66fcf1"/>
          <g id="Group_3397" data-name="Group 3397" transform="translate(6.015 2.191)">
            <path id="Path_2788" data-name="Path 2788" d="M97.012,140.191c2.592-.133,8.173.819,11,1.343,1.484,4.8,3.595,22.691-1.4,33.863,0,0-16.476-18.538-21.947-29.718C87.686,143.952,94.313,140.33,97.012,140.191Z" transform="translate(-84.664 -140.179)" fill="#fff"/>
            <g id="Group_3396" data-name="Group 3396" transform="translate(10.739 6.423)">
              <path id="Path_2789" data-name="Path 2789" d="M96.2,164.514c-.367-3.638-1.05-8-3.328-18.254l2.383-1.174,2.038.651A75.835,75.835,0,0,1,107.4,164.382a32.5,32.5,0,0,1-3.122,9.829A30.126,30.126,0,0,1,96.2,164.514Z" transform="translate(-92.869 -145.086)" fill="#5222d0"/>
              <path id="Path_2790" data-name="Path 2790" d="M98.548,148.818a36.319,36.319,0,0,0-4.138.871" transform="translate(-92.393 -143.933)" fill="none" stroke="#9ab3da" stroke-linecap="round" stroke-linejoin="round" stroke-miterlimit="10" stroke-width="0.572"/>
            </g>
          </g>
          <g id="Group_3398" data-name="Group 3398" transform="translate(12.572 1.159)">
            <path id="Path_2791" data-name="Path 2791" d="M95.91,147.977a28.675,28.675,0,0,1,8.013,3.238s-2.271-12.247-8.932-11.814S89.816,153,89.816,153,91.019,150.9,95.91,147.977Z" transform="translate(-89.674 -139.391)" fill="#fff"/>
            <path id="Path_2792" data-name="Path 2792" d="M90.98,141.935c-1.9,4.012-1.165,10.566-1.165,10.566s1.2-2.1,6.095-5.023a28.674,28.674,0,0,1,8.013,3.238s-1.169-6.3-4.289-9.706" transform="translate(-89.674 -138.891)" fill="none" stroke="#9ab3da" stroke-linecap="round" stroke-linejoin="round" stroke-miterlimit="10" stroke-width="0.572"/>
          </g>
        </g>
      </g>
    </g>
    <g id="MAN_NECK" transform="translate(109.862 166.679)">
      <g id="Group_3401" data-name="Group 3401">
        <path id="Path_2793" data-name="Path 2793" d="M92.658,146.883a5.036,5.036,0,0,0,4.427.483L98.16,141.1l1.185-6.874-6.039-5.51-.054-.05-.013.432-.115,3.553Z" transform="translate(-92.658 -128.667)" fill="#fff"/>
        <path id="Path_2794" data-name="Path 2794" d="M93.024,132.64c.2,2.774,1.2,6.73,5.036,8.45l1.185-6.874-6.039-5.51c-.032.145-.05.27-.067.381a5.1,5.1,0,0,0-.059.57A15.819,15.819,0,0,0,93.024,132.64Z" transform="translate(-92.558 -128.656)" fill="#ededed"/>
      </g>
    </g>
    <g id="MAN_HEAD" transform="translate(92.422 141.052)">
      <g id="Group_3404" data-name="Group 3404">
        <g id="Group_3402" data-name="Group 3402" transform="translate(23.86 18.165)">
          <path id="Path_2795" data-name="Path 2795" d="M97.565,125.757s-.138-2.586,1.877-2.784,3.685,4.282.982,6.972Z" transform="translate(-97.563 -122.966)" fill="#fff"/>
          <path id="Path_2796" data-name="Path 2796" d="M99.285,124.113a4.8,4.8,0,0,0-.1,3.375" transform="translate(-97.131 -122.612)" fill="none" stroke="#000" stroke-linecap="round" stroke-linejoin="round" stroke-miterlimit="10" stroke-width="0.572"/>
        </g>
        <path id="Path_2797" data-name="Path 2797" d="M90.243,122.427c3.945-3.944,10.22,1.3,13.581,6.227s2.094,11.045-4.657,10.853S82.176,130.492,90.243,122.427Z" transform="translate(-76.879 -105.396)" fill="#fff"/>
        <path id="Path_2798" data-name="Path 2798" d="M97.021,145.372l.176-3.308L94.343,139.1l-1.222-1.76s3.445-2.78-1.194-5.506c0,0,8.257.94,12-3.062s2.373-11.394.406-12.113c-1.879-.694-2.425,2.483-2.466,2.738-.063-.464-1.218-9.415-6.63-10.263-5.55-.867-7.259,11.388-8.095,18.665-.129,1.113-.279,2.173-.43,3.178-.5-1.262-1.334-3.258-2.334-5.216-1.656-3.227-4.8,1.138,1.886,7.749,0,0-6.151-1.12-6.868,1.344-.612,2.071,3.684,1.922,6.608.647-.461,3.262-.531,5.728.862,7.439C89.2,145.8,97.021,145.372,97.021,145.372Z" transform="translate(-79.334 -109.089)" fill="#ff2d26"/>
        <g id="Group_3403" data-name="Group 3403" transform="translate(10.84 29.709)">
          <path id="Path_2799" data-name="Path 2799" d="M91.784,132.086a3.037,3.037,0,0,0-3.867,1.088c-1.6,2.251,3.551,5.676,6.863,1.183Z" transform="translate(-87.616 -131.786)" fill="#fff"/>
          <path id="Path_2800" data-name="Path 2800" d="M92.59,133.507a3.933,3.933,0,0,0-4,.268" transform="translate(-87.315 -131.39)" fill="none" stroke="#000" stroke-linecap="round" stroke-linejoin="round" stroke-miterlimit="10" stroke-width="0.572"/>
          <path id="Path_2801" data-name="Path 2801" d="M90.487,134.825a2.653,2.653,0,0,1-.556-1.745" transform="translate(-86.901 -131.386)" fill="none" stroke="#000" stroke-linecap="round" stroke-linejoin="round" stroke-miterlimit="10" stroke-width="0.572"/>
        </g>
      </g>
    </g>
    <g id="MAN_FACE" transform="translate(108.545 160.036)">
      <g id="Group_3407" data-name="Group 3407">
        <path id="Path_2802" data-name="Path 2802" d="M91.767,129.907s-.653-2.351,1.14-2.837a.54.54,0,0,1,.018-.7c.316-.3,1.255.685,1.255.685A9.4,9.4,0,0,0,91.767,129.907Z" transform="translate(-91.651 -122.751)"/>
        <path id="Path_2803" data-name="Path 2803" d="M97.909,123.983s-1.956-1.076-2.119.342c0,0-.365-.192-.554.02-.325.365.7,1.132.7,1.132A3.952,3.952,0,0,1,97.909,123.983Z" transform="translate(-90.563 -123.592)"/>
        <g id="Group_3405" data-name="Group 3405" transform="translate(2.529 6.265)">
          <path id="Path_2814" data-name="Path 2814" d="M.916,0a1.042,1.042,0,0,1,.916,1.133A1.042,1.042,0,0,1,.916,2.266,1.042,1.042,0,0,1,0,1.133,1.042,1.042,0,0,1,.916,0Z" transform="matrix(0.766, -0.643, 0.643, 0.766, 0, 1.179)"/>
          <circle id="Ellipse_1054" data-name="Ellipse 1054" cx="0.244" cy="0.244" r="0.244" transform="translate(1.083 0.776)" fill="#fff"/>
        </g>
        <g id="Group_3406" data-name="Group 3406" transform="translate(6.662 2.792)">
          <ellipse id="Ellipse_1055" data-name="Ellipse 1055" cx="0.916" cy="1.133" rx="0.916" ry="1.133" transform="matrix(0.766, -0.643, 0.643, 0.766, 0, 1.179)"/>
          <circle id="Ellipse_1056" data-name="Ellipse 1056" cx="0.244" cy="0.244" r="0.244" transform="translate(1.082 0.776)" fill="#fff"/>
        </g>
        <path id="Path_2804" data-name="Path 2804" d="M97.866,129.175s1.094-.4,1.418.36c.375.876-.84,1.462-.84,1.462" transform="translate(-89.731 -121.9)" fill="none" stroke="#000" stroke-linecap="round" stroke-linejoin="round" stroke-miterlimit="10" stroke-width="0.572"/>
        <circle id="Ellipse_1057" data-name="Ellipse 1057" cx="2.54" cy="2.54" r="2.54" transform="translate(1.39 5.253)" fill="none" stroke="#000" stroke-linecap="round" stroke-linejoin="round" stroke-miterlimit="10" stroke-width="0.572"/>
        <path id="Path_2813" data-name="Path 2813" d="M2.54,0A2.54,2.54,0,1,1,0,2.54,2.54,2.54,0,0,1,2.54,0Z" transform="translate(6.087 1.091)" fill="none" stroke="#000" stroke-linecap="round" stroke-width="0.572"/>
        <path id="Path_2805" data-name="Path 2805" d="M100.456,131.071a3.979,3.979,0,0,1-3.927,1.584,2.575,2.575,0,0,0,3.078,1.227C101.644,133.171,100.456,131.071,100.456,131.071Z" transform="translate(-90.144 -121.282)"/>
      </g>
    </g>
    <g id="MAN_RIGHT_ARM" transform="translate(90.378 134.779)">
      <g id="Group_3410" data-name="Group 3410">
        <g id="Group_3408" data-name="Group 3408" transform="translate(75.332)">
          <path id="Path_2806" data-name="Path 2806" d="M135.326,129.642l3.288-4.384-.715-3.487a4.736,4.736,0,0,1,.157-2.482l1.288-3.773v-3.855a1.5,1.5,0,0,1,1.241-1.476h0a1.5,1.5,0,0,1,1.744,1.3l.546,4.639.609,1.583,2.557-4.932-1.289-6.753a1.454,1.454,0,0,1,.939-1.642h0a1.454,1.454,0,0,1,1.864.9l1.347,3.907-.264-2.639a1.357,1.357,0,0,1,1.184-1.482h0a1.357,1.357,0,0,1,1.47.972l1.08,3.757,1.1,2.291a2.19,2.19,0,0,1,.183,1.322l-.124.71.058.159a4.736,4.736,0,0,1-.773,4.6l-6.957,8.573-5.358,7.794Z" transform="translate(-135.326 -104.295)" fill="#fff"/>
          <path id="Path_2807" data-name="Path 2807" d="M145.81,108.658s.67,2.892.67,3.044-.67,2.314-.67,2.314" transform="translate(-132.087 -102.948)" fill="none" stroke="#404b7c" stroke-linecap="round" stroke-linejoin="round" stroke-miterlimit="10" stroke-width="0.543"/>
          <path id="Path_2808" data-name="Path 2808" d="M148.484,109.867s.186,1.888.186,2.07-.883,2.788-.883,2.788" transform="translate(-131.476 -102.574)" fill="none" stroke="#404b7c" stroke-linecap="round" stroke-linejoin="round" stroke-miterlimit="10" stroke-width="0.543"/>
          <line id="Line_194" data-name="Line 194" x1="0.639" y2="2.314" transform="translate(17.376 10.824)" fill="none" stroke="#404b7c" stroke-linecap="round" stroke-linejoin="round" stroke-miterlimit="10" stroke-width="0.543"/>
        </g>
        <g id="Group_3409" data-name="Group 3409" transform="translate(0 23.047)">
          <path id="Path_2809" data-name="Path 2809" d="M140.745,135.67l4.047-4.265-8.879-9.5-4.2,4.008Z" transform="translate(-61.109 -121.903)" fill="#66fcf1"/>
          <path id="Path_2810" data-name="Path 2810" d="M91.553,151.173l37.329-8.62,20.444-19.2,9.982,11.766s-22.665,22.872-24.435,23.724S86.59,173.99,86.59,173.99C74.668,175.2,73.462,151.1,91.553,151.173Z" transform="translate(-77.772 -121.457)" fill="#39a199"/>
          <path id="Path_2811" data-name="Path 2811" d="M120.788,153.44c-14.316,4.5-36.28,11.255-36.28,11.255" transform="translate(-75.691 -112.162)" fill="none" stroke="#404b7c" stroke-linecap="round" stroke-linejoin="round" stroke-miterlimit="10" stroke-width="0.572"/>
          <path id="Path_2812" data-name="Path 2812" d="M111.41,144.188l7.081-1.635,20.444-19.2" transform="translate(-67.381 -121.457)" fill="none" stroke="#404b7c" stroke-linecap="round" stroke-linejoin="round" stroke-miterlimit="10" stroke-width="0.572"/>
          <circle id="Ellipse_1059" data-name="Ellipse 1059" cx="1.481" cy="1.481" r="1.481" transform="translate(75.148 12.693)" fill="#404b7c"/>
          <line id="Line_195" data-name="Line 195" x2="3.507" y2="7.144" transform="translate(51.256 22.231)" fill="none" stroke="#404b7c" stroke-linecap="round" stroke-linejoin="round" stroke-miterlimit="10" stroke-width="0.572"/>
        </g>
      </g>
    </g>
  </g>
</svg>
