<svg width="1095" height="783" viewBox="0 0 1095 783" fill="none" xmlns="http://www.w3.org/2000/svg">
<path d="M906.54 495.43C907.493 493.444 908.001 491.273 908.026 489.07C908.051 486.866 907.593 484.684 906.685 482.677C905.777 480.67 904.44 478.887 902.769 477.453C901.097 476.02 899.132 474.97 897.012 474.379L893.681 420.922L871.471 437.661L878.039 485.859C877.283 489.491 877.884 493.274 879.727 496.492C881.571 499.709 884.53 502.138 888.043 503.318C891.556 504.498 895.379 504.347 898.789 502.893C902.198 501.439 904.955 498.783 906.54 495.43V495.43Z" fill="#FFB8B8"/>
<path d="M1003.36 705.561L1021.01 710.625L1048.91 644.904L1022.88 637.429L1003.36 705.561Z" fill="#FFB8B8"/>
<path d="M1050.33 736.795L994.883 720.877L1001.03 699.428L1035.05 709.196C1040.73 710.827 1045.54 714.651 1048.4 719.827C1051.27 725.003 1051.96 731.106 1050.33 736.795V736.795V736.795Z" fill="#2F2E41"/>
<path d="M975.092 765.937L956.737 765.936L948.005 695.058L975.095 695.06L975.092 765.937Z" fill="#FFB8B8"/>
<path d="M943.627 760.686H979.024V782.999H921.34C921.34 780.068 921.916 777.167 923.036 774.46C924.156 771.753 925.798 769.293 927.868 767.221C929.937 765.149 932.394 763.505 935.098 762.384C937.802 761.263 940.7 760.686 943.627 760.686Z" fill="#2F2E41"/>
<path d="M924.33 476.962C924.33 476.962 913.851 518.929 931.816 604.363L945.29 751.25L979.723 752.749L975.232 593.871L987.209 527.922L1017.15 619.352L1006.67 683.802L1032.12 695.793L1060.57 607.361C1060.57 607.361 1057.57 484.456 1045.6 469.467L924.33 476.962Z" fill="#2F2E41"/>
<path d="M967.811 237.899C988.119 237.899 1004.58 221.417 1004.58 201.085C1004.58 180.754 988.119 164.272 967.811 164.272C947.504 164.272 931.041 180.754 931.041 201.085C931.041 221.417 947.504 237.899 967.811 237.899Z" fill="#FFB8B8"/>
<path d="M948.284 256.99C948.284 256.99 946.038 261.934 972.986 258.879C999.934 255.825 1005.92 246.889 1005.92 246.889L1053.08 453.997L1050.09 472.323L921.336 479.959V453.997L943.792 316.55L948.284 256.99Z" fill="#E6E6E6"/>
<path d="M959.307 474.723L918.492 473.952L918.361 473.383C913.092 444.984 913.601 415.812 919.857 387.615C928.1 351.07 909.37 301.509 900.934 281.896C899.941 279.564 899.823 276.95 900.602 274.537C901.38 272.124 903.004 270.074 905.172 268.764L934.063 251.41C936.029 250.229 938.243 249.524 940.53 249.352C942.816 249.18 945.11 249.546 947.231 250.419C949.351 251.293 951.238 252.65 952.741 254.383C954.244 256.117 955.321 258.178 955.887 260.402L960.939 280.241C984.203 305.287 982.572 356.657 977.096 395.38C973.18 422.051 967.291 448.394 959.477 474.192L959.307 474.723Z" fill="#2F2E41"/>
<path d="M913.102 264.875L909.572 267.293C901.596 272.721 895.606 280.605 892.511 289.749C890.714 295.081 889.34 300.546 888.4 306.093C885.406 324.079 871.932 400.52 871.932 400.52L865.943 475.463L898.88 467.969L913.851 381.035L928.822 327.077L913.102 264.875Z" fill="#2F2E41"/>
<path d="M1030.23 475.081L1029.92 474.219C1027.78 468.277 977.816 328.328 1001.41 278.979L999.102 255.835C998.854 253.356 999.226 250.854 1000.18 248.554C1001.14 246.254 1002.65 244.228 1004.58 242.657C1006.52 241.087 1008.81 240.023 1011.25 239.559C1013.7 239.095 1016.22 239.246 1018.59 239.999L1054.7 251.46C1056.19 251.926 1057.49 252.861 1058.41 254.127C1059.32 255.393 1059.81 256.921 1059.78 258.484C1059.63 271.788 1058.9 305.695 1055.32 333.169C1050.9 367.135 1065.65 451.998 1065.79 452.851L1065.88 453.355L1030.23 475.081Z" fill="#2F2E41"/>
<path d="M1014.32 437.87C1014.36 435.667 1014.89 433.5 1015.85 431.522C1016.82 429.544 1018.22 427.803 1019.93 426.421C1021.64 425.039 1023.64 424.051 1025.78 423.525C1027.91 422.999 1030.14 422.949 1032.3 423.378L1059.34 377.163L1071.63 402.128L1044.07 442.188C1043.11 445.771 1040.87 448.877 1037.77 450.917C1034.68 452.958 1030.94 453.791 1027.28 453.259C1023.61 452.726 1020.27 450.866 1017.88 448.03C1015.49 445.193 1014.22 441.579 1014.32 437.87V437.87Z" fill="#FFB8B8"/>
<path d="M1049.34 251.385L1051.27 251.833C1053.67 252.386 1055.89 253.527 1057.73 255.153C1059.58 256.779 1060.99 258.839 1061.84 261.147L1095 351.058L1056.08 436.493L1041.85 401.27L1059.82 362.3L1027.63 321.082L1049.34 251.385Z" fill="#2F2E41"/>
<path d="M1005.08 206.174C1007.19 200.716 1008.77 195.067 1009.8 189.306C1010.82 183.511 1010.14 177.544 1007.84 172.129C1005.37 167.394 1001.91 163.244 997.703 159.96C994.817 157.503 991.788 155.221 988.631 153.124C979.734 147.218 977.798 152.592 967.128 151.383C956.457 150.174 944.499 147.102 935.946 153.478C930.415 157.685 926.262 163.448 924.019 170.03C921.776 176.612 921.546 183.714 923.357 190.429C925.741 198.552 923.843 201.229 931.205 205.619C931.201 198.309 933.979 191.271 938.973 185.938C944.074 180.587 950.976 177.318 958.344 176.765C964.019 176.353 969.671 177.566 975.227 178.77C980.617 179.939 986.153 181.168 990.722 184.207C998.295 189.245 1001.85 198.241 1004.97 206.68" fill="#2F2E41"/>
<path d="M652.736 349.231H0V352.229H652.736V349.231Z" fill="#E6E6E6"/>
<path d="M652.736 232.321H0V235.319H652.736V232.321Z" fill="#E6E6E6"/>
<path d="M652.736 115.411H0V118.409H652.736V115.411Z" fill="#E6E6E6"/>
<path d="M523.686 0H520.692V467.64H523.686V0Z" fill="#E6E6E6"/>
<path d="M393.139 0H390.145V467.64H393.139V0Z" fill="#E6E6E6"/>
<path d="M262.592 0H259.598V467.64H262.592V0Z" fill="#E6E6E6"/>
<path d="M132.044 0H129.05V467.64H132.044V0Z" fill="#E6E6E6"/>
<path d="M392.241 116.91H130.248V233.82H392.241V116.91Z" fill="#FF2D26"/>
<path d="M130.248 224.827V350.73L266.484 229.323L130.248 224.827Z" fill="#FF2D26"/>
<path d="M392.24 229.323V233.82L390.534 235.334L387.091 238.391C320.125 240.415 266.035 288.438 263.594 347.987L260.526 350.715L260.496 350.73V224.827L392.24 229.323Z" fill="#FF2D26"/>
<path d="M391.492 235.319C391.178 235.319 390.848 235.319 390.534 235.334C319.302 235.783 261.409 287.224 260.526 350.715C260.496 351.225 260.496 351.719 260.496 352.229C260.496 416.694 319.257 469.139 391.492 469.139C463.727 469.139 522.488 416.694 522.488 352.229C522.488 287.763 463.727 235.319 391.492 235.319ZM391.492 466.141C320.918 466.141 263.49 415.045 263.49 352.229C263.49 350.805 263.52 349.396 263.594 347.987C266.035 288.438 320.125 240.415 387.091 238.391C388.543 238.332 390.009 238.317 391.492 238.317C462.065 238.317 519.494 289.412 519.494 352.229C519.494 415.045 462.065 466.141 391.492 466.141Z" fill="#E6E6E6"/>
<path d="M319.631 350.754L312.146 350.712C312.149 350.046 313.348 284.043 389.922 279.465L390.368 286.946C320.92 291.098 319.651 348.321 319.631 350.754Z" fill="#E6E6E6"/>
<path d="M467.066 349.231C466.777 340.688 464.775 332.29 461.18 324.537C457.584 316.784 452.468 309.834 446.136 304.101C431.249 290.51 411.788 283.043 391.642 283.192H391.492C350.367 283.192 316.801 312.674 315.918 349.231C315.888 349.726 315.888 350.235 315.888 350.73C315.888 369.855 324.826 387.137 339.168 399.427C353.812 411.745 372.366 418.426 391.492 418.268H391.642C433.261 418.193 467.095 387.931 467.095 350.73C467.095 350.235 467.095 349.726 467.066 349.231Z" fill="#E6E6E6"/>
<path d="M446.136 304.101L443.89 306.094L341.413 397.434L339.168 399.427C324.826 387.137 315.888 369.855 315.888 350.73C315.888 350.235 315.888 349.726 315.918 349.231C316.801 312.674 350.367 283.192 391.492 283.192H391.642C411.788 283.043 431.249 290.51 446.136 304.101V304.101Z" fill="#FF2D26"/>
</svg>
