<svg width="241" height="294" viewBox="0 0 241 294" fill="none" xmlns="http://www.w3.org/2000/svg">
<path d="M216.72 251.208L216.44 251.454C205.858 260.944 197.027 260.938 197.027 260.938C197.027 260.938 196.641 251.927 207.296 241.964L207.775 241.518C218.922 231.382 225.411 229.239 228.406 232.534C231.401 235.829 224.273 244.343 216.72 251.208Z" fill="#9AB3DA"/>
<path d="M216.438 251.453C205.856 260.943 197.025 260.937 197.025 260.937C197.025 260.937 196.639 251.926 207.294 241.963C207.254 245.024 210.715 246.781 219.786 240.246C219.788 240.239 209.599 251.633 216.438 251.453Z" fill="#E9F3FF"/>
<path d="M198.71 259.746C198.643 259.746 198.577 259.726 198.521 259.688C198.466 259.651 198.423 259.597 198.398 259.534C198.374 259.471 198.369 259.403 198.384 259.337C198.4 259.272 198.434 259.212 198.484 259.167L225.843 234.297C225.909 234.246 225.993 234.221 226.076 234.228C226.16 234.236 226.238 234.274 226.294 234.336C226.35 234.399 226.381 234.48 226.38 234.564C226.379 234.648 226.347 234.728 226.289 234.789L198.93 259.659C198.87 259.714 198.792 259.745 198.71 259.746Z" fill="#404B7C"/>
<path d="M217.592 241.211C217.512 241.351 217.432 241.491 217.346 241.63C208.029 257.536 197.154 261.023 197.154 261.023C197.154 261.023 193.101 250.055 202.299 233.544C202.432 233.298 202.578 233.052 202.718 232.805C212.455 215.881 219.602 210.657 224.618 213.538C229.634 216.419 224.187 229.745 217.592 241.211Z" fill="#E9F3FF"/>
<path d="M217.346 241.631C208.029 257.537 197.154 261.024 197.154 261.024C197.154 261.024 193.101 250.056 202.299 233.545C203.464 237.338 208.428 238.13 217.034 226.471C217.033 226.47 208.98 244.57 217.346 241.631Z" fill="#9AB3DA"/>
<path d="M198.631 258.794C198.573 258.794 198.515 258.778 198.465 258.749C198.415 258.719 198.373 258.677 198.344 258.626C198.315 258.576 198.3 258.518 198.3 258.46C198.3 258.402 198.316 258.345 198.345 258.294L222.237 216.759C222.258 216.72 222.287 216.686 222.322 216.659C222.357 216.632 222.397 216.611 222.44 216.6C222.482 216.588 222.527 216.584 222.571 216.59C222.615 216.596 222.657 216.61 222.695 216.632C222.734 216.654 222.767 216.683 222.794 216.719C222.821 216.754 222.841 216.794 222.852 216.837C222.863 216.88 222.866 216.924 222.86 216.968C222.853 217.012 222.839 217.054 222.816 217.092L198.924 258.627C198.894 258.679 198.852 258.721 198.8 258.75C198.749 258.78 198.69 258.795 198.631 258.794Z" fill="#404B7C"/>
<path d="M174.473 250.888L174.799 251.154C187.224 261.403 197.214 260.984 197.214 260.984C197.214 260.984 197.214 250.762 184.709 239.984L184.143 239.505C171.052 228.551 163.605 226.421 160.364 230.305C157.123 234.189 165.628 243.467 174.473 250.888Z" fill="#9AB3DA"/>
<path d="M174.826 251.16C187.251 261.409 197.241 260.99 197.241 260.99C197.241 260.99 197.241 250.768 184.736 239.99C184.922 243.457 181.089 245.6 170.514 238.659C170.48 238.622 182.572 251.045 174.826 251.16Z" fill="#E9F3FF"/>
<path d="M195.257 259.659C195.179 259.658 195.103 259.63 195.044 259.579L162.919 232.699C162.851 232.642 162.808 232.561 162.8 232.473C162.792 232.385 162.82 232.298 162.876 232.23C162.932 232.162 163.014 232.119 163.102 232.111C163.19 232.103 163.277 232.13 163.345 232.187L195.476 259.081C195.525 259.126 195.56 259.185 195.575 259.25C195.591 259.315 195.587 259.383 195.563 259.445C195.539 259.508 195.497 259.561 195.442 259.6C195.388 259.638 195.323 259.659 195.256 259.66L195.257 259.659Z" fill="#404B7C"/>
<path d="M173.535 238.263C173.628 238.43 173.722 238.589 173.815 238.742C184.523 257.084 197.068 261.077 197.068 261.077C197.068 261.077 201.726 248.432 191.141 229.432C190.981 229.146 190.822 228.866 190.662 228.58C179.455 209.094 171.216 203.08 165.445 206.398C159.674 209.716 165.941 225.059 173.535 238.263Z" fill="#E9F3FF"/>
<path d="M173.807 238.742C184.522 257.083 197.067 261.075 197.067 261.075C197.067 261.075 201.726 248.43 191.144 229.43C189.813 233.802 184.089 234.714 174.18 221.284C174.18 221.292 183.45 242.129 173.807 238.742Z" fill="#9AB3DA"/>
<path d="M195.37 258.462C195.312 258.462 195.255 258.446 195.205 258.417C195.155 258.388 195.113 258.346 195.084 258.296L167.571 210.496C167.548 210.458 167.534 210.416 167.527 210.372C167.521 210.328 167.524 210.284 167.535 210.241C167.546 210.198 167.566 210.158 167.593 210.123C167.62 210.087 167.653 210.058 167.692 210.036C167.73 210.014 167.772 210 167.816 209.994C167.86 209.989 167.905 209.992 167.947 210.004C167.99 210.015 168.03 210.036 168.065 210.063C168.1 210.09 168.129 210.124 168.15 210.163L195.656 257.987C195.679 258.037 195.69 258.091 195.687 258.146C195.684 258.2 195.667 258.253 195.639 258.3C195.611 258.347 195.571 258.386 195.525 258.414C195.478 258.442 195.425 258.458 195.37 258.46V258.462Z" fill="#404B7C"/>
<path d="M206.897 227.575V228.167C206.737 250.741 197.297 261.077 197.297 261.077C197.297 261.077 186.29 251.906 185.98 228.746V227.708C185.98 203.783 190.386 193.866 197.474 193.866C204.562 193.866 206.897 211.363 206.897 227.575Z" fill="#9AB3DA"/>
<path d="M206.89 228.167C206.737 250.741 197.29 261.077 197.29 261.077C197.29 261.077 186.282 251.906 185.976 228.746C189.537 232.074 195.293 229.871 197.29 212.234C197.29 212.261 199.803 236.399 206.89 228.167Z" fill="#E9F3FF"/>
<path d="M197.294 257.816C197.25 257.816 197.207 257.808 197.167 257.791C197.126 257.774 197.089 257.75 197.058 257.719C197.028 257.688 197.003 257.651 196.986 257.611C196.97 257.57 196.961 257.527 196.961 257.483V198.771C196.958 198.726 196.965 198.681 196.981 198.638C196.996 198.596 197.02 198.557 197.052 198.524C197.083 198.491 197.12 198.465 197.162 198.447C197.203 198.429 197.248 198.42 197.293 198.42C197.339 198.42 197.384 198.429 197.425 198.447C197.467 198.465 197.504 198.491 197.535 198.524C197.566 198.557 197.59 198.596 197.606 198.638C197.622 198.681 197.628 198.726 197.626 198.771V257.483C197.626 257.571 197.591 257.656 197.529 257.718C197.467 257.781 197.382 257.816 197.294 257.816Z" fill="#404B7C"/>
<path d="M206.678 294H184.766C183.017 293.999 181.337 293.321 180.079 292.107C178.82 290.893 178.082 289.238 178.018 287.491L177.073 260.991C177.063 260.68 177.115 260.369 177.227 260.078C177.339 259.788 177.509 259.522 177.726 259.298C177.942 259.075 178.202 258.896 178.489 258.775C178.776 258.653 179.084 258.591 179.396 258.591H212.046C212.358 258.591 212.666 258.653 212.953 258.775C213.24 258.896 213.5 259.075 213.716 259.298C213.933 259.522 214.103 259.788 214.215 260.078C214.327 260.369 214.379 260.68 214.369 260.991L213.424 287.491C213.36 289.238 212.622 290.892 211.364 292.106C210.106 293.32 208.426 293.999 206.678 294Z" fill="#FF2D26"/>
<path d="M212.048 258.588H205.648C205.156 260.731 205.302 263.819 209.495 265.276C211.004 265.827 212.639 265.933 214.207 265.582L214.373 260.99C214.383 260.678 214.331 260.367 214.218 260.076C214.106 259.785 213.936 259.519 213.718 259.295C213.501 259.071 213.241 258.893 212.953 258.772C212.665 258.651 212.356 258.589 212.044 258.59L212.048 258.588Z" fill="#ECBDBB"/>
<path d="M197.846 267.167C196.994 264.152 198.605 260.698 199.882 258.588H192.861C188.815 265.363 191.261 277.675 202.261 275.04C207.705 273.709 211.419 274.428 213.854 275.586L214.04 270.262C207.695 266.308 199.097 271.492 197.846 267.167Z" fill="#ECBDBB"/>
<path d="M212.408 290.806C207.084 279.046 197.467 290.58 191.158 278.261C186.839 269.829 181.058 269.816 177.428 270.94L177.634 276.74C188.908 272.334 188.415 290.756 198.006 289.312C199.899 288.949 201.858 289.206 203.593 290.046C205.328 290.885 206.746 292.262 207.636 293.971C208.615 293.826 209.55 293.467 210.375 292.92C211.199 292.373 211.894 291.651 212.408 290.806Z" fill="#ECBDBB"/>
<path d="M182.738 282.99C179.83 283.715 182.578 290.231 185.101 288.5C187.624 286.769 184.941 282.433 182.738 282.99Z" fill="#ECBDBB"/>
<path d="M207.01 278.526C205.01 279.717 208.51 283.926 209.992 282.087C211.474 280.248 208.522 277.628 207.01 278.526Z" fill="#ECBDBB"/>
<path d="M207.974 20.1919H65.886V151.133H207.974V20.1919Z" fill="#9AB3DA"/>
<path d="M208.225 20.1919H65.637C64.5805 20.1919 63.724 21.0484 63.724 22.1049V22.1059C63.724 23.1624 64.5805 24.0189 65.637 24.0189H208.225C209.282 24.0189 210.138 23.1624 210.138 22.1059V22.1049C210.138 21.0484 209.282 20.1919 208.225 20.1919Z" fill="#5222D0"/>
<path d="M155.486 24.0191H118.386C117.879 24.0191 117.394 23.8178 117.035 23.4596C116.677 23.1014 116.476 22.6156 116.476 22.1091V17.2721L121.388 12.3721H152.514L157.425 17.2841V22.1091C157.425 22.3622 157.375 22.6128 157.277 22.8463C157.179 23.0798 157.036 23.2916 156.856 23.4693C156.676 23.647 156.462 23.7871 156.227 23.8815C155.992 23.9759 155.741 24.0226 155.488 24.0191H155.486Z" fill="#E9F3FF"/>
<path d="M124.578 20.524C125.589 20.524 126.408 19.7047 126.408 18.694C126.408 17.6833 125.589 16.864 124.578 16.864C123.567 16.864 122.748 17.6833 122.748 18.694C122.748 19.7047 123.567 20.524 124.578 20.524Z" fill="white"/>
<path d="M149.289 20.524C150.3 20.524 151.119 19.7047 151.119 18.694C151.119 17.6833 150.3 16.864 149.289 16.864C148.278 16.864 147.459 17.6833 147.459 18.694C147.459 19.7047 148.278 20.524 149.289 20.524Z" fill="white"/>
<path d="M208.225 147.306H65.637C64.5805 147.306 63.724 148.163 63.724 149.219V149.22C63.724 150.277 64.5805 151.133 65.637 151.133H208.225C209.282 151.133 210.138 150.277 210.138 149.22V149.219C210.138 148.163 209.282 147.306 208.225 147.306Z" fill="#5222D0"/>
<path d="M189.004 34.001H84.864C82.6604 34.001 80.874 35.7874 80.874 37.991V133.333C80.874 135.537 82.6604 137.323 84.864 137.323H189.004C191.208 137.323 192.994 135.537 192.994 133.333V37.991C192.994 35.7874 191.208 34.001 189.004 34.001Z" fill="#E9F3FF"/>
<path d="M108.48 135.294C108.392 135.294 108.307 135.259 108.245 135.196C108.182 135.134 108.147 135.049 108.147 134.961V35.3329C108.145 35.2877 108.151 35.2425 108.167 35.2C108.182 35.1575 108.207 35.1186 108.238 35.0858C108.269 35.0529 108.306 35.0267 108.348 35.0088C108.389 34.9909 108.434 34.9817 108.479 34.9817C108.525 34.9817 108.57 34.9909 108.611 35.0088C108.653 35.0267 108.69 35.0529 108.721 35.0858C108.752 35.1186 108.777 35.1575 108.792 35.2C108.808 35.2425 108.814 35.2877 108.812 35.3329V134.995C108.804 135.077 108.765 135.153 108.704 135.208C108.642 135.264 108.563 135.294 108.48 135.294Z" fill="#404B7C"/>
<path d="M136.931 135.294C136.843 135.294 136.758 135.259 136.696 135.196C136.633 135.134 136.598 135.049 136.598 134.961V35.333C136.598 35.2447 136.633 35.16 136.696 35.0975C136.758 35.0351 136.843 35 136.931 35C137.019 35 137.104 35.0351 137.167 35.0975C137.229 35.16 137.264 35.2447 137.264 35.333V134.995C137.256 135.077 137.217 135.153 137.155 135.209C137.094 135.264 137.014 135.294 136.931 135.294Z" fill="#404B7C"/>
<path d="M165.382 135.294C165.338 135.294 165.295 135.285 165.255 135.269C165.214 135.252 165.177 135.227 165.147 135.196C165.116 135.166 165.091 135.129 165.074 135.088C165.058 135.048 165.049 135.005 165.049 134.961V35.333C165.049 35.2447 165.084 35.16 165.147 35.0975C165.209 35.0351 165.294 35 165.382 35C165.47 35 165.555 35.0351 165.617 35.0975C165.68 35.16 165.715 35.2447 165.715 35.333V134.995C165.707 135.077 165.668 135.153 165.606 135.209C165.545 135.264 165.465 135.294 165.382 135.294Z" fill="#404B7C"/>
<path d="M102.19 45.3149H86.857C86.0446 45.3149 85.386 45.9735 85.386 46.7859C85.386 47.5984 86.0446 48.2569 86.857 48.2569H102.19C103.002 48.2569 103.661 47.5984 103.661 46.7859C103.661 45.9735 103.002 45.3149 102.19 45.3149Z" fill="#9AB3DA"/>
<path d="M102.19 52.356H86.857C86.0446 52.356 85.386 53.0145 85.386 53.827C85.386 54.6394 86.0446 55.298 86.857 55.298H102.19C103.002 55.298 103.661 54.6394 103.661 53.827C103.661 53.0145 103.002 52.356 102.19 52.356Z" fill="#9AB3DA"/>
<path d="M102.19 59.4041H86.857C86.0446 59.4041 85.386 60.0626 85.386 60.8751C85.386 61.6875 86.0446 62.3461 86.857 62.3461H102.19C103.002 62.3461 103.661 61.6875 103.661 60.8751C103.661 60.0626 103.002 59.4041 102.19 59.4041Z" fill="#9AB3DA"/>
<path d="M128.079 82.418H112.746C111.934 82.418 111.275 83.0766 111.275 83.889C111.275 84.7014 111.934 85.36 112.746 85.36H128.079C128.891 85.36 129.55 84.7014 129.55 83.889C129.55 83.0766 128.891 82.418 128.079 82.418Z" fill="white"/>
<path d="M128.079 89.459H112.746C111.934 89.459 111.275 90.1176 111.275 90.93C111.275 91.7424 111.934 92.401 112.746 92.401H128.079C128.891 92.401 129.55 91.7424 129.55 90.93C129.55 90.1176 128.891 89.459 128.079 89.459Z" fill="white"/>
<path d="M121.191 96.5071H112.746C111.934 96.5071 111.275 97.1657 111.275 97.9781C111.275 98.7905 111.934 99.4491 112.746 99.4491H121.191C122.003 99.4491 122.662 98.7905 122.662 97.9781C122.662 97.1657 122.003 96.5071 121.191 96.5071Z" fill="white"/>
<path d="M187.144 111.701H171.811C170.999 111.701 170.34 112.36 170.34 113.172C170.34 113.984 170.999 114.643 171.811 114.643H187.144C187.956 114.643 188.615 113.984 188.615 113.172C188.615 112.36 187.956 111.701 187.144 111.701Z" fill="#F68D88"/>
<path d="M187.144 118.742H171.811C170.999 118.742 170.34 119.401 170.34 120.213C170.34 121.025 170.999 121.684 171.811 121.684H187.144C187.956 121.684 188.615 121.025 188.615 120.213C188.615 119.401 187.956 118.742 187.144 118.742Z" fill="#F68D88"/>
<path d="M180.256 125.79H171.811C170.999 125.79 170.34 126.449 170.34 127.261C170.34 128.073 170.999 128.732 171.811 128.732H180.256C181.068 128.732 181.727 128.073 181.727 127.261C181.727 126.449 181.068 125.79 180.256 125.79Z" fill="#F68D88"/>
<path d="M126.974 70.438C131.633 64.448 131.08 53.301 131.08 53.301H115.394C115.394 53.301 115.946 64.448 111.288 70.438H126.974Z" fill="#9AB3DA"/>
<path d="M123.408 55.2981C125.062 55.2981 126.403 53.9572 126.403 52.3031C126.403 50.649 125.062 49.3081 123.408 49.3081C121.754 49.3081 120.413 50.649 120.413 52.3031C120.413 53.9572 121.754 55.2981 123.408 55.2981Z" fill="#5222D0"/>
<path d="M154.201 103.548C158.86 97.5579 158.307 86.4109 158.307 86.4109H142.621C142.621 86.4109 143.193 97.5579 138.535 103.548H154.221H154.201Z" fill="#FF2D26"/>
<path d="M150.634 88.408C152.288 88.408 153.629 87.0671 153.629 85.413C153.629 83.7589 152.288 82.418 150.634 82.418C148.98 82.418 147.639 83.7589 147.639 85.413C147.639 87.0671 148.98 88.408 150.634 88.408Z" fill="#5222D0"/>
<path d="M169.448 61.1481L184.755 57.4881C185.161 57.3903 185.59 57.4543 185.95 57.6666C186.31 57.879 186.574 58.223 186.685 58.6261L191.585 76.3951C191.643 76.6038 191.659 76.8222 191.631 77.037C191.603 77.2519 191.531 77.4589 191.421 77.6456C191.311 77.8324 191.165 77.995 190.991 78.1237C190.816 78.2525 190.618 78.3448 190.407 78.3951L175.1 82.0551C174.694 82.1529 174.265 82.0889 173.905 81.8765C173.545 81.6642 173.281 81.3201 173.17 80.9171L168.27 63.1481C168.212 62.9394 168.196 62.721 168.224 62.5061C168.252 62.2913 168.324 62.0843 168.434 61.8975C168.544 61.7108 168.69 61.5482 168.864 61.4194C169.039 61.2906 169.237 61.1984 169.448 61.1481Z" fill="#9AB3DA"/>
<path d="M172.376 66.8581C172.288 66.8687 172.199 66.8438 172.129 66.7888C172.059 66.7339 172.014 66.6534 172.003 66.5651C171.992 66.4768 172.017 66.3878 172.072 66.3179C172.127 66.2479 172.208 66.2027 172.296 66.1921L185.147 63.1171C185.191 63.107 185.236 63.1057 185.28 63.1131C185.325 63.1206 185.367 63.1367 185.405 63.1605C185.443 63.1843 185.476 63.2154 185.502 63.252C185.528 63.2885 185.546 63.3298 185.557 63.3736C185.567 63.4173 185.568 63.4626 185.56 63.5068C185.553 63.5511 185.537 63.5934 185.513 63.6314C185.489 63.6695 185.458 63.7024 185.422 63.7285C185.385 63.7545 185.344 63.773 185.3 63.7831L172.475 66.8511H172.395L172.376 66.8581Z" fill="#404B7C"/>
<path d="M173.487 70.738C173.399 70.7486 173.31 70.7237 173.24 70.6687C173.17 70.6138 173.125 70.5333 173.114 70.445C173.103 70.3566 173.128 70.2677 173.183 70.1978C173.238 70.1278 173.319 70.0826 173.407 70.072L186.258 66.997C186.302 66.9869 186.347 66.9856 186.391 66.993C186.436 67.0005 186.478 67.0166 186.516 67.0404C186.554 67.0642 186.587 67.0953 186.613 67.1318C186.639 67.1684 186.657 67.2097 186.668 67.2535C186.678 67.2972 186.679 67.3425 186.671 67.3867C186.664 67.431 186.648 67.4733 186.624 67.5113C186.6 67.5494 186.569 67.5823 186.533 67.6083C186.496 67.6343 186.455 67.6529 186.411 67.663L173.566 70.738H173.486H173.487Z" fill="#404B7C"/>
<path d="M174.598 74.625C174.51 74.6356 174.421 74.6107 174.351 74.5557C174.281 74.5008 174.236 74.4203 174.225 74.332C174.214 74.2437 174.239 74.1548 174.294 74.0848C174.349 74.0149 174.43 73.9696 174.518 73.959L182.424 72.069C182.512 72.0487 182.605 72.0643 182.682 72.1124C182.759 72.1605 182.813 72.2372 182.834 72.3255C182.854 72.4138 182.838 72.5066 182.79 72.5834C182.742 72.6601 182.665 72.7147 182.577 72.735L174.677 74.625H174.598Z" fill="#404B7C"/>
<path d="M177.281 61.761C178.935 61.761 180.276 60.4201 180.276 58.766C180.276 57.1119 178.935 55.771 177.281 55.771C175.627 55.771 174.286 57.1119 174.286 58.766C174.286 60.4201 175.627 61.761 177.281 61.761Z" fill="#5222D0"/>
<path d="M105.016 113.392L89.709 109.732C89.3025 109.634 88.8739 109.698 88.5138 109.911C88.1536 110.123 87.8902 110.467 87.779 110.87L82.916 128.639C82.8578 128.848 82.8423 129.066 82.8704 129.281C82.8985 129.496 82.9696 129.703 83.0796 129.89C83.1896 130.076 83.3361 130.239 83.5104 130.368C83.6847 130.496 83.8832 130.589 84.094 130.639L99.401 134.299C99.8075 134.397 100.236 134.333 100.596 134.12C100.956 133.908 101.22 133.564 101.331 133.161L106.231 115.392C106.289 115.181 106.303 114.96 106.273 114.744C106.243 114.527 106.169 114.319 106.055 114.132C105.942 113.945 105.792 113.782 105.614 113.655C105.436 113.528 105.234 113.439 105.02 113.392H105.016Z" fill="#9AB3DA"/>
<path d="M102.086 119.101H102.006L89.155 115.993C89.0667 115.973 88.99 115.918 88.9419 115.841C88.8938 115.765 88.8782 115.672 88.8985 115.584C88.9188 115.495 88.9733 115.419 89.0501 115.37C89.1269 115.322 89.2197 115.307 89.308 115.327L102.159 118.408C102.205 118.412 102.25 118.425 102.291 118.446C102.332 118.468 102.369 118.497 102.398 118.533C102.428 118.569 102.45 118.61 102.463 118.654C102.476 118.699 102.481 118.745 102.476 118.791C102.471 118.837 102.457 118.882 102.435 118.923C102.412 118.963 102.382 118.999 102.346 119.028C102.31 119.056 102.268 119.078 102.223 119.09C102.179 119.103 102.132 119.106 102.086 119.1V119.101Z" fill="#404B7C"/>
<path d="M100.973 122.988H100.893L88.045 119.913C87.9566 119.893 87.88 119.838 87.8319 119.761C87.7838 119.685 87.7682 119.592 87.7885 119.503C87.8087 119.415 87.8633 119.339 87.9401 119.29C88.0169 119.242 88.1096 119.227 88.198 119.247L101.045 122.329C101.126 122.346 101.198 122.392 101.247 122.459C101.295 122.526 101.317 122.609 101.308 122.692C101.299 122.774 101.26 122.85 101.197 122.905C101.135 122.96 101.055 122.989 100.972 122.988H100.973Z" fill="#404B7C"/>
<path d="M99.867 126.868H99.787L91.887 124.978C91.7987 124.958 91.722 124.903 91.6739 124.826C91.6258 124.749 91.6102 124.657 91.6305 124.568C91.6508 124.48 91.7053 124.403 91.7821 124.355C91.8589 124.307 91.9517 124.292 92.04 124.312L99.933 126.212C100.014 126.229 100.085 126.275 100.134 126.341C100.182 126.408 100.205 126.49 100.196 126.572C100.188 126.653 100.15 126.729 100.089 126.785C100.028 126.84 99.9483 126.871 99.866 126.871L99.867 126.868Z" fill="#404B7C"/>
<path d="M97.179 114.004C98.8331 114.004 100.174 112.663 100.174 111.009C100.174 109.355 98.8331 108.014 97.179 108.014C95.5249 108.014 94.184 109.355 94.184 111.009C94.184 112.663 95.5249 114.004 97.179 114.004Z" fill="#5222D0"/>
<path d="M176.475 93.6181C177.515 93.6181 178.358 92.775 178.358 91.7351C178.358 90.6951 177.515 89.8521 176.475 89.8521C175.435 89.8521 174.592 90.6951 174.592 91.7351C174.592 92.775 175.435 93.6181 176.475 93.6181Z" fill="#5222D0"/>
<path d="M184.076 99.2219C185.546 99.2219 186.738 98.0301 186.738 96.5599C186.738 95.0898 185.546 93.8979 184.076 93.8979C182.606 93.8979 181.414 95.0898 181.414 96.5599C181.414 98.0301 182.606 99.2219 184.076 99.2219Z" fill="#F68D88"/>
<path d="M121.085 107.954C122.591 107.954 124.063 108.401 125.315 109.237C126.567 110.074 127.543 111.263 128.119 112.654C128.696 114.046 128.846 115.577 128.553 117.054C128.259 118.53 127.534 119.887 126.469 120.952C125.404 122.017 124.047 122.742 122.57 123.036C121.093 123.33 119.563 123.179 118.171 122.603C116.78 122.026 115.591 121.05 114.754 119.798C113.918 118.546 113.471 117.074 113.471 115.568C113.471 113.549 114.273 111.612 115.701 110.184C117.129 108.756 119.066 107.954 121.085 107.954V107.954Z" fill="#FF2D26"/>
<path d="M130.568 129.417C132.336 129.417 133.769 127.984 133.769 126.216C133.769 124.448 132.336 123.015 130.568 123.015C128.8 123.015 127.367 124.448 127.367 126.216C127.367 127.984 128.8 129.417 130.568 129.417Z" fill="#5222D0"/>
<path d="M151.513 52.3169L153.756 56.8559L158.767 57.5809C158.992 57.6159 159.203 57.7129 159.376 57.8611C159.549 58.0094 159.677 58.2029 159.747 58.4201C159.816 58.6372 159.823 58.8693 159.767 59.0903C159.712 59.3112 159.596 59.5123 159.432 59.671L155.838 63.212L156.697 68.197C156.735 68.4222 156.71 68.6536 156.624 68.8652C156.538 69.0769 156.394 69.2602 156.21 69.3945C156.025 69.5287 155.806 69.6087 155.578 69.6252C155.35 69.6417 155.122 69.5942 154.92 69.488L150.441 67.1319L145.962 69.488C145.76 69.5942 145.532 69.6417 145.304 69.6252C145.076 69.6087 144.857 69.5287 144.672 69.3945C144.488 69.2602 144.344 69.0769 144.258 68.8652C144.172 68.6536 144.147 68.4222 144.185 68.197L145.044 63.212L141.417 59.6779C141.253 59.5193 141.137 59.3181 141.082 59.097C141.026 58.876 141.033 58.6438 141.103 58.4267C141.172 58.2095 141.3 58.016 141.473 57.8678C141.647 57.7196 141.858 57.6227 142.083 57.588L147.094 56.863L149.336 52.3279C149.439 52.1281 149.594 51.9603 149.786 51.8429C149.977 51.7256 150.197 51.6631 150.422 51.6624C150.646 51.6616 150.867 51.7227 151.059 51.8388C151.252 51.955 151.408 52.1218 151.512 52.3209L151.513 52.3169Z" fill="#FF2D26"/>
<path d="M195.943 170.246C195.899 170.253 195.855 170.251 195.812 170.24C195.769 170.229 195.728 170.21 195.693 170.184C195.657 170.158 195.627 170.125 195.604 170.087C195.582 170.049 195.567 170.007 195.56 169.963C195.553 169.919 195.556 169.875 195.566 169.832C195.577 169.789 195.596 169.749 195.622 169.713C195.648 169.677 195.681 169.647 195.719 169.625C195.757 169.602 195.799 169.587 195.843 169.58C195.843 169.58 196.296 169.44 197.074 169.134C197.115 169.114 197.16 169.103 197.206 169.101C197.252 169.1 197.298 169.107 197.341 169.124C197.384 169.141 197.422 169.167 197.455 169.199C197.487 169.232 197.513 169.271 197.529 169.314C197.546 169.357 197.553 169.402 197.551 169.448C197.549 169.494 197.538 169.539 197.518 169.58C197.498 169.622 197.469 169.658 197.434 169.688C197.399 169.718 197.358 169.74 197.314 169.753C196.514 170.066 196.063 170.206 196.043 170.212L195.943 170.246Z" fill="#404B7C"/>
<path d="M200.341 168.41C200.297 168.421 200.251 168.423 200.206 168.415C200.161 168.408 200.118 168.392 200.08 168.368C200.041 168.344 200.008 168.312 199.982 168.275C199.955 168.238 199.937 168.196 199.927 168.152C199.917 168.107 199.917 168.061 199.925 168.017C199.933 167.972 199.95 167.929 199.975 167.891C200 167.853 200.032 167.821 200.07 167.796C200.108 167.77 200.15 167.753 200.195 167.744C201.207 167.258 202.195 166.719 203.223 166.153C203.261 166.128 203.304 166.111 203.349 166.103C203.394 166.095 203.44 166.097 203.484 166.108C203.529 166.119 203.57 166.138 203.607 166.166C203.643 166.194 203.673 166.228 203.696 166.268C203.718 166.308 203.732 166.352 203.737 166.397C203.742 166.442 203.737 166.488 203.723 166.532C203.709 166.575 203.687 166.616 203.657 166.65C203.627 166.684 203.59 166.712 203.549 166.732C202.537 167.304 201.506 167.85 200.481 168.343C200.44 168.376 200.392 168.399 200.341 168.41Z" fill="#404B7C"/>
<path d="M205.166 165.754C205.095 165.752 205.026 165.728 204.97 165.684C204.914 165.64 204.873 165.58 204.854 165.512C204.835 165.443 204.838 165.371 204.863 165.304C204.888 165.238 204.933 165.181 204.993 165.142C205.765 164.663 206.537 164.157 207.293 163.642C207.329 163.614 207.37 163.593 207.414 163.581C207.458 163.569 207.504 163.567 207.549 163.573C207.594 163.58 207.637 163.596 207.675 163.62C207.714 163.644 207.747 163.676 207.773 163.713C207.799 163.75 207.817 163.793 207.826 163.837C207.835 163.882 207.835 163.928 207.826 163.972C207.816 164.017 207.797 164.059 207.771 164.096C207.745 164.133 207.711 164.164 207.672 164.188C206.913 164.707 206.135 165.22 205.349 165.705C205.294 165.739 205.23 165.756 205.166 165.754ZM210.251 162.207C210.182 162.206 210.116 162.184 210.06 162.144C210.004 162.104 209.962 162.048 209.94 161.983C209.917 161.919 209.915 161.848 209.934 161.783C209.953 161.717 209.992 161.658 210.045 161.615C210.937 160.91 211.822 160.171 212.667 159.415C212.733 159.356 212.82 159.325 212.909 159.331C212.998 159.336 213.081 159.376 213.14 159.442C213.199 159.508 213.229 159.595 213.224 159.684C213.219 159.773 213.179 159.856 213.113 159.915C212.254 160.68 211.363 161.426 210.451 162.138C210.394 162.182 210.323 162.206 210.251 162.207ZM214.404 158.587C214.338 158.587 214.273 158.568 214.217 158.531C214.162 158.494 214.119 158.441 214.094 158.38C214.069 158.318 214.063 158.251 214.077 158.186C214.091 158.121 214.123 158.061 214.171 158.015C214.837 157.35 215.502 156.684 216.088 156.065C216.15 156.007 216.231 155.975 216.315 155.975C216.399 155.975 216.481 156.007 216.542 156.065C216.604 156.122 216.641 156.201 216.647 156.285C216.653 156.369 216.627 156.452 216.574 156.518C215.955 157.184 215.303 157.849 214.631 158.518C214.566 158.568 214.485 158.592 214.404 158.586V158.587ZM218.597 154.028C218.533 154.029 218.471 154.011 218.417 153.978C218.363 153.944 218.32 153.896 218.292 153.838C218.265 153.781 218.255 153.717 218.262 153.654C218.27 153.59 218.296 153.531 218.337 153.482C219.056 152.604 219.755 151.682 220.407 150.76C220.458 150.688 220.536 150.638 220.623 150.623C220.711 150.608 220.801 150.629 220.873 150.68C220.945 150.731 220.994 150.809 221.009 150.896C221.024 150.984 221.004 151.074 220.953 151.146C220.288 152.084 219.582 153.009 218.853 153.908C218.822 153.945 218.783 153.975 218.74 153.996C218.696 154.017 218.648 154.028 218.6 154.028H218.597ZM221.838 149.576C221.778 149.576 221.72 149.56 221.669 149.529C221.617 149.499 221.575 149.455 221.547 149.403C221.518 149.35 221.504 149.291 221.506 149.232C221.508 149.172 221.526 149.114 221.558 149.064C222.05 148.305 222.53 147.52 222.982 146.728C223.027 146.653 223.1 146.598 223.184 146.576C223.269 146.553 223.359 146.565 223.436 146.609C223.512 146.653 223.567 146.725 223.591 146.809C223.614 146.894 223.604 146.984 223.561 147.061C223.102 147.861 222.616 148.661 222.117 149.43C222.087 149.474 222.048 149.51 222.002 149.535C221.955 149.56 221.904 149.574 221.851 149.576H221.838ZM224.886 144.176C224.829 144.176 224.774 144.162 224.724 144.134C224.675 144.107 224.633 144.068 224.603 144.02C224.573 143.972 224.556 143.917 224.553 143.861C224.55 143.804 224.561 143.748 224.586 143.697C225.086 142.679 225.551 141.627 225.977 140.576C225.994 140.535 226.018 140.498 226.049 140.467C226.08 140.436 226.117 140.411 226.157 140.394C226.198 140.377 226.241 140.368 226.285 140.368C226.329 140.368 226.372 140.376 226.413 140.393C226.454 140.41 226.491 140.434 226.522 140.465C226.553 140.496 226.578 140.533 226.595 140.573C226.612 140.614 226.621 140.657 226.621 140.701C226.621 140.745 226.613 140.788 226.596 140.829C226.163 141.894 225.691 142.959 225.185 143.997C225.158 144.052 225.116 144.098 225.065 144.131C225.013 144.164 224.953 144.182 224.892 144.183L224.886 144.176ZM227.029 139.105C226.992 139.112 226.953 139.112 226.916 139.105C226.833 139.075 226.765 139.013 226.728 138.933C226.69 138.853 226.686 138.762 226.716 138.679C227.022 137.834 227.316 136.962 227.581 136.079C227.607 135.991 227.666 135.916 227.747 135.872C227.827 135.827 227.922 135.817 228.01 135.842C228.099 135.868 228.173 135.928 228.218 136.008C228.262 136.089 228.273 136.184 228.247 136.272C227.974 137.157 227.681 138.042 227.375 138.934C227.343 138.99 227.295 139.036 227.237 139.066C227.179 139.095 227.114 139.107 227.049 139.1L227.029 139.105ZM228.799 133.169H228.719C228.633 133.148 228.56 133.095 228.513 133.02C228.467 132.945 228.453 132.855 228.473 132.769C228.733 131.678 228.965 130.546 229.139 129.441C229.144 129.395 229.158 129.35 229.18 129.31C229.203 129.27 229.234 129.234 229.271 129.206C229.307 129.178 229.35 129.158 229.395 129.147C229.439 129.136 229.486 129.135 229.532 129.142C229.577 129.15 229.621 129.167 229.66 129.192C229.698 129.218 229.732 129.251 229.757 129.289C229.783 129.328 229.8 129.371 229.808 129.417C229.816 129.462 229.815 129.509 229.804 129.554C229.604 130.699 229.365 131.837 229.104 132.941C229.083 133.007 229.043 133.064 228.988 133.106C228.934 133.148 228.868 133.171 228.799 133.174V133.169ZM229.817 127.758H229.777C229.691 127.745 229.613 127.698 229.561 127.629C229.508 127.559 229.485 127.471 229.497 127.385C229.623 126.493 229.73 125.585 229.823 124.663C229.833 124.575 229.877 124.495 229.945 124.439C230.013 124.383 230.101 124.355 230.189 124.363C230.233 124.367 230.275 124.38 230.314 124.401C230.353 124.421 230.387 124.449 230.415 124.483C230.443 124.517 230.464 124.557 230.477 124.599C230.489 124.641 230.493 124.685 230.489 124.729C230.396 125.654 230.289 126.579 230.163 127.478C230.15 127.558 230.109 127.63 230.046 127.682C229.984 127.733 229.905 127.76 229.824 127.758H229.817ZM230.383 121.589C230.295 121.585 230.212 121.547 230.152 121.482C230.092 121.417 230.06 121.331 230.064 121.243C230.111 120.191 230.137 119.113 230.137 118.048V117.822C230.137 117.778 230.146 117.735 230.162 117.695C230.179 117.654 230.204 117.617 230.234 117.587C230.265 117.556 230.302 117.531 230.343 117.514C230.383 117.498 230.426 117.489 230.47 117.489C230.558 117.489 230.643 117.524 230.705 117.587C230.768 117.649 230.803 117.734 230.803 117.822V118.055C230.803 119.133 230.803 120.218 230.73 121.283C230.723 121.37 230.682 121.451 230.616 121.508C230.55 121.566 230.464 121.594 230.377 121.589H230.383ZM230.416 116.079C230.33 116.079 230.247 116.046 230.185 115.986C230.123 115.927 230.087 115.846 230.083 115.76C230.083 114.86 230.01 113.936 229.95 113.018C229.947 112.974 229.953 112.93 229.967 112.889C229.982 112.847 230.004 112.809 230.033 112.776C230.062 112.744 230.097 112.717 230.137 112.698C230.176 112.679 230.219 112.668 230.263 112.665C230.307 112.661 230.351 112.667 230.393 112.68C230.435 112.694 230.473 112.717 230.506 112.746C230.539 112.775 230.566 112.811 230.585 112.851C230.604 112.891 230.614 112.934 230.616 112.978C230.676 113.903 230.723 114.835 230.749 115.74C230.752 115.828 230.721 115.914 230.661 115.979C230.601 116.044 230.518 116.082 230.43 116.086L230.416 116.079ZM229.983 109.896C229.9 109.896 229.82 109.866 229.758 109.81C229.697 109.755 229.658 109.678 229.65 109.596C229.53 108.478 229.384 107.327 229.217 106.189C229.209 106.144 229.21 106.099 229.22 106.055C229.23 106.011 229.249 105.969 229.275 105.932C229.302 105.896 229.336 105.865 229.374 105.841C229.413 105.818 229.456 105.803 229.501 105.797C229.546 105.79 229.591 105.793 229.635 105.805C229.679 105.817 229.72 105.837 229.755 105.865C229.791 105.893 229.82 105.928 229.842 105.968C229.864 106.007 229.877 106.051 229.882 106.096C230.048 107.241 230.195 108.396 230.315 109.523C230.324 109.61 230.299 109.698 230.244 109.766C230.189 109.835 230.109 109.879 230.022 109.889H229.989L229.983 109.896ZM229.231 104.439C229.152 104.438 229.076 104.41 229.017 104.359C228.957 104.307 228.917 104.237 228.905 104.159C228.754 103.272 228.59 102.372 228.413 101.459C228.402 101.414 228.4 101.368 228.407 101.322C228.415 101.276 228.431 101.233 228.456 101.194C228.481 101.155 228.514 101.122 228.552 101.096C228.59 101.07 228.633 101.052 228.679 101.043C228.724 101.035 228.771 101.036 228.816 101.046C228.861 101.056 228.903 101.075 228.941 101.102C228.978 101.129 229.01 101.164 229.033 101.203C229.057 101.243 229.072 101.287 229.078 101.333C229.26 102.252 229.427 103.159 229.578 104.055C229.586 104.098 229.585 104.143 229.575 104.186C229.565 104.228 229.547 104.269 229.522 104.305C229.496 104.341 229.464 104.371 229.427 104.395C229.39 104.418 229.348 104.434 229.305 104.441H229.245L229.231 104.439ZM228.02 98.356C227.944 98.3562 227.87 98.3306 227.811 98.2833C227.752 98.236 227.711 98.17 227.694 98.096C227.441 96.996 227.168 95.88 226.875 94.768C226.862 94.7236 226.858 94.6771 226.863 94.6311C226.869 94.5852 226.883 94.5408 226.906 94.5007C226.929 94.4606 226.96 94.4255 226.997 94.3976C227.034 94.3697 227.076 94.3495 227.121 94.3383C227.166 94.3271 227.212 94.3251 227.258 94.3324C227.304 94.3397 227.347 94.3562 227.387 94.3808C227.426 94.4054 227.46 94.4377 227.486 94.4757C227.512 94.5137 227.531 94.5567 227.54 94.602C227.833 95.727 228.112 96.851 228.365 97.93C228.375 97.9729 228.376 98.0173 228.369 98.0607C228.361 98.1041 228.345 98.1456 228.322 98.1828C228.298 98.2199 228.268 98.2521 228.232 98.2774C228.196 98.3026 228.155 98.3205 228.112 98.33H228.039L228.02 98.356Z" fill="#404B7C"/>
<path d="M226.663 92.9929C226.59 92.9926 226.519 92.9684 226.462 92.9239C226.404 92.8795 226.362 92.8173 226.343 92.7469C226.223 92.3029 226.101 91.8769 225.977 91.4689C225.961 91.414 225.959 91.3557 225.972 91.2998C225.984 91.2439 226.011 91.1923 226.05 91.1499C226.05 91.1499 226.369 90.7969 226.895 90.1499C226.92 90.1104 226.954 90.0767 226.993 90.051C227.032 90.0253 227.077 90.0083 227.123 90.0009C227.17 89.9936 227.217 89.9961 227.262 90.0084C227.308 90.0207 227.35 90.0424 227.386 90.0721C227.422 90.1019 227.452 90.1389 227.473 90.181C227.494 90.223 227.506 90.2689 227.508 90.3158C227.51 90.3628 227.502 90.4096 227.485 90.4532C227.467 90.4968 227.441 90.5362 227.407 90.5689C227.061 90.9949 226.801 91.2939 226.662 91.4539C226.769 91.8219 226.873 92.1886 226.975 92.5539C226.987 92.5963 226.991 92.6407 226.986 92.6846C226.98 92.7284 226.967 92.7707 226.945 92.8092C226.923 92.8476 226.894 92.8813 226.859 92.9084C226.824 92.9355 226.785 92.9554 226.742 92.9669L226.663 92.9929Z" fill="#404B7C"/>
<path d="M229.287 87.9279C229.224 87.9259 229.163 87.906 229.111 87.8706C229.058 87.8352 229.017 87.7857 228.992 87.7279C228.967 87.67 228.959 87.6063 228.969 87.544C228.978 87.4817 229.006 87.4234 229.047 87.3759C229.713 86.4439 230.378 85.4759 231.004 84.5079C231.026 84.4678 231.056 84.4327 231.092 84.4047C231.128 84.3766 231.17 84.3563 231.214 84.345C231.258 84.3338 231.304 84.3317 231.349 84.339C231.395 84.3463 231.438 84.3628 231.476 84.3875C231.515 84.4122 231.548 84.4446 231.573 84.4826C231.598 84.5205 231.616 84.5634 231.624 84.6083C231.632 84.6533 231.631 84.6995 231.62 84.744C231.61 84.7884 231.59 84.8303 231.563 84.8669C230.897 85.8519 230.232 86.8299 229.563 87.7669C229.534 87.8148 229.494 87.8546 229.446 87.8827C229.397 87.9108 229.343 87.9264 229.287 87.9279Z" fill="#404B7C"/>
<path d="M232.372 83.2701C232.313 83.2703 232.255 83.2548 232.203 83.2251C232.152 83.1953 232.11 83.1525 232.081 83.1009C232.051 83.0494 232.037 82.991 232.038 82.9318C232.038 82.8726 232.055 82.8147 232.086 82.7641C232.565 81.9721 233.031 81.1641 233.47 80.3551C233.515 80.2818 233.586 80.2286 233.669 80.2063C233.751 80.1841 233.84 80.1945 233.915 80.2355C233.99 80.2766 234.047 80.345 234.073 80.4266C234.099 80.5082 234.093 80.5968 234.056 80.6741C233.61 81.4931 233.138 82.3111 232.656 83.1101C232.626 83.1588 232.585 83.1992 232.535 83.2272C232.485 83.2552 232.429 83.27 232.372 83.2701ZM235.347 77.7331C235.301 77.7432 235.253 77.7432 235.207 77.7331C235.167 77.7145 235.131 77.6882 235.101 77.6556C235.072 77.6231 235.049 77.585 235.034 77.5435C235.019 77.502 235.012 77.458 235.015 77.414C235.017 77.3699 235.028 77.3268 235.047 77.2871C235.547 76.2291 236.012 75.1641 236.438 74.1061C236.454 74.0654 236.478 74.0283 236.509 73.997C236.539 73.9656 236.575 73.9406 236.616 73.9232C236.656 73.9059 236.699 73.8967 236.743 73.896C236.786 73.8954 236.83 73.9034 236.87 73.9196C236.911 73.9357 236.948 73.9597 236.98 73.9902C237.011 74.0207 237.036 74.057 237.053 74.0972C237.071 74.1373 237.08 74.1805 237.08 74.2243C237.081 74.268 237.073 74.3114 237.057 74.3521C236.631 75.4171 236.157 76.5021 235.657 77.5731C235.624 77.6272 235.577 77.6711 235.521 77.6994C235.464 77.7277 235.401 77.7394 235.338 77.7331H235.347ZM237.483 72.5751C237.43 72.575 237.377 72.5621 237.33 72.5375C237.282 72.5128 237.241 72.4771 237.211 72.4333C237.18 72.3896 237.16 72.3391 237.153 72.2862C237.146 72.2332 237.152 72.1793 237.17 72.1291C237.483 71.2501 237.77 70.3591 238.022 69.4671C238.032 69.4207 238.051 69.3769 238.078 69.3383C238.106 69.2996 238.141 69.267 238.181 69.2425C238.222 69.2179 238.267 69.2019 238.314 69.1955C238.36 69.1891 238.408 69.1923 238.454 69.2051C238.499 69.2178 238.542 69.2398 238.579 69.2696C238.615 69.2995 238.646 69.3365 238.667 69.3785C238.689 69.4205 238.702 69.4665 238.706 69.5138C238.709 69.561 238.703 69.6084 238.687 69.6531C238.427 70.5381 238.135 71.4371 237.822 72.3151C237.805 72.3938 237.759 72.4635 237.694 72.5113C237.629 72.5592 237.549 72.5818 237.469 72.5751H237.483ZM239.193 66.5321H239.127C239.084 66.5233 239.043 66.5063 239.007 66.4818C238.971 66.4573 238.94 66.426 238.916 66.3895C238.891 66.353 238.875 66.3121 238.866 66.2691C238.858 66.2261 238.858 66.1819 238.867 66.1391C239.107 64.9941 239.3 63.8391 239.433 62.7251C239.446 62.6379 239.492 62.559 239.561 62.5046C239.631 62.4501 239.718 62.4242 239.806 62.4321C239.85 62.437 239.892 62.4506 239.931 62.4721C239.969 62.4936 240.003 62.5226 240.031 62.5573C240.058 62.592 240.078 62.6317 240.09 62.6743C240.101 62.7168 240.105 62.7613 240.099 62.8051C239.959 63.9501 239.766 65.1141 239.527 66.2791C239.507 66.3527 239.463 66.4173 239.401 66.462C239.339 66.5068 239.264 66.5291 239.188 66.5251L239.193 66.5321ZM239.958 61.0021C239.914 60.9995 239.871 60.9883 239.832 60.9692C239.793 60.9501 239.757 60.9233 239.728 60.8905C239.699 60.8578 239.677 60.8195 239.663 60.7781C239.648 60.7367 239.642 60.6928 239.645 60.6491C239.698 59.8771 239.718 59.1051 239.718 58.3491V57.8811C239.716 57.7929 239.75 57.7077 239.811 57.6442C239.872 57.5806 239.956 57.5439 240.044 57.5421C240.131 57.5437 240.215 57.5782 240.277 57.6386C240.34 57.699 240.378 57.781 240.383 57.8681V58.3471C240.383 59.1191 240.383 59.9041 240.31 60.6901C240.307 60.7344 240.296 60.7777 240.277 60.8176C240.257 60.8574 240.23 60.893 240.196 60.9221C240.163 60.9513 240.124 60.9735 240.082 60.9874C240.04 61.0013 239.995 61.0066 239.951 61.0031L239.958 61.0021ZM239.798 54.7261C239.716 54.7267 239.637 54.6971 239.576 54.6431C239.514 54.589 239.475 54.5143 239.465 54.4331C239.328 53.29 239.131 52.155 238.873 51.0331C238.856 50.9456 238.874 50.855 238.923 50.7806C238.972 50.7062 239.048 50.6538 239.135 50.6347C239.222 50.6157 239.313 50.6314 239.388 50.6785C239.464 50.7257 239.518 50.8005 239.539 50.8871C239.803 52.0333 240.006 53.193 240.145 54.3611C240.151 54.4048 240.147 54.4493 240.136 54.4918C240.124 54.5344 240.104 54.5742 240.077 54.6089C240.049 54.6436 240.015 54.6725 239.977 54.694C239.938 54.7155 239.896 54.7291 239.852 54.7341H239.812L239.798 54.7261ZM238.667 49.2621C238.595 49.2621 238.525 49.2387 238.467 49.1955C238.409 49.1522 238.367 49.0913 238.347 49.0221C238.081 48.1441 237.775 47.2651 237.435 46.4131C237.419 46.3724 237.411 46.329 237.411 46.2853C237.412 46.2415 237.421 46.1984 237.439 46.1582C237.456 46.118 237.481 46.0817 237.512 46.0512C237.544 46.0207 237.581 45.9967 237.621 45.9806C237.662 45.9644 237.706 45.9564 237.749 45.957C237.793 45.9577 237.836 45.9669 237.876 45.9842C237.917 46.0016 237.953 46.0266 237.983 46.058C238.014 46.0894 238.038 46.1264 238.054 46.1671C238.4 47.0391 238.72 47.9311 238.986 48.8291C239.011 48.913 239.002 49.0034 238.961 49.0807C238.92 49.158 238.85 49.216 238.766 49.2421L238.667 49.2621ZM236.267 43.4521C236.206 43.4516 236.147 43.4345 236.095 43.4028C236.044 43.3711 236.002 43.3259 235.974 43.2721C235.442 42.2721 234.849 41.2721 234.21 40.3041C234.172 40.2311 234.162 40.1467 234.183 40.067C234.203 39.9874 234.253 39.9181 234.321 39.8727C234.39 39.8272 234.473 39.8088 234.554 39.8208C234.636 39.8329 234.71 39.8747 234.762 39.9381C235.419 40.9127 236.019 41.9236 236.562 42.9661C236.583 43.0049 236.596 43.0476 236.6 43.0915C236.604 43.1354 236.6 43.1797 236.587 43.2218C236.574 43.264 236.552 43.3031 236.524 43.337C236.496 43.3708 236.461 43.3987 236.422 43.4191C236.375 43.4419 236.324 43.4532 236.272 43.4521H236.267ZM233.284 38.7411C233.232 38.741 233.181 38.729 233.135 38.7059C233.089 38.6828 233.049 38.6493 233.018 38.6081C232.479 37.8831 231.893 37.1571 231.281 36.4521C231.224 36.3848 231.197 36.298 231.204 36.2105C231.211 36.1229 231.253 36.0418 231.319 35.9847C231.386 35.9276 231.473 35.8991 231.56 35.9056C231.648 35.912 231.729 35.9528 231.787 36.0191C232.406 36.7381 232.998 37.4771 233.551 38.2191C233.59 38.2685 233.614 38.3279 233.621 38.3904C233.627 38.453 233.616 38.5161 233.588 38.5725C233.56 38.6288 233.517 38.6762 233.463 38.7091C233.41 38.7419 233.348 38.7589 233.285 38.7581L233.284 38.7411ZM229.151 34.0161C229.063 34.0148 228.979 33.9788 228.918 33.9161C228.118 33.1241 227.261 32.3321 226.369 31.5671C226.335 31.5388 226.308 31.5041 226.287 31.465C226.267 31.4259 226.255 31.3833 226.251 31.3394C226.248 31.2956 226.253 31.2515 226.267 31.2097C226.28 31.1679 226.302 31.1291 226.33 31.0957C226.359 31.0623 226.394 31.0349 226.433 31.0151C226.472 30.9952 226.515 30.9834 226.559 30.9801C226.603 30.9769 226.647 30.9824 226.689 30.9963C226.73 31.0102 226.769 31.0322 226.802 31.0611C227.707 31.8401 228.572 32.6381 229.384 33.4441C229.434 33.4898 229.469 33.5498 229.484 33.616C229.499 33.6822 229.494 33.7515 229.469 33.8145C229.443 33.8775 229.399 33.9312 229.342 33.9685C229.286 34.0058 229.219 34.0248 229.151 34.0231V34.0161ZM224.972 30.3161C224.897 30.3156 224.824 30.2899 224.766 30.2431C224.054 29.6771 223.308 29.1121 222.55 28.5661C222.515 28.5403 222.485 28.5077 222.462 28.4703C222.439 28.433 222.424 28.3914 222.417 28.3482C222.41 28.3049 222.412 28.2607 222.422 28.2181C222.433 28.1756 222.451 28.1355 222.477 28.1001C222.503 28.0647 222.535 28.0347 222.573 28.0119C222.61 27.9891 222.652 27.9738 222.695 27.9671C222.738 27.9603 222.782 27.9621 222.825 27.9724C222.867 27.9827 222.908 28.0013 222.943 28.0271C223.708 28.5791 224.46 29.1521 225.179 29.7271C225.236 29.7692 225.277 29.8283 225.298 29.8957C225.319 29.9632 225.318 30.0355 225.295 30.1023C225.272 30.169 225.229 30.2268 225.171 30.2672C225.113 30.3076 225.044 30.3286 224.973 30.3271L224.972 30.3161ZM219.861 26.6621C219.797 26.662 219.735 26.6436 219.681 26.6091C218.729 25.9971 217.731 25.3841 216.713 24.7991C216.638 24.7542 216.583 24.6815 216.561 24.5966C216.538 24.5117 216.55 24.4215 216.594 24.3455C216.638 24.2694 216.71 24.2136 216.794 24.1901C216.879 24.1667 216.969 24.1774 217.046 24.2201C218.071 24.8201 219.076 25.4311 220.034 26.0501C220.096 26.0872 220.145 26.1437 220.172 26.2108C220.199 26.278 220.204 26.3523 220.185 26.4223C220.166 26.4924 220.125 26.5544 220.068 26.5989C220.011 26.6434 219.94 26.6681 219.868 26.6691L219.861 26.6621Z" fill="#404B7C"/>
<path d="M215.029 23.8061C214.973 23.8063 214.918 23.7926 214.869 23.7661L213.698 23.1401C213.654 23.1235 213.614 23.0977 213.58 23.0645C213.547 23.0312 213.521 22.9912 213.504 22.9472C213.487 22.9032 213.48 22.8561 213.483 22.809C213.485 22.762 213.498 22.716 213.52 22.6742C213.542 22.6324 213.572 22.5958 213.609 22.5666C213.646 22.5375 213.689 22.5165 213.735 22.5052C213.781 22.4938 213.828 22.4923 213.875 22.5007C213.921 22.5092 213.965 22.5273 214.004 22.5541L215.182 23.1861C215.244 23.2225 215.292 23.2779 215.319 23.3438C215.347 23.4098 215.353 23.4829 215.335 23.5524C215.318 23.6218 215.279 23.6839 215.224 23.7294C215.169 23.7749 215.1 23.8014 215.029 23.8051V23.8061Z" fill="#404B7C"/>
<path d="M229.514 91.1094C229.557 88.9598 227.85 87.1824 225.7 87.1394C223.55 87.0964 221.773 88.8041 221.73 90.9537C221.687 93.1033 223.395 94.8808 225.544 94.9238C227.694 94.9668 229.471 93.2591 229.514 91.1094Z" fill="#FF2D26"/>
<path d="M199.848 170.011C199.897 167.861 198.194 166.079 196.045 166.03C193.895 165.982 192.113 167.685 192.064 169.834C192.016 171.984 193.719 173.766 195.868 173.814C198.018 173.863 199.8 172.16 199.848 170.011Z" fill="#FF2D26"/>
<path d="M213.859 46.148C226.602 46.148 236.933 35.8174 236.933 23.074C236.933 10.3306 226.602 0 213.859 0C201.116 0 190.785 10.3306 190.785 23.074C190.785 35.8174 201.116 46.148 213.859 46.148Z" fill="#E9F3FF"/>
<path d="M213.858 41.594C224.087 41.594 232.379 33.3019 232.379 23.073C232.379 12.8441 224.087 4.552 213.858 4.552C203.629 4.552 195.337 12.8441 195.337 23.073C195.337 33.3019 203.629 41.594 213.858 41.594Z" fill="#5222D0"/>
<path d="M213.858 24.377C214.578 24.377 215.162 23.7932 215.162 23.073C215.162 22.3529 214.578 21.769 213.858 21.769C213.138 21.769 212.554 22.3529 212.554 23.073C212.554 23.7932 213.138 24.377 213.858 24.377Z" fill="white"/>
<path d="M214.69 6.43604H213.026V10.542H214.69V6.43604Z" fill="white"/>
<path d="M226.216 11.9047L225.039 10.728L222.136 13.6314L223.312 14.808L226.216 11.9047Z" fill="white"/>
<path d="M230.496 23.9059V22.2419H226.39V23.9059H230.496Z" fill="white"/>
<path d="M225.027 35.4315L226.204 34.2549L223.301 31.3515L222.124 32.5281L225.027 35.4315Z" fill="white"/>
<path d="M213.026 39.7119H214.69V35.6059H213.026V39.7119Z" fill="white"/>
<path d="M201.507 34.2494L202.684 35.426L205.587 32.5226L204.411 31.346L201.507 34.2494Z" fill="white"/>
<path d="M197.22 22.241V23.905H201.326V22.241H197.22Z" fill="white"/>
<path d="M202.682 10.7223L201.505 11.8989L204.408 14.8023L205.585 13.6257L202.682 10.7223Z" fill="white"/>
<path d="M214.244 12.1721H213.465L213.073 22.2411C213.069 22.3488 213.086 22.4563 213.124 22.5571C213.163 22.6579 213.221 22.7499 213.296 22.8276C213.37 22.9053 213.46 22.9671 213.559 23.0093C213.659 23.0515 213.765 23.0732 213.873 23.0731C213.981 23.0732 214.088 23.0515 214.187 23.0093C214.286 22.9671 214.376 22.9053 214.45 22.8276C214.525 22.7499 214.583 22.6579 214.622 22.5571C214.66 22.4563 214.677 22.3488 214.673 22.2411L214.244 12.1721Z" fill="white"/>
<path d="M205.859 30.5281L206.418 31.0741L213.845 24.2261C213.922 24.1515 213.984 24.0621 214.026 23.9632C214.068 23.8643 214.089 23.758 214.089 23.6506C214.089 23.5432 214.068 23.4369 214.026 23.338C213.984 23.2391 213.922 23.1497 213.845 23.0751C213.77 22.9978 213.681 22.9364 213.582 22.8944C213.483 22.8524 213.377 22.8308 213.27 22.8308C213.162 22.8308 213.056 22.8524 212.957 22.8944C212.858 22.9364 212.769 22.9978 212.694 23.0751L205.859 30.5281Z" fill="white"/>
<path d="M172.498 144.87H147.124C143.567 144.87 140.684 147.753 140.684 151.31V188.51C140.684 192.067 143.567 194.95 147.124 194.95H172.498C176.055 194.95 178.938 192.067 178.938 188.51V151.31C178.938 147.753 176.055 144.87 172.498 144.87Z" fill="#F68D88"/>
<path d="M173.155 151.359H156.97C156.51 151.359 156.138 151.731 156.138 152.191C156.138 152.65 156.51 153.023 156.97 153.023H173.155C173.615 153.023 173.987 152.65 173.987 152.191C173.987 151.731 173.615 151.359 173.155 151.359Z" fill="white"/>
<path d="M149.461 148.824H148.539C146.932 148.824 145.629 150.127 145.629 151.734V152.656C145.629 154.263 146.932 155.566 148.539 155.566H149.461C151.068 155.566 152.371 154.263 152.371 152.656V151.734C152.371 150.127 151.068 148.824 149.461 148.824Z" fill="white"/>
<path d="M147.546 150.653L146.501 151.691L149.083 154.273L155.239 149.155L149.416 152.649L147.546 150.653Z" fill="#404B7C"/>
<path d="M173.155 163.172H156.97C156.51 163.172 156.138 163.544 156.138 164.004C156.138 164.463 156.51 164.836 156.97 164.836H173.155C173.615 164.836 173.987 164.463 173.987 164.004C173.987 163.544 173.615 163.172 173.155 163.172Z" fill="white"/>
<path d="M149.461 160.636H148.539C146.932 160.636 145.629 161.939 145.629 163.546V164.468C145.629 166.075 146.932 167.378 148.539 167.378H149.461C151.068 167.378 152.371 166.075 152.371 164.468V163.546C152.371 161.939 151.068 160.636 149.461 160.636Z" fill="white"/>
<path d="M173.155 174.985H156.97C156.51 174.985 156.138 175.358 156.138 175.817C156.138 176.277 156.51 176.649 156.97 176.649H173.155C173.615 176.649 173.987 176.277 173.987 175.817C173.987 175.358 173.615 174.985 173.155 174.985Z" fill="white"/>
<path d="M149.461 172.449H148.539C146.932 172.449 145.629 173.752 145.629 175.359V176.281C145.629 177.888 146.932 179.191 148.539 179.191H149.461C151.068 179.191 152.371 177.888 152.371 176.281V175.359C152.371 173.752 151.068 172.449 149.461 172.449Z" fill="white"/>
<path d="M173.155 186.798H156.97C156.51 186.798 156.138 187.171 156.138 187.63C156.138 188.09 156.51 188.462 156.97 188.462H173.155C173.615 188.462 173.987 188.09 173.987 187.63C173.987 187.171 173.615 186.798 173.155 186.798Z" fill="white"/>
<path d="M149.461 184.262H148.539C146.932 184.262 145.629 185.565 145.629 187.172V188.094C145.629 189.701 146.932 191.004 148.539 191.004H149.461C151.068 191.004 152.371 189.701 152.371 188.094V187.172C152.371 185.565 151.068 184.262 149.461 184.262Z" fill="white"/>
<path d="M119.477 177.341H103.105C99.968 177.341 97.425 179.884 97.425 183.021V207.965C97.425 211.102 99.968 213.645 103.105 213.645H119.477C122.614 213.645 125.157 211.102 125.157 207.965V183.021C125.157 179.884 122.614 177.341 119.477 177.341Z" fill="#5222D0"/>
<path d="M120.975 182.046H109.235C108.903 182.046 108.633 182.316 108.633 182.648V182.649C108.633 182.982 108.903 183.251 109.235 183.251H120.975C121.307 183.251 121.577 182.982 121.577 182.649V182.648C121.577 182.316 121.307 182.046 120.975 182.046Z" fill="white"/>
<path d="M103.758 180.209H103.153C101.971 180.209 101.013 181.167 101.013 182.349V182.954C101.013 184.136 101.971 185.094 103.153 185.094H103.758C104.94 185.094 105.898 184.136 105.898 182.954V182.349C105.898 181.167 104.94 180.209 103.758 180.209Z" fill="white"/>
<path d="M120.975 190.612H109.235C108.903 190.612 108.633 190.882 108.633 191.214V191.215C108.633 191.548 108.903 191.817 109.235 191.817H120.975C121.307 191.817 121.577 191.548 121.577 191.215V191.214C121.577 190.882 121.307 190.612 120.975 190.612Z" fill="white"/>
<path d="M103.758 188.768H103.153C101.971 188.768 101.013 189.726 101.013 190.908V191.513C101.013 192.695 101.971 193.653 103.153 193.653H103.758C104.94 193.653 105.898 192.695 105.898 191.513V190.908C105.898 189.726 104.94 188.768 103.758 188.768Z" fill="white"/>
<path d="M120.975 199.177H109.235C108.903 199.177 108.633 199.447 108.633 199.779V199.78C108.633 200.112 108.903 200.382 109.235 200.382H120.975C121.307 200.382 121.577 200.112 121.577 199.78V199.779C121.577 199.447 121.307 199.177 120.975 199.177Z" fill="white"/>
<path d="M103.758 197.333H103.153C101.971 197.333 101.013 198.291 101.013 199.473V200.078C101.013 201.26 101.971 202.218 103.153 202.218H103.758C104.94 202.218 105.898 201.26 105.898 200.078V199.473C105.898 198.291 104.94 197.333 103.758 197.333Z" fill="white"/>
<path d="M120.975 207.735H109.235C108.903 207.735 108.633 208.005 108.633 208.337V208.338C108.633 208.671 108.903 208.94 109.235 208.94H120.975C121.307 208.94 121.577 208.671 121.577 208.338V208.337C121.577 208.005 121.307 207.735 120.975 207.735Z" fill="white"/>
<path d="M103.758 205.899H103.153C101.971 205.899 101.013 206.857 101.013 208.039V208.644C101.013 209.826 101.971 210.784 103.153 210.784H103.758C104.94 210.784 105.898 209.826 105.898 208.644V208.039C105.898 206.857 104.94 205.899 103.758 205.899Z" fill="white"/>
<path d="M25.45 36.1979C26.7954 36.1979 27.886 35.1073 27.886 33.7619C27.886 32.4166 26.7954 31.3259 25.45 31.3259C24.1047 31.3259 23.014 32.4166 23.014 33.7619C23.014 35.1073 24.1047 36.1979 25.45 36.1979Z" fill="#E9F3FF"/>
<path d="M16.252 38.628C16.9175 38.628 17.457 38.0885 17.457 37.423C17.457 36.7575 16.9175 36.218 16.252 36.218C15.5865 36.218 15.047 36.7575 15.047 37.423C15.047 38.0885 15.5865 38.628 16.252 38.628Z" fill="#E9F3FF"/>
<path d="M233.251 189.433C235.328 189.433 237.011 187.75 237.011 185.673C237.011 183.596 235.328 181.913 233.251 181.913C231.174 181.913 229.491 183.596 229.491 185.673C229.491 187.75 231.174 189.433 233.251 189.433Z" fill="#E9F3FF"/>
<path d="M223.082 182.817C224.111 182.817 224.945 181.983 224.945 180.954C224.945 179.925 224.111 179.091 223.082 179.091C222.053 179.091 221.219 179.925 221.219 180.954C221.219 181.983 222.053 182.817 223.082 182.817Z" fill="#E9F3FF"/>
<path d="M115.428 252.138C117.505 252.138 119.188 250.455 119.188 248.378C119.188 246.302 117.505 244.618 115.428 244.618C113.351 244.618 111.668 246.302 111.668 248.378C111.668 250.455 113.351 252.138 115.428 252.138Z" fill="#E9F3FF"/>
<path d="M105.258 245.516C106.287 245.516 107.121 244.682 107.121 243.653C107.121 242.624 106.287 241.79 105.258 241.79C104.229 241.79 103.395 242.624 103.395 243.653C103.395 244.682 104.229 245.516 105.258 245.516Z" fill="#E9F3FF"/>
<path d="M34.607 78.4851C26.348 79.7161 18.635 108.547 16.139 116.533C13.643 124.519 15.307 142.375 15.307 142.375C15.307 142.375 21.796 145.536 24.624 142.042C24.624 142.042 27.286 124.685 30.447 115.867C33.608 107.049 38.267 100.061 40.596 91.7421C42.925 83.4231 40.929 77.5401 34.607 78.4851Z" fill="#FF2D26"/>
<path d="M13.064 141.902L13.417 148.97C15.5162 150.308 18.0292 150.841 20.491 150.47C24.73 149.891 26.228 147.894 26.228 147.894L26.315 141.405C26.315 141.405 21.05 138.155 13.064 141.902Z" fill="#9AB3DA"/>
<path d="M9.09702 135.606L7.65302 157.681L31.059 150.414L33.169 128.614L9.09702 135.606Z" fill="#5222D0"/>
<path d="M7.65301 157.682L5.43701 156.957L6.88101 134.888L9.09701 135.607L7.65301 157.682Z" fill="#404B7C"/>
<path d="M33.169 128.619L30.946 127.9L6.88098 134.888L9.09698 135.607L33.169 128.619Z" fill="#E9F3FF"/>
<path d="M11.773 156.337C11.773 156.337 11.899 158.42 13.473 158.999C13.9404 159.168 14.4389 159.234 14.934 159.191C15.4292 159.149 15.9092 158.999 16.341 158.753C16.8738 158.913 17.4363 158.947 17.9846 158.853C18.5328 158.76 19.0521 158.541 19.502 158.214C19.502 158.214 21.252 158.8 22.124 157.675C22.6974 157.819 23.3037 157.745 23.8259 157.468C24.3481 157.191 24.7493 156.73 24.952 156.175C25.618 154.175 25.784 151.35 24.912 150.724C24.04 150.098 23.435 151.496 23.435 151.496C23.3156 151.318 23.155 151.171 22.9667 151.069C22.7785 150.966 22.5683 150.91 22.3539 150.907C22.1396 150.903 21.9275 150.951 21.7356 151.046C21.5438 151.142 21.3779 151.282 21.252 151.456C21.0734 151.291 20.8604 151.168 20.6284 151.095C20.3964 151.023 20.1511 151.002 19.9103 151.036C19.6696 151.07 19.4393 151.157 19.2362 151.291C19.0331 151.424 18.8623 151.601 18.736 151.809C18.736 151.809 17.924 150.644 16.886 151.396C15.848 152.148 15.286 155.11 15.162 155.389L11.773 156.337Z" fill="#ECBDBB"/>
<path d="M17.596 157.255C17.5393 157.254 17.4838 157.239 17.4347 157.21C17.3855 157.182 17.3444 157.142 17.3151 157.093C17.2858 157.044 17.2694 156.989 17.2673 156.933C17.2651 156.876 17.2774 156.82 17.303 156.769C17.9208 155.377 18.2929 153.888 18.403 152.369C18.4056 152.325 18.4169 152.283 18.436 152.243C18.4552 152.204 18.4819 152.168 18.5147 152.139C18.5475 152.11 18.5857 152.088 18.6271 152.074C18.6685 152.059 18.7123 152.053 18.756 152.056C18.7997 152.059 18.8425 152.07 18.8819 152.089C18.9213 152.108 18.9566 152.135 18.9856 152.168C19.0147 152.2 19.037 152.239 19.0513 152.28C19.0656 152.321 19.0716 152.365 19.069 152.409C18.9547 154.019 18.5559 155.597 17.891 157.068C17.864 157.123 17.8221 157.17 17.77 157.203C17.7179 157.236 17.6577 157.254 17.596 157.255Z" fill="#404B7C"/>
<path d="M20.072 157.103C20.0166 157.11 19.9603 157.102 19.9093 157.079C19.8584 157.056 19.8149 157.019 19.7837 156.973C19.7525 156.927 19.7349 156.873 19.7328 156.817C19.7307 156.761 19.7443 156.706 19.772 156.657C20.3729 155.262 20.7414 153.779 20.863 152.265C20.8697 152.177 20.9102 152.095 20.9761 152.037C21.042 151.979 21.128 151.948 21.216 151.952C21.2597 151.955 21.3026 151.966 21.342 151.985C21.3814 152.004 21.4167 152.031 21.4458 152.064C21.4749 152.096 21.4972 152.135 21.5115 152.176C21.5257 152.217 21.5317 152.261 21.529 152.305C21.4073 153.912 21.0158 155.487 20.371 156.964C20.3375 157.011 20.2923 157.049 20.2399 157.073C20.1875 157.097 20.1296 157.108 20.072 157.103Z" fill="#404B7C"/>
<path d="M22.481 156.71C22.4221 156.711 22.364 156.696 22.3126 156.667C22.2613 156.638 22.2186 156.596 22.1888 156.545C22.159 156.495 22.1432 156.437 22.1431 156.378C22.1429 156.319 22.1584 156.261 22.188 156.21C22.6972 154.957 22.992 153.628 23.06 152.277C23.0667 152.189 23.1072 152.107 23.1731 152.049C23.239 151.991 23.325 151.96 23.413 151.964C23.4568 151.967 23.4996 151.978 23.539 151.997C23.5784 152.016 23.6137 152.043 23.6428 152.075C23.6719 152.108 23.6942 152.146 23.7085 152.188C23.7227 152.229 23.7287 152.273 23.726 152.317C23.6568 153.769 23.3325 155.197 22.768 156.536C22.7398 156.588 22.6984 156.631 22.648 156.662C22.5976 156.692 22.5399 156.709 22.481 156.71Z" fill="#404B7C"/>
<path d="M18.082 269.156L16.372 275.325L14.202 283.132H8.10199L8.86099 274.573L9.32699 269.373L18.082 269.156Z" fill="white"/>
<path d="M9.32403 269.376L18.082 269.156L16.372 275.325L8.85803 274.573L9.32403 269.376Z" fill="#404B7C"/>
<path d="M4.32597 294C4.27297 293.78 5.27098 286.014 7.59998 281.242C10.1228 281.526 12.6649 281.6 15.2 281.462C15.2 281.462 21.469 286.234 27.013 288.337C32.557 290.44 33.781 291.279 33.613 293.994H4.33298L4.32597 294Z" fill="#FF2D26"/>
<path d="M24.624 148.138C24.624 148.138 7.324 195.723 0 272.257H30.947C30.947 272.257 36.271 216.021 48.916 178.751L55.072 150.966C58.46 128.639 33.17 124.845 24.624 148.138Z" fill="#66FCF1"/>
<path d="M30.621 169.355C29.621 169.355 24.957 165.515 24.492 164.503C24.027 163.491 25.823 156.137 26.335 153.888C26.3557 153.805 26.4073 153.734 26.4791 153.688C26.5509 153.642 26.6374 153.626 26.721 153.642C31.1224 154.415 35.5677 154.913 40.031 155.133C40.0786 155.135 40.1252 155.147 40.1676 155.169C40.21 155.191 40.2474 155.221 40.277 155.258C40.3067 155.295 40.328 155.339 40.3396 155.385C40.3511 155.431 40.3527 155.479 40.344 155.526C40.031 157.183 38.474 165.509 38.301 165.901C38.042 166.62 31.26 169.355 30.621 169.355ZM26.914 154.347C25.849 158.819 24.914 163.664 25.104 164.23C25.483 165.062 29.922 168.649 30.628 168.689C31.334 168.729 37.11 166.16 37.736 165.614C37.909 165.002 38.936 159.584 39.659 155.778C35.3843 155.552 31.1266 155.074 26.908 154.347H26.914Z" fill="#404B7C"/>
<path d="M23.959 269.596H23.919C23.8318 269.586 23.7521 269.542 23.6972 269.473C23.6423 269.405 23.6167 269.317 23.626 269.23C28.564 227.43 41.142 179.651 41.269 179.172C41.292 179.084 41.349 179.008 41.4277 178.962C41.5064 178.916 41.6002 178.903 41.6885 178.926C41.7768 178.949 41.8524 179.006 41.8986 179.084C41.9449 179.163 41.958 179.257 41.935 179.345C41.809 179.824 29.235 227.555 24.305 269.31C24.2934 269.392 24.2515 269.467 24.1875 269.52C24.1234 269.573 24.042 269.6 23.959 269.596Z" fill="#404B7C"/>
<path d="M67.364 269.156L66.659 275.765L65.867 283.132H59.767L59.062 274.587L58.636 269.376L67.364 269.156Z" fill="white"/>
<path d="M67.364 269.156L66.659 275.765L59.065 274.587L58.639 269.376L67.364 269.156Z" fill="#404B7C"/>
<path d="M56.011 294C55.958 293.78 56.956 286.014 59.285 281.242C61.8078 281.526 64.35 281.6 66.885 281.462C66.885 281.462 73.154 286.234 78.698 288.337C84.242 290.44 85.466 291.279 85.298 293.994H56.011V294Z" fill="#FF2D26"/>
<path d="M43.592 151.805C43.592 151.805 39.046 169.022 45.203 185.081C46.621 214.856 48.531 256.218 48.917 272.264H83.897C83.897 272.264 85.474 189.813 77.328 150.334C69.182 110.855 40.597 125.517 43.592 151.805Z" fill="#66FCF1"/>
<path d="M45.202 185.407C45.1328 185.407 45.0655 185.385 45.0094 185.344C44.9533 185.304 44.9112 185.247 44.889 185.181C41.155 173.94 40.743 165.515 43.258 151.792C43.0953 150.358 43.0241 148.916 43.045 147.473C43.045 147.385 43.0801 147.3 43.1425 147.238C43.205 147.175 43.2897 147.14 43.378 147.14C43.4663 147.14 43.551 147.175 43.6135 147.238C43.6759 147.3 43.711 147.385 43.711 147.473C43.6899 148.905 43.7611 150.337 43.924 151.759C43.9292 151.792 43.9292 151.826 43.924 151.859C41.424 165.482 41.824 173.821 45.524 184.959C45.5512 185.043 45.544 185.134 45.5041 185.213C45.4641 185.291 45.3947 185.351 45.311 185.378L45.202 185.407Z" fill="#404B7C"/>
<path d="M62.818 170.44C61.487 170.44 55.79 168.191 55.125 167.365C54.46 166.539 53.841 158.265 53.661 155.732C53.657 155.685 53.6633 155.637 53.6793 155.592C53.6953 155.547 53.7208 155.506 53.754 155.472C53.7864 155.436 53.8268 155.408 53.872 155.391C53.9172 155.373 53.9659 155.367 54.014 155.372C58.6583 155.589 63.312 155.27 67.883 154.42C67.9298 154.41 67.9781 154.411 68.0247 154.421C68.0713 154.432 68.115 154.453 68.153 154.482C68.1909 154.511 68.2222 154.547 68.2446 154.59C68.267 154.632 68.2801 154.678 68.283 154.726C68.396 156.543 68.949 165.614 68.883 166.04C68.783 166.799 63.559 170.253 62.983 170.393C62.9303 170.416 62.8748 170.432 62.818 170.44ZM54.353 156.058C54.719 161.023 55.285 166.427 55.653 166.946C56.179 167.612 62.075 169.934 62.821 169.774C64.7757 168.724 66.5931 167.437 68.232 165.941C68.232 165.275 67.906 159.326 67.653 155.153C63.2662 155.941 58.8061 156.244 54.353 156.058Z" fill="#404B7C"/>
<path d="M53.688 178.865C43.612 178.1 36.81 178.086 36.744 178.086C36.6557 178.086 36.571 178.051 36.5085 177.988C36.4461 177.926 36.411 177.841 36.411 177.753C36.411 177.665 36.4461 177.58 36.5085 177.517C36.571 177.455 36.6557 177.42 36.744 177.42C36.811 177.42 43.639 177.42 53.744 178.199C53.8323 178.206 53.9142 178.248 53.9717 178.315C54.0292 178.383 54.0575 178.47 54.0505 178.558C54.0435 178.647 54.0017 178.729 53.9342 178.786C53.8668 178.844 53.7793 178.872 53.691 178.865H53.688Z" fill="#404B7C"/>
<path d="M75.535 268.597H75.502C75.4582 268.593 75.4157 268.58 75.3768 268.56C75.338 268.539 75.3036 268.511 75.2757 268.477C75.2478 268.443 75.2269 268.403 75.2143 268.361C75.2016 268.319 75.1975 268.275 75.202 268.231C79.807 223.854 72.939 153.702 72.873 152.996C72.8686 152.952 72.8729 152.908 72.8855 152.866C72.8982 152.824 72.9191 152.785 72.9469 152.751C72.9747 152.717 73.0089 152.689 73.0476 152.668C73.0864 152.647 73.1288 152.634 73.1725 152.63C73.2162 152.625 73.2604 152.629 73.3025 152.642C73.3446 152.655 73.3838 152.676 73.4178 152.703C73.4518 152.731 73.4801 152.766 73.5009 152.804C73.5217 152.843 73.5346 152.885 73.539 152.929C73.606 153.634 80.474 223.853 75.868 268.297C75.8598 268.38 75.8211 268.456 75.7596 268.512C75.698 268.567 75.6179 268.598 75.535 268.597Z" fill="#404B7C"/>
<path d="M52.968 77.872C52.968 77.872 54.412 74.099 55.018 72.827C50.8265 72.0842 46.5513 71.9341 42.318 72.381L44.318 77.872H52.968Z" fill="#F68D88"/>
<path d="M34.607 78.4839C44.1054 75.8233 54.2034 76.2491 63.444 79.6999C63.444 79.6999 76.868 120.516 79.862 149.8C79.862 149.8 51.744 156.455 21.462 150.133C21.463 150.134 23.959 95.5619 34.607 78.4839Z" fill="#FF2D26"/>
<path d="M53.239 77.52H53.192C49.5459 77.0426 45.8569 76.9869 42.198 77.354C42.1543 77.3584 42.1101 77.3542 42.068 77.3415C42.0259 77.3288 41.9868 77.308 41.9527 77.2802C41.9187 77.2524 41.8905 77.2181 41.8697 77.1794C41.8489 77.1407 41.8359 77.0982 41.8315 77.0545C41.8271 77.0108 41.8314 76.9666 41.844 76.9245C41.8567 76.8825 41.8775 76.8433 41.9054 76.8092C41.9332 76.7752 41.9674 76.747 42.0061 76.7262C42.0448 76.7054 42.0873 76.6924 42.131 76.688C45.8407 76.3154 49.581 76.3711 53.278 76.854C53.3663 76.8593 53.4489 76.8995 53.5076 76.9657C53.5663 77.0319 53.5963 77.1187 53.591 77.207C53.5857 77.2953 53.5455 77.3779 53.4793 77.4366C53.4131 77.4953 53.3263 77.5253 53.238 77.52H53.239Z" fill="#ECBDBB"/>
<path d="M23.293 127.574H23.26C23.1728 127.564 23.0931 127.52 23.0382 127.451C22.9833 127.383 22.9577 127.295 22.967 127.208C24.767 110.33 28.198 88.1491 34.334 78.3081C34.3572 78.271 34.3875 78.2387 34.4231 78.2133C34.4587 78.1878 34.499 78.1696 34.5417 78.1597C34.5844 78.1498 34.6286 78.1485 34.6718 78.1556C34.715 78.1628 34.7564 78.1785 34.7935 78.2017C34.8307 78.2248 34.8629 78.2551 34.8884 78.2907C34.9138 78.3264 34.932 78.3667 34.9419 78.4093C34.9518 78.452 34.9532 78.4962 34.946 78.5394C34.9388 78.5826 34.9232 78.624 34.9 78.6611C28.824 88.3841 25.4 110.466 23.626 127.304C23.6112 127.381 23.5697 127.45 23.5087 127.5C23.4478 127.549 23.3714 127.576 23.293 127.574Z" fill="#ECBDBB"/>
<path d="M75.177 147.805C75.0952 147.806 75.016 147.776 74.9546 147.722C74.8932 147.668 74.8538 147.593 74.844 147.512C73.1234 135.225 70.5797 123.067 67.23 111.121C67.2093 111.034 67.2231 110.942 67.2685 110.865C67.3139 110.788 67.3874 110.732 67.4735 110.708C67.5597 110.684 67.6518 110.694 67.7306 110.736C67.8093 110.779 67.8686 110.85 67.896 110.935C71.2538 122.914 73.8042 135.105 75.53 147.425C75.5414 147.512 75.5176 147.601 75.464 147.671C75.4104 147.74 75.3313 147.786 75.244 147.798H75.177V147.805Z" fill="#ECBDBB"/>
<path d="M91.283 94.0641L94.444 88.4071C94.444 88.4071 93.113 81.5851 93.06 80.5341C93.007 79.4831 96.108 76.1551 96.441 75.8751C96.774 75.5951 100.214 75.5421 100.214 75.5421C100.759 75.3082 101.352 75.2055 101.944 75.2421C102.133 75.2473 102.312 75.326 102.444 75.4614C102.575 75.5968 102.649 75.7782 102.649 75.9671C102.649 75.9671 104.126 75.5741 104.166 76.6721C104.296 76.6545 104.429 76.6545 104.559 76.6721C104.714 76.7075 104.855 76.7865 104.966 76.8996C105.078 77.0127 105.154 77.1554 105.187 77.3106C105.22 77.4659 105.208 77.6274 105.152 77.7759C105.096 77.9245 104.999 78.054 104.872 78.1491C104.127 78.7081 102.772 79.7201 102.716 79.8261C102.66 79.9321 99.974 84.0261 99.927 84.1921C99.88 84.3581 99.368 88.9971 99.095 89.9351C98.822 90.8731 96.113 97.3561 96.113 97.3561L91.283 94.0641Z" fill="white" stroke="#707070" stroke-width="0.05"/>
<path d="M95.275 79.1771C95.2058 79.1779 95.1381 79.1571 95.0813 79.1176C95.0245 79.0781 94.9814 79.022 94.958 78.9569C94.9345 78.8918 94.932 78.821 94.9506 78.7544C94.9693 78.6877 95.0082 78.6286 95.062 78.5851C96.3414 77.5003 97.7416 76.5668 99.235 75.8031C99.3178 75.7734 99.4089 75.7775 99.4886 75.8145C99.5683 75.8516 99.6303 75.9185 99.6609 76.0009C99.6916 76.0833 99.6885 76.1745 99.6524 76.2546C99.6163 76.3348 99.5501 76.3975 99.468 76.4291C98.0507 77.1796 96.7129 78.0715 95.475 79.0911C95.4199 79.1414 95.3494 79.1717 95.275 79.1771Z" fill="#404B7C"/>
<path d="M97 79.8419C96.93 79.8421 96.8616 79.8202 96.8047 79.7793C96.7478 79.7384 96.7053 79.6806 96.6831 79.6142C96.6609 79.5477 96.6603 79.476 96.6813 79.4091C96.7023 79.3423 96.7439 79.2837 96.8 79.2419C98.2971 78.1107 99.8742 77.0897 101.519 76.1869C101.559 76.1656 101.603 76.1528 101.649 76.1492C101.694 76.1457 101.74 76.1514 101.783 76.1662C101.826 76.181 101.865 76.2044 101.899 76.235C101.933 76.2657 101.96 76.3029 101.978 76.3444C101.997 76.3859 102.007 76.4308 102.008 76.4763C102.008 76.5218 102 76.567 101.982 76.609C101.965 76.651 101.939 76.689 101.906 76.7207C101.873 76.7523 101.835 76.7769 101.792 76.7929C100.191 77.6785 98.654 78.6749 97.192 79.7749C97.1366 79.8167 97.0694 79.8401 97 79.8419Z" fill="#404B7C"/>
<path d="M99.934 79.822C99.8656 79.8228 99.7987 79.8024 99.7423 79.7638C99.6859 79.7252 99.6428 79.6701 99.6187 79.6061C99.5947 79.5421 99.5909 79.4723 99.608 79.4061C99.625 79.3398 99.662 79.2805 99.714 79.236C100.891 78.2349 102.179 77.3729 103.554 76.667C103.634 76.63 103.726 76.6265 103.809 76.6572C103.892 76.6878 103.959 76.7502 103.996 76.8305C104.033 76.9109 104.037 77.0027 104.006 77.0857C103.976 77.1686 103.913 77.236 103.833 77.273C102.515 77.9551 101.278 78.7833 100.146 79.742C100.087 79.7927 100.012 79.821 99.934 79.822Z" fill="#404B7C"/>
<path d="M86.963 100.281C86.607 99.2282 86.4556 98.1169 86.517 97.0071C87.6269 95.4607 88.911 94.0471 90.344 92.7941C90.956 92.4611 97.444 94.8441 98.383 99.7291C98.383 99.7291 96.553 103.942 96.167 104.168C94.0209 104.382 91.8566 104.019 89.898 103.116C88.6437 102.506 87.6159 101.513 86.963 100.281Z" fill="#9AB3DA"/>
<path d="M88.294 97.1192L83.416 102.556C83.416 102.556 72.216 84.4742 63.45 79.7092C63.45 79.7092 60.568 77.8261 59.903 88.1411C59.4316 94.0679 60.4617 100.018 62.898 105.441C62.898 105.441 77.539 118.751 82.418 119.53C87.297 120.309 91.618 111.657 94.843 102.446C93.279 99.5552 91.236 97.5522 88.294 97.1192Z" fill="#FF2D26"/>
<path d="M72.209 113.617C72.1341 113.616 72.0615 113.591 72.003 113.544C67.218 109.804 62.686 105.717 62.686 105.678C62.6564 105.651 62.6317 105.62 62.613 105.585C60.163 100.103 59.1198 94.0954 59.578 88.108C59.804 84.587 60.317 82.0779 61.095 80.6479C61.1396 80.5747 61.2107 80.5215 61.2935 80.4992C61.3764 80.477 61.4646 80.4874 61.5399 80.5284C61.6152 80.5694 61.6719 80.6378 61.6981 80.7195C61.7244 80.8011 61.7183 80.8897 61.681 80.9669C60.949 82.2979 60.463 84.7269 60.244 88.1479C59.7998 93.9952 60.808 99.8616 63.179 105.225C63.665 105.664 67.924 109.498 72.43 113.018C72.4879 113.061 72.5303 113.121 72.551 113.19C72.5716 113.259 72.5694 113.333 72.5446 113.4C72.5198 113.468 72.4739 113.526 72.4135 113.565C72.3532 113.604 72.2818 113.623 72.21 113.618L72.209 113.617Z" fill="#ECBDBB"/>
<path d="M87.103 108.254C87.0406 108.254 86.9794 108.237 86.9263 108.204C86.8733 108.171 86.8306 108.124 86.803 108.068C85.8734 106.412 84.814 104.832 83.635 103.343C83.5894 103.274 83.5713 103.19 83.5844 103.108C83.5976 103.026 83.6409 102.951 83.7059 102.9C83.7709 102.848 83.853 102.822 83.9359 102.828C84.0188 102.834 84.0966 102.87 84.154 102.93C85.3639 104.452 86.4478 106.07 87.395 107.768C87.4212 107.819 87.4339 107.875 87.4321 107.932C87.4302 107.989 87.4138 108.044 87.3844 108.093C87.3551 108.142 87.3137 108.182 87.2642 108.21C87.2148 108.239 87.1589 108.254 87.102 108.254H87.103Z" fill="#ECBDBB"/>
<path d="M52.19 55.632C58.346 55.512 59.012 62.068 57.068 66.832C55.124 71.596 51.132 69.827 48.802 66.552C46.472 63.277 46.586 55.744 52.19 55.632Z" fill="white"/>
<path d="M54.12 63.663L55.371 63.703C55.7316 62.8997 56.0103 62.0621 56.203 61.203C56.7526 61.8571 57.3368 62.4813 57.953 63.073C58.079 63.073 61.906 59.619 62.153 58.581C62.4 57.543 58.067 50.102 53.408 49.304C48.749 48.506 40.184 54.462 39.765 55.713C39.346 56.964 39.472 60.704 39.099 61.789C38.726 62.874 32.071 64.158 30.614 66.368C29.157 68.578 29.576 71.898 30.534 74.774C31.492 77.65 28.205 78.934 24.378 80.764C20.551 82.594 17.809 90.913 26.627 95.905C35.445 100.897 49.92 94.081 51.837 86.421C53.308 80.544 52.429 78.275 51.544 75.227C50.659 72.179 55.304 74.768 52.589 67.121C51.151 63.068 53.534 61.684 53.534 61.684L54.12 63.663Z" fill="#58CFC7"/>
<path d="M54.457 63.9829C54.7164 63.4174 54.8372 62.7981 54.8094 62.1766C54.7816 61.555 54.6059 60.949 54.297 60.4089C54.1541 60.112 53.9271 59.8635 53.6443 59.6943C53.3615 59.525 53.0353 59.4425 52.706 59.4569C50.749 59.6229 51.248 63.7829 54.183 64.6149L54.457 63.9829Z" fill="white"/>
<path d="M53.76 63.5371H53.7C53.6137 63.5208 53.5374 63.4711 53.4876 63.3988C53.4377 63.3266 53.4185 63.2375 53.434 63.1511C53.434 63.1511 53.773 61.2941 52.768 60.9081C52.6859 60.8765 52.6197 60.8138 52.5836 60.7337C52.5475 60.6535 52.5444 60.5623 52.5751 60.4799C52.6057 60.3975 52.6676 60.3306 52.7474 60.2935C52.8271 60.2565 52.9182 60.2524 53.001 60.2821C54.552 60.8611 54.132 63.1701 54.112 63.2701C54.0961 63.3499 54.0515 63.4212 53.9866 63.4704C53.9218 63.5196 53.8411 63.5433 53.76 63.5371Z" fill="#404B7C"/>
<path d="M52.683 62.4189C52.6218 62.4192 52.5616 62.4026 52.5092 62.371C52.4567 62.3393 52.4141 62.2937 52.3858 62.2394C52.3576 62.185 52.3449 62.1239 52.3492 62.0627C52.3535 62.0016 52.3745 61.9429 52.41 61.893C52.7082 61.5128 53.1215 61.2395 53.588 61.1139C53.6763 61.0919 53.7698 61.1059 53.8478 61.1528C53.9258 61.1997 53.982 61.2756 54.004 61.3639C54.026 61.4523 54.0121 61.5457 53.9652 61.6237C53.9183 61.7017 53.8423 61.7579 53.754 61.7799C53.4373 61.8668 53.1558 62.0508 52.949 62.3059C52.916 62.3436 52.875 62.3732 52.8289 62.3928C52.7829 62.4124 52.733 62.4213 52.683 62.4189Z" fill="#404B7C"/>
<path d="M48.143 55.631C49.873 52.703 47.923 47.2061 43.484 47.4251C42.4756 47.4814 41.489 47.7409 40.5835 48.1882C39.678 48.6354 38.8722 49.261 38.2146 50.0274C37.5569 50.7939 37.061 51.6854 36.7566 52.6483C36.4521 53.6113 36.3455 54.6258 36.443 55.631C36.769 59.737 44.15 62.399 48.143 55.631Z" fill="#5DD9D0"/>
<path d="M41.788 60.0901C41.4471 60.0897 41.1068 60.063 40.77 60.0101C40.7263 60.0035 40.6843 59.9884 40.6464 59.9656C40.6085 59.9428 40.5755 59.9127 40.5492 59.8772C40.5229 59.8416 40.5039 59.8012 40.4932 59.7583C40.4826 59.7154 40.4804 59.6708 40.487 59.6271C40.4936 59.5833 40.5087 59.5413 40.5315 59.5034C40.5543 59.4655 40.5843 59.4325 40.6199 59.4062C40.6555 59.38 40.6959 59.3609 40.7388 59.3503C40.7817 59.3396 40.8263 59.3375 40.87 59.3441C43.532 59.7631 46.194 58.3061 47.858 55.4441C48.1739 54.8333 48.3659 54.166 48.4231 53.4808C48.4802 52.7955 48.4013 52.1057 48.191 51.4511C48.1703 51.364 48.1841 51.2724 48.2295 51.1953C48.2749 51.1182 48.3484 51.0617 48.4345 51.0377C48.5207 51.0136 48.6128 51.0238 48.6916 51.0662C48.7704 51.1086 48.8296 51.1799 48.857 51.2651C49.0965 52.0112 49.1845 52.7978 49.1158 53.5784C49.0471 54.3591 48.8231 55.1181 48.457 55.811C46.806 58.552 44.377 60.0901 41.788 60.0901Z" fill="#9AB3DA"/>
</svg>
