<svg width="369" height="449" viewBox="0 0 369 449" fill="none" xmlns="http://www.w3.org/2000/svg">
<path d="M0.00402832 292.874C0.00402832 292.874 67.248 325.601 106.804 309.183C146.36 292.765 152.085 241.706 152.085 241.706C142.378 241.576 133.742 233.091 125.104 224.614L50.155 248.803C38.133 271.778 22.083 287.643 0.00402832 292.874Z" fill="#9AB3DA"/>
<path d="M188.963 401.241L186.046 416.835C184.763 417.351 183.367 417.521 181.997 417.326C180.628 417.131 179.334 416.579 178.246 415.726L179.475 398.699L188.963 401.241Z" fill="#ECBDBB"/>
<path d="M170.45 428.635C169.45 432.684 169.23 437.863 169.578 443.849L172.989 444.334C172.989 444.334 175.855 435.37 178.189 431.526C180.523 427.682 172.62 425.265 170.45 428.635Z" fill="#404B7C"/>
<path d="M177.415 413.22C177.415 413.22 180.855 415.599 187.551 414.662C187.551 414.662 195.551 433.897 198.702 437.627C201.853 441.357 209.246 445.988 211.767 447.838C214.288 449.688 193.279 447.793 188.531 446.223C183.783 444.653 180.563 437.93 176.941 434.034C175.069 431.91 172.879 430.089 170.45 428.634C170.45 428.634 172.811 419.724 177.415 413.22Z" fill="#FF2D26"/>
<path d="M210.039 331.114L191.971 403.16C191.971 403.16 180.713 403.649 175.992 400.137C175.992 400.137 178.042 374.181 178.209 360.488C178.438 352.031 179.599 343.624 181.672 335.422C167.416 326.389 146.783 312.778 128.722 298.847C97.3581 274.653 84.1011 256.482 92.8841 243.811C101.667 231.14 115.742 234.769 115.742 234.769C115.742 234.769 145.51 251.555 155.537 261.195C165.564 270.835 205.717 314.821 205.717 314.821C207.757 316.949 209.224 319.56 209.98 322.41C210.736 325.259 210.756 328.254 210.039 331.114Z" fill="#66FCF1"/>
<path d="M183.608 396.903L192.567 329.448" stroke="#9AB3DA" stroke-miterlimit="10" stroke-linecap="round" stroke-linejoin="round"/>
<path d="M178.618 396.908C182.747 398.621 187.248 399.241 191.687 398.708" stroke="#9AB3DA" stroke-miterlimit="10" stroke-linecap="round" stroke-linejoin="round"/>
<path d="M231.163 379.309L242.74 391.94C242.471 393.296 241.85 394.557 240.939 395.597C240.028 396.636 238.859 397.418 237.55 397.863L223.85 385.863L231.163 379.309Z" fill="#ECBDBB"/>
<path d="M244.096 411.453C246.938 414.507 251.157 417.517 256.36 420.497L258.631 417.905C258.631 417.905 252.691 410.605 250.748 406.548C248.805 402.491 242.461 407.794 244.096 411.453Z" fill="#404B7C"/>
<path d="M234.994 397.195C234.994 397.195 238.866 395.614 241.741 389.495C241.741 389.495 262.223 393.305 267.067 392.707C271.911 392.109 279.831 388.446 282.758 387.346C285.685 386.246 272.617 402.805 268.706 405.923C264.795 409.041 257.406 408.064 252.164 408.968C249.363 409.376 246.641 410.214 244.096 411.454C244.096 411.454 237.925 404.605 234.994 397.195Z" fill="#FF2D26"/>
<path d="M229.2 384.895C224.664 390.086 221.144 389.095 221.144 389.095C221.144 389.095 184.785 359.195 176.644 350.114C172.722 345.714 168.197 339.806 163.883 334.202C161.835 333.11 159.727 332.132 157.571 331.273C149.557 328.249 104.888 313.765 87.084 305.561C69.28 297.357 43.736 279.066 50.609 259.095C57.482 239.124 83.534 232.863 96.284 238.255L115.629 261.242C115.629 261.242 162.772 294.601 181.307 308.384C183.085 309.708 184.582 311.371 185.713 313.277L185.727 313.3C193.498 326.4 233.642 375.435 233.642 375.435C233.642 375.435 233.745 379.714 229.2 384.895Z" fill="#66FCF1"/>
<path d="M218.695 384.591C218.695 384.591 224.78 383.537 228.47 374.123" stroke="#9AB3DA" stroke-miterlimit="10" stroke-linecap="round" stroke-linejoin="round"/>
<path d="M69.7159 259.543L79.4429 275.755C83.0533 281.772 88.3507 286.597 94.6779 289.631L167.884 324.736C167.884 324.736 192.548 356.743 221.377 379.919" stroke="#9AB3DA" stroke-miterlimit="10" stroke-linecap="round" stroke-linejoin="round"/>
<path d="M198.754 370.279C192.284 364.728 185.744 358.988 181.176 354.662" stroke="#9AB3DA" stroke-miterlimit="10" stroke-linecap="round" stroke-linejoin="round"/>
<path d="M96.283 238.252L115.628 261.24C115.628 261.24 162.771 294.599 181.306 308.382C183.083 309.706 184.581 311.369 185.712 313.275L185.726 313.299C188.804 318.488 196.962 329.315 205.691 340.499" stroke="#9AB3DA" stroke-miterlimit="10" stroke-linecap="round" stroke-linejoin="round"/>
<path d="M115.627 261.239L117.072 254.173L108.279 241.706" stroke="#9AB3DA" stroke-miterlimit="10" stroke-linecap="round" stroke-linejoin="round"/>
<path d="M78.7999 130.975C78.7999 130.975 99.6749 134.808 134.164 146.506L144.964 150.322C144.964 150.322 150.425 170.537 146.146 173.213C141.867 175.889 102.862 170.39 82.2979 159.113C61.7339 147.836 78.7999 130.975 78.7999 130.975Z" fill="#F68D88"/>
<path d="M132.774 143.663C131.239 147.51 130.528 151.635 130.688 155.774C130.847 159.912 131.873 163.971 133.7 167.688C138.321 176.829 145.313 176.779 145.313 176.779L151.666 171.131C151.666 171.131 153.221 160.8 150.282 151.784C147.343 142.768 142.12 138.641 142.12 138.641L132.774 143.663Z" fill="#404B7C"/>
<path d="M201.541 111.584C202.241 109.484 201.709 108.333 200.529 109.063C200.001 109.39 198.879 110.273 197.611 111.313C198.194 109.152 196.976 107.855 195.504 108.985C194.908 109.486 194.342 110.022 193.81 110.591C193.61 109.106 192.478 108.528 191.4 109.619C189.709 111.689 188.137 113.852 186.691 116.1C185.656 116.18 184.691 116.256 183.879 116.33C184.452 114.623 184.905 112.878 185.234 111.108C185.261 109.938 184.353 109.091 183.725 109.644C183.278 110.038 178.886 116.482 176.389 120.167C173.972 122.067 171.694 124.017 171.694 124.017L141.932 143.186C141.932 143.186 140.579 155.442 146.404 164.686C146.404 164.686 176.473 129.26 178.692 127.522C180.911 125.784 195.58 121.51 197.36 120.482C199.14 119.454 203.723 112.303 203.789 110.871C203.816 110.28 202.812 110.767 201.541 111.584Z" fill="#ECBDBB"/>
<path d="M186.69 116.101L196.163 115.684L201.541 111.584" stroke="#404B7C" stroke-miterlimit="10" stroke-linecap="round" stroke-linejoin="round"/>
<path d="M197.61 111.315L194.896 114.34" stroke="#404B7C" stroke-miterlimit="10" stroke-linecap="round" stroke-linejoin="round"/>
<path d="M193.81 110.592L191.205 114.019" stroke="#404B7C" stroke-miterlimit="10" stroke-linecap="round" stroke-linejoin="round"/>
<path d="M46.248 129.148L31.792 153.791C31.792 153.791 45.725 264.702 46.564 264.419C47.403 264.136 77.664 263.619 100.88 250.514C124.096 237.409 126.413 229.464 126.413 229.464L91.782 166.331L78.014 134.195L46.248 129.148Z" fill="#9AB3DA"/>
<path d="M46.564 264.42C47.404 264.138 77.664 263.62 100.88 250.515C124.096 237.41 126.413 229.465 126.413 229.465" stroke="#404B7C" stroke-miterlimit="10" stroke-linecap="round" stroke-linejoin="round"/>
<path d="M57.911 258.325C57.911 258.325 99.351 248.75 121.336 228.27" stroke="#404B7C" stroke-miterlimit="10" stroke-linecap="round" stroke-linejoin="round"/>
<path d="M73.785 211.024C85.601 254.199 53.958 304.576 53.958 304.576C20.165 309.768 0 292.876 0 292.876C0 292.876 37.691 261.361 33.136 235.476C28.581 209.591 19.899 156.864 19.899 156.864C19.899 156.864 30.799 138.104 40.407 130.237C41.662 135.637 47.082 157.904 54.16 172.76C62.271 189.758 73.785 211.024 73.785 211.024Z" fill="#FF2D26"/>
<path d="M50.885 126.71C60.3136 127.164 69.6697 128.593 78.804 130.974L81.11 137.832C81.11 137.832 93.578 155.449 95.035 158.854C96.492 162.259 97.648 175.424 97.648 175.424C97.648 175.424 121.335 220.21 145.085 215.915C145.085 215.915 160.514 235.615 150.395 252.571C150.395 252.571 119.14 245.208 111.868 226.671C107.862 216.217 103.004 206.109 97.343 196.451C97.343 196.451 71.769 155.614 66.112 147.131C60.455 138.648 50.885 126.71 50.885 126.71Z" fill="#FF2D26"/>
<path d="M79.4821 133.005L81.1061 137.833C81.1061 137.833 93.5741 155.45 95.0311 158.855C96.4881 162.26 97.6441 175.425 97.6441 175.425" stroke="#ECBDBB" stroke-width="0.858" stroke-miterlimit="10" stroke-linecap="round" stroke-linejoin="round"/>
<path d="M42.7061 125.406C37.3621 128.186 36.6811 142.388 38.3161 154.198L46.5831 157.857L44.0271 171.18C44.0271 171.18 61.4681 191.695 73.7851 211.025C73.7851 211.025 59.8111 177.504 51.7611 159.125C45.5451 139.561 54.2611 135.84 67.6491 151.704C81.4571 169.598 97.3431 196.452 97.3431 196.452C97.3431 196.452 88.3611 167.276 81.6281 152.196L69.8811 148.149L70.2331 139.93C70.2331 139.93 52.8751 120.118 42.7061 125.406Z" fill="#F68D88"/>
<path d="M97.342 196.455C97.342 196.455 88.36 167.279 81.627 152.199L69.88 148.152L70.232 139.933C66.4158 135.691 62.1204 131.905 57.432 128.652" stroke="#ECBDBB" stroke-width="0.858" stroke-miterlimit="10" stroke-linecap="round" stroke-linejoin="round"/>
<path d="M38.225 134.154C37.202 139.891 37.379 147.437 38.315 154.198L46.582 157.857L44.026 171.18C44.026 171.18 57.342 186.843 68.921 203.692" stroke="#ECBDBB" stroke-width="0.858" stroke-miterlimit="10" stroke-linecap="round" stroke-linejoin="round"/>
<path d="M31.613 153.707C31.0433 152.917 30.2909 152.277 29.42 151.841C28.5492 151.405 27.5858 151.186 26.612 151.203C25.6383 151.219 24.683 151.472 23.8279 151.938C22.9727 152.404 22.243 153.07 21.701 153.879C17.688 159.861 13.94 168.951 13.943 183.796C13.943 200.086 16.209 233.961 20.189 238.675C24.169 243.389 33.697 241.195 33.697 241.195C33.697 241.195 44.87 228.235 45.648 224.201C45.912 223.113 45.9267 221.979 45.691 220.885C45.4554 219.79 44.9754 218.763 44.287 217.88L39.699 217.224C39.699 217.224 42.15 186.611 40.767 173.944C39.964 166.559 35.332 158.851 31.613 153.707Z" fill="#FF2D26"/>
<path d="M39.699 217.226C39.699 217.226 42.15 186.613 40.767 173.946C40.233 169.056 38.024 164.025 35.512 159.69" stroke="#ECBDBB" stroke-width="0.858" stroke-miterlimit="10" stroke-linecap="round" stroke-linejoin="round"/>
<path d="M41.174 215.915L52.127 217.178C52.127 217.178 55.311 222.668 51.2 230.731C47.089 238.794 38.656 244.706 38.656 244.706C38.656 244.706 27.601 244.538 27.74 244.366C26.2447 239.204 26.4423 233.698 28.304 228.656C31.496 219.381 41.174 215.915 41.174 215.915Z" fill="#404B7C"/>
<path d="M116.824 215.511C116.612 217.214 116.253 218.897 115.753 220.539C114.936 221.657 113.985 222.67 112.922 223.557C112.882 224.658 112.581 225.734 112.044 226.697C111.35 227.773 110.506 228.744 109.538 229.583C109.234 230.909 108.723 232.179 108.026 233.347C107.148 234.478 99.3569 236.614 96.3429 237.247C93.3289 237.88 87.4299 237.279 87.4299 237.279C81.7209 236.761 48.7299 239.816 40.4139 240.461C40.4139 240.461 36.7659 229.201 49.4749 220.595L87.0389 227.858C88.1336 224.724 89.3933 221.65 90.8129 218.649C91.6909 217.401 97.0929 213.881 99.2289 209.736C101.365 205.591 103.881 212.749 100.117 216.27C96.3529 219.791 98.3509 220.161 98.3509 220.161C98.3509 220.161 108.532 215.509 110.541 214.135C112.55 212.761 114.812 208.352 118.322 206.597C121.832 204.842 116.824 215.511 116.824 215.511Z" fill="white"/>
<path d="M115.628 216.708L108.28 220.853" stroke="#404B7C" stroke-miterlimit="10" stroke-linecap="round" stroke-linejoin="round"/>
<path d="M111.985 223.68L106.835 226.004" stroke="#404B7C" stroke-miterlimit="10" stroke-linecap="round" stroke-linejoin="round"/>
<path d="M108.531 229.96L105.077 230.903" stroke="#404B7C" stroke-miterlimit="10" stroke-linecap="round" stroke-linejoin="round"/>
<path d="M33.149 91.8681C33.149 91.8681 29.709 83.2851 23.12 80.9161C16.531 78.5471 11.348 85.0741 9.62003 93.4341C7.89203 101.794 13.464 109.587 23.62 102.486C31.603 96.9071 33.149 91.8681 33.149 91.8681Z" fill="#58CFC7"/>
<path d="M31.371 91.838C31.371 91.838 19.981 96.628 20.166 106.59C20.351 116.552 36.7721 125.922 46.5901 121.27C56.4081 116.618 54.9361 108.382 54.9361 108.382C54.9361 108.382 63.1641 108.468 64.1021 100.622C65.0401 92.776 61.14 90.974 56.871 91.361C56.871 91.361 59.3971 81.746 50.4501 79.955C41.5031 78.164 34.184 82.326 31.371 91.838Z" fill="#58CFC7"/>
<path d="M31.371 91.8381C31.371 91.8381 22.9981 95.3611 20.7271 102.638" stroke="#FF2D26" stroke-miterlimit="10" stroke-linecap="round" stroke-linejoin="round"/>
<path d="M67.645 151.708C67.8442 155.028 66.7996 158.303 64.715 160.894C58.593 162.442 51.759 159.132 51.759 159.132L45.135 139.432C43.264 134.091 37.679 121.599 35.628 117.055C35.147 115.995 34.861 115.369 34.861 115.369L44.761 114.233C44.761 114.233 46.427 118.521 48.439 123.241C50.36 127.73 52.626 132.614 54.088 134.552C57.094 138.531 67.645 151.708 67.645 151.708Z" fill="white"/>
<path d="M49.961 126.711C44.089 126.854 38.276 120.045 35.627 117.06C35.146 116 34.86 115.374 34.86 115.374L44.76 114.238C44.76 114.238 47.953 121.99 49.961 126.711Z" fill="#EDEDED"/>
<path d="M54.0901 99.0947C56.3435 104.173 57.3383 109.721 56.9901 115.266C56.3161 124.177 49.1681 124.422 42.3451 120.693C35.5221 116.964 32.1451 106.31 32.1451 106.31C32.1451 106.31 29.8001 97.1687 36.1571 93.7277C37.6777 92.8625 39.3579 92.3146 41.0962 92.1169C42.8345 91.9192 44.5949 92.0758 46.2709 92.5775C47.947 93.0791 49.504 93.9152 50.8479 95.0354C52.1918 96.1555 53.2948 97.5364 54.0901 99.0947Z" fill="white"/>
<path d="M36.754 96.6088C36.754 96.6088 45.477 105.055 57.725 101.316C57.725 101.316 50.698 84.1358 36.089 90.6798C21.48 97.2238 26.968 109.055 34.284 111.572C34.283 111.572 38.885 107.135 36.754 96.6088Z" fill="#5DD9D0"/>
<path d="M38.755 115.806L35.78 110.461C35.78 110.461 32.442 106.761 28.748 108.566C25.054 110.371 27.747 120.486 38.755 115.806Z" fill="white"/>
<path d="M29.608 110.838C32.2275 110.945 34.7255 111.972 36.663 113.738" stroke="black" stroke-miterlimit="10" stroke-linecap="round" stroke-linejoin="round"/>
<path d="M32.296 114.729C32.1944 113.6 32.2837 112.461 32.56 111.362" stroke="black" stroke-miterlimit="10" stroke-linecap="round" stroke-linejoin="round"/>
<path d="M35.43 115.175C37.012 115.334 38.077 117.634 37.807 120.312C37.537 122.99 36.036 125.031 34.454 124.872C32.872 124.713 31.807 122.413 32.077 119.735C32.1645 118.783 32.4362 117.857 32.877 117.009" stroke="#FF2D26" stroke-miterlimit="10" stroke-linecap="round" stroke-linejoin="round"/>
<path d="M39.265 105.383C39.265 105.383 40.221 101.521 43.156 102.268C43.156 102.268 43.056 101.461 43.741 101.291C44.426 101.121 44.974 103.269 44.974 103.269C42.9487 103.585 41.0074 104.303 39.265 105.383Z" fill="black"/>
<path d="M54.4859 103.77C54.4859 103.77 53.492 100.27 51.661 101.705C51.661 101.705 51.461 101.062 51.004 101.086C50.204 101.127 50.4989 103.199 50.4989 103.199C51.8548 102.958 53.2523 103.158 54.4859 103.77Z" fill="black"/>
<path d="M44.2494 110.485C45.0605 110.333 45.5658 109.397 45.3781 108.395C45.1904 107.392 44.3808 106.702 43.5697 106.854C42.7586 107.006 42.2532 107.942 42.4409 108.945C42.6286 109.947 43.4383 110.637 44.2494 110.485Z" fill="black"/>
<path d="M44.1121 108.361C44.3313 108.361 44.5091 108.183 44.5091 107.964C44.5091 107.745 44.3313 107.567 44.1121 107.567C43.8928 107.567 43.7151 107.745 43.7151 107.964C43.7151 108.183 43.8928 108.361 44.1121 108.361Z" fill="white"/>
<path d="M52.8973 108.862C53.7084 108.711 54.2138 107.775 54.0261 106.772C53.8384 105.769 53.0287 105.079 52.2176 105.231C51.4065 105.383 50.9012 106.319 51.0889 107.322C51.2766 108.324 52.0862 109.014 52.8973 108.862Z" fill="black"/>
<path d="M52.76 106.738C52.9793 106.738 53.157 106.56 53.157 106.341C53.157 106.122 52.9793 105.944 52.76 105.944C52.5408 105.944 52.363 106.122 52.363 106.341C52.363 106.56 52.5408 106.738 52.76 106.738Z" fill="white"/>
<path d="M48.6641 107.385L49.3571 110.93C49.3571 110.93 51.9011 110.474 51.6051 112.03C51.3141 113.556 49.2421 113.43 49.2421 113.43" stroke="black" stroke-miterlimit="10" stroke-linecap="round" stroke-linejoin="round"/>
<path d="M51.044 117.095C51.044 117.095 47.969 118.874 44.2 116.195" stroke="black" stroke-miterlimit="10" stroke-linecap="round" stroke-linejoin="round"/>
<path d="M282.711 186.467C283.638 181.787 283.638 176.972 282.711 172.292H272.68C272.099 170.182 271.257 168.153 270.174 166.251L277.274 159.151C274.621 155.187 271.215 151.783 267.249 149.133L260.149 156.233C258.249 155.147 256.219 154.305 254.108 153.727V143.689C249.428 142.762 244.613 142.762 239.933 143.689V153.727C237.825 154.307 235.797 155.149 233.898 156.233L226.798 149.133C222.833 151.782 219.429 155.186 216.78 159.151L223.88 166.251C222.798 168.151 221.956 170.178 221.374 172.286H211.33C210.403 176.966 210.403 181.781 211.33 186.461H221.368C221.946 188.572 222.788 190.602 223.874 192.502L216.774 199.602C219.424 203.567 222.828 206.973 226.792 209.626L233.892 202.526C235.791 203.61 237.819 204.452 239.927 205.032V215.075C244.607 216.002 249.422 216.002 254.102 215.075V205.039C256.213 204.461 258.243 203.619 260.143 202.533L267.243 209.633C271.207 206.981 274.613 203.577 277.268 199.615L270.168 192.515C271.25 190.61 272.092 188.579 272.674 186.467H282.711ZM247.024 192.188C244.492 192.188 242.018 191.437 239.913 190.031C237.808 188.624 236.167 186.625 235.198 184.286C234.23 181.947 233.976 179.374 234.47 176.891C234.964 174.408 236.183 172.127 237.973 170.337C239.763 168.547 242.044 167.328 244.527 166.834C247.01 166.34 249.583 166.593 251.922 167.562C254.261 168.531 256.26 170.172 257.667 172.277C259.073 174.382 259.824 176.856 259.824 179.388C259.822 182.782 258.473 186.037 256.073 188.437C253.673 190.837 250.418 192.186 247.024 192.188Z" fill="#5222D0"/>
<path d="M311.621 92.1121C303.885 92.103 296.288 94.161 289.614 98.0731V98.0631C285.678 81.0917 275.656 66.1521 261.447 56.0719C247.237 45.9918 229.825 41.4705 212.507 43.3638C195.188 45.2571 179.164 53.4337 167.468 66.3459C155.772 79.2582 149.215 96.0101 149.039 113.431H149.028C140.283 113.431 131.895 116.905 125.711 123.089C119.528 129.273 116.053 137.66 116.053 146.406C116.053 155.151 119.528 163.538 125.711 169.722C131.895 175.906 140.283 179.38 149.028 179.38H149.14H311.51H311.622C323.194 179.38 334.293 174.783 342.476 166.6C350.659 158.417 355.256 147.319 355.256 135.746C355.256 124.174 350.659 113.075 342.476 104.892C334.293 96.7092 323.194 92.1121 311.622 92.1121H311.621Z" fill="#FF2D26"/>
<path d="M320.164 133.043H259.202C258.075 133.043 256.995 132.596 256.198 131.799C255.402 131.002 254.954 129.922 254.954 128.795C254.954 127.668 255.402 126.588 256.198 125.791C256.995 124.995 258.075 124.547 259.202 124.547H320.163C321.29 124.547 322.37 124.995 323.167 125.791C323.963 126.588 324.411 127.668 324.411 128.795C324.411 129.922 323.964 131.002 323.167 131.799C322.371 132.595 321.29 133.043 320.164 133.043Z" fill="white"/>
<path d="M244.228 133.043C243.101 133.043 242.021 132.596 241.224 131.799C240.428 131.002 239.98 129.922 239.98 128.795C239.98 127.668 240.428 126.588 241.224 125.791C242.021 124.995 243.101 124.547 244.228 124.547C245.355 124.547 246.435 124.995 247.232 125.791C248.028 126.588 248.476 127.668 248.476 128.795C248.476 129.353 248.366 129.905 248.153 130.421C247.939 130.936 247.627 131.405 247.232 131.799C246.838 132.194 246.369 132.507 245.854 132.72C245.338 132.933 244.786 133.043 244.228 133.043Z" fill="white"/>
<path d="M320.164 152.735H259.202C258.075 152.735 256.995 152.287 256.198 151.491C255.402 150.694 254.954 149.614 254.954 148.487C254.954 147.36 255.402 146.28 256.198 145.483C256.995 144.687 258.075 144.239 259.202 144.239H320.163C321.29 144.239 322.37 144.687 323.167 145.483C323.963 146.28 324.411 147.36 324.411 148.487C324.411 149.613 323.964 150.694 323.167 151.49C322.371 152.287 321.29 152.735 320.164 152.735Z" fill="white"/>
<path d="M192.603 193.309L177.211 208.7V230.829" stroke="#404B7C" stroke-miterlimit="10" stroke-linecap="round" stroke-linejoin="round"/>
<path d="M177.209 238.934C179.446 238.934 181.26 237.12 181.26 234.883C181.26 232.646 179.446 230.832 177.209 230.832C174.972 230.832 173.158 232.646 173.158 234.883C173.158 237.12 174.972 238.934 177.209 238.934Z" fill="#9AB3DA"/>
<path d="M301.585 193.309L316.979 208.7V230.829" stroke="#404B7C" stroke-miterlimit="10" stroke-linecap="round" stroke-linejoin="round"/>
<path d="M316.979 238.934C319.216 238.934 321.03 237.12 321.03 234.883C321.03 232.646 319.216 230.832 316.979 230.832C314.742 230.832 312.928 232.646 312.928 234.883C312.928 237.12 314.742 238.934 316.979 238.934Z" fill="#9AB3DA"/>
<path d="M318.476 82.659L333.87 67.264V53.238" stroke="#404B7C" stroke-miterlimit="10" stroke-linecap="round" stroke-linejoin="round"/>
<path d="M333.87 53.238C336.107 53.238 337.921 51.4243 337.921 49.187C337.921 46.9497 336.107 45.136 333.87 45.136C331.633 45.136 329.819 46.9497 329.819 49.187C329.819 51.4243 331.633 53.238 333.87 53.238Z" fill="#9AB3DA"/>
<path d="M141.794 88.837L126.4 73.443V59.416" stroke="#404B7C" stroke-miterlimit="10" stroke-linecap="round" stroke-linejoin="round"/>
<path d="M126.4 59.4169C128.637 59.4169 130.451 57.6032 130.451 55.3659C130.451 53.1286 128.637 51.3149 126.4 51.3149C124.163 51.3149 122.349 53.1286 122.349 55.3659C122.349 57.6032 124.163 59.4169 126.4 59.4169Z" fill="#5222D0"/>
<path d="M221.157 272.903H188.388C187.465 272.903 186.579 272.536 185.926 271.883C185.273 271.23 184.906 270.345 184.906 269.421V251.085C184.906 250.628 184.996 250.175 185.171 249.753C185.346 249.33 185.603 248.946 185.926 248.623C186.249 248.3 186.633 248.043 187.056 247.868C187.478 247.693 187.931 247.603 188.388 247.603H221.157C221.614 247.603 222.067 247.693 222.49 247.868C222.912 248.043 223.296 248.3 223.619 248.623C223.942 248.946 224.199 249.33 224.374 249.753C224.549 250.175 224.639 250.628 224.639 251.085V269.42C224.639 269.877 224.549 270.33 224.374 270.753C224.199 271.175 223.943 271.559 223.62 271.883C223.296 272.206 222.912 272.463 222.49 272.638C222.067 272.813 221.614 272.903 221.157 272.903Z" fill="#5222D0"/>
<path d="M188.388 269.712C188.31 269.712 188.236 269.681 188.181 269.626C188.127 269.572 188.096 269.497 188.096 269.42V251.085C188.096 251.008 188.127 250.933 188.181 250.879C188.236 250.824 188.31 250.793 188.388 250.793H221.155C221.232 250.793 221.307 250.824 221.361 250.879C221.416 250.933 221.447 251.008 221.447 251.085V269.42C221.447 269.497 221.416 269.572 221.361 269.626C221.307 269.681 221.232 269.712 221.155 269.712H188.388Z" fill="#404B7C"/>
<path d="M181.684 274.497C181.685 274.074 181.854 273.67 182.153 273.371C182.451 273.072 182.856 272.903 183.279 272.902H226.264C226.687 272.903 227.092 273.072 227.39 273.371C227.689 273.67 227.858 274.074 227.859 274.497C227.858 274.92 227.689 275.325 227.39 275.623C227.092 275.922 226.687 276.091 226.264 276.092H183.275C182.853 276.09 182.449 275.921 182.151 275.622C181.853 275.323 181.685 274.919 181.684 274.497Z" fill="#9AB3DA"/>
<path d="M331.126 252.819V285.586C331.126 286.509 330.759 287.395 330.106 288.048C329.453 288.701 328.567 289.068 327.644 289.068H309.308C308.384 289.068 307.499 288.701 306.846 288.048C306.193 287.395 305.826 286.509 305.826 285.586V252.819C305.826 251.895 306.193 251.01 306.846 250.357C307.499 249.704 308.384 249.337 309.308 249.337H327.643C328.566 249.337 329.452 249.704 330.105 250.357C330.759 251.01 331.126 251.895 331.126 252.819Z" fill="#5222D0"/>
<path d="M327.536 256.996C327.536 257.532 327.323 258.046 326.944 258.425C326.565 258.804 326.051 259.017 325.515 259.017H311.437C310.901 259.017 310.387 258.804 310.008 258.425C309.629 258.046 309.416 257.532 309.416 256.996C309.416 256.46 309.629 255.946 310.008 255.567C310.387 255.188 310.901 254.975 311.437 254.975H325.515C326.051 254.975 326.565 255.188 326.944 255.567C327.323 255.946 327.536 256.46 327.536 256.996Z" fill="#9AB3DA"/>
<path d="M327.536 264.102C327.536 264.367 327.484 264.63 327.382 264.875C327.28 265.12 327.132 265.343 326.944 265.531C326.756 265.719 326.533 265.867 326.288 265.969C326.043 266.071 325.78 266.123 325.515 266.123H311.437C311.171 266.123 310.909 266.071 310.664 265.969C310.418 265.867 310.196 265.719 310.008 265.531C309.82 265.343 309.671 265.12 309.57 264.875C309.468 264.63 309.416 264.367 309.416 264.102C309.416 263.566 309.629 263.052 310.008 262.673C310.387 262.294 310.901 262.081 311.437 262.081H325.515C326.051 262.081 326.565 262.294 326.944 262.673C327.323 263.052 327.536 263.566 327.536 264.102Z" fill="#9AB3DA"/>
<path d="M318.476 282.531C319.837 282.531 320.941 281.427 320.941 280.066C320.941 278.704 319.837 277.601 318.476 277.601C317.115 277.601 316.011 278.704 316.011 280.066C316.011 281.427 317.115 282.531 318.476 282.531Z" fill="#9AB3DA"/>
<path d="M347.365 3.482V36.247C347.365 37.1705 346.998 38.0561 346.345 38.7091C345.692 39.3621 344.806 39.729 343.883 39.729H325.547C324.623 39.729 323.738 39.3621 323.085 38.7091C322.432 38.0561 322.065 37.1705 322.065 36.247V3.482C322.065 2.55852 322.432 1.67286 323.085 1.01985C323.738 0.366852 324.623 1.43608e-07 325.547 1.43608e-07H343.882C344.339 -0.000131202 344.792 0.0898369 345.215 0.264765C345.637 0.439693 346.021 0.696154 346.345 1.0195C346.668 1.34285 346.925 1.72674 347.1 2.14927C347.275 2.57179 347.365 3.02465 347.365 3.482Z" fill="#5222D0"/>
<path d="M325.256 30.988V3.47901C325.256 3.40157 325.287 3.3273 325.341 3.27254C325.396 3.21778 325.471 3.18701 325.548 3.18701H343.883C343.96 3.18701 344.035 3.21778 344.089 3.27254C344.144 3.3273 344.175 3.40157 344.175 3.47901V30.988C344.175 31.0655 344.144 31.1397 344.089 31.1945C344.035 31.2492 343.96 31.28 343.883 31.28H325.548C325.471 31.28 325.396 31.2492 325.341 31.1945C325.287 31.1397 325.256 31.0655 325.256 30.988Z" fill="white"/>
<path d="M334.715 38.119C336.076 38.119 337.18 37.0153 337.18 35.654C337.18 34.2926 336.076 33.189 334.715 33.189C333.354 33.189 332.25 34.2926 332.25 35.654C332.25 37.0153 333.354 38.119 334.715 38.119Z" fill="white"/>
<path d="M135.444 42.6001H119.904C118.949 42.6001 118.033 42.2208 117.358 41.5456C116.683 40.8705 116.304 39.9548 116.304 39.0001V23.4621C116.304 22.5073 116.683 21.5916 117.358 20.9165C118.033 20.2413 118.949 19.8621 119.904 19.8621H135.444C136.399 19.8621 137.314 20.2413 137.99 20.9165C138.665 21.5916 139.044 22.5073 139.044 23.4621V39.0021C139.043 39.9565 138.664 40.8717 137.989 41.5463C137.314 42.221 136.398 42.6001 135.444 42.6001Z" fill="#5222D0"/>
<path d="M162.827 29.146H147.287C146.332 29.146 145.417 28.7668 144.741 28.0916C144.066 27.4165 143.687 26.5008 143.687 25.546C143.687 24.5913 144.066 23.6756 144.741 23.0005C145.417 22.3253 146.332 21.946 147.287 21.946H162.827C163.3 21.946 163.768 22.0392 164.205 22.2201C164.641 22.401 165.038 22.6662 165.373 23.0005C165.707 23.3348 165.972 23.7316 166.153 24.1684C166.334 24.6052 166.427 25.0733 166.427 25.546C166.427 26.0188 166.334 26.4869 166.153 26.9237C165.972 27.3605 165.707 27.7573 165.373 28.0916C165.038 28.4259 164.641 28.6911 164.205 28.872C163.768 29.0529 163.3 29.146 162.827 29.146Z" fill="#5222D0"/>
<path d="M154.587 40.5149H147.287C146.332 40.5149 145.417 40.1357 144.741 39.4605C144.066 38.7854 143.687 37.8697 143.687 36.9149C143.687 35.9602 144.066 35.0445 144.741 34.3694C145.417 33.6942 146.332 33.3149 147.287 33.3149H154.587C155.06 33.3149 155.528 33.4081 155.965 33.589C156.401 33.7699 156.798 34.0351 157.133 34.3694C157.467 34.7036 157.732 35.1005 157.913 35.5373C158.094 35.9741 158.187 36.4422 158.187 36.9149C158.187 37.3877 158.094 37.8558 157.913 38.2926C157.732 38.7294 157.467 39.1262 157.133 39.4605C156.798 39.7948 156.401 40.06 155.965 40.2409C155.528 40.4218 155.06 40.5149 154.587 40.5149Z" fill="#5222D0"/>
<path d="M337.179 218.605C338.747 218.605 340.019 217.334 340.019 215.765C340.019 214.197 338.747 212.925 337.179 212.925C335.611 212.925 334.339 214.197 334.339 215.765C334.339 217.334 335.611 218.605 337.179 218.605Z" stroke="#9AB3DA" stroke-miterlimit="10" stroke-linecap="round" stroke-linejoin="round"/>
<path d="M203.788 20.972C205.356 20.972 206.628 19.7005 206.628 18.132C206.628 16.5635 205.356 15.292 203.788 15.292C202.22 15.292 200.948 16.5635 200.948 18.132C200.948 19.7005 202.22 20.972 203.788 20.972Z" stroke="#9AB3DA" stroke-miterlimit="10" stroke-linecap="round" stroke-linejoin="round"/>
<path d="M300.015 59.8469C301.139 59.8469 302.051 58.9354 302.051 57.8109C302.051 56.6865 301.139 55.7749 300.015 55.7749C298.891 55.7749 297.979 56.6865 297.979 57.8109C297.979 58.9354 298.891 59.8469 300.015 59.8469Z" fill="#9AB3DA"/>
<path d="M117.494 73.1631H114.033" stroke="#9AB3DA" stroke-miterlimit="10" stroke-linecap="round" stroke-linejoin="round"/>
<path d="M107.859 73.1631H111.321" stroke="#9AB3DA" stroke-miterlimit="10" stroke-linecap="round" stroke-linejoin="round"/>
<path d="M112.677 77.98V74.519" stroke="#9AB3DA" stroke-miterlimit="10" stroke-linecap="round" stroke-linejoin="round"/>
<path d="M112.677 68.345V71.807" stroke="#9AB3DA" stroke-miterlimit="10" stroke-linecap="round" stroke-linejoin="round"/>
<path d="M268.588 24.1838H265.126" stroke="#9AB3DA" stroke-miterlimit="10" stroke-linecap="round" stroke-linejoin="round"/>
<path d="M258.953 24.1838H262.415" stroke="#9AB3DA" stroke-miterlimit="10" stroke-linecap="round" stroke-linejoin="round"/>
<path d="M263.771 29.002V25.54" stroke="#9AB3DA" stroke-miterlimit="10" stroke-linecap="round" stroke-linejoin="round"/>
<path d="M263.771 19.3669V22.8289" stroke="#9AB3DA" stroke-miterlimit="10" stroke-linecap="round" stroke-linejoin="round"/>
<path d="M368 179.384H363.973" stroke="#9AB3DA" stroke-miterlimit="10" stroke-linecap="round" stroke-linejoin="round"/>
<path d="M356.792 179.384H360.819" stroke="#9AB3DA" stroke-miterlimit="10" stroke-linecap="round" stroke-linejoin="round"/>
<path d="M362.396 184.988V180.961" stroke="#9AB3DA" stroke-miterlimit="10" stroke-linecap="round" stroke-linejoin="round"/>
<path d="M362.396 173.78V177.807" stroke="#9AB3DA" stroke-miterlimit="10" stroke-linecap="round" stroke-linejoin="round"/>
</svg>
