<svg width="24" height="13" viewBox="0 0 24 13" fill="none" xmlns="http://www.w3.org/2000/svg">
<path d="M16.0231 5.87793L22.6358 12.4779H1.66418C1.73892 12.3939 1.7905 12.3299 1.84945 12.2709C3.93506 10.1896 6.01997 8.1076 8.10418 6.02493C8.12378 5.99473 8.15043 5.96921 8.18208 5.95037C8.21372 5.93153 8.24951 5.91987 8.28667 5.91629C8.32383 5.91272 8.36135 5.91732 8.39634 5.92974C8.43132 5.94216 8.46282 5.96207 8.48839 5.98793C9.64629 6.75093 10.8094 7.49993 11.9621 8.26393C12.0187 8.31134 12.092 8.33683 12.1674 8.33535C12.2428 8.33387 12.315 8.30552 12.3694 8.25593C13.5273 7.48993 14.7021 6.73293 15.8694 5.97193C15.9231 5.93493 15.98 5.90493 16.0231 5.87793Z" fill="black" stroke="white" stroke-width="0.058"/>
<path d="M0.873657 0.0336914H23.4726C22.9789 0.358691 22.5252 0.659692 22.0684 0.956692L16.521 4.57069C15.1175 5.48403 13.714 6.39869 12.3105 7.31469C12.2655 7.35014 12.2082 7.36835 12.1498 7.36576C12.0913 7.36318 12.0361 7.33997 11.9947 7.30069C10.6824 6.43936 9.36804 5.58102 8.05155 4.72569L1.08839 0.186691C1.02418 0.144691 0.964184 0.0966914 0.873657 0.0336914Z" fill="black" stroke="white" stroke-width="0.058"/>
<path d="M0.723145 0.929688L7.65367 5.44569L0.723145 12.3607V0.929688Z" fill="black" stroke="white" stroke-width="0.058"/>
<path d="M16.7126 5.4215L23.5948 0.9375V12.2875L16.7126 5.4215Z" fill="black" stroke="white" stroke-width="0.058"/>
</svg>
