<svg width="895" height="701" viewBox="0 0 895 701" fill="none" xmlns="http://www.w3.org/2000/svg">
<path d="M379.5 700.5C461.238 700.5 527.5 634.238 527.5 552.5C527.5 470.762 461.238 404.5 379.5 404.5C297.762 404.5 231.5 470.762 231.5 552.5C231.5 634.238 297.762 700.5 379.5 700.5Z" stroke="#FF3029"/>
<path d="M572 645.5C750.112 645.5 894.5 501.112 894.5 323C894.5 144.888 750.112 0.5 572 0.5C393.888 0.5 249.5 144.888 249.5 323C249.5 501.112 393.888 645.5 572 645.5Z" stroke="#FF3029"/>
<path d="M25.648 209.212C36.574 200.312 51.368 199.022 64.872 201.478C79.297 204.056 92.433 210.992 105.754 216.824C119.504 222.901 133.499 227.259 148.6 227.996C163.639 228.796 178.678 226.646 193.287 222.963C223.795 215.29 251.787 200.558 281.066 189.448C295.737 183.862 310.898 179.013 326.49 176.803C334.942 175.525 343.522 175.319 352.026 176.189C360.105 177.214 368.104 178.793 375.966 180.916C393.46 185.274 410.893 189.08 428.817 191.228C447.31 193.417 465.942 194.196 484.553 193.561C485.719 193.5 485.719 191.661 484.553 191.719C450.79 192.913 417.027 189.359 384.253 181.161C368.6 177.232 353.07 173.181 336.803 173.979C321.027 174.779 305.436 178.951 290.581 184.046C260.81 194.297 232.819 209.336 202.618 218.482C187.272 223.082 171.374 226.282 155.291 226.339C138.963 226.4 123.617 222.595 108.701 216.088C93.969 209.704 79.544 201.788 63.523 199.33C49.896 197.243 35.348 198.9 24.36 207.862C23.439 208.662 24.728 210.01 25.649 209.212H25.648Z" fill="#E8E8E8"/>
<path d="M356.261 153.108C398.8 171.462 447.109 168.393 490.63 155.072C514.201 147.829 537.65 138.13 562.756 138.191C588.046 138.252 612.047 147.091 636.785 151.02C659.251 154.58 683.985 154.151 703.263 140.646C704.245 139.971 703.324 138.375 702.342 139.046C684.542 151.507 661.952 152.612 641.081 149.788C617.448 146.596 594.736 138.371 570.858 136.652C546.98 134.933 524.452 142.115 502.047 149.481C479.703 156.781 457.114 162.494 433.604 163.845C407.577 165.38 381.244 161.881 357.243 151.507C356.143 151.016 355.217 152.607 356.261 153.107V153.108Z" fill="#E8E8E8"/>
<path d="M2.19899 306.134C15.7126 296.548 31.4995 290.665 47.991 289.069C56.2001 288.269 64.4796 288.579 72.606 289.99C81.016 291.463 89.118 294.29 97.159 297.11C112.075 302.266 126.869 306.195 142.583 302.573C156.149 299.442 168.425 292.383 180.457 285.692C194.637 277.774 209.369 269.671 225.819 268.198C226.985 268.075 226.985 266.234 225.819 266.357C196.478 268.996 174.441 291.033 147.064 299.443C140.151 301.664 132.894 302.62 125.641 302.267C116.741 301.715 108.085 298.952 99.741 296.067C91.331 293.182 82.922 290.051 74.083 288.394C66.4745 286.996 58.7226 286.542 51.003 287.044C33.1176 288.15 15.8968 294.231 1.28199 304.6C0.299988 305.214 1.22099 306.81 2.20299 306.135L2.19899 306.134Z" fill="#E8E8E8"/>
<path d="M164.927 329.708C188.805 304.479 223.917 294.167 257.862 293.86C277.562 293.676 297.209 296.5 316.422 300.612C334.714 304.479 352.454 309.512 371.36 306.996C391.126 304.356 409.602 295.886 427.281 286.985C428.325 286.433 427.404 284.837 426.36 285.385C409.541 293.86 392.047 301.9 373.32 304.848C363.773 306.291 354.059 306.229 344.531 304.664C334.831 303.129 325.379 300.551 315.742 298.526C280.631 291.16 243.248 288.026 208.75 299.999C191.75 305.892 176.033 315.284 163.633 328.358C162.833 329.279 164.124 330.568 164.922 329.708H164.927Z" fill="#E8E8E8"/>
<path d="M449.44 348.062C459.446 351.562 469.697 348.308 478.84 343.949C489.091 339.038 498.728 332.961 509.225 328.603C519.722 324.245 531.016 321.303 542.434 322.71C552.869 323.999 562.507 328.664 571.653 333.636C580.308 338.363 588.84 343.519 598.048 347.136C608.336 351.118 619.307 353.036 630.336 352.783C652.864 352.292 672.015 341.059 692.579 333.447C711.792 326.326 737.389 323.135 752.796 339.831C753.596 340.69 754.883 339.401 754.085 338.542C741.992 325.467 722.718 323.994 706.144 327.493C684.537 332.035 665.876 345.233 644.144 349.468C632.477 351.721 620.463 351.449 608.91 348.668C598.229 346.09 588.653 341.056 579.078 335.716C570.423 330.867 561.645 325.833 552.131 322.948C542.305 320.016 531.868 319.803 521.931 322.334C509.716 325.342 498.482 331.296 487.495 337.312C476.139 343.45 463.003 350.939 449.805 346.335C448.823 345.905 448.332 347.685 449.437 348.054L449.44 348.062Z" fill="#E8E8E8"/>
<path d="M611.064 377.65C636.477 379.185 657.409 361.936 681.41 356.718C687.838 355.155 694.507 354.843 701.053 355.797C706.798 356.888 712.279 359.076 717.196 362.241C725.851 367.52 734.261 374.334 744.819 375.07C757.648 375.929 769.004 367.95 778.58 360.461C779.501 359.724 778.212 358.435 777.291 359.172C767.961 366.415 756.791 374.334 744.267 373.172C733.402 372.19 724.808 364.333 715.667 359.238C694.612 347.452 672.085 356.721 651.889 365.622C638.937 371.269 625.494 376.732 611.13 375.873C609.902 375.75 609.902 377.592 611.069 377.653L611.064 377.65Z" fill="#E8E8E8"/>
<path d="M31.664 495.014C36.1315 490.826 41.5924 487.844 47.5315 486.352C53.4706 484.859 59.6921 484.904 65.609 486.482C78.009 489.858 85.988 500.539 95.933 507.905C115.76 522.576 142.769 520.243 164.56 511.588C190.28 501.398 211.703 482.988 237.36 472.609C249.882 467.514 263.448 464.261 277.075 465.182C290.334 466.103 301.628 471.811 312.125 479.546C322.56 487.219 332.382 496.304 344.597 501.153C351.068 503.677 358.018 504.738 364.948 504.26C371.878 503.783 378.616 501.779 384.68 498.391C385.724 497.839 384.803 496.243 383.759 496.791C377.593 500.202 370.72 502.137 363.681 502.446C356.641 502.755 349.625 501.429 343.184 498.571C332.258 493.722 323.296 485.619 313.784 478.499C304.024 471.199 293.65 465.486 281.373 463.767C268.728 462.048 255.837 464.197 243.868 468.187C217.657 476.965 196.05 495.073 171.19 506.675C148.233 517.417 118.707 522.451 96.916 506.307C86.051 498.266 77.516 486.787 63.523 484.086C57.6291 482.958 51.5515 483.243 45.7892 484.918C40.0268 486.594 34.7439 489.612 30.374 493.725C29.515 494.525 30.804 495.873 31.663 495.014H31.664Z" fill="#E8E8E8"/>
<path d="M267.5 529.267C277.642 522.661 289.686 519.596 301.752 520.55C312.801 521.471 323.236 525.583 333.365 529.696C343.186 533.686 353.131 537.86 363.689 539.579C374.738 541.359 385.91 540.009 396.529 536.755C409.235 532.826 421.021 526.565 432.623 520.243C433.667 519.691 432.746 518.095 431.702 518.643C410.463 530.122 387.138 542.214 362.216 537.426C341.407 533.436 323.116 520.545 301.692 518.704C289.298 517.706 276.924 520.859 266.519 527.666C265.598 528.341 266.519 529.937 267.501 529.266L267.5 529.267Z" fill="#E8E8E8"/>
<path d="M499.223 570.885C512.658 558.344 529.011 549.355 546.8 544.736C555.82 542.398 565.105 541.242 574.423 541.299C584.797 541.422 595.109 543.079 605.423 544.061C625.434 545.961 644.647 542.588 663.369 535.283C681.232 528.347 698.051 516.315 717.264 513.369C739.73 509.932 757.102 524.848 771.404 540.132C772.204 540.991 773.491 539.702 772.693 538.843C760.907 526.259 747.035 513.243 729.111 511.22C709.468 509.01 691.606 520.55 674.541 528.469C654.898 537.615 633.721 543.876 611.93 542.649C601.065 542.035 590.323 540.071 579.397 539.518C570.118 539.014 560.812 539.715 551.713 541.605C531.561 545.757 512.951 555.402 497.941 569.473C497.082 570.394 498.371 571.683 499.23 570.885H499.223Z" fill="#E8E8E8"/>
<path d="M139.822 183.002C157.009 196.322 179.414 190.429 198.136 184.291C221.336 176.618 244.849 171.769 269.402 171.278C269.639 171.267 269.862 171.165 270.026 170.994C270.19 170.822 270.281 170.594 270.281 170.357C270.281 170.12 270.19 169.892 270.026 169.721C269.862 169.549 269.639 169.447 269.402 169.436C246.846 169.897 224.484 173.704 203.046 180.731C183.587 187.053 159.402 195.954 141.11 181.713C140.189 180.976 138.9 182.265 139.821 183.002H139.822Z" fill="#161616"/>
<path d="M305.312 71.4071C326.06 69.8721 346.071 64.1071 366.143 59.2531C387.013 54.1581 407.943 50.7821 429.491 53.1151C451.221 55.4481 472.275 62.0151 493.576 66.6811C513.998 71.3268 534.953 73.2056 555.876 72.2671C579.505 71.0861 602.796 66.1548 624.876 57.6581C625.976 57.2281 625.49 55.4481 624.385 55.8781C584.26 71.1859 540.58 74.6376 498.549 65.8221C477.617 61.4641 457.115 55.0801 435.938 52.0111C415.497 49.0651 395.548 50.7221 375.414 55.1421C352.088 60.2371 329.192 67.7261 305.314 69.5061C304.148 69.6901 304.148 71.5321 305.314 71.4061L305.312 71.4071Z" fill="#161616"/>
<path d="M637.521 225.233C655.445 218.604 674.044 228.057 691.968 229.775C701.558 230.608 711.22 229.862 720.568 227.565C729.776 225.355 738.738 222.102 748.129 220.69C758.196 219.155 768.938 219.769 777.655 225.478C778.637 226.153 779.555 224.557 778.576 223.878C763.107 213.811 744.201 219.213 727.876 223.755C717.625 226.64 707.376 228.727 696.693 228.297C686.503 227.929 676.743 225.105 666.799 223.018C656.916 220.992 646.727 219.887 637.089 223.448C635.923 223.816 636.414 225.596 637.519 225.228L637.521 225.233Z" fill="#161616"/>
<path d="M11.837 411.472C27.428 397.599 49.4041 409.872 66.7141 412.516C86.725 415.585 106.736 410.061 125.826 404.716C126.053 404.643 126.244 404.486 126.357 404.276C126.471 404.066 126.499 403.82 126.435 403.59C126.372 403.36 126.222 403.164 126.017 403.042C125.812 402.92 125.567 402.882 125.335 402.936C104.219 408.829 82.366 414.66 60.453 409.443C44.432 405.637 24.853 397.535 10.487 410.18C9.62804 410.917 10.917 412.206 11.837 411.469V411.472Z" fill="#161616"/>
<path d="M208.141 583.838C210.597 580.9 213.746 578.621 217.304 577.206C220.863 575.792 224.717 575.287 228.52 575.738C232.94 576.29 236.991 578.316 241.042 580.096C244.39 581.559 247.836 582.79 251.354 583.779C266.445 587.924 282.442 587.366 297.208 582.179C298.308 581.811 297.822 580.031 296.717 580.399C280.18 586.183 262.145 586.031 245.707 579.969C238.587 577.329 231.957 573.094 224.039 573.708C220.727 573.96 217.497 574.866 214.537 576.372C211.576 577.879 208.943 579.957 206.79 582.486C206.053 583.468 207.404 584.757 208.14 583.836L208.141 583.838Z" fill="#161616"/>
<path d="M312.616 578.804C323.762 575.557 335.32 573.944 346.929 574.016C347.164 574.003 347.385 573.9 347.547 573.729C347.708 573.558 347.798 573.331 347.798 573.096C347.798 572.86 347.708 572.634 347.547 572.463C347.385 572.291 347.164 572.189 346.929 572.175C335.157 572.128 323.439 573.761 312.129 577.024C311.029 577.392 311.454 579.172 312.62 578.804H312.616Z" fill="#161616"/>
<path d="M327.226 101.668C338.097 110.04 348.506 118.995 358.409 128.493C359.268 129.293 360.557 128.002 359.698 127.204C349.67 117.626 339.138 108.59 328.147 100.134C327.226 99.3341 326.306 100.934 327.226 101.669V101.668Z" fill="#161616"/>
<path d="M220.787 134.018C221.831 128.248 222.935 122.478 223.979 116.646C224.225 115.48 222.444 114.989 222.199 116.155C221.155 121.925 220.051 127.695 219.007 133.527C218.823 134.693 220.607 135.184 220.787 134.018V134.018Z" fill="#161616"/>
<path d="M574.724 170.602C576.69 170.602 578.284 169.008 578.284 167.042C578.284 165.076 576.69 163.482 574.724 163.482C572.758 163.482 571.164 165.076 571.164 167.042C571.164 169.008 572.758 170.602 574.724 170.602Z" fill="#EC615B"/>
<path d="M109.559 464.629C111.898 464.629 113.794 462.733 113.794 460.394C113.794 458.055 111.898 456.159 109.559 456.159C107.22 456.159 105.324 458.055 105.324 460.394C105.324 462.733 107.22 464.629 109.559 464.629Z" fill="#EC615B"/>
<path d="M89.058 80.9211C94.4146 80.9211 98.757 76.5787 98.757 71.2221C98.757 65.8655 94.4146 61.5231 89.058 61.5231C83.7014 61.5231 79.359 65.8655 79.359 71.2221C79.359 76.5787 83.7014 80.9211 89.058 80.9211Z" fill="#EC615B"/>
<path d="M108.516 90.3121C110.313 90.3121 111.769 88.8557 111.769 87.0591C111.769 85.2625 110.313 83.8061 108.516 83.8061C106.719 83.8061 105.263 85.2625 105.263 87.0591C105.263 88.8557 106.719 90.3121 108.516 90.3121Z" fill="#EC615B"/>
<path d="M294.385 636.319C298.385 636.319 301.628 633.076 301.628 629.076C301.628 625.076 298.385 621.833 294.385 621.833C290.385 621.833 287.142 625.076 287.142 629.076C287.142 633.076 290.385 636.319 294.385 636.319Z" fill="#EC615B"/>
<path d="M631.014 93.5661C634.54 93.5661 637.398 90.7079 637.398 87.1821C637.398 83.6563 634.54 80.7981 631.014 80.7981C627.488 80.7981 624.63 83.6563 624.63 87.1821C624.63 90.7079 627.488 93.5661 631.014 93.5661Z" fill="#EC615B"/>
<path d="M639.178 79.5101C641.348 79.5101 643.107 77.751 643.107 75.5811C643.107 73.4112 641.348 71.6521 639.178 71.6521C637.008 71.6521 635.249 73.4112 635.249 75.5811C635.249 77.751 637.008 79.5101 639.178 79.5101Z" fill="#EC615B"/>
<path d="M98.818 70.7321C104.175 70.7321 108.517 66.3897 108.517 61.0331C108.517 55.6765 104.175 51.3341 98.818 51.3341C93.4614 51.3341 89.119 55.6765 89.119 61.0331C89.119 66.3897 93.4614 70.7321 98.818 70.7321Z" fill="#5222D0"/>
<path d="M93.968 470.338C96.646 470.338 98.817 468.167 98.817 465.489C98.817 462.811 96.646 460.64 93.968 460.64C91.29 460.64 89.119 462.811 89.119 465.489C89.119 468.167 91.29 470.338 93.968 470.338Z" fill="#5222D0"/>
<path d="M264.43 622.263C266.803 622.263 268.727 620.339 268.727 617.966C268.727 615.593 266.803 613.669 264.43 613.669C262.057 613.669 260.133 615.593 260.133 617.966C260.133 620.339 262.057 622.263 264.43 622.263Z" fill="#5222D0"/>
<path d="M607.442 71.6521C613.07 71.6521 617.632 67.0899 617.632 61.4621C617.632 55.8343 613.07 51.2721 607.442 51.2721C601.814 51.2721 597.252 55.8343 597.252 61.4621C597.252 67.0899 601.814 71.6521 607.442 71.6521Z" fill="#5222D0"/>
<path d="M439.681 225.971C440.901 225.971 441.891 224.982 441.891 223.761C441.891 222.541 440.901 221.551 439.681 221.551C438.46 221.551 437.471 222.541 437.471 223.761C437.471 224.982 438.46 225.971 439.681 225.971Z" fill="#5222D0"/>
<path d="M417.031 94.4251C415.742 97.4331 414.514 100.502 413.225 103.51C412.795 104.61 414.575 105.11 415.005 104.001C416.294 100.993 417.522 97.9241 418.811 94.9161C419.241 93.8161 417.461 93.3161 417.031 94.4251V94.4251Z" fill="#5222D0"/>
<path d="M416.723 95.8981C418.99 98.2435 420.765 101.019 421.941 104.062C422.371 105.162 424.151 104.676 423.721 103.571C422.395 100.253 420.458 97.2136 418.012 94.6091C417.212 93.7501 415.864 95.0391 416.723 95.8981Z" fill="#5222D0"/>
<path d="M413.715 105.106C415.48 108.398 417.513 111.539 419.792 114.498C420.529 115.419 422.125 114.498 421.392 113.577C419.14 110.599 417.109 107.46 415.315 104.185C415.255 104.08 415.174 103.988 415.078 103.914C414.982 103.84 414.872 103.786 414.755 103.754C414.519 103.691 414.267 103.723 414.055 103.846C413.842 103.968 413.687 104.169 413.624 104.406C413.56 104.642 413.593 104.894 413.715 105.106Z" fill="#5222D0"/>
<path d="M422.063 104.185C421.326 107.623 420.651 111.06 419.915 114.497C419.669 115.663 421.45 116.154 421.695 114.988C422.432 111.551 423.107 108.113 423.843 104.676C424.089 103.576 422.308 103.076 422.063 104.185Z" fill="#5222D0"/>
<path d="M589.947 357.208C588.468 359.894 587.491 362.827 587.062 365.863C586.878 367.029 588.662 367.52 588.842 366.354C589.246 363.493 590.161 360.728 591.542 358.19C592.094 357.09 590.498 356.164 589.942 357.208H589.947Z" fill="#5222D0"/>
<path d="M589.825 357.764C591.036 360.981 592.451 364.118 594.06 367.156C594.612 368.2 596.208 367.279 595.66 366.235C594.124 363.335 592.771 360.342 591.609 357.273C591.179 356.173 589.399 356.659 589.829 357.764H589.825Z" fill="#5222D0"/>
<path d="M586.694 367.152C588.294 369.423 589.824 371.694 591.42 373.966C592.095 374.948 593.691 374.027 593.02 373.045C591.42 370.774 589.889 368.503 588.293 366.231C587.618 365.249 586.022 366.17 586.693 367.152H586.694Z" fill="#5222D0"/>
<path d="M593.385 366.846C592.13 368.576 591.464 370.663 591.485 372.8C591.496 373.037 591.598 373.26 591.769 373.424C591.941 373.588 592.169 373.679 592.406 373.679C592.643 373.679 592.871 373.588 593.043 373.424C593.214 373.26 593.316 373.037 593.327 372.8C593.311 370.986 593.894 369.217 594.984 367.767C595.659 366.785 594.063 365.867 593.384 366.846H593.385Z" fill="#5222D0"/>
<path d="M76.473 530.985C74.816 534.607 73.158 538.167 71.501 541.785C71.01 542.828 72.601 543.811 73.101 542.706C74.758 539.084 76.416 535.524 78.073 531.906C78.564 530.862 77.029 529.942 76.473 530.985Z" fill="#5222D0"/>
<path d="M76.78 531.477L81.568 542.894C81.998 543.994 83.778 543.508 83.348 542.403L78.56 530.984C78.13 529.884 76.35 530.37 76.78 531.475V531.477Z" fill="#5222D0"/>
<path d="M71.071 543.446C72.728 546.699 74.324 550.014 75.982 553.267C76.0583 553.386 76.16 553.488 76.2799 553.563C76.3997 553.639 76.5347 553.687 76.6753 553.705C76.8159 553.722 76.9587 553.709 77.0934 553.665C77.2282 553.621 77.3516 553.548 77.455 553.451C78.744 552.407 79.355 550.627 80.033 549.215L82.979 543.322C83.531 542.278 81.935 541.358 81.379 542.401C80.52 544.12 79.599 545.838 78.739 547.557C78.002 549.03 77.327 551.057 76.039 552.099L77.512 552.283C75.855 549.03 74.259 545.715 72.601 542.462C72.11 541.48 70.514 542.401 71.066 543.444L71.071 543.446Z" fill="#5222D0"/>
<path d="M694.3 245.674C692.426 249.257 691.2 253.143 690.678 257.153C690.494 258.319 692.335 258.319 692.52 257.153C692.996 253.466 694.118 249.892 695.835 246.595C696.449 245.551 694.853 244.631 694.3 245.674V245.674Z" fill="#5222D0"/>
<path d="M694.053 247.823C695.953 251.506 697.797 255.189 699.7 258.872C700.252 259.916 701.848 258.995 701.3 257.951C699.4 254.268 697.556 250.585 695.653 246.902C695.101 245.858 693.505 246.779 694.053 247.823Z" fill="#5222D0"/>
<path d="M690.801 257.399C692.307 261.037 694.178 264.513 696.387 267.773C697.062 268.755 698.658 267.834 697.987 266.852C695.831 263.744 694.02 260.409 692.587 256.908C692.157 255.864 690.377 256.356 690.807 257.399H690.801Z" fill="#5222D0"/>
<path d="M699.148 258.193C698.017 261.645 697.135 265.173 696.509 268.751C696.325 269.917 698.109 270.408 698.289 269.242C698.901 265.661 699.783 262.132 700.929 258.684C701.297 257.584 699.517 257.084 699.149 258.193H699.148Z" fill="#5222D0"/>
<path d="M687.178 543.692C686.441 546.147 685.766 548.541 685.03 550.992C684.976 551.224 685.014 551.469 685.136 551.674C685.258 551.879 685.454 552.029 685.684 552.092C685.914 552.156 686.16 552.128 686.37 552.014C686.579 551.901 686.737 551.71 686.81 551.483C687.547 549.028 688.222 546.634 688.958 544.183C688.99 544.066 688.999 543.944 688.984 543.824C688.969 543.703 688.931 543.587 688.871 543.482C688.811 543.376 688.731 543.284 688.635 543.209C688.54 543.135 688.43 543.08 688.313 543.048C688.197 543.015 688.074 543.006 687.954 543.021C687.834 543.036 687.718 543.075 687.612 543.135C687.507 543.195 687.414 543.275 687.34 543.37C687.265 543.466 687.21 543.575 687.178 543.692V543.692Z" fill="#5222D0"/>
<path d="M687.056 545.042C688.156 547.497 689.327 549.953 690.432 552.342C690.923 553.442 692.519 552.465 692.032 551.421C690.932 548.966 689.761 546.51 688.656 544.121C688.165 543.021 686.569 543.937 687.056 545.042Z" fill="#5222D0"/>
<path d="M685.522 552.162C686.092 555.011 687.405 557.658 689.328 559.835C690.128 560.756 691.415 559.405 690.617 558.546C688.926 556.609 687.782 554.258 687.302 551.732C687.057 550.504 685.276 550.995 685.522 552.162Z" fill="#5222D0"/>
<path d="M690.372 551.917C689.582 554.459 689.211 557.113 689.272 559.774C689.333 560.94 691.172 560.94 691.114 559.774C691.03 557.277 691.383 554.784 692.158 552.408C692.526 551.308 690.746 550.808 690.378 551.917H690.372Z" fill="#5222D0"/>
<path d="M53.3321 219.832C51.9821 222.778 50.6931 225.725 49.3421 228.671C48.8511 229.715 50.4421 230.697 50.9421 229.592C52.2921 226.646 53.5811 223.699 54.9321 220.753C55.4231 219.709 53.8321 218.727 53.3321 219.832V219.832Z" fill="#5222D0"/>
<path d="M49.587 230.205C50.999 233.827 52.349 237.387 53.761 241.005C54.191 242.105 55.971 241.619 55.541 240.514C54.129 236.892 52.779 233.332 51.367 229.714C50.937 228.614 49.157 229.1 49.587 230.205Z" fill="#5222D0"/>
<path d="M53.333 219.954C55.233 223.269 57.139 226.645 59.042 229.96C59.1025 230.065 59.1831 230.157 59.2792 230.231C59.3752 230.305 59.4849 230.359 59.602 230.391C59.719 230.422 59.8411 230.431 59.9613 230.415C60.0815 230.399 60.1975 230.36 60.3025 230.3C60.4076 230.239 60.4997 230.159 60.5736 230.062C60.6475 229.966 60.7018 229.857 60.7333 229.74C60.7649 229.623 60.773 229.501 60.7574 229.38C60.7417 229.26 60.7025 229.144 60.642 229.039C58.742 225.724 56.836 222.348 54.933 219.033C54.8726 218.928 54.792 218.836 54.6959 218.762C54.5998 218.688 54.4901 218.634 54.3731 218.602C54.256 218.571 54.1339 218.563 54.0137 218.578C53.8935 218.594 53.7776 218.633 53.6725 218.694C53.5675 218.754 53.4754 218.835 53.4014 218.931C53.3275 219.027 53.2733 219.136 53.2417 219.254C53.2102 219.371 53.202 219.493 53.2177 219.613C53.2334 219.733 53.2726 219.849 53.333 219.954V219.954Z" fill="#5222D0"/>
<path d="M59.471 229.162C57.5158 232.836 55.7938 236.628 54.315 240.518C53.885 241.618 55.665 242.118 56.095 241.009C57.5007 237.258 59.1619 233.607 61.067 230.083C61.619 229.039 60.023 228.119 59.467 229.162H59.471Z" fill="#5222D0"/>
<path d="M516.042 276.428C516.612 275.261 517.505 274.282 518.615 273.608C519.725 272.933 521.005 272.591 522.303 272.622C524.513 272.683 526.17 274.222 528.134 274.955C531.572 276.183 532.615 273.973 535.193 272.316C538.693 269.983 542.068 275.201 545.812 275.14C547.96 275.079 549.741 274.04 549.802 271.764C549.311 272.01 548.881 272.316 548.39 272.564C550.29 273.546 552.196 274.528 554.037 275.572C555.08 276.124 556.001 274.528 554.958 273.972C553.058 272.99 551.152 272.008 549.311 270.964C549.168 270.889 549.008 270.851 548.847 270.853C548.685 270.855 548.527 270.899 548.386 270.978C548.246 271.058 548.127 271.172 548.042 271.309C547.957 271.446 547.908 271.603 547.899 271.764C547.715 276.122 539.244 269.923 537.648 269.738C534.026 269.247 532.615 273.728 529.484 273.238C526.169 272.686 524.084 270.292 520.522 270.905C519.209 271.134 517.968 271.669 516.901 272.469C515.835 273.268 514.972 274.309 514.384 275.505C513.954 276.549 515.484 277.469 516.041 276.426L516.042 276.428Z" fill="#5222D0"/>
<path d="M539.552 263.966C542.314 260.897 546.673 264.766 549.803 265.132C553.425 265.562 556.248 261.695 559.747 263.659C562.632 265.316 567.911 269.245 569.998 264.211C570.428 263.111 568.648 262.611 568.218 263.72C566.745 267.28 561.466 262.308 559.686 261.572C557.292 260.528 555.696 261.388 553.548 262.431C550.97 263.659 549.128 263.231 546.673 262.124C545.583 261.602 544.427 261.232 543.236 261.024C542.34 260.846 541.413 260.899 540.543 261.179C539.672 261.459 538.888 261.957 538.264 262.624C537.464 263.545 538.755 264.834 539.553 263.974L539.552 263.966Z" fill="#5222D0"/>
<path d="M489.708 119.163C490.567 117.567 491.549 117.137 492.654 117.874C493.168 118.07 493.662 118.317 494.127 118.611C494.679 118.857 495.227 119.225 495.784 119.411C496.73 119.746 497.75 119.81 498.73 119.595C501.369 118.858 502.72 115.544 505.544 115.605C508.183 115.666 510.086 118.183 512.844 116.894C514.01 116.342 514.808 115.359 515.913 114.746C517.114 114.122 518.474 113.871 519.819 114.024C521.164 114.177 522.433 114.727 523.463 115.605C524.384 116.342 525.673 115.053 524.752 114.316C523.434 113.157 521.796 112.425 520.053 112.216C518.311 112.008 516.546 112.334 514.992 113.15C513.58 113.95 512.414 115.667 510.572 115.421C509.545 115.129 508.556 114.716 507.626 114.193C506.954 113.88 506.224 113.712 505.483 113.702C504.741 113.691 504.006 113.838 503.326 114.132C501.484 114.991 500.257 117.385 498.231 117.815C495.653 118.367 493.931 115.728 491.54 115.667C489.269 115.606 486.629 117.815 488.164 120.087C488.778 121.069 490.374 120.148 489.699 119.166L489.708 119.163Z" fill="#EC615B"/>
<path d="M510.088 108.298C510.825 104.308 517.761 108.175 520.216 107.746C521.816 107.5 522.978 106.396 524.451 105.846C525.553 105.417 526.742 105.26 527.917 105.388C529.093 105.517 530.22 105.926 531.203 106.583C531.415 106.705 531.667 106.738 531.904 106.674C532.14 106.611 532.341 106.456 532.463 106.244C532.586 106.031 532.618 105.779 532.555 105.543C532.491 105.307 532.336 105.105 532.124 104.983C530.37 103.869 528.303 103.353 526.231 103.51C525.346 103.584 524.476 103.791 523.653 104.124C521.198 105.168 520.216 106.334 517.146 105.597C514.2 104.86 509.166 103.387 508.368 107.807C508.061 108.973 509.841 109.464 510.087 108.298H510.088Z" fill="#EC615B"/>
<path d="M45.353 330.139C46.153 326.272 51.491 331.551 52.535 332.226C53.0715 332.661 53.6931 332.979 54.3599 333.158C55.0266 333.338 55.7236 333.376 56.406 333.27C58.248 332.963 59.659 331.429 61.562 330.999C63.0527 330.675 64.6013 330.736 66.0619 331.177C67.5224 331.617 68.8467 332.422 69.91 333.516C70.769 334.375 72.058 333.025 71.199 332.227C69.3688 330.322 66.8977 329.163 64.263 328.974C62.9134 328.86 61.5548 329.027 60.273 329.465C58.247 330.14 56.651 332.105 54.196 331.122C51.618 330.078 50.636 327.439 47.689 327.132C45.789 326.948 44.006 327.684 43.638 329.649C43.331 330.815 45.111 331.306 45.357 330.14L45.353 330.139Z" fill="#EC615B"/>
<path d="M65.79 325.718C67.14 323.877 73.34 327.56 75.12 327.989C78.0045 328.613 80.9771 328.717 83.898 328.296C85.064 328.112 84.573 326.332 83.407 326.516C78.312 327.191 74.384 325.841 69.78 323.999C67.693 323.199 65.606 322.899 64.194 324.799C63.519 325.72 65.115 326.641 65.794 325.72L65.79 325.718Z" fill="#EC615B"/>
<path d="M215.446 454.379C215.902 453.613 216.549 452.979 217.324 452.537C218.099 452.096 218.975 451.864 219.866 451.862C221.466 451.862 222.444 452.844 223.856 453.274C224.491 453.496 225.172 453.556 225.837 453.449C226.501 453.342 227.129 453.071 227.662 452.66C230.056 451.06 231.222 449.1 234.476 449.223C237.422 449.284 240.246 450.696 242.824 451.985C243.868 452.537 244.788 450.941 243.745 450.385C238.896 447.93 233.003 445.597 228.338 449.585C227.616 450.374 226.634 450.876 225.571 450.999C223.791 451.367 223.971 451.122 222.625 450.569C221.07 449.88 219.317 449.788 217.698 450.308C216.079 450.829 214.709 451.927 213.847 453.393C213.717 453.605 213.676 453.86 213.734 454.103C213.792 454.345 213.944 454.554 214.156 454.684C214.368 454.814 214.623 454.855 214.866 454.797C215.108 454.739 215.317 454.587 215.447 454.375L215.446 454.379Z" fill="#EC615B"/>
<path d="M235.891 457.939C238.776 455.422 244.239 460.701 247.799 460.21C249.947 459.903 250.93 458.31 252.341 456.834C253.594 455.454 255.304 454.576 257.156 454.361C259.007 454.147 260.873 454.611 262.408 455.668C263.39 456.282 264.308 454.747 263.329 454.068C262.167 453.299 260.851 452.791 259.474 452.579C258.096 452.367 256.689 452.456 255.349 452.84C254.141 453.188 253.014 453.772 252.034 454.559C250.561 455.787 249.64 457.997 247.553 458.365C243.072 459.165 238.837 452.902 234.601 456.646C233.742 457.446 235.031 458.733 235.89 457.935L235.891 457.939Z" fill="#EC615B"/>
<path d="M152.159 64.2241C152.358 63.2411 152.792 62.3207 153.422 61.5407C154.052 60.7607 154.862 60.1441 155.781 59.7431C157.5 59.0061 158.912 59.4971 160.692 59.4361C161.601 59.3701 162.484 59.1049 163.279 58.6594C164.074 58.2139 164.761 57.5989 165.292 56.8581C167.072 54.6481 168.238 52.3771 170.755 50.9041C172.166 50.0959 173.73 49.5911 175.347 49.422C176.965 49.2529 178.599 49.4232 180.147 49.9221C181.313 50.2901 181.747 48.5101 180.638 48.1421C177.841 47.2941 174.846 47.3673 172.094 48.3509C169.342 49.3345 166.979 51.1764 165.353 53.6051C163.941 55.5691 162.898 57.5341 160.197 57.5951C158.54 57.6561 157.128 57.2881 155.532 57.8411C154.238 58.2962 153.083 59.0778 152.18 60.1103C151.276 61.1427 150.655 62.391 150.376 63.7341C150.322 63.9665 150.36 64.2107 150.482 64.4158C150.604 64.6208 150.8 64.7707 151.03 64.8342C151.26 64.8976 151.506 64.8696 151.716 64.7561C151.925 64.6426 152.083 64.4523 152.156 64.2251L152.159 64.2241Z" fill="#EC615B"/>
<path d="M160.815 71.2831C158.175 64.2831 170.821 64.6541 174.626 63.3031C179.353 61.6461 183.404 58.7031 187.394 55.7531C188.315 55.0781 187.394 53.4821 186.473 54.1531C183.81 56.2182 180.999 58.0853 178.063 59.7391C174.38 61.7031 170.881 62.3171 166.891 62.9311C162.656 63.6061 157.131 66.5531 159.091 71.7091C159.459 72.8091 161.239 72.3841 160.81 71.2791L160.815 71.2831Z" fill="#EC615B"/>
<path d="M405.612 423.195C410.277 410.98 418.196 402.995 426.36 394.713C437.102 383.848 457.052 363.653 477.37 366.845C494.68 369.545 492.777 386.181 516.533 398.273C538.938 409.752 547.533 398.396 569.875 410.734C573.19 412.575 596.575 425.896 601.917 451.063C604.127 461.498 603.574 475.801 598.97 477.151C593.752 478.686 591.97 448.608 571.102 436.822C555.142 427.799 533.167 432.157 531.387 438.602C529.487 445.416 551.521 449.897 563.982 473.591C569.445 483.903 570.611 493.291 572.269 506.186C573.804 518.34 575.522 543.262 569.875 544.735C565.21 545.963 562.693 529.328 545.567 515.701C536.544 508.519 526.906 505.573 507.632 499.68C490.261 494.401 481.483 491.823 476.756 496.12C469.756 502.504 475.156 518.709 476.142 521.594C483.017 542.219 500.573 550.813 499.284 553.022C497.565 555.784 465.523 547.804 439.374 522.207C417.029 500.293 392.046 458.613 405.612 423.195Z" fill="#FF2E27"/>
<path d="M606.03 494.338C605.784 496.057 604.495 505.633 610.143 511.771C616.404 518.523 624.016 513.371 631.689 520.058C638.748 526.196 637.827 535.404 639.976 535.22C642.431 535.036 646.176 522.575 640.897 515.02C639.24 512.626 635.188 510.478 627.147 506.304C618.922 502.004 617.817 502.191 615.668 499.859C610.328 494.089 611.126 486.539 609.223 486.539C607.749 486.543 606.459 491.085 606.03 494.338Z" fill="#FF2E27"/>
<path d="M553.235 566.403C549.798 571.559 550.166 577.084 550.473 582.915C550.841 588.869 551.087 593.715 554.586 598.077C558.576 603.049 565.206 605.136 566.065 604.031C566.74 603.172 563.732 600.839 561.032 595.744C558.36 590.474 556.951 584.653 556.919 578.744C557.103 567.695 563.61 561.127 561.952 559.961C560.728 559.037 556.002 562.229 553.235 566.403Z" fill="#FF2E27"/>
<path d="M577.855 464.633C588.168 471.447 582.52 487.222 589.272 496.433C589.947 497.354 591.543 496.433 590.872 495.512C583.872 485.936 589.828 470.345 578.779 463.04C577.797 462.365 576.879 463.961 577.858 464.64L577.855 464.633Z" fill="#FF2E27"/>
<path d="M574.171 420.187C585.202 428.666 592.912 440.743 595.962 454.317C596.208 455.483 597.988 454.992 597.742 453.826C594.572 439.815 586.576 427.364 575.154 418.652C574.11 417.852 573.19 419.452 574.172 420.187H574.171Z" fill="#FF2E27"/>
<path d="M538.569 454.198C547.429 461.416 554.331 470.746 558.641 481.33C559.071 482.43 560.851 481.944 560.421 480.839C556.008 469.957 548.938 460.355 539.858 452.909C538.999 452.172 537.648 453.461 538.569 454.198Z" fill="#FF2E27"/>
<path d="M562.939 491.454C564.607 495.812 565.681 500.375 566.131 505.02C566.254 506.186 568.095 506.186 567.973 505.02C567.489 500.209 566.374 495.483 564.658 490.963C564.351 489.863 562.571 490.349 562.939 491.454V491.454Z" fill="#FF2E27"/>
<path d="M468.469 501.644C466.886 510.832 468.767 520.281 473.748 528.162C474.362 529.144 475.958 528.223 475.348 527.241C470.605 519.79 468.79 510.846 470.253 502.135C470.437 500.969 468.653 500.478 468.473 501.644H468.469Z" fill="#FF2E27"/>
<path d="M476.203 533.195C478.402 537.228 481.242 540.875 484.613 543.995C485.472 544.795 486.761 543.504 485.902 542.706C482.68 539.666 479.948 536.146 477.802 532.271C477.25 531.227 475.654 532.148 476.202 533.192L476.203 533.195Z" fill="#FF2E27"/>
<path d="M405.734 439.646C405.229 445.453 405.812 451.302 407.453 456.895C407.526 457.122 407.684 457.313 407.893 457.426C408.103 457.54 408.349 457.568 408.579 457.504C408.809 457.441 409.005 457.291 409.127 457.086C409.249 456.881 409.287 456.636 409.233 456.404C407.643 450.97 407.081 445.287 407.576 439.646C407.699 438.48 405.857 438.48 405.734 439.646V439.646Z" fill="#FF2E27"/>
<path d="M409.295 463.16C410.267 467.902 412.075 472.434 414.635 476.542C415.249 477.524 416.845 476.603 416.235 475.621C413.788 471.631 412.044 467.25 411.079 462.669C410.833 461.569 409.053 462.055 409.299 463.16H409.295Z" fill="#FF2E27"/>
<path d="M249.023 79.4471C247.304 84.1121 245.217 90.4961 243.192 98.2301C238.48 116.883 236.29 136.083 236.68 155.317C237.171 182.203 242.45 201.969 247.299 219.586C252.889 239.807 260.327 259.472 269.52 278.33C282.723 304.983 298.165 330.467 315.68 354.507C320.775 361.443 327.28 370.221 327.28 370.221C332.007 376.544 336.058 381.821 338.88 385.628C341.543 388.681 344.527 391.439 347.78 393.853C353.422 398.05 359.79 401.172 366.563 403.061C374.543 396.247 382.523 389.372 390.503 382.561C394.125 385.998 397.803 389.375 401.429 392.812C406.462 387.656 410.943 383.543 414.442 380.535C423.869 372.243 434.182 365.017 445.195 358.989C447.712 357.639 449.86 356.595 451.333 355.92C449.062 351.378 446.791 346.835 444.519 342.231C448.563 338.724 452.783 335.425 457.164 332.348C462.934 328.278 468.988 324.626 475.28 321.421C475.227 314.049 473.834 306.748 471.167 299.875C469.42 295.398 467.132 291.151 464.353 287.23C450.173 266.789 491.976 323.139 437.344 245.182C416.167 214.982 405.609 199.819 400.759 193.558C385.597 173.731 373.689 160.165 365.218 150.528C349.013 132.052 341.708 125.177 335.818 120.143C327.777 113.143 318.876 105.595 305.433 98.5971C296.962 94.2391 289.964 91.8451 279.775 88.3461C267.193 84.0471 256.573 81.2271 249.023 79.4471Z" fill="white"/>
<path d="M247.12 80.5511C233.8 121.617 233.8 165.936 243.376 207.799C245.774 218.294 248.766 228.644 252.338 238.799C254.118 243.955 256.267 248.989 258.169 254.084C258.844 255.864 258.969 257.644 259.769 259.424C260.935 262.186 262.163 264.949 263.391 267.711C265.662 272.867 268.056 277.962 270.573 283.057C273.09 288.09 276.159 292.878 278.43 297.973C279.289 299.873 280.03 301.902 281.008 303.743C282.297 306.076 284.2 307.856 285.55 310.127C288.374 314.854 291.074 319.703 294.021 324.368C307.464 346.036 322.749 366.477 338.401 386.55C339.138 387.471 340.427 386.182 339.69 385.261C325.879 367.521 312.374 349.536 300.22 330.691C297.212 326.026 294.327 321.361 291.504 316.573C290.154 314.302 288.804 311.973 287.514 309.637C286.225 307.366 284.506 305.77 283.156 303.56C282.108 301.71 281.205 299.78 280.456 297.79C279.356 295.151 277.878 292.756 276.527 290.24C273.949 285.513 271.555 280.726 269.284 275.876C266.89 270.781 264.619 265.625 262.348 260.469C261.366 258.198 260.998 255.804 260.077 253.469C259.095 250.952 258.051 248.436 257.069 245.857C253.311 235.966 250.074 225.886 247.369 215.657C241.884 194.911 238.916 173.58 238.53 152.125C238.112 127.956 241.659 103.881 249.03 80.8591C249.214 79.9381 247.43 79.4471 247.13 80.5521L247.12 80.5511Z" fill="black"/>
<path d="M247.979 80.5521C258.23 81.3521 268.665 84.9101 278.303 88.2861C287.817 91.6621 297.209 95.3451 305.926 100.379C323.298 110.446 338.643 123.643 352.639 138.007C367.064 152.8 380.2 169.067 392.907 185.334C405.552 201.539 417.645 218.297 429.307 235.234C442.198 254.079 454.597 273.292 466.751 292.689C467.365 293.671 468.961 292.75 468.351 291.768C446.069 256.35 423.051 221.361 397.451 188.214C372.713 156.114 346.196 123.331 311.451 101.54C301.998 95.5861 291.87 91.2891 281.434 87.4221C270.876 83.5551 259.334 79.5651 248.041 78.6441C247.802 78.6569 247.577 78.7588 247.41 78.9295C247.243 79.1002 247.146 79.3274 247.139 79.5661C247.131 79.8048 247.213 80.0378 247.369 80.2189C247.525 80.3999 247.743 80.516 247.98 80.5441L247.979 80.5521Z" fill="black"/>
<path d="M341.035 385.997C369.671 356.824 401.767 331.263 436.609 309.881C446.43 303.865 456.375 298.218 466.564 292.939C467.608 292.387 466.687 290.791 465.643 291.339C429.437 310.246 395.673 333.498 365.097 360.58C356.38 368.313 347.93 376.355 339.746 384.704C339.575 384.875 339.479 385.107 339.479 385.349C339.479 385.59 339.575 385.822 339.746 385.993C339.917 386.164 340.149 386.26 340.39 386.26C340.632 386.26 340.864 386.164 341.035 385.993V385.997Z" fill="black"/>
<path d="M339.257 387.409C346.517 395.568 356.086 401.327 366.695 403.921C366.927 403.975 367.172 403.937 367.377 403.815C367.582 403.693 367.732 403.497 367.795 403.267C367.859 403.037 367.831 402.791 367.717 402.581C367.603 402.372 367.413 402.214 367.186 402.141C356.881 399.603 347.591 393.995 340.545 386.059C339.745 385.2 338.458 386.55 339.256 387.409H339.257Z" fill="black"/>
<path d="M466.259 293.431C471.029 301.794 473.822 311.138 474.423 320.747C474.484 321.913 476.323 321.913 476.265 320.747C475.648 310.817 472.772 301.159 467.855 292.51C467.303 291.467 465.707 292.387 466.255 293.431H466.259Z" fill="black"/>
<path d="M367.801 403.434C400.999 373.092 437.01 345.98 475.347 322.465C476.329 321.851 475.408 320.255 474.426 320.865C435.963 344.477 399.83 371.69 366.514 402.137C365.655 402.937 366.944 404.224 367.803 403.426L367.801 403.434Z" fill="black"/>
<path d="M390.942 383.664C394.318 386.979 397.694 390.293 401.07 393.67C401.153 393.758 401.253 393.827 401.364 393.875C401.475 393.922 401.594 393.947 401.715 393.947C401.835 393.947 401.954 393.922 402.065 393.875C402.176 393.827 402.276 393.758 402.359 393.67C412.284 383.102 423.48 373.803 435.69 365.986C438.636 364.086 441.644 362.303 444.713 360.586C446.677 359.486 450.422 358.438 451.588 356.351C452.816 354.264 450.974 351.44 449.988 349.66C448.275 346.578 446.282 343.661 444.034 340.944C443.297 340.023 442.008 341.312 442.745 342.233C444.884 344.833 446.775 347.628 448.392 350.581C448.944 351.297 449.361 352.109 449.62 352.975C449.374 354.075 449.129 355.123 448.883 356.228C448.576 356.412 448.269 356.535 447.962 356.719C446.611 357.549 445.218 358.307 443.788 358.99C438.448 361.998 433.23 365.251 428.197 368.75C418.393 375.685 409.305 383.58 401.068 392.319H402.357C398.981 389.004 395.605 385.69 392.229 382.313C392.048 382.153 391.812 382.07 391.571 382.08C391.33 382.091 391.102 382.194 390.936 382.369C390.769 382.543 390.676 382.775 390.677 383.017C390.678 383.258 390.772 383.49 390.94 383.663L390.942 383.664Z" fill="black"/>
<path d="M251.479 232.354C266.579 214.554 284.258 199.145 302.366 184.475C320.536 169.804 339.566 156.054 360.866 146.294C361.966 145.803 360.989 144.207 359.945 144.694C338.829 154.331 319.984 167.958 301.937 182.445C283.522 197.3 265.537 212.953 250.191 230.999C249.391 231.981 250.682 233.27 251.48 232.349L251.479 232.354Z" fill="black"/>
<path d="M361.232 154.887C359.206 155.01 358.347 151.634 360.618 151.45C361.028 151.399 361.444 151.477 361.808 151.675C362.171 151.872 362.464 152.178 362.644 152.55C362.718 152.832 362.727 153.128 362.669 153.413C362.611 153.699 362.488 153.968 362.311 154.199C362.133 154.43 361.904 154.618 361.643 154.747C361.381 154.876 361.094 154.943 360.802 154.944C360.621 154.954 360.451 155.032 360.327 155.164C360.202 155.295 360.133 155.469 360.133 155.65C360.133 155.831 360.202 156.005 360.327 156.137C360.451 156.268 360.621 156.346 360.802 156.356C361.234 156.382 361.666 156.318 362.072 156.168C362.478 156.018 362.847 155.784 363.158 155.483C363.468 155.182 363.713 154.82 363.876 154.419C364.038 154.018 364.116 153.588 364.103 153.155C364.09 152.723 363.987 152.298 363.801 151.908C363.615 151.517 363.349 151.17 363.022 150.888C362.694 150.605 362.311 150.395 361.897 150.269C361.483 150.143 361.047 150.104 360.618 150.156C360.227 150.17 359.844 150.263 359.49 150.43C359.137 150.597 358.822 150.834 358.563 151.127C358.305 151.42 358.109 151.763 357.987 152.134C357.865 152.506 357.821 152.898 357.856 153.287C357.937 154.127 358.327 154.906 358.951 155.474C359.576 156.041 360.389 156.356 361.232 156.356C362.153 156.233 362.153 154.821 361.232 154.883V154.887Z" fill="black"/>
<path d="M454.964 290.669C455.025 290.669 455.025 290.669 455.087 290.608C454.903 290.608 454.719 290.547 454.535 290.547C455.21 290.854 454.842 289.565 454.781 289.381C454.792 289.172 454.834 288.965 454.904 288.767C455.088 288.379 455.388 288.057 455.763 287.846C455.956 287.779 456.161 287.753 456.365 287.77C456.568 287.788 456.766 287.847 456.945 287.946C457.124 288.044 457.281 288.179 457.404 288.342C457.528 288.504 457.616 288.691 457.663 288.89C457.756 289.207 457.728 289.548 457.583 289.845C457.439 290.142 457.189 290.375 456.882 290.498C456.575 290.62 456.234 290.624 455.924 290.509C455.615 290.393 455.359 290.166 455.208 289.872C454.84 289.072 453.673 289.749 454.042 290.547C454.779 292.266 457.295 292.389 458.523 291.099C459.935 289.564 458.891 286.986 456.988 286.434C456.503 286.341 456.002 286.37 455.531 286.517C455.06 286.664 454.632 286.925 454.285 287.277C453.939 287.63 453.685 288.062 453.546 288.536C453.407 289.01 453.387 289.511 453.488 289.994C453.672 290.794 454.716 291.774 455.514 290.976C456.128 290.362 455.514 289.012 454.593 289.376C453.793 289.683 454.163 290.976 454.961 290.665L454.964 290.669Z" fill="black"/>
<path opacity="0.15" d="M249.023 79.8151C262.039 88.2307 274.467 97.5211 286.223 107.622C295.123 115.295 318.204 135.858 347.054 175.758C378.36 219.033 394.012 240.64 397.143 264.764C398.743 277.348 400.949 313.196 369.336 357.269C382.411 347.325 395.547 337.319 408.622 327.375C414.331 336.767 419.978 346.158 425.687 355.55C419.549 360.092 413.41 364.573 407.272 369.116C410.28 372.738 413.288 376.298 416.295 379.916C420.442 375.922 424.852 372.21 429.495 368.806C436.349 363.785 443.69 359.466 451.409 355.915C448.954 351.188 446.56 346.401 444.109 341.674C454.667 334.738 465.225 327.74 475.783 320.804C475.023 313.519 473.267 306.373 470.565 299.565C467.844 292.724 464.211 286.282 459.765 280.413C446.015 261.813 452.706 266.295 423.917 225.843C403.231 196.743 391.817 180.48 373.517 159.426C361.793 145.926 353.997 137.021 341.536 126.033C328.277 114.309 312.195 100.375 287.641 90.1851C275.248 85.1409 262.276 81.6575 249.023 79.8151V79.8151Z" fill="#494949"/>
<path opacity="0.11" d="M446.126 258.135C445.35 263.882 443.866 269.511 441.706 274.893C435.322 290.669 425.501 297.544 404.999 318.293C395.299 328.114 380.875 342.662 382.226 344.258C383.515 345.793 399.291 333.639 426.852 315.469C442.996 304.788 456.562 296.501 465.462 291.1L446.126 258.135Z" fill="#494949"/>
<path opacity="0.08" d="M466.751 292.939C465.892 293.123 467.979 299.814 465.462 308.162C463.62 314.3 460.49 317.247 452.817 326.516C449.502 330.506 444.653 336.522 438.883 344.256L474.979 319.58C469.513 297.85 467.488 292.816 466.751 292.939Z" fill="#494949"/>
<path d="M363.077 493.849C363.317 495.612 363.968 497.294 364.977 498.76C369.397 505.88 376.701 510.239 381.977 512.76C379.153 521.776 376.999 530.988 375.532 540.321C373.813 551.431 371.788 564.383 374.432 565.243C375.353 565.55 378.054 564.691 403.16 514.97C406.66 508.034 409.544 502.264 411.447 498.335C398.065 492.319 384.747 486.242 371.363 480.227C370.077 481.204 362.399 486.79 363.077 493.849Z" fill="#161616" stroke="#161616" stroke-width="0.97" stroke-miterlimit="10"/>
<path d="M335.084 358.065C323.789 365.922 316.484 373.534 309.978 380.409C293.142 398.636 279.041 419.209 268.114 441.486C268.59 444.947 269.782 448.271 271.614 451.246C274.131 455.297 276.954 457.077 281.374 461.006C286.774 465.794 288.74 468.618 291.874 471.806C297.951 478.067 306.483 482.794 323.302 492.063C344.418 503.663 355.774 507.9 359.273 509.189C363.573 510.724 367.192 511.889 369.773 512.689C371.001 506.98 372.473 500.903 374.315 494.52C375.972 488.811 377.752 483.471 379.533 478.499C366.458 468.923 353.015 458.181 339.388 446.027C334.661 441.853 330.119 437.617 325.761 433.443C331.539 426.47 337.707 419.83 344.237 413.555C346.508 411.345 351.296 406.803 357.128 402.015C367.532 393.62 378.883 386.471 390.95 380.715C393.59 363.098 390.459 346.647 380.822 341.307C368.783 334.681 350.491 347.388 335.084 358.065Z" fill="white"/>
<path d="M322.684 367.215C300.886 385.681 283.036 408.354 270.202 433.877C268.913 436.516 267.071 439.463 266.826 442.409C266.58 445.54 268.483 447.934 270.202 450.327C274.353 455.91 278.951 461.145 283.952 465.98C294.624 475.991 306.55 484.575 319.432 491.516C335.146 500.232 351.781 507.169 368.355 514.044C369.455 514.474 369.955 512.694 368.846 512.264C341.714 500.969 314.03 489.429 291.38 470.216C286.255 465.888 281.474 461.168 277.08 456.098C274.772 453.426 272.601 450.64 270.573 447.75C269.345 445.97 268.425 444.313 268.731 442.041C269.038 439.831 270.331 437.741 271.309 435.718C284.059 409.949 301.989 387.088 323.976 368.564C324.897 367.764 323.608 366.477 322.687 367.213L322.684 367.215Z" fill="black"/>
<path d="M374.737 388.39C353.695 401.994 335.273 419.272 320.351 439.4C319.676 440.382 321.272 441.3 321.951 440.321C336.694 420.442 354.886 403.371 375.662 389.921C376.644 389.369 375.723 387.773 374.741 388.386L374.737 388.39Z" fill="black"/>
<path d="M324.71 434.368C341.959 449.96 359.719 464.916 377.991 479.236C378.912 479.973 380.201 478.684 379.28 477.947C360.988 463.644 343.228 448.687 325.999 433.076C325.14 432.276 323.851 433.567 324.71 434.365V434.368Z" fill="black"/>
<path d="M378.052 478.994C374.202 489.906 371.165 501.088 368.967 512.448C368.721 513.614 370.502 514.105 370.747 512.939C372.974 501.585 376.01 490.406 379.832 479.485C380.2 478.385 378.42 477.885 378.052 478.994Z" fill="black"/>
<path opacity="0.11" d="M358.839 381.517C350.368 382.254 343.984 388.453 324.28 415.83C316.73 426.33 310.407 435.473 305.558 442.716C312.558 447.627 318.08 451.678 321.579 454.316C341.16 468.987 349.386 477.216 366.021 486.174C369.643 488.138 372.65 489.55 374.431 490.348C375.843 486.481 377.255 482.614 378.605 478.748C373.94 474.697 369.275 470.707 364.548 466.655C351.535 455.606 338.624 444.906 325.815 434.555C330.091 428.562 334.788 422.881 339.872 417.555C350.737 406.199 361.54 398.526 369.95 392.633C372.835 390.607 375.29 389.011 376.886 387.968C368.967 381.885 362.767 381.149 358.839 381.517Z" fill="#494949"/>
<path opacity="0.08" d="M361.294 397.537C354.336 399.148 347.724 401.996 341.774 405.947C324.218 417.671 318.325 435.595 316.607 441.734C326.06 449.1 335.841 456.507 345.948 463.955C355.769 471.198 365.529 478.073 375.048 484.703C376.46 482.677 377.872 480.59 379.222 478.565C365.177 468.342 351.752 457.293 339.016 445.479C334.716 441.55 330.606 437.561 326.678 433.632C328.826 430.808 331.159 427.923 333.614 424.977C342.007 415.026 351.27 405.843 361.294 397.537V397.537Z" fill="#494949"/>
<path d="M477.493 473.777C484 479.915 490.568 486.115 497.074 492.253C495.355 531.416 498.609 540.623 502.046 541.299C507.386 542.343 516.533 523.866 520.523 509.318C522.938 500.424 523.952 491.208 523.531 482.002C513.341 472.917 503.151 463.812 492.962 454.686C487.806 461.071 482.649 467.454 477.493 473.777Z" fill="#161616" stroke="#161616" stroke-width="0.97" stroke-miterlimit="10"/>
<path d="M349.754 363.348C350.189 369.574 352.924 375.415 357.427 379.737C360.775 382.607 364.897 384.423 369.274 384.955C371.238 385.755 373.203 386.612 375.228 387.41C378.297 391.83 382.84 398.091 388.855 405.21C396.835 414.786 407.577 426.203 433.849 447.81C446.801 458.429 463.497 471.504 483.693 485.868C487.231 484.135 490.515 481.925 493.453 479.3C499.18 474.152 503.527 467.653 506.098 460.394C502.538 456.957 497.259 451.8 491.12 445.416C463.866 417.241 445.696 393.116 431.82 374.579C422.674 362.364 410.95 346.097 397.998 326.454C368.354 334.559 349.018 350.273 349.754 363.348Z" fill="white"/>
<path d="M359.268 382.07C364.179 383.789 369.028 385.446 373.939 387.165C375.039 387.533 375.539 385.753 374.43 385.385C369.519 383.666 364.67 382.009 359.759 380.29C358.659 379.922 358.159 381.702 359.268 382.07Z" fill="black"/>
<path d="M371.914 385.324C394.994 417.059 424.888 442.718 455.887 466.473C464.787 473.287 473.811 480.039 482.834 486.73C483.816 487.467 484.676 485.809 483.755 485.13C452.695 462.111 421.455 438.785 395.055 410.43C387.379 402.193 380.205 393.502 373.571 384.404C372.834 383.483 371.238 384.404 371.914 385.325V385.324Z" fill="black"/>
<path d="M408.13 342.538C429.858 375.865 454.355 407.302 481.361 436.516C489.161 444.987 497.198 453.216 505.361 461.254C506.22 462.113 507.509 460.763 506.65 459.965C478.231 432.087 452.214 401.86 428.877 369.608C422.248 360.462 415.843 351.132 409.664 341.617C409.05 340.635 407.454 341.556 408.129 342.538H408.13Z" fill="black"/>
<path d="M504.319 460.088C500.759 470.646 493.884 480.467 483.51 485.133C482.41 485.624 483.387 487.22 484.431 486.733C495.231 481.884 502.355 471.571 506.038 460.584C506.468 459.484 504.688 458.984 504.319 460.093V460.088Z" fill="black"/>
<path opacity="0.09" d="M408.192 341.556C404.692 336.829 401.747 332.962 399.782 330.446C396.83 335.737 395.148 341.642 394.871 347.695C394.319 364.76 406.841 372.064 442.75 411.841C458.403 429.151 466.69 439.586 486.885 460.211C491.612 464.999 495.602 468.989 498.485 471.811C500.695 467.944 502.905 464.077 505.176 460.211C485.717 440.691 470.31 423.074 458.77 409.14C447.66 395.697 437.715 383.666 427.464 368.688C424.827 364.943 418.136 354.938 408.192 341.556Z" fill="#494949"/>
<path opacity="0.09" d="M419.057 358.805C420.458 365.577 422.514 372.197 425.195 378.571C435.323 402.388 450.301 412.455 477.248 442.226C482.404 447.935 490.384 456.958 499.714 468.621C501.862 465.552 504.014 462.544 506.159 459.475C504.195 457.633 501.064 454.748 497.259 451.065C490.259 444.313 471.294 425.465 435.077 379.492C431.149 374.581 425.623 367.46 419.057 358.805Z" fill="#494949"/>
<path d="M219.804 304.54C218.576 305.031 216.735 306.075 211.272 314.852C205.379 324.305 201.389 330.752 198.443 340.94C196.221 348.782 195.207 356.917 195.435 365.064C196.05 367.721 195.966 370.491 195.189 373.105C193.9 377.156 191.567 378.138 187.148 383.663C184.335 387.031 181.963 390.744 180.089 394.712C177.511 400.421 178.8 401.157 176.345 406.743C174.365 411.18 171.646 415.248 168.304 418.774C164.253 423.01 162.288 423.132 160.504 426.815C159.15 429.705 158.721 432.942 159.276 436.084C159.399 436.943 160.688 444.432 165.046 445.353C166.212 445.599 168.054 445.476 168.79 444.371C169.956 442.652 167.255 440.258 166.764 436.084C166.334 432.278 167.992 429.209 169.035 427.306C172.166 421.475 175.787 422.334 179.102 417.485C182.294 412.697 179.286 411.224 182.355 402.2C184.074 397.167 185.793 392.133 190.396 388.389C192.483 386.67 194.509 385.749 196.412 382.864C197.738 380.826 198.598 378.521 198.929 376.112C201.491 380.279 204.703 384.009 208.443 387.161C211.881 389.985 215.809 393.299 219.124 392.072C220.904 391.397 222.5 389.372 222.193 387.959C222.009 387.159 221.272 386.915 219.369 385.197C219.369 385.197 218.632 384.522 216.975 382.742C215.093 380.609 213.691 378.097 212.862 375.376C213.844 374.22 215.224 373.475 216.729 373.289C218.816 373.228 220.412 374.701 222.008 376.297C225.016 379.243 224.893 381.024 226.796 382.804C228.269 384.216 230.97 385.689 236.31 385.321C236.064 384.646 235.635 383.541 235.082 382.313C233.182 378.2 232.197 377.771 232.074 376.052C232.013 374.702 232.565 374.333 235.082 370.036C237.23 366.353 238.274 364.511 238.335 363.529C238.642 359.907 235.511 358.68 234.835 354.506C234.221 351.006 235.756 348.184 236.861 345.974C243.245 333.022 247.296 324.797 246.13 318.597C244.358 308.9 228.889 300.74 219.804 304.54Z" fill="#161616"/>
<path d="M216.981 306.752C208.081 315.837 202.372 327.377 198.566 339.408C194.883 351.132 192.121 364.514 197.952 375.993C198.504 377.036 200.1 376.116 199.552 375.072C193.782 363.777 196.913 350.396 200.652 338.917C204.335 327.5 209.798 316.696 218.269 308.041C219.069 307.182 217.778 305.893 216.98 306.752H216.981Z" fill="#161616"/>
<path d="M207.773 359.786C208.51 359.418 209.246 359.111 209.983 358.742C210.535 359.049 211.083 359.417 211.64 359.724C212.33 360.362 212.911 361.108 213.359 361.934C214.232 363.439 214.638 365.17 214.525 366.906C214.279 370.221 211.885 372.799 211.272 375.991C210.904 377.955 212.193 379.367 213.298 380.84C215.223 383.369 217.404 385.693 219.805 387.776C220.664 388.576 222.015 387.285 221.094 386.487C219.53 385.107 218.054 383.631 216.674 382.067C214.464 379.55 212.5 377.402 214.035 373.903C215.385 370.834 216.797 367.949 216.183 364.45C215.958 363.054 215.449 361.718 214.689 360.526C213.929 359.333 212.933 358.308 211.763 357.514C209.737 356.286 207.282 356.532 206.177 358.803C205.625 359.903 207.221 360.829 207.777 359.785L207.773 359.786Z" fill="#161616"/>
<path d="M198.075 376.238C201.593 381.961 206.572 386.644 212.5 389.804C214.28 390.725 217.656 392.873 219.8 391.952C221.826 391.093 221.457 388.637 220.9 386.98C220.532 385.88 218.752 386.366 219.12 387.471C220.532 391.952 214.578 388.821 213.411 388.208C211.504 387.216 209.696 386.044 208.011 384.708C204.677 382.073 201.83 378.873 199.601 375.255C199.049 374.334 197.453 375.255 198.066 376.237L198.075 376.238Z" fill="#161616"/>
<path d="M240.369 319.888C236.773 332.055 234.449 344.562 233.433 357.209C233.427 357.409 233.492 357.604 233.615 357.761C233.738 357.918 233.913 358.026 234.108 358.068C237.975 359.112 237.423 363.899 236.008 366.6C234.596 369.178 232.386 371.327 231.281 374.089C229.317 379.061 235.148 380.657 235.025 385.015L235.946 384.094C233.282 383.964 230.695 383.158 228.428 381.751C226.162 380.344 224.292 378.383 222.994 376.053C221.03 372.615 218.758 371.879 214.83 372.124C213.664 372.185 213.664 374.024 214.83 373.966C216.303 373.905 218.083 373.72 219.43 374.457C220.596 375.132 220.965 376.298 221.578 377.342C222.616 379.125 223.968 380.705 225.568 382.007C228.499 384.381 232.112 385.757 235.88 385.936C236.122 385.93 236.353 385.831 236.525 385.66C236.696 385.488 236.795 385.258 236.801 385.015C236.862 382.437 235.144 380.902 233.732 378.938C230.786 374.825 235.632 371.02 237.538 367.521C239.625 363.715 239.564 357.577 234.53 356.288C234.74 356.586 234.965 356.873 235.205 357.147C236.2 344.664 238.505 332.319 242.08 320.317C242.448 319.274 240.668 318.782 240.361 319.887L240.369 319.888Z" fill="#161616"/>
<path d="M194.822 365.619C195.327 369.264 194.683 372.976 192.98 376.238C191.323 379.368 188.622 381.638 185.98 384.038C181.315 388.396 179.166 393.184 177.693 399.323C176.093 405.83 174.193 411.047 169.468 415.958C165.908 419.58 161.734 422.958 159.524 427.682C158.457 429.939 157.982 432.43 158.143 434.922C158.304 437.413 159.096 439.822 160.445 441.923C162.045 444.44 167.504 449.473 169.591 444.685C170.45 442.721 169.468 440.265 168.791 438.362C168.015 436.742 167.537 434.995 167.379 433.206C167.379 430.628 168.852 428.418 170.571 426.638C174.745 422.28 180.085 419.824 181.927 413.625C182.971 410.125 182.234 406.625 182.479 403.067C182.835 398.763 184.836 394.762 188.065 391.895C192.914 387.295 199.36 383.485 199.36 375.995C199.347 375.76 199.244 375.539 199.073 375.377C198.901 375.216 198.675 375.126 198.439 375.126C198.204 375.126 197.977 375.216 197.806 375.377C197.635 375.539 197.532 375.76 197.519 375.995C197.458 383.177 190.46 386.737 186.04 391.28C182.606 394.674 180.644 399.282 180.577 404.109C180.516 407.362 181.068 410.431 179.963 413.562C178.735 417.122 176.157 419.516 173.334 421.849C169.712 424.734 165.534 428.11 165.534 433.205C165.534 435.66 166.762 437.87 167.498 440.205C167.682 440.819 168.357 442.476 168.05 442.967C167.436 443.028 166.761 443.151 166.15 443.213C165.045 443.888 164.186 443.766 163.572 442.845C162.222 441.986 161.055 439.408 160.564 437.934C158.6 432.164 161.301 427.008 165.164 422.834C168.417 419.274 172.223 416.266 174.924 412.215C177.809 407.915 178.668 402.823 179.896 397.915C180.817 394.355 182.044 390.915 184.496 388.094C186.644 385.577 189.345 383.674 191.555 381.219C193.475 379.142 194.92 376.671 195.79 373.978C196.659 371.286 196.931 368.436 196.588 365.628C196.527 364.462 194.688 364.462 194.808 365.628L194.822 365.619Z" fill="#161616"/>
<path d="M154.983 290.853C153.694 291.59 151.3 292.879 150.809 295.58C150.663 296.618 150.753 297.676 151.072 298.675C151.391 299.674 151.93 300.588 152.65 301.35C151.724 302.367 151.161 303.662 151.05 305.033C150.927 308.286 153.812 310.189 153.935 310.312C153.373 310.898 152.962 311.613 152.737 312.393C152.513 313.174 152.481 313.998 152.646 314.793C152.814 315.484 153.14 316.126 153.598 316.669C154.056 317.212 154.634 317.642 155.286 317.924C154.918 319.058 155.006 320.291 155.531 321.361C156.759 323.571 159.705 323.448 160.012 323.448C161.099 323.352 162.139 322.957 163.017 322.307C163.894 321.657 164.575 320.777 164.984 319.765C167.522 321.253 170.466 321.898 173.394 321.607C175.529 321.364 177.583 320.652 179.41 319.52C182.396 324.745 186.006 329.589 190.16 333.944C194.641 338.609 202.989 347.387 215.389 351.009C230.858 355.551 244.546 349.659 252.403 346.282C273.519 337.197 284.016 320.501 287.883 314.24C294.39 303.559 296.661 294.413 298.625 286.126C301.817 272.99 300.712 267.834 299.668 264.826C299.054 262.985 295.433 252.426 287.084 251.199C280.27 250.155 274.623 255.987 273.948 256.724C271.615 259.179 270.388 262.433 267.932 268.817C266.704 272.07 265.906 274.526 265.538 275.631C261.548 288.583 259.522 295.031 258.97 296.379C257.497 300.062 253.998 308.472 245.588 315.04C239.695 319.499 232.725 322.316 225.388 323.204C219.741 324.004 212.804 324.984 205.438 321.363C197.213 317.312 193.53 309.946 192.547 307.981C189.601 301.904 189.047 295.152 188.618 290.364C188.066 284.226 188.495 279.438 184.935 275.632C184.26 274.957 182.664 273.238 181.006 273.545C178.612 274.036 177.262 278.64 176.034 282.998C174.99 286.681 175.297 287.111 174.434 287.97C172.654 289.75 170.383 288.829 162.587 289.259C158.053 289.564 156.46 290.055 154.983 290.853Z" fill="white"/>
<path d="M167.689 288.214C161.06 286.986 149.397 288.705 150.317 297.79C151.117 305.954 160.817 307.366 166.645 303.806C167.627 303.192 166.706 301.596 165.724 302.206C160.875 305.152 152.097 304.354 152.097 296.988C152.097 289.868 162.103 289.07 167.197 289.988C168.363 290.234 168.854 288.453 167.688 288.208L167.689 288.214Z" fill="black"/>
<path d="M151.914 300.797C145.285 308.897 161.244 319.089 165.971 308.897C166.462 307.853 164.871 306.871 164.371 307.976C160.688 315.833 148.411 307.976 153.261 302.083C153.998 301.224 152.709 299.873 151.911 300.794L151.914 300.797Z" fill="black"/>
<path d="M152.282 309.023C151.537 310.588 151.415 312.378 151.939 314.03C152.463 315.682 153.595 317.074 155.106 317.923C156.676 318.661 158.469 318.766 160.115 318.218C161.76 317.669 163.132 316.509 163.945 314.977C164.497 313.933 162.901 313.013 162.345 314.056C161.758 315.148 160.787 315.985 159.619 316.404C158.452 316.823 157.171 316.796 156.023 316.327C154.917 315.739 154.078 314.75 153.678 313.563C153.279 312.375 153.349 311.08 153.875 309.943C154.366 308.899 152.775 307.979 152.275 309.022L152.282 309.023Z" fill="black"/>
<path d="M153.756 317.248C153.544 318.769 153.911 320.314 154.784 321.577C155.657 322.84 156.972 323.729 158.469 324.069C159.967 324.409 161.537 324.173 162.87 323.41C164.202 322.647 165.199 321.412 165.664 319.948C166.094 318.848 164.314 318.348 163.884 319.457C163.526 320.493 162.788 321.354 161.819 321.866C160.851 322.379 159.724 322.505 158.666 322.219C156.395 321.544 155.474 319.457 155.597 317.247C155.658 316.081 153.817 316.081 153.755 317.247L153.756 317.248Z" fill="black"/>
<path d="M159.588 297.175C161.168 296.877 162.802 297.161 164.188 297.975C164.849 298.372 165.344 298.995 165.581 299.728C165.818 300.462 165.781 301.257 165.477 301.965C164.925 303.008 166.521 303.929 167.077 302.886C167.54 301.968 167.701 300.927 167.535 299.913C167.37 298.898 166.887 297.962 166.156 297.239C164.499 295.459 161.856 295.091 159.527 295.339C158.427 295.523 158.427 297.365 159.588 297.18V297.175Z" fill="black"/>
<path d="M165.297 321.176C168.489 320.01 171.558 322.649 174.873 322.276C177.39 321.969 179.6 320.619 181.687 319.391C182.669 318.777 181.748 317.181 180.766 317.791C177.635 319.691 174.935 321.044 171.19 319.939C168.919 319.264 167.139 318.527 164.806 319.387C163.706 319.817 164.131 321.597 165.297 321.167V321.176Z" fill="black"/>
<path d="M167.199 289.81C170.391 290.91 174.688 291.099 176.468 287.6C177.45 285.636 176.836 283.242 177.268 281.155C177.798 278.392 179.329 275.922 181.568 274.219C182.489 273.482 181.2 272.193 180.279 272.93C177.857 274.884 176.187 277.617 175.552 280.664C175.245 282.383 175.675 284.408 175.184 286.064C174.084 289.379 170.396 288.949 167.818 288.028C167.584 287.956 167.332 287.978 167.114 288.089C166.897 288.199 166.73 288.39 166.651 288.621C166.571 288.852 166.584 289.105 166.687 289.327C166.791 289.548 166.976 289.721 167.204 289.808L167.199 289.81Z" fill="black"/>
<path d="M180.208 274.341C185.426 275.016 186.101 283.794 186.96 287.784C188.004 293.002 188.56 298.284 189.538 303.498C190.22 307.53 191.865 311.337 194.334 314.596C196.803 317.856 200.022 320.471 203.718 322.22C211.818 326.087 221.028 325.903 229.499 323.57C238.216 321.115 247.239 316.695 252.886 309.39C253.623 308.469 252.334 307.18 251.597 308.101C245.704 315.713 236.128 320.194 226.921 322.342C217.652 324.49 207.521 323.692 199.789 317.677C191.441 311.232 191.257 301.533 189.599 291.896C188.799 287.354 188.126 282.443 186.468 278.146C185.424 275.446 183.768 272.99 180.759 272.56C179.531 272.376 179.04 274.16 180.207 274.34L180.208 274.341Z" fill="black"/>
<path d="M178.862 320.625C186.289 329.71 193.471 340.084 203.293 346.774C212.93 353.281 224.839 353.956 236.01 352.114C258.722 348.308 277.996 332.901 289.045 313.014C295.256 301.659 299.236 289.22 300.769 276.368C300.892 275.202 299.05 275.202 298.928 276.368C296.104 298.282 286.528 319.768 269.464 334.253C261.048 341.467 251.064 346.616 240.307 349.292C229.197 351.992 216.367 352.361 206.239 346.407C195.439 340.084 187.885 328.79 180.151 319.275C179.414 318.416 178.125 319.705 178.862 320.626V320.625Z" fill="black"/>
<path d="M287.941 250.958C282.846 248.932 277.441 251.572 273.884 255.316C269.71 259.616 267.623 265.322 266.084 270.969C264.304 277.537 262.708 284.044 260.191 290.369C257.465 297.143 254.094 303.64 250.124 309.769C249.449 310.751 251.045 311.669 251.724 310.69C258.076 300.96 262.861 290.292 265.904 279.077C267.504 273.184 268.543 267.046 271.49 261.705C274.436 256.305 280.698 250.042 287.45 252.743C288.55 253.173 289.05 251.393 287.941 250.963V250.958Z" fill="black"/>
<path d="M162.349 316.266C164.068 316.389 163.699 319.274 163.393 320.317C163.025 321.417 164.805 321.917 165.173 320.808C165.973 318.475 165.419 314.67 162.349 314.424C161.183 314.363 161.183 316.204 162.349 316.266V316.266Z" fill="black"/>
<path d="M163.393 310.618C163.574 311.324 163.542 312.067 163.302 312.755C163.062 313.443 162.624 314.045 162.043 314.485C161.061 315.16 161.982 316.756 162.964 316.085C163.901 315.441 164.616 314.523 165.011 313.458C165.407 312.392 165.464 311.23 165.174 310.131C164.928 308.965 163.148 309.456 163.394 310.622L163.393 310.618Z" fill="black"/>
<path d="M164.437 304.234C166.094 305.034 164.989 307.671 164.191 308.715C163.454 309.636 165.05 310.556 165.791 309.636C167.203 307.795 167.939 303.866 165.361 302.636C164.317 302.145 163.397 303.736 164.44 304.236L164.437 304.234Z" fill="black"/>
<path opacity="0.11" d="M151.792 304.481C152.774 303.929 154.37 307.366 158.483 309.081C160.018 309.695 161.92 310.124 170.637 309.081C173.461 308.713 177.144 308.222 181.563 307.424C182.823 312.494 184.94 317.312 187.824 321.668C192.735 328.846 199.56 334.503 207.524 337.996C216.237 341.483 225.723 342.582 235.003 341.179C244.283 339.776 253.021 335.923 260.314 330.016C266.636 324.553 270.688 317.923 276.642 300.675C282.085 284.965 286.293 268.854 289.226 252.489C293.071 256.372 295.951 261.102 297.636 266.3C298.679 269.553 299.662 274.341 298.864 281.83C297.207 297.974 289.104 311.417 284.193 318.292C279.098 325.474 270.013 337.873 253.193 345.546C243.294 349.852 232.551 351.867 221.765 351.439C217.881 351.428 214.026 350.787 210.348 349.539C205.748 347.882 201.14 343.585 191.994 335.114C187.76 331.37 183.952 327.17 180.638 322.592C179.901 321.549 179.288 320.628 178.858 320.014C177.321 321.159 175.431 321.725 173.518 321.614C170.633 321.368 169.651 319.281 167.257 319.65C165.17 319.957 165.17 321.676 162.657 322.596C161.575 322.983 160.419 323.112 159.278 322.973C158.138 322.834 157.046 322.431 156.089 321.796C154.739 320.752 154.554 319.586 153.02 312.957C151.546 306.445 151.117 304.849 151.792 304.481Z" fill="#494949"/>
<path d="M221.953 288.52C220.787 288.765 220.353 291.098 219.62 294.72C219.264 296.523 219.039 298.348 218.945 300.183C217.308 301.997 216.334 304.312 216.183 306.751C216.122 308.899 216.858 310.557 218.27 313.626C219.063 315.39 219.987 317.093 221.032 318.721C218.392 319.335 216.551 321.054 216.432 322.895C216.309 324.675 217.905 326.087 218.519 326.578C221.281 328.972 223.307 327.192 226.806 329.095C229.63 330.63 229.384 332.348 233.497 334.619C236.075 336.031 236.873 335.719 237.18 335.54C238.224 334.865 237.855 332.655 237.671 331.182C237.236 328.455 236.21 325.857 234.663 323.57C237.057 322.711 239.451 321.851 241.783 321.053C240.064 321.237 239.696 321.299 239.696 321.299C239.696 321.238 243.931 319.519 247.553 321.053C250.561 322.342 250.806 325.043 253.323 325.227C254.045 325.273 254.766 325.127 255.413 324.803C256.06 324.48 256.61 323.99 257.006 323.385C258.418 320.991 255.778 317.492 255.164 316.694C253.198 314.248 250.402 312.611 247.307 312.094C248.077 310.306 248.514 308.392 248.596 306.447C248.655 303.429 247.822 300.462 246.202 297.915C245.102 294.293 244.054 290.672 242.949 286.989C241.23 290.979 239.327 292.207 237.854 292.513C236.197 292.881 235.276 292.083 232.575 292.513C229.997 292.943 229.875 293.741 228.401 293.679C224.961 293.308 223.794 288.152 221.953 288.52Z" fill="#161616"/>
<path d="M223.487 307.917C223.992 308.564 224.667 309.057 225.437 309.34C226.208 309.622 227.042 309.684 227.845 309.517C228.546 309.337 229.175 308.946 229.647 308.398C230.119 307.849 230.411 307.168 230.484 306.448C230.545 305.834 229.625 305.834 229.563 306.448C229.488 307.067 229.192 307.638 228.73 308.055C228.267 308.472 227.669 308.708 227.046 308.719C226.484 308.713 225.931 308.576 225.43 308.32C224.93 308.063 224.496 307.695 224.162 307.242C223.732 306.812 223.118 307.488 223.487 307.917Z" fill="white"/>
<path d="M236.624 305.895C238.159 308.105 243.131 308.289 242.946 304.795C242.885 304.181 241.964 304.181 242.025 304.795C242.209 307.312 238.465 306.943 237.425 305.409C237.057 304.918 236.259 305.409 236.625 305.9L236.624 305.895Z" fill="white"/>
<path d="M234.23 312.707C234.23 312.768 234.291 312.83 234.291 312.891C234.475 312.952 234.721 313.014 234.905 313.075C234.854 312.957 234.767 312.859 234.657 312.793C234.547 312.727 234.419 312.697 234.291 312.707C234.537 312.646 234.721 312.523 234.966 312.461C234.905 312.4 234.843 312.277 234.782 312.215C234.475 312.338 234.23 312.461 233.923 312.583C234.261 313.409 234.261 314.335 233.923 315.161C233.616 316.082 232.323 317.309 231.529 316.082C231.464 315.976 231.359 315.9 231.238 315.871C231.117 315.842 230.99 315.862 230.884 315.928C230.777 315.993 230.702 316.097 230.673 316.218C230.644 316.339 230.664 316.467 230.729 316.573C230.914 316.844 231.161 317.068 231.449 317.227C231.737 317.385 232.058 317.474 232.386 317.486C232.714 317.498 233.041 317.433 233.34 317.296C233.638 317.158 233.9 316.953 234.105 316.696C235.026 315.652 235.517 313.381 234.719 312.154C234.658 312.061 234.566 311.993 234.459 311.961C234.353 311.93 234.238 311.936 234.136 311.98C234.034 312.024 233.95 312.102 233.9 312.201C233.849 312.3 233.835 312.414 233.86 312.522C233.954 312.858 234.174 313.144 234.474 313.322C234.533 313.359 234.599 313.382 234.668 313.389C234.737 313.396 234.806 313.387 234.871 313.364C234.937 313.34 234.995 313.302 235.043 313.252C235.092 313.202 235.128 313.142 235.149 313.076C235.272 312.524 235.088 311.235 234.228 311.603C233.428 311.91 233.737 313.138 234.105 313.629C234.17 313.727 234.266 313.799 234.379 313.832C234.491 313.866 234.611 313.859 234.719 313.813C234.877 313.721 235.006 313.588 235.094 313.428C235.182 313.268 235.226 313.087 235.219 312.905C235.213 312.722 235.158 312.545 235.059 312.392C234.96 312.238 234.822 312.114 234.658 312.033C234.167 311.665 233.737 312.463 234.228 312.708L234.23 312.707Z" fill="white"/>
<path d="M234.291 312.889C234.537 314.301 235.028 316.02 236.685 316.265C238.342 316.51 238.833 314.915 238.833 313.626C238.833 313.504 238.784 313.387 238.698 313.3C238.612 313.214 238.495 313.166 238.372 313.166C238.25 313.166 238.133 313.214 238.047 313.3C237.961 313.387 237.912 313.504 237.912 313.626C237.912 314.547 237.605 315.836 236.377 315.226C235.456 314.796 235.333 313.569 235.211 312.648C235.088 312.096 234.167 312.341 234.29 312.894L234.291 312.889Z" fill="white"/>
<path d="M217.35 308.225C217.905 305.059 219.322 302.107 221.444 299.693C223.566 297.279 226.312 295.496 229.381 294.54C235.642 292.698 242.881 295.215 245.77 301.231C246.261 302.274 247.857 301.354 247.37 300.31C244.239 293.865 236.57 290.98 229.753 292.576C226.19 293.49 222.963 295.402 220.451 298.088C217.939 300.774 216.246 304.122 215.573 307.738C215.389 308.904 217.173 309.395 217.353 308.229L217.35 308.225Z" fill="#161616"/>
<path d="M220.602 298.955C220.509 295.892 221.118 292.847 222.382 290.055C222.509 289.842 222.612 289.616 222.689 289.38C223.119 288.643 223.18 288.521 222.812 289.012C222.444 289.319 222.505 289.564 223.058 289.933C223.181 290.117 223.365 290.363 223.488 290.547C224.406 292.015 225.207 293.553 225.882 295.147C226.312 296.247 228.092 295.761 227.662 294.656C227.048 293.183 224.225 285.694 221.831 287.356C220.665 288.156 219.931 290.856 219.56 292.144C218.905 294.375 218.615 296.696 218.701 299.019C218.824 300.119 220.665 300.119 220.601 298.958L220.602 298.955Z" fill="#161616"/>
<path d="M239.324 293.984C239.938 292.94 240.552 291.897 241.224 290.853C241.586 290.443 241.895 289.99 242.145 289.503C242.575 289.257 242.636 289.012 242.391 288.703C242.145 288.273 242.207 288.396 242.514 289.071C243.581 291.662 244.283 294.388 244.601 297.171C244.724 298.337 246.565 298.337 246.442 297.171C246.26 295.157 245.891 293.164 245.342 291.217C244.974 290.117 244.421 287.595 243.378 286.917C242.578 286.426 241.905 286.794 241.352 287.469C239.983 289.221 238.771 291.09 237.73 293.055C237.116 294.037 238.712 294.955 239.33 293.976L239.324 293.984Z" fill="#161616"/>
<path d="M215.691 307.243C215.261 317.555 224.591 326.395 234.965 324.243C237.38 323.753 239.659 322.742 241.642 321.278C243.625 319.815 245.264 317.936 246.444 315.772C248.838 311.172 250.188 303.864 247.058 299.321C246.383 298.339 244.787 299.26 245.458 300.242C248.22 304.355 246.87 311.107 244.658 315.22C243.572 317.082 242.101 318.692 240.344 319.941C238.587 321.19 236.584 322.05 234.468 322.463C225.199 324.305 217.158 316.325 217.526 307.24C217.526 306.996 217.429 306.762 217.256 306.589C217.083 306.416 216.849 306.319 216.605 306.319C216.361 306.319 216.126 306.416 215.954 306.589C215.781 306.762 215.684 306.996 215.684 307.24L215.691 307.243Z" fill="#161616"/>
<path d="M216.985 323.449C218.458 317.986 225.824 318.293 229.691 320.687C233.804 323.142 235.891 327.93 236.32 332.534C236.443 333.823 236.934 335.112 234.785 334.314C233.858 333.758 233.028 333.053 232.33 332.227C231.302 331.086 230.194 330.019 229.015 329.035C227.726 328.026 226.208 327.351 224.595 327.071C222.017 326.58 217.352 326.887 217.106 323.204C217.045 322.038 215.206 322.038 215.264 323.204C215.354 324.307 215.779 325.356 216.481 326.212C217.183 327.067 218.129 327.688 219.193 327.992C220.912 328.606 222.815 328.483 224.593 328.913C226.626 329.468 228.444 330.624 229.811 332.228C231.346 333.763 233.985 337.2 236.625 336.709C238.835 336.279 238.344 333.763 238.16 332.109C237.485 326.216 234.354 320.385 228.584 318.109C223.735 316.209 216.737 317.309 215.264 323.02C214.896 324.12 216.676 324.62 216.983 323.45L216.985 323.449Z" fill="#161616"/>
<path d="M241.473 315.468C243.99 312.092 249.698 313.442 252.338 315.714C253.866 317.026 254.94 318.788 255.407 320.747C255.643 321.585 255.727 322.458 255.653 323.325C255.039 325.105 253.753 324.553 252.645 323.693C251.11 322.527 249.945 320.869 248.045 320.133C247.144 319.797 246.178 319.671 245.221 319.765C244.325 319.867 243.423 319.908 242.521 319.888C240.802 319.642 238.408 318.047 241.293 315.837C242.214 315.1 240.925 313.811 240.004 314.548C239.29 315.036 238.755 315.744 238.478 316.563C238.201 317.382 238.198 318.269 238.469 319.09C239.328 321.423 241.538 321.914 243.809 321.79C246.08 321.666 247.553 321.729 249.395 323.263C250.212 324.067 251.072 324.825 251.973 325.534C253.262 326.455 255.165 327.314 256.573 326.025C259.826 323.017 256.082 316.325 253.504 314.239C249.821 311.231 243.069 310.372 240.004 314.607C239.204 315.466 240.804 316.387 241.477 315.466L241.473 315.468Z" fill="#161616"/>
<path d="M220.539 318.353C224.529 317.064 230.606 319.581 233.061 322.834C233.245 323.08 233.613 322.834 233.429 322.588C230.851 319.088 224.713 316.511 220.416 317.923C220.109 317.984 220.232 318.414 220.539 318.353Z" fill="white"/>
<path d="M241.905 315.714C242.743 314.697 243.845 313.93 245.09 313.497C246.335 313.064 247.675 312.981 248.964 313.259C249.271 313.32 249.394 312.891 249.087 312.829C247.722 312.538 246.304 312.624 244.985 313.079C243.665 313.533 242.494 314.338 241.598 315.407C241.414 315.653 241.721 315.959 241.905 315.714V315.714Z" fill="white"/>
<path d="M222.816 289.564C223.433 291.121 223.846 292.751 224.044 294.413L224.412 294.229C224.126 293.95 223.793 293.721 223.43 293.554C223.246 293.493 223.062 293.554 223.062 293.738C223.062 294.29 223.001 294.781 223.001 295.338L223.369 295.154C222.51 294.172 221.834 296.382 221.589 296.811C221.466 297.057 221.835 297.302 221.957 297.057C222.018 296.934 222.816 295.215 223.001 295.457C223.124 295.641 223.369 295.457 223.369 295.273C223.369 294.721 223.43 294.23 223.43 293.673L223.062 293.857C223.406 293.967 223.706 294.182 223.921 294.471C224.044 294.594 224.351 294.532 224.289 294.287C224.077 292.581 223.644 290.909 223 289.315C223.123 289.192 222.693 289.315 222.816 289.56V289.564Z" fill="white"/>
<path d="M241.779 288.766C241.115 290.021 240.718 291.401 240.613 292.817C240.613 292.94 240.797 293.063 240.92 293.063C241.779 292.817 241.902 293.493 241.964 294.229C241.964 294.413 242.21 294.536 242.332 294.413C242.639 294.904 242.884 295.334 243.191 295.825C243.13 296.132 243.621 296.255 243.621 295.948C243.744 295.089 243.191 292.879 242.021 294.106L242.389 294.29C242.316 293.751 242.214 293.217 242.082 292.69C242.082 292.567 241.959 292.506 241.836 292.506C241.461 292.503 241.089 292.565 240.736 292.69C240.853 292.753 240.957 292.836 241.043 292.936C241.105 291.599 241.482 290.295 242.143 289.13C242.327 288.7 241.897 288.455 241.775 288.762L241.779 288.766Z" fill="white"/>
<path d="M280.268 252.366C281.563 261.266 283.553 270.05 286.222 278.638C293.465 301.718 301.998 311.601 313.292 338.364C316.116 345.055 320.106 355.122 324.034 367.828C336.102 371.795 348.958 372.743 361.478 370.59C388.732 365.863 404.753 347.817 409.234 342.354C399.904 325.167 390.512 306.567 381.366 286.618C372.281 266.852 364.366 247.824 357.488 229.718C344.885 225.007 331.161 224.173 318.08 227.324C295.925 232.662 283.705 247.824 280.268 252.366Z" fill="#FF2E27"/>
<path opacity="0.13" d="M334.162 225.234C336.495 230.145 339.441 236.834 342.572 244.934C349.266 262.57 354.181 280.83 357.243 299.443C360.005 315.034 362.399 339.22 358.471 370.28C364.921 370.125 371.296 368.858 377.316 366.536C388.733 361.994 397.016 354.075 405 346.402C406.842 344.683 408.253 343.149 409.174 342.228C406.535 337.686 402.545 330.565 397.879 321.664C384.379 296.006 375.535 274.706 368.108 256.659C365.469 250.336 361.847 241.252 357.608 230.264C353.558 228.574 349.34 227.32 345.024 226.523C341.442 225.814 337.81 225.383 334.162 225.234V225.234Z" fill="#FF2E27"/>
<path opacity="0.1" d="M374.799 273.911C375.843 284.899 376.699 294.111 377.316 300.736C379.649 326.701 380.078 333.883 380.262 338.487C380.753 349.352 380.753 358.253 380.692 364.087C385.593 362.341 390.238 359.946 394.503 356.966C399.629 353.348 404.163 348.957 407.944 343.95C396.897 320.563 385.848 297.216 374.799 273.911Z" fill="#FF2E27"/>
<path d="M331.215 214.43C328.269 215.289 326.673 219.525 325.69 223.883C324.363 230.183 324.176 236.669 325.138 243.035C326.36 251.012 328.375 258.847 331.154 266.424C333.854 273.544 337.538 283.059 345.579 293.187C350.179 298.957 354.111 303.929 361.355 307.612C365.591 309.822 374.368 314.303 383.392 310.743C383.822 310.559 392.661 306.937 394.932 299.203C395.453 296.969 395.721 294.683 395.732 292.389C395.905 289.052 395.823 285.707 395.486 282.383C394.972 277.757 394.006 273.193 392.601 268.756C388.243 254.331 386.094 247.149 381.552 240.888C377.808 235.732 373.572 229.839 366.574 229.041C365.96 228.98 358.901 228.304 354.727 233.215C351.842 236.652 352.027 240.888 352.087 243.715C352.271 249.115 354.358 252.984 357.612 258.938C360.865 264.831 362.154 265.567 366.022 272.565C371.301 282.141 370.749 283.065 370.503 283.307C369.459 284.228 365.285 281.343 364.365 280.668C363.044 279.764 361.829 278.714 360.743 277.537C355.955 272.197 353.131 264.155 353.131 264.155C349.684 257.329 346.61 250.321 343.923 243.162C344.705 240.066 346.036 237.134 347.852 234.507C349.939 231.561 352.272 229.535 352.824 225.852C353.011 224.714 353.011 223.553 352.824 222.415C353.381 221.938 353.753 221.28 353.872 220.556C353.992 219.833 353.852 219.09 353.478 218.459C353.104 217.828 352.519 217.35 351.827 217.108C351.134 216.866 350.379 216.876 349.693 217.136C349.647 216.518 349.433 215.924 349.073 215.418C348.714 214.913 348.223 214.515 347.654 214.269C347.085 214.022 346.46 213.936 345.845 214.02C345.231 214.103 344.651 214.353 344.168 214.742C342.901 213.679 341.335 213.036 339.687 212.9C338.398 212.839 337.787 213.146 334.715 213.7C333.561 214.002 332.393 214.246 331.215 214.43V214.43Z" fill="white"/>
<path d="M346.623 240.334C348.32 236.295 350.332 232.396 352.639 228.671C353.805 226.707 355.156 224.251 353.56 222.103C349.938 217.438 345.028 223.392 343.493 226.461C342.941 227.505 344.537 228.425 345.093 227.382C346.014 225.54 347.057 223.269 349.206 222.655C349.8 222.37 350.481 222.326 351.106 222.532C351.29 223.944 351.474 225.356 351.72 226.767C351.252 227.768 350.676 228.715 350.001 229.591C348.079 232.862 346.397 236.267 344.968 239.781C344.416 240.947 346.196 241.381 346.625 240.333L346.623 240.334Z" fill="black"/>
<path d="M326.55 248.253C325.62 241.683 325.516 235.022 326.243 228.426C326.918 222.41 328.207 213.264 336.555 214.983C337.721 215.229 338.212 213.448 337.046 213.203C330.478 211.853 326.365 216.518 325.26 222.472C323.655 231.142 323.489 240.017 324.77 248.741C324.954 249.907 326.734 249.416 326.55 248.25V248.253Z" fill="black"/>
<path d="M334.223 219.955C334.807 218.292 335.726 216.767 336.923 215.474C339.133 213.326 341.956 214.492 344.35 215.658C345.394 216.21 346.314 214.614 345.271 214.058C342.754 212.769 339.931 211.541 337.23 212.958C334.897 214.186 333.67 216.702 332.688 218.974C332.197 220.14 333.788 221.061 334.223 219.956V219.955Z" fill="black"/>
<path d="M339.687 220.507C341.958 217.561 344.966 214.491 348.895 216.824C349.107 216.946 349.359 216.979 349.596 216.915C349.832 216.852 350.033 216.697 350.155 216.485C350.278 216.272 350.31 216.02 350.247 215.784C350.183 215.548 350.028 215.346 349.816 215.224C345.151 212.462 341.222 215.47 338.399 219.153C337.662 220.135 338.951 221.424 339.688 220.503L339.687 220.507Z" fill="black"/>
<path d="M343.799 221.858C344.882 220.533 346.244 219.464 347.789 218.727C349.689 217.927 353.189 218.42 352.454 221.305C352.4 221.537 352.438 221.782 352.56 221.987C352.682 222.192 352.878 222.342 353.108 222.405C353.338 222.469 353.584 222.441 353.794 222.327C354.003 222.214 354.161 222.023 354.234 221.796C354.377 221.214 354.396 220.608 354.291 220.018C354.185 219.427 353.958 218.866 353.623 218.368C353.287 217.871 352.852 217.45 352.344 217.131C351.836 216.812 351.267 216.603 350.674 216.517C347.298 215.903 344.658 218.359 342.51 220.568C341.71 221.427 343.001 222.716 343.799 221.857V221.858Z" fill="black"/>
<path d="M344.537 239.413C342.389 244.013 345.028 248.682 346.87 252.913C349.35 258.906 352.221 264.729 355.464 270.346C359.764 277.589 369.091 290.603 378.851 283.175C379.772 282.438 378.851 280.842 377.93 281.575C368.538 288.757 359.822 274.275 356.016 267.575C353.806 263.646 351.842 259.595 350 255.482C348.158 251.369 344.046 244.924 346.194 240.32C346.624 239.277 345.028 238.294 344.537 239.399V239.413Z" fill="black"/>
<path d="M352.454 234.748C347.054 253.102 363.626 267.343 369.703 283.057C370.133 284.157 371.913 283.671 371.483 282.566C365.59 267.343 349.017 252.979 354.234 235.239C354.288 235.007 354.25 234.762 354.128 234.557C354.006 234.352 353.81 234.202 353.58 234.139C353.35 234.076 353.104 234.104 352.894 234.217C352.685 234.331 352.527 234.521 352.454 234.748V234.748Z" fill="black"/>
<path d="M324.709 247.762C327.866 264.99 335.13 281.203 345.886 295.027C351.104 301.656 357.058 308.102 365.286 310.803C372.286 313.074 381.921 314.24 388.428 310.003C395.548 305.461 396.469 296.192 396.776 288.519C396.837 287.353 394.996 287.353 394.935 288.519C394.567 298.402 392.357 309.328 380.635 310.74C369.835 312.029 359.765 307.732 352.46 299.94C338.894 285.515 329.994 266.67 326.433 247.273C326.31 246.107 324.533 246.598 324.714 247.764L324.709 247.762Z" fill="black"/>
<path d="M353.682 237.204C355.646 229.347 365.099 228.794 370.992 232.232C377.008 235.732 381.12 242.053 384.128 248.132C387.126 254.618 389.669 261.305 391.74 268.143C394.257 275.877 396.16 283.98 394.871 292.143C394.687 293.309 396.471 293.8 396.651 292.634C398.124 283.304 395.792 274.28 392.784 265.441C390.022 257.4 387.321 249.113 382.717 241.87C378.85 235.732 373.08 229.348 365.468 228.304C359.575 227.504 353.314 230.698 351.841 236.714C351.795 236.951 351.841 237.197 351.969 237.402C352.098 237.607 352.299 237.756 352.533 237.818C352.766 237.88 353.015 237.852 353.228 237.738C353.441 237.624 353.604 237.434 353.682 237.205V237.204Z" fill="black"/>
<path opacity="0.1" d="M333.487 213.632C338.398 211.668 343.187 213.816 344.352 214.369C337.499 223.328 333.538 234.162 332.996 245.429C332.075 267.529 345.273 282.198 349.938 287.415C355.954 294.106 363.811 302.822 373.938 301.595C376.804 301.187 379.541 300.135 381.943 298.519C384.346 296.904 386.352 294.766 387.811 292.265C390.573 287.416 390.389 282.137 387.074 268.509C381.979 247.884 376.393 235.792 377.191 235.423C377.989 235.054 384.618 245.429 389.591 258.442C392.741 267.26 394.783 276.436 395.668 285.758C396.589 295.027 395.791 298.833 393.888 302.209C391.678 305.95 388.32 308.878 384.312 310.557C376.885 313.688 369.764 311.478 366.388 310.311C354.295 306.26 347.85 296.438 341.343 286.556C331.337 271.271 328.575 258.197 325.936 245.613C324.094 236.897 322.867 226.768 327.471 219.341C328.74 216.788 330.871 214.765 333.487 213.632Z" fill="#494949"/>
<path d="M244.849 183.739C244.665 186.624 245.708 189.877 247.918 196.384C250.373 203.684 253.013 211.484 259.642 219.157C263.878 224.068 269.034 230.083 277.812 231.802C283.117 232.749 288.584 232.109 293.526 229.96C294.28 231.979 295.204 233.929 296.288 235.791C298.854 240.259 302.202 244.23 306.171 247.515C310.064 247.109 313.733 245.501 316.671 242.915C318.989 240.682 320.772 237.954 321.889 234.935C322.744 232.969 323.363 230.909 323.731 228.797C321.595 227.525 319.634 225.979 317.9 224.197C313.375 219.474 310.473 213.432 309.613 206.948C310.413 199.889 311.27 192.768 312.068 185.709C313.662 185.969 315.297 185.642 316.668 184.788C318.568 183.499 318.939 181.351 319.43 178.957C320.239 176.008 320.132 172.882 319.123 169.995C318.509 168.46 316.545 163.55 312.371 163.243C309.547 162.997 306.662 164.9 305.005 167.843C301.445 164.406 293.833 158.329 283.152 157.343C264.676 155.625 245.895 170.05 244.849 183.739Z" fill="white"/>
<path d="M272.104 211.791C271.613 213.08 273.025 214.922 274.068 215.842C276.953 218.359 282.048 218.236 285.731 216.517C290.887 214.123 292.545 208.967 293.281 206.634C294.14 204.056 295.245 200.68 293.465 197.672C292.259 195.761 290.372 194.379 288.186 193.805C287.143 195.953 286.345 197.549 285.731 198.593C285.203 199.462 284.731 200.364 284.319 201.293C283.931 202.335 283.415 203.324 282.784 204.239C280.618 207.002 277.759 209.141 274.497 210.439C273.392 210.686 272.41 210.932 272.104 211.791Z" fill="black"/>
<path d="M245.832 191.104C250.681 206.266 256.758 223.944 272.411 231.065C278.795 233.95 286.411 234.502 292.911 231.679C300.211 228.548 304.511 221.305 307.459 214.307C311.313 205.159 312.994 195.241 312.37 185.334C312.309 184.168 310.47 184.168 310.528 185.334C311.18 195.668 309.261 206.002 304.942 215.412C300.707 224.558 294.016 231.863 283.274 231.74C261.667 231.494 252.889 207.678 247.487 190.674C247.465 190.558 247.42 190.448 247.354 190.351C247.288 190.253 247.203 190.171 247.104 190.107C247.005 190.044 246.893 190.002 246.777 189.984C246.661 189.966 246.542 189.972 246.428 190.001C246.314 190.031 246.208 190.083 246.115 190.156C246.022 190.228 245.945 190.319 245.889 190.423C245.833 190.526 245.799 190.64 245.789 190.757C245.779 190.874 245.793 190.992 245.83 191.104H245.832Z" fill="black"/>
<path d="M305.681 169.559C305.742 165.876 309.548 163.666 312.924 164.71C316.055 165.754 318.019 168.823 318.694 171.892C319.281 174.959 319.091 178.125 318.142 181.1C317.405 183.433 316.485 184.66 313.661 184.66C312.679 184.66 311.697 184.292 310.653 184.292C310.418 184.306 310.197 184.408 310.035 184.58C309.874 184.751 309.784 184.977 309.784 185.213C309.784 185.448 309.874 185.675 310.035 185.846C310.197 186.017 310.418 186.12 310.653 186.133C312.74 186.133 314.766 187.115 316.791 186.072C318.199 185.228 319.248 183.895 319.737 182.328C321.337 178.154 321.517 172.507 319.491 168.394C317.834 165.018 314.273 162.133 310.345 162.563C308.599 162.721 306.972 163.515 305.773 164.794C304.573 166.072 303.885 167.747 303.838 169.499C303.841 169.736 303.936 169.963 304.102 170.132C304.268 170.302 304.492 170.4 304.729 170.408C304.966 170.416 305.197 170.332 305.374 170.174C305.551 170.016 305.66 169.796 305.679 169.56L305.681 169.559Z" fill="black"/>
<path d="M309.302 203.198C309.199 208.207 310.254 213.173 312.383 217.708C314.512 222.243 317.659 226.226 321.579 229.347C322.5 230.084 323.789 228.795 322.868 228.058C319.119 225.108 316.108 221.326 314.073 217.011C312.038 212.697 311.035 207.967 311.144 203.198C311.133 202.961 311.031 202.738 310.86 202.574C310.688 202.41 310.46 202.319 310.223 202.319C309.986 202.319 309.758 202.41 309.586 202.574C309.415 202.738 309.313 202.961 309.302 203.198V203.198Z" fill="black"/>
<path d="M293.465 230.697C295.761 237.094 299.623 242.813 304.698 247.332C305.557 248.132 306.908 246.841 305.987 246.043C301.128 241.743 297.416 236.3 295.187 230.206C294.819 229.106 293.039 229.592 293.468 230.697H293.465Z" fill="black"/>
<path d="M305.128 247.946C310.407 249.846 315.686 245.368 318.939 241.623C322.376 237.694 325.384 232.6 323.911 227.259C323.838 227.032 323.68 226.842 323.471 226.728C323.261 226.615 323.015 226.587 322.785 226.65C322.555 226.713 322.359 226.863 322.237 227.068C322.115 227.273 322.077 227.518 322.131 227.75C323.359 232.415 320.596 236.958 317.589 240.334C314.765 243.526 310.162 247.823 305.558 246.165C304.515 245.735 304.023 247.515 305.128 247.945V247.946Z" fill="black"/>
<path d="M252.702 184.659C251.902 182.388 253.746 179.932 255.096 178.336C257.122 175.819 260.252 175.144 262.585 177.722C265.285 180.668 266.022 185.947 266.391 189.753C266.637 192.392 265.716 195.769 267.25 198.101C268.907 200.618 271.977 202.091 274.862 202.643C276.028 202.889 276.519 201.108 275.353 200.863C273.848 200.587 272.41 200.024 271.117 199.206C268.907 197.733 268.417 196.137 268.355 193.497C268.344 191.238 268.18 188.982 267.864 186.745C267.25 183.001 266.207 178.213 263.137 175.696C261.998 174.668 260.516 174.104 258.982 174.115C257.448 174.126 255.973 174.712 254.85 175.757C252.456 177.844 249.694 181.834 250.86 185.087C251.351 186.253 253.131 185.762 252.701 184.657L252.702 184.659Z" fill="black"/>
<path d="M269.71 171.396C269.768 169.782 270.334 168.227 271.328 166.954C272.322 165.68 273.692 164.753 275.244 164.304C276.795 163.855 278.449 163.907 279.97 164.453C281.49 164.999 282.799 166.011 283.71 167.345C284.385 168.327 285.981 167.406 285.31 166.424C284.19 164.749 282.567 163.473 280.675 162.779C278.784 162.084 276.72 162.008 274.783 162.561C272.845 163.114 271.132 164.267 269.891 165.854C268.651 167.442 267.945 169.382 267.877 171.396C267.816 172.562 269.657 172.562 269.719 171.396H269.71Z" fill="black"/>
<path d="M261.362 189.57C260.511 188.454 260.018 187.105 259.95 185.703C259.459 185.949 259.029 186.255 258.538 186.503C259.214 186.932 259.764 187.534 260.131 188.246C260.497 188.958 260.668 189.754 260.625 190.554C260.999 190.248 261.388 189.961 261.791 189.695C261.033 189.404 260.4 188.86 259.997 188.155C259.594 187.451 259.447 186.629 259.581 185.828C259.151 186.012 258.66 186.196 258.231 186.38C258.984 186.816 259.601 187.454 260.011 188.222C260.198 188.588 260.322 188.982 260.379 189.388C260.379 189.695 260.379 189.327 260.318 189.204C260.195 188.958 260.072 188.774 259.95 188.529C259.459 187.429 257.863 188.406 258.35 189.45C258.486 189.924 258.754 190.35 259.124 190.676C259.494 191.002 259.95 191.216 260.437 191.291C260.876 191.333 261.313 191.202 261.658 190.927C262.002 190.652 262.226 190.254 262.283 189.817C262.467 187.791 260.871 185.766 259.214 184.845C259.093 184.77 258.956 184.724 258.814 184.712C258.672 184.701 258.53 184.722 258.398 184.776C258.266 184.83 258.149 184.914 258.056 185.022C257.964 185.13 257.898 185.259 257.864 185.397C257.624 186.669 257.844 187.985 258.485 189.11C259.127 190.234 260.147 191.094 261.364 191.535C261.499 191.575 261.64 191.582 261.778 191.558C261.916 191.534 262.047 191.478 262.16 191.395C262.273 191.311 262.365 191.203 262.429 191.079C262.493 190.954 262.528 190.816 262.53 190.676C262.574 189.553 262.318 188.438 261.79 187.446C261.261 186.454 260.479 185.62 259.522 185.029C259.379 184.954 259.219 184.916 259.058 184.918C258.896 184.92 258.738 184.964 258.597 185.043C258.457 185.123 258.338 185.237 258.253 185.374C258.168 185.511 258.119 185.668 258.11 185.829C258.164 187.556 258.742 189.226 259.767 190.617C260.504 191.476 262.099 190.556 261.367 189.573L261.362 189.57Z" fill="black"/>
<path d="M278.549 177.722C278.229 177.349 277.999 176.908 277.874 176.433C277.874 176.31 277.751 175.574 277.874 175.512C277.997 175.45 278.304 176.433 278.365 176.494C278.491 176.991 278.425 177.517 278.181 177.967C278.603 177.836 279.034 177.733 279.47 177.66C278.74 177.261 278.153 176.645 277.79 175.897C277.427 175.149 277.306 174.306 277.444 173.486C276.953 173.732 276.523 174.038 276.032 174.286C276.867 174.623 277.555 175.248 277.971 176.046C278.387 176.845 278.505 177.766 278.303 178.644C278.671 178.46 279.04 178.214 279.403 178.03C278.939 177.875 278.525 177.601 278.202 177.234C277.878 176.868 277.658 176.422 277.562 175.943C277.562 175.882 277.562 175.329 277.501 175.329C277.363 175.402 277.219 175.463 277.071 175.513C277.132 175.636 277.255 175.82 277.317 175.943C277.533 176.616 277.595 177.329 277.501 178.03C278.053 177.785 278.545 177.6 279.101 177.355C278.543 176.939 278.1 176.389 277.812 175.755C277.26 174.711 275.664 175.632 276.212 176.676C276.602 177.436 277.147 178.105 277.812 178.64C277.945 178.768 278.113 178.854 278.295 178.888C278.477 178.922 278.664 178.901 278.834 178.83C279.005 178.758 279.15 178.638 279.253 178.484C279.355 178.33 279.411 178.15 279.412 177.965C279.528 177.301 279.506 176.621 279.348 175.966C279.189 175.311 278.898 174.696 278.491 174.159C278.325 173.963 278.112 173.812 277.873 173.718C277.634 173.624 277.375 173.591 277.12 173.621C276.864 173.651 276.621 173.744 276.41 173.892C276.2 174.039 276.029 174.237 275.913 174.466C274.931 176.614 277.013 179.131 278.921 179.806C279.033 179.844 279.152 179.857 279.271 179.846C279.389 179.835 279.503 179.799 279.606 179.742C279.71 179.684 279.8 179.605 279.872 179.511C279.943 179.416 279.994 179.307 280.021 179.192C280.355 177.921 280.223 176.572 279.649 175.39C279.075 174.208 278.096 173.27 276.89 172.747C276.747 172.672 276.587 172.634 276.426 172.636C276.264 172.638 276.106 172.682 275.965 172.761C275.825 172.841 275.706 172.955 275.621 173.092C275.536 173.229 275.487 173.386 275.478 173.547C275.347 174.692 275.556 175.85 276.08 176.877C276.604 177.903 277.42 178.752 278.424 179.317C278.638 179.436 278.89 179.471 279.128 179.414C279.367 179.357 279.575 179.213 279.713 179.01C280.231 177.913 280.298 176.656 279.897 175.51C279.529 174.589 278.731 173.61 277.687 173.73C274.987 174.037 276.152 177.904 277.257 179.13C278.057 179.93 279.344 178.578 278.546 177.718L278.549 177.722Z" fill="black"/>
<path d="M294.57 230.512C294.57 230.573 294.57 230.573 294.509 230.635C294.877 230.451 295.246 230.205 295.609 230.021C295.548 230.021 295.486 229.96 295.425 229.96C295.609 230.39 295.793 230.881 295.977 231.31C296.1 231.064 297.757 230.266 298.248 229.837C299.337 228.85 300.305 227.737 301.133 226.522C302.981 224.011 304.488 221.265 305.614 218.358C305 218.174 304.448 218.051 303.834 217.867C301.992 223.146 300.703 230.512 295.547 233.643L296.836 234.932C298.064 233.091 299.291 231.188 300.519 229.346C300.62 229.15 300.648 228.925 300.599 228.71C300.549 228.495 300.425 228.305 300.248 228.173C300.071 228.041 299.854 227.976 299.634 227.989C299.414 228.003 299.205 228.094 299.046 228.246C298.064 229.29 297.02 230.394 296.038 231.438L297.327 232.727C298.248 231.627 299.107 230.456 299.905 229.29C300.519 228.431 299.168 227.39 298.432 228.19C297.633 229.076 296.675 229.804 295.608 230.338C296.099 230.584 296.529 230.89 297.02 231.138C297.02 230.954 296.959 230.77 296.959 230.586C296.836 229.42 294.995 229.42 295.117 230.586C295.117 230.77 295.178 230.954 295.178 231.138C295.183 231.301 295.231 231.46 295.315 231.599C295.399 231.738 295.518 231.854 295.66 231.934C295.801 232.014 295.961 232.057 296.124 232.058C296.287 232.058 296.448 232.017 296.59 231.938C297.781 231.3 298.86 230.471 299.782 229.483L298.309 228.383C297.572 229.427 296.836 230.47 296.038 231.452C295.301 232.373 296.529 233.662 297.327 232.741C298.309 231.697 299.353 230.593 300.335 229.549L298.862 228.449C297.634 230.291 296.407 232.193 295.179 234.035C295.085 234.215 295.052 234.421 295.083 234.622C295.114 234.822 295.208 235.008 295.351 235.152C295.495 235.295 295.681 235.389 295.882 235.42C296.082 235.451 296.288 235.418 296.468 235.324C302.115 231.887 303.588 224.275 305.614 218.444C305.982 217.278 304.264 216.909 303.834 217.953C302.589 221.133 300.849 224.095 298.678 226.731C297.634 227.959 295.978 228.631 294.995 229.739C294.749 229.985 294.504 230.046 294.381 230.353C294.309 230.475 294.266 230.611 294.256 230.752C294.245 230.893 294.268 231.035 294.321 231.165C294.375 231.296 294.458 231.413 294.564 231.506C294.67 231.6 294.796 231.667 294.933 231.703C294.994 231.703 295.056 231.764 295.117 231.764C295.23 231.798 295.348 231.809 295.464 231.796C295.581 231.783 295.694 231.747 295.797 231.69C295.899 231.632 295.989 231.555 296.062 231.462C296.134 231.37 296.187 231.264 296.217 231.15C296.217 231.089 296.217 231.089 296.278 231.027C296.769 229.927 294.989 229.427 294.559 230.536L294.57 230.512Z" fill="black"/>
<path d="M301.385 228.671C301.912 228.12 302.29 227.444 302.485 226.707C302.792 225.607 301.385 225.234 300.828 225.97L296.961 231.126C296.224 232.047 297.82 232.968 298.561 232.047L302.428 226.891L300.771 226.154C300.654 226.583 300.444 226.981 300.157 227.32C299.298 228.302 300.648 229.591 301.385 228.67V228.671Z" fill="black"/>
<path d="M273.024 213.448C271.305 210.011 273.147 208.721 276.584 207.801C277.003 207.715 277.414 207.592 277.812 207.433C279.197 206.647 280.245 205.381 280.758 203.873C281.74 201.786 282.293 199.515 283.582 197.612C286.282 193.499 291.071 193.683 292.605 198.594C294.139 203.505 292.237 208.968 288.983 212.712C287.432 214.653 285.4 216.156 283.09 217.07C282.154 217.406 281.159 217.547 280.167 217.484C279.174 217.42 278.206 217.154 277.32 216.702C275.908 216.088 273.33 214.86 272.962 213.265C272.716 212.099 270.936 212.59 271.182 213.756C271.857 216.948 276.645 218.912 279.53 219.342C282.661 219.833 285.607 218.298 288.001 216.334C293.341 211.914 296.656 204.119 294.078 197.366C291.316 190.066 283.827 192.766 281.065 198.532C280.206 200.312 279.776 203.32 278.365 204.609C276.585 206.266 274.314 205.653 272.472 206.942C269.894 208.784 270.139 212.037 271.428 214.554C271.981 215.475 273.576 214.554 273.028 213.454L273.024 213.448Z" fill="black"/>
<path d="M271.796 211.546C281.31 211.3 285.914 202.461 288.001 194.359C288.066 194.123 288.035 193.871 287.914 193.658C287.793 193.445 287.593 193.289 287.356 193.224C287.12 193.158 286.868 193.19 286.655 193.311C286.442 193.432 286.286 193.632 286.221 193.868C284.38 201.111 280.39 209.459 271.796 209.705C270.63 209.766 270.63 211.605 271.796 211.546V211.546Z" fill="black"/>
<path d="M246.568 190.122C245.468 190.736 238.768 183.431 235.949 173.671C234.337 167.999 234.085 162.026 235.212 156.238C236.37 152.713 237.892 149.319 239.754 146.11C248.47 131.132 262.22 124.073 269.341 121.065C267.556 122.756 265.951 124.628 264.553 126.651C262.687 129.227 261.16 132.033 260.011 134.999C262.259 133.103 264.616 131.341 267.07 129.72C272.163 126.308 277.593 123.428 283.275 121.126C282.538 124.257 281.74 127.387 281.004 130.456C282.723 129.474 285.117 128.062 288.063 126.65C291.316 125.115 298.007 121.923 299.051 123.335C299.358 123.765 298.99 124.256 298.437 126.035C297.871 127.852 297.502 129.725 297.337 131.621C299.449 131.274 301.582 131.069 303.721 131.007C306.056 130.908 308.395 130.969 310.721 131.191C309.984 134.015 309.248 136.777 308.511 139.601C310.574 140.405 312.5 141.523 314.22 142.916C318.358 146.395 321.139 151.219 322.077 156.543C322.756 161.212 322.185 165.978 320.42 170.354C317.474 164.093 311.642 161.638 308.327 163.172C307.071 163.824 306.022 164.812 305.295 166.026C304.569 167.24 304.195 168.632 304.214 170.047C304.269 170.639 304.414 171.218 304.644 171.766C301.692 169.077 298.461 166.71 295.007 164.707C290.772 162.252 286.045 159.489 279.784 158.691C267.998 157.156 258.791 163.602 256.335 165.382C252.529 168.082 246.33 172.441 245.225 179.382C244.113 185.211 247.428 189.692 246.568 190.122Z" fill="#0EF8F6"/>
<path opacity="0.11" d="M293.281 163.175C296.05 169.369 298.03 175.887 299.174 182.575C300.647 190.923 302.489 201.665 298.008 213.575C295.132 221.027 290.399 227.62 284.258 232.727C287.471 232.648 290.622 231.829 293.466 230.333C297.674 228.097 301.004 224.506 302.919 220.143C306.933 224.027 310.218 228.6 312.619 233.643C314.063 236.665 315.175 239.834 315.934 243.096C318.863 240.514 320.992 237.148 322.072 233.396C322.555 231.699 322.803 229.943 322.809 228.178C320.09 226.673 317.675 224.675 315.688 222.285C311.908 217.407 309.896 211.391 309.979 205.22C310.102 201.783 310.838 201.72 311.391 196.442C311.766 192.666 311.766 188.862 311.391 185.086C314.522 186.375 316.118 185.761 316.854 185.332C318.266 184.473 318.634 182.938 319.923 175.142C320.598 170.968 320.967 168.881 321.089 167.776C321.826 161.822 322.189 158.814 321.826 156.42C320.962 151.537 318.552 147.061 314.951 143.652C313.024 141.778 310.779 140.261 308.322 139.171C309.059 136.593 309.734 133.953 310.47 131.371C307.746 134.555 304.747 137.492 301.508 140.149C295.983 144.569 292.792 145.612 288.986 149.849C286.602 152.502 284.673 155.53 283.277 158.811C286.655 160.351 289.966 161.763 293.281 163.175Z" fill="#494949"/>
<path opacity="0.17" d="M267.991 121.741C263.711 123.644 260.083 126.76 257.556 130.703C255.764 133.569 254.632 136.798 254.241 140.156C253.811 144 254.294 147.891 255.653 151.512C256.019 143.844 258.208 136.374 262.037 129.721C263.746 126.866 265.741 124.192 267.991 121.741V121.741Z" fill="#494949"/>
<path opacity="0.08" d="M311.389 185.396C311.205 185.335 310.837 186.01 309.489 190.675C307.648 196.998 306.665 201.663 306.113 203.995C304.982 208.771 303.421 213.435 301.448 217.929C305.806 218.788 310.164 219.648 314.523 220.446C312.346 215.767 310.917 210.775 310.287 205.653C309.118 194.911 312.003 185.519 311.389 185.396Z" fill="#494949"/>
</svg>
