<svg width="22" height="20" viewBox="0 0 22 20" fill="none" xmlns="http://www.w3.org/2000/svg">
<path d="M6.33159 1.32422H15.4526C16.6629 1.32422 17.8235 1.78094 18.6793 2.59391C19.535 3.40688 20.0158 4.50951 20.0158 5.65922V14.3242C20.0164 14.8938 19.8987 15.458 19.6697 15.9844C19.4406 16.5108 19.1046 16.9891 18.6808 17.3921C18.257 17.7951 17.7538 18.1147 17.1999 18.3329C16.646 18.551 16.0522 18.6632 15.4526 18.6632H6.33159C5.732 18.6632 5.13828 18.551 4.58437 18.3329C4.03047 18.1147 3.52725 17.7951 3.10346 17.3921C2.67968 16.9891 2.34365 16.5108 2.11458 15.9844C1.8855 15.458 1.76788 14.8938 1.76843 14.3242V5.65922C1.76843 4.50951 2.24919 3.40688 3.10495 2.59391C3.96071 1.78094 5.12137 1.32422 6.33159 1.32422V1.32422Z" stroke="black" stroke-width="2" stroke-linecap="round" stroke-linejoin="round"/>
<path d="M14.5442 9.44728C14.6568 10.1688 14.527 10.9057 14.1733 11.5532C13.8197 12.2006 13.2601 12.7256 12.5743 13.0536C11.8884 13.3815 11.1112 13.4956 10.3531 13.3797C9.59505 13.2639 8.89474 12.9238 8.35181 12.408C7.80888 11.8923 7.45096 11.227 7.32897 10.5068C7.20697 9.78664 7.32711 9.04826 7.6723 8.3967C8.01749 7.74514 8.57015 7.21356 9.25167 6.87758C9.93319 6.5416 10.7089 6.41832 11.4684 6.52528C12.2432 6.63439 12.9606 6.97737 13.5144 7.50355C14.0683 8.02973 14.4293 8.7112 14.5442 9.44728V9.44728Z" stroke="black" stroke-width="2" stroke-linecap="round" stroke-linejoin="round"/>
</svg>
