<svg width="22" height="20" fill="none" xmlns="http://www.w3.org/2000/svg"><path d="M6.332 1.324h9.12c1.21 0 2.371.457 3.227 1.27a4.228 4.228 0 0 1 1.337 3.065v8.665c0 .57-.117 1.134-.346 1.66a4.328 4.328 0 0 1-.99 1.408 4.587 4.587 0 0 1-1.48.94 4.773 4.773 0 0 1-1.747.331H6.332c-.6 0-1.194-.112-1.748-.33a4.587 4.587 0 0 1-1.48-.94 4.327 4.327 0 0 1-.99-1.409 4.148 4.148 0 0 1-.346-1.66V5.66c0-1.15.481-2.252 1.337-3.065a4.688 4.688 0 0 1 3.227-1.27Z" stroke="#000" stroke-width="2" stroke-linecap="round" stroke-linejoin="round"/><path d="M14.544 9.447a3.317 3.317 0 0 1-.37 2.106 3.569 3.569 0 0 1-1.6 1.5 3.82 3.82 0 0 1-2.22.327 3.72 3.72 0 0 1-2.002-.972 3.41 3.41 0 0 1-1.023-1.901 3.315 3.315 0 0 1 .343-2.11 3.561 3.561 0 0 1 1.58-1.52 3.819 3.819 0 0 1 2.216-.352c.775.11 1.493.452 2.046.979a3.408 3.408 0 0 1 1.03 1.943Z" stroke="#000" stroke-width="2" stroke-linecap="round" stroke-linejoin="round"/></svg>