<svg xmlns="http://www.w3.org/2000/svg" width="335.289" height="380.709" viewBox="0 0 335.289 380.709">
  <g id="Inspiration" transform="translate(-36.748 -18.735)">
    <g id="WOMAN_1_HAIR_1_" transform="translate(278.516 81.07)">
      <path id="Path_2410" data-name="Path 2410" d="M250.155,72.793s2.877,13.858,13.082,17.155c0,0-1.306,10.924-15.514,12.179s-19.206-6.219-19.206-6.219,7.24-5.321,4.524-16.578S247.283,64.442,250.155,72.793Z" transform="translate(-228.517 -68.224)" fill="#66fcf1"/>
    </g>
    <g id="WOMAN_1_LEFT_ARM_1_" transform="translate(311.529 27.174)">
      <g id="Group_3180" data-name="Group 3180">
        <g id="Group_3178" data-name="Group 3178" transform="translate(27.265)">
          <path id="Path_2411" data-name="Path 2411" d="M283.419,49.719l-.109-2.569-6.687-10.129a1.209,1.209,0,0,1-.1-1.485h0a1.209,1.209,0,0,1,1.54-.4l5.509,3.535,5.6-5.935,4.648-6.75a1.146,1.146,0,0,1,1.431-.388h0a1.146,1.146,0,0,1,.566,1.492l-.344.8h0a2.269,2.269,0,0,1,.722,2.207l-.085.376.266.346a2.269,2.269,0,0,1,.455,1.114l.455,3.8a4.857,4.857,0,0,1-1.112,3.712l-1.49,1.765L289.8,44.561l.006,5.3Z" transform="translate(-276.315 -25.488)" fill="#fff"/>
        </g>
        <g id="Group_3179" data-name="Group 3179" transform="translate(41.091 2.722)">
          <path id="Path_2412" data-name="Path 2412" d="M292.315,31.94l-.319.091a1.5,1.5,0,0,0-1.087,1.5l.04,1.072a1.5,1.5,0,0,1-.552,1.218l-1.307,1.062" transform="translate(-286.805 -26.525)" fill="none" stroke="#404b7c" stroke-linecap="round" stroke-linejoin="round" stroke-miterlimit="10" stroke-width="0.589"/>
          <line id="Line_87" data-name="Line 87" x2="0.99" y2="6.5" transform="translate(0 4.598)" fill="none" stroke="#404b7c" stroke-linecap="round" stroke-linejoin="round" stroke-miterlimit="10" stroke-width="0.589"/>
          <path id="Path_2413" data-name="Path 2413" d="M291.387,29.806l-.663.305a1.5,1.5,0,0,0-.8,1.8h0q.014.044.024.088l.714,2.914" transform="translate(-286.606 -27.082)" fill="none" stroke="#404b7c" stroke-linecap="round" stroke-linejoin="round" stroke-miterlimit="10" stroke-width="0.589"/>
          <path id="Path_2414" data-name="Path 2414" d="M291.047,27.646l-.37.168a1.5,1.5,0,0,0-.818,1.778l.435,1.331" transform="translate(-286.62 -27.646)" fill="none" stroke="#404b7c" stroke-linecap="round" stroke-linejoin="round" stroke-miterlimit="10" stroke-width="0.589"/>
        </g>
        <path id="Path_2415" data-name="Path 2415" d="M298.378,44.16l-10.3-.667-9.364,41.813L258.443,98.781s-7.507,6.845-1.271,14.548,14.033,1.188,14.033,1.188l18.8-19.494a15.754,15.754,0,0,0,4.341-9.413Z" transform="translate(-254.695 -20.786)" fill="#ff2d26"/>
      </g>
    </g>
    <g id="WOMAN_1_LEFT_LEG_1_" transform="translate(256.759 182.797)">
      <g id="Group_3183" data-name="Group 3183">
        <g id="Group_3181" data-name="Group 3181" transform="translate(0 128.833)">
          <path id="Path_2416" data-name="Path 2416" d="M228.692,251.045c-.313.275-4.7,8.51-4.7,8.51l4.368,3.168,5.406-6.952Z" transform="translate(-207.942 -251.045)" fill="#fff"/>
          <path id="Path_2417" data-name="Path 2417" d="M233.178,263.079l-5.649-8.73-12.026,7.3-3.2,1.945,4.777,18.176,9.932-3.45S228.686,268.482,233.178,263.079Z" transform="translate(-210.996 -250.182)" fill="#f68d88"/>
          <path id="Path_2418" data-name="Path 2418" d="M215.774,259.5l-4.508,2.271,6.777,27.435s6.514-.948,8.849-4.16,1.476-9.652,1.476-9.652l-8.144,2.644Z" transform="translate(-211.265 -248.838)" fill="#66fcf1"/>
          <path id="Path_2419" data-name="Path 2419" d="M226.554,259.081s-4.777,6.211-5.981,11.924" transform="translate(-208.835 -248.946)" fill="none" stroke="#ecbdbb" stroke-linecap="round" stroke-linejoin="round" stroke-miterlimit="10" stroke-width="0.62"/>
        </g>
        <g id="Group_3182" data-name="Group 3182" transform="translate(19.085)">
          <path id="Path_2420" data-name="Path 2420" d="M289.834,148.888l-15.864,84.4a25.617,25.617,0,0,1-7.987,14.7l-32.163,38.626-7.421-7.905,28.392-46.191-5.2-52.236a25.617,25.617,0,0,1,2.9-12.637l9.791-18.756h27.552Z" transform="translate(-226.398 -148.888)" fill="#39a199"/>
          <path id="Path_2421" data-name="Path 2421" d="M231.146,273.812l26.092-42.625-4.322-57.205a9.991,9.991,0,0,1,1.321-5.127l6.242-10.892" transform="translate(-225.159 -146.518)" fill="none" stroke="#d4e6fc" stroke-linecap="round" stroke-linejoin="round" stroke-miterlimit="10" stroke-width="0.59"/>
          <line id="Line_88" data-name="Line 88" x1="6.367" y1="6.772" transform="translate(3.194 127.612)" fill="none" stroke="#d4e6fc" stroke-linecap="round" stroke-linejoin="round" stroke-miterlimit="10" stroke-width="0.59"/>
        </g>
      </g>
    </g>
    <g id="WOMAN_1_RIGHT_LEG_1_" transform="translate(272.569 184.79)">
      <g id="Group_3186" data-name="Group 3186">
        <g id="Group_3184" data-name="Group 3184" transform="translate(0 133.236)">
          <path id="Path_2422" data-name="Path 2422" d="M237.056,256.117c-.222.353-2.065,9.5-2.065,9.5l5.093,1.784,3.188-8.209Z" transform="translate(-220.88 -256.117)" fill="#fff"/>
          <path id="Path_2423" data-name="Path 2423" d="M244.758,266.986l-7.913-6.745-9.431,10.438L224.9,273.46l9.784,16.046,8.527-6.151S242,273.449,244.758,266.986Z" transform="translate(-223.515 -255.04)" fill="#ff2d26"/>
          <path id="Path_2424" data-name="Path 2424" d="M227.47,267.9,223.8,271.37l14.353,24.344s5.969-2.775,7.286-6.521-1.351-9.67-1.351-9.67l-7.045,4.866Z" transform="translate(-223.802 -253.039)" fill="#66fcf1"/>
          <path id="Path_2425" data-name="Path 2425" d="M237.119,264.5s-2.8,7.319-2.314,13.137" transform="translate(-220.943 -253.927)" fill="none" stroke="#ecbdbb" stroke-linecap="round" stroke-linejoin="round" stroke-miterlimit="10" stroke-width="0.62"/>
        </g>
        <g id="Group_3185" data-name="Group 3185" transform="translate(7.579)">
          <path id="Path_2426" data-name="Path 2426" d="M262.83,155.756l-.242,24.849,7.072,47.375a25.617,25.617,0,0,1-3.44,16.374l-19.749,46.222-9.374-5.448,13.968-52.389-19.943-48.558a25.617,25.617,0,0,1-.846-12.937l4.007-20.775Z" transform="translate(-229.812 -150.469)" fill="#39a199"/>
          <path id="Path_2427" data-name="Path 2427" d="M255.8,174.365l7.072,47.375a25.617,25.617,0,0,1-3.44,16.374" transform="translate(-223.025 -144.228)" fill="none" stroke="#d4e6fc" stroke-linecap="round" stroke-linejoin="round" stroke-miterlimit="10" stroke-width="0.59"/>
          <path id="Path_2428" data-name="Path 2428" d="M261.031,158.7l-1.255,16.372a3.669,3.669,0,0,1-2.191,3.082l-2.276.993V156.757" transform="translate(-223.153 -148.826)" fill="none" stroke="#d4e6fc" stroke-linecap="round" stroke-linejoin="round" stroke-miterlimit="10" stroke-width="0.59"/>
          <ellipse id="Ellipse_1007" data-name="Ellipse 1007" cx="9.158" cy="5.842" rx="9.158" ry="5.842" transform="matrix(0.197, -0.98, 0.98, 0.197, 24.956, 91.313)" fill="none" stroke="#d4e6fc" stroke-linecap="round" stroke-linejoin="round" stroke-miterlimit="10" stroke-width="0.59"/>
          <path id="Path_2429" data-name="Path 2429" d="M241.263,279.51,254.049,231.2l-20.53-53.569a9.991,9.991,0,0,1-.2-5.29l3.256-16.2" transform="translate(-228.965 -148.987)" fill="none" stroke="#d4e6fc" stroke-linecap="round" stroke-linejoin="round" stroke-miterlimit="10" stroke-width="0.59"/>
          <line id="Line_89" data-name="Line 89" x1="8.04" y1="4.664" transform="translate(9.712 131.628)" fill="none" stroke="#d4e6fc" stroke-linecap="round" stroke-linejoin="round" stroke-miterlimit="10" stroke-width="0.59"/>
          <path id="Path_2430" data-name="Path 2430" d="M244.593,157.373l-2.348,9.781a6.03,6.03,0,0,1-6.075,4.1l-2.736-.163" transform="translate(-228.866 -148.666)" fill="none" stroke="#d4e6fc" stroke-linecap="round" stroke-linejoin="round" stroke-miterlimit="10" stroke-width="0.59"/>
        </g>
      </g>
    </g>
    <g id="WOMAN_1_BODY_1_" transform="translate(278.934 104.619)">
      <g id="Group_3187" data-name="Group 3187" transform="translate(0 0)">
        <path id="Path_2431" data-name="Path 2431" d="M255.318,88.24c1.968-.155,7.443-.778,10.1-1.2,5.993-.944,9,2.785,11.025,8.5,3.356,9.469,7.8,22.485,7.538,24.374-.411,3.017-4.937,10.286-4.937,10.286L293.856,166a42.579,42.579,0,0,1-26.606,9.737c-16.458.274-38.4-8.092-38.4-8.092s11.246-30.721,11.383-34.15-8.5-21.532-8.915-29.212S255.318,88.24,255.318,88.24Z" transform="translate(-228.849 -86.897)" fill="#ff2d26"/>
        <path id="Path_2432" data-name="Path 2432" d="M259.817,86.918c4.382.33,6.816,3.756,8.541,8.623.642,1.812,1.324,3.753,2,5.722" transform="translate(-220.762 -86.892)" fill="none" stroke="#ecbdbb" stroke-linecap="round" stroke-linejoin="round" stroke-miterlimit="10" stroke-width="0.62"/>
        <path id="Path_2433" data-name="Path 2433" d="M288.313,147.882s-10.012,5.9-21.258,6.857-34.835-6.72-34.835-6.72" transform="translate(-227.968 -70.972)" fill="none" stroke="#ecbdbb" stroke-linecap="round" stroke-linejoin="round" stroke-miterlimit="10" stroke-width="0.62"/>
        <path id="Path_2434" data-name="Path 2434" d="M249.962,87.249c8.525-1.667,10.789,5.852,10.789,10.423a20.994,20.994,0,0,0-8.32-1.92,16.769,16.769,0,0,0-5.669,5.486S237.8,89.627,249.962,87.249Z" transform="translate(-225.002 -86.867)" fill="#9ab3da"/>
      </g>
    </g>
    <g id="WOMAN_1_NECK_1_" transform="translate(298.592 94.764)">
      <g id="Group_3188" data-name="Group 3188" transform="translate(0 0)">
        <path id="Path_2435" data-name="Path 2435" d="M244.436,79.083l.408,2.986,1.516,11,5.3,2.932,2.555-3.386L252.34,85.74l-1.047-3.825Z" transform="translate(-244.436 -79.083)" fill="#fff"/>
        <path id="Path_2436" data-name="Path 2436" d="M244.436,79.083l.408,2.986a10.8,10.8,0,0,0,7.5,3.671l-1.047-3.825Z" transform="translate(-244.436 -79.083)" fill="#ededed"/>
      </g>
    </g>
    <g id="WOMAN_1_HEAD_1_" transform="translate(282.803 72.65)">
      <g id="Group_3191" data-name="Group 3191">
        <path id="Path_2437" data-name="Path 2437" d="M250.6,68.045a26.146,26.146,0,0,1,7.444,9.965c2.564,6.261-2.192,8.85-8.075,8.638s-11.783-6.279-11.783-6.279-4.686-5.393-1.549-9.878A9.8,9.8,0,0,1,250.6,68.045Z" transform="translate(-230.966 -60.351)" fill="#fff"/>
        <path id="Path_2438" data-name="Path 2438" d="M238.974,73.435s8.768,2.762,15.793-3.922c.232-8.173-14.195-12.874-18.253.133-10.554,8.647-.493,18.893,5.859,14.756C242.373,84.4,243.986,79.84,238.974,73.435Z" transform="translate(-231.917 -61.548)" fill="#66fcf1"/>
        <g id="Group_3190" data-name="Group 3190" transform="translate(5.299 21.215)">
          <g id="Group_3189" data-name="Group 3189">
            <path id="Path_2439" data-name="Path 2439" d="M245.738,81.361l-3.826-2.61s-3.514-1.373-5.4,1.1S239.873,88.261,245.738,81.361Z" transform="translate(-236.119 -78.37)" fill="#fff"/>
            <path id="Path_2440" data-name="Path 2440" d="M237.5,80.692a8.44,8.44,0,0,1,5.758-.429" transform="translate(-235.757 -77.962)" fill="none" stroke="#000" stroke-linecap="round" stroke-linejoin="round" stroke-miterlimit="10" stroke-width="0.589"/>
            <path id="Path_2441" data-name="Path 2441" d="M240.189,82.39a7.649,7.649,0,0,1-.962-2.369" transform="translate(-235.307 -77.939)" fill="none" stroke="#000" stroke-linecap="round" stroke-linejoin="round" stroke-miterlimit="10" stroke-width="0.589"/>
          </g>
          <path id="Path_2442" data-name="Path 2442" d="M242.022,81.314c1.125-.429,2.625.768,3.35,2.672s.4,3.8-.724,4.224-2.625-.768-3.35-2.672a5.585,5.585,0,0,1-.385-2.115" transform="translate(-234.867 -77.624)" fill="none" stroke="#ff2d26" stroke-linecap="round" stroke-linejoin="round" stroke-miterlimit="10" stroke-width="0.589"/>
        </g>
      </g>
    </g>
    <g id="WOMAN_1_FACE_1_" transform="translate(294.251 81.358)">
      <g id="Group_3192" data-name="Group 3192">
        <path id="Path_2443" data-name="Path 2443" d="M241.085,75.116s-.659-2.927,1.572-3.414a.664.664,0,0,1,.065-.856c.406-.347,1.5.918,1.5.918A11.542,11.542,0,0,0,241.085,75.116Z" transform="translate(-240.994 -67.843)"/>
        <path id="Path_2444" data-name="Path 2444" d="M249.482,69.5s-1.852-2.025-2.6-.439c0,0-.35-.367-.652-.2-.523.3.373,1.6.373,1.6A4.856,4.856,0,0,1,249.482,69.5Z" transform="translate(-239.671 -68.453)"/>
        <path id="Path_2445" data-name="Path 2445" d="M246.8,73.6l1.664,2.157s1.562-1.167,1.887-.019c.319,1.128-1.12,1.744-1.12,1.744" transform="translate(-239.477 -67.108)" fill="none" stroke="#000" stroke-linecap="round" stroke-linejoin="round" stroke-miterlimit="10" stroke-width="0.586"/>
        <path id="Path_2446" data-name="Path 2446" d="M243.264,76.012a2.162,2.162,0,0,1,2.346-1.886" transform="translate(-240.402 -66.971)" fill="none" stroke="#000" stroke-linecap="round" stroke-linejoin="round" stroke-miterlimit="10" stroke-width="0.586"/>
        <path id="Path_2447" data-name="Path 2447" d="M250.009,71.2a1.734,1.734,0,0,0-2.045,1.281" transform="translate(-239.174 -67.746)" fill="none" stroke="#000" stroke-linecap="round" stroke-linejoin="round" stroke-miterlimit="10" stroke-width="0.586"/>
        <path id="Path_2448" data-name="Path 2448" d="M252.44,78.823a7.251,7.251,0,0,1-5.663,1.463c2.234-1.066,4.122-2.241,5-3.736Z" transform="translate(-239.484 -66.338)"/>
      </g>
    </g>
    <g id="WOMAN_1_RIGHT_ARM_1_" transform="translate(239.062 117.19)">
      <g id="Group_3193" data-name="Group 3193">
        <path id="Path_2449" data-name="Path 2449" d="M241.1,98.324c-3.921,2.38-15.387,30.647-15.387,30.647l-28.485,35.734,7.5,5.087s26.578-22,29.248-25.561,16.786-24.035,19.329-29.757S251.787,91.839,241.1,98.324Z" transform="translate(-197.232 -96.865)" fill="#ff2d26"/>
        <path id="Path_2450" data-name="Path 2450" d="M239.918,121.988a74.287,74.287,0,0,0,4.31-7.514c2.543-5.723-1.526-22.636-12.208-16.15" transform="translate(-188.148 -96.865)" fill="none" stroke="#ecbdbb" stroke-linecap="round" stroke-linejoin="round" stroke-miterlimit="10" stroke-width="0.62"/>
      </g>
    </g>
    <g id="PLANTS" transform="translate(86.49 309.069)">
      <g id="Group_3198" data-name="Group 3198">
        <g id="Group_3194" data-name="Group 3194" transform="translate(0 36.18)">
          <path id="Path_2451" data-name="Path 2451" d="M130.562,306.267S128.7,283.7,108.2,278.908s0,21.206,0,21.206-17.038-13.485-27.42-9.492S78.916,302.937,95.688,306.5Z" transform="translate(-76.251 -277.543)" fill="#ff2d26"/>
          <path id="Path_2452" data-name="Path 2452" d="M87.694,279.334c7.568,6.082,5.058,9.736-1.331,4.336S83.349,275.842,87.694,279.334Z" transform="translate(-74.536 -277.704)" fill="#ff2d26"/>
        </g>
        <g id="Group_3195" data-name="Group 3195" transform="translate(214.12 2.925)">
          <path id="Path_2453" data-name="Path 2453" d="M277.894,289.7c-.842.7-1.713,1.391-2.6,2.091-1.584,1.234-3.225,2.462-4.895,3.675-9.74,7.107-20.229,13.686-23.99,18.074,0,0-3.482-21.135,10.96-42.463a55.688,55.688,0,0,1,5.33-6.743A41.889,41.889,0,0,1,276.624,254.2c9.019-3.946,17.282-3.211,21.535-1.427C300.193,262.1,289.054,280.505,277.894,289.7Z" transform="translate(-246.037 -251.334)" fill="#ff2d26"/>
          <path id="Path_2454" data-name="Path 2454" d="M271.882,291.2c-1.584,1.234-3.225,2.462-4.895,3.675,1.448-6,1.72-14.085-4.281-20.229a11.986,11.986,0,0,1-3.418-10.9,41.889,41.889,0,0,1,13.928-10.132,16.021,16.021,0,0,0,1.356,15.527C278.59,275.259,275.671,284.071,271.882,291.2Z" transform="translate(-242.629 -250.739)" fill="#ffabab"/>
          <path id="Path_2455" data-name="Path 2455" d="M292.579,254.628s-29.672,14.751-44.657,51.832" transform="translate(-245.544 -250.474)" fill="none" stroke="#ecbdbb" stroke-linecap="round" stroke-linejoin="round" stroke-miterlimit="10" stroke-width="0.59"/>
        </g>
        <g id="Group_3196" data-name="Group 3196" transform="translate(22.945)">
          <path id="Path_2456" data-name="Path 2456" d="M118.28,289.917c.943.715,1.917,1.42,2.915,2.133,1.771,1.257,3.6,2.5,5.465,3.733,10.865,7.207,22.514,13.807,26.788,18.366,0,0,2.74-23-13.891-45.342a60.217,60.217,0,0,0-6.084-7.027,45.3,45.3,0,0,0-15.536-10.273c-9.934-3.827-18.824-2.634-23.332-.5C92.858,261.179,105.78,280.52,118.28,289.917Z" transform="translate(-94.445 -249.015)" fill="#9ab3da"/>
          <path id="Path_2457" data-name="Path 2457" d="M116.844,291.533c1.771,1.257,3.6,2.5,5.465,3.733-1.855-6.413-2.538-15.133,3.647-22.06a12.96,12.96,0,0,0,3.165-11.943,45.3,45.3,0,0,0-15.536-10.273,17.325,17.325,0,0,1-.714,16.838C108.828,274.637,112.406,284.016,116.844,291.533Z" transform="translate(-90.094 -248.499)" fill="#b0c8ea"/>
          <path id="Path_2458" data-name="Path 2458" d="M99.033,252.721s32.766,14.5,50.745,53.834" transform="translate(-93.247 -248.047)" fill="none" stroke="#d4e6fc" stroke-linecap="round" stroke-linejoin="round" stroke-miterlimit="10" stroke-width="0.59"/>
        </g>
        <g id="Group_3197" data-name="Group 3197" transform="translate(235.977 37.983)">
          <path id="Path_2459" data-name="Path 2459" d="M263.367,306.284s6.816-11.33,15.938-19.425c7.036-6.245,18.906-8.279,23.484-7.6-.424,4.832-4.443,12.315-10.877,17.426C284.392,302.656,272.61,305.878,263.367,306.284Z" transform="translate(-263.367 -279.133)" fill="#66fcf1"/>
        </g>
      </g>
    </g>
    <g id="WOMAN_1_RIGHT_ARM" transform="translate(53.211 47.99)">
      <g id="Group_3201" data-name="Group 3201">
        <path id="Path_2460" data-name="Path 2460" d="M104.3,96.72,67.447,76.712,58.718,91.34,91.486,112.4a10.705,10.705,0,0,0,15.573-4.529,15.585,15.585,0,0,0,1.03-3.275A7.383,7.383,0,0,0,104.3,96.72Z" transform="translate(-47.551 -32.928)" fill="#f68d88"/>
        <path id="Path_2461" data-name="Path 2461" d="M73.612,77.759l-5.644-4.008s-7.986-.325-12.113,6.046-.716,11.511-.716,11.511l7.392,5.916S75.77,91.083,73.612,77.759Z" transform="translate(-48.831 -33.702)" fill="#404b7c"/>
        <g id="Group_3200" data-name="Group 3200">
          <g id="Group_3199" data-name="Group 3199" transform="translate(5.188 16.293)">
            <path id="Path_2462" data-name="Path 2462" d="M66.72,82.867c-2.453-8.374-3.923-17.913-4.968-27.954l-5.076.572c-5.565,25.08-.8,36.9-.8,36.9C60.308,93.667,66,88.668,66.72,82.867Z" transform="translate(-53.977 -54.913)" fill="#fff"/>
          </g>
          <path id="Path_2463" data-name="Path 2463" d="M62.95,62.2,64.279,60a4.9,4.9,0,0,0,.371-4.307A48.894,48.894,0,0,0,62.1,49.833c-.8-1.121-2.122.208-1.216,2.93l-1.292-2.023s.11-3.726.231-5.881a.9.9,0,0,0-.547-.88h0a.906.906,0,0,0-1.219.556c-.337,1.049-.856,2.74-1.082,3.866,0,0,.443-3.476.615-5.367a.952.952,0,0,0-.651-.989h0a.954.954,0,0,0-1.231.674,35.739,35.739,0,0,0-.959,5.479l.217-5.154a.926.926,0,0,0-.911-.965h0a.922.922,0,0,0-.926.762,35.845,35.845,0,0,0-.606,6.008l-.613-4.526a.932.932,0,0,0-1.062-.8h0a.93.93,0,0,0-.789.827,28.9,28.9,0,0,0,.273,8.6L57.96,60.9Z" transform="translate(-49.863 -41.994)" fill="#fff"/>
          <path id="Path_2464" data-name="Path 2464" d="M52.566,48.557,55.8,52.1s3.716,1.68,4.854,3.838" transform="translate(-49.157 -40.28)" fill="none"/>
          <line id="Line_90" data-name="Line 90" x2="2.022" y2="2.204" transform="translate(11.381 11.038)" fill="none"/>
        </g>
      </g>
    </g>
    <g id="WOMAN_1_BACK_SHIRT" transform="translate(56.266 195.892)">
      <path id="Path_2465" data-name="Path 2465" d="M158.037,181.013s-27.107,26.484-58.907,20-46.844-34.094-46.844-34.094l21.176-7.644,64.231,17Z" transform="translate(-52.286 -159.271)" fill="#9ab3da"/>
    </g>
    <g id="WOMAN_1_RIGHT_LEG" transform="translate(70.936 177.579)">
      <g id="Group_3206" data-name="Group 3206">
        <g id="Group_3203" data-name="Group 3203" transform="translate(55.366 136.693)">
          <path id="Path_2466" data-name="Path 2466" d="M107.82,259.1l9.046,7.918a5.967,5.967,0,0,0,4.122-4.316l-8.715-9.562Z" transform="translate(-107.82 -253.141)" fill="#fff"/>
          <g id="Group_3202" data-name="Group 3202" transform="translate(7.133 7.677)">
            <path id="Path_2467" data-name="Path 2467" d="M127.679,263.943a40.031,40.031,0,0,1,7.652,8.65l-1.8,1.888s-5.909-3.993-9.1-5.186S124.807,262.954,127.679,263.943Z" transform="translate(-110.945 -258.03)" fill="#5222d0"/>
            <path id="Path_2468" data-name="Path 2468" d="M118.835,259.229s-.933,3.029-5.359,5.611c0,0,4.254,15.2,4.127,18.9s-2.358,9.921-2.991,12.2,10.987-8.695,13.078-11.856.856-8.673,1.186-12.691a20.822,20.822,0,0,1,1.334-6.257A42.185,42.185,0,0,0,118.835,259.229Z" transform="translate(-113.476 -259.229)" fill="#ff2d26"/>
          </g>
        </g>
        <g id="Group_3205" data-name="Group 3205">
          <g id="Group_3204" data-name="Group 3204">
            <path id="Path_2469" data-name="Path 2469" d="M87.515,144.8c-11.654-.927-18.181,10.339-18.181,10.339S63.154,175.765,64,186.266s7.409,55.165,7.409,55.165L73.043,254.9,118.4,289.953s6.929-4.981,8.094-9.288c0,0-13.391-14.489-19.911-22.572a84.367,84.367,0,0,0-12.632-12.352c1.529-11.512,4.4-35.4,5.006-57.146C99.8,158.586,99.17,145.725,87.515,144.8Z" transform="translate(-63.918 -144.751)" fill="#39a199"/>
          </g>
          <path id="Path_2470" data-name="Path 2470" d="M84.947,182.963l-2.58,56.631,32.8,31.46" transform="translate(-59.1 -134.772)" fill="none" stroke="#9ab3da" stroke-linecap="round" stroke-linejoin="round" stroke-miterlimit="10" stroke-width="0.586"/>
        </g>
      </g>
    </g>
    <g id="WOMAN_1_LEFT_LEG" transform="translate(95.935 171.495)">
      <g id="Group_3209" data-name="Group 3209">
        <g id="Group_3208" data-name="Group 3208" transform="translate(44.448 159.175)">
          <path id="Path_2471" data-name="Path 2471" d="M118.986,269.048l3.827,11.4a5.967,5.967,0,0,0,5.735-1.652l-2.713-12.65Z" transform="translate(-118.986 -266.143)" fill="#fff"/>
          <g id="Group_3207" data-name="Group 3207" transform="translate(2.685 6.631)">
            <path id="Path_2472" data-name="Path 2472" d="M135.056,274.587A40.029,40.029,0,0,1,144,281.9l-1.477,2.153s-6.474-2.993-9.817-3.657S132.063,274.072,135.056,274.587Z" transform="translate(-118.491 -270.578)" fill="#5222d0"/>
            <path id="Path_2473" data-name="Path 2473" d="M127.222,271.4a34.958,34.958,0,0,1-6.107,6.4s6.64,14.324,7.109,17.993-.734,10.171-.993,12.527,9.448-10.346,11-13.8-.548-8.7-.867-12.717a20.822,20.822,0,0,1,.312-6.39A25.032,25.032,0,0,0,127.222,271.4Z" transform="translate(-121.115 -271.401)" fill="#ff2d26"/>
          </g>
        </g>
        <path id="Path_2474" data-name="Path 2474" d="M136.919,299.819c-3.175,3.133-11.674,3.946-11.674,3.946l-19.789-48.844a33.837,33.837,0,0,1-1.835-6.152l-1.566-7.932S89.4,195.625,87.766,185.214s.509-36.624.509-36.624,7.045-8.721,18.733-8.664,17.2,16.183,18.588,46.174c.813,17.325.114,46.374-.478,59.153l4.224,16.975a70.151,70.151,0,0,1,1.741,8.063C132.645,280.553,136.919,299.819,136.919,299.819Z" transform="translate(-82.848 -139.926)" fill="#39a199"/>
        <path id="Path_2475" data-name="Path 2475" d="M91.123,197.422c-1.625-6.465-2.908-11.962-3.358-14.826-1.229-7.9-.3-24.9.22-32.64" transform="translate(-82.848 -137.307)" fill="none" stroke="#9ab3da" stroke-linecap="round" stroke-linejoin="round" stroke-miterlimit="10" stroke-width="0.586"/>
        <path id="Path_2476" data-name="Path 2476" d="M83.741,168.775l1.073,11.138a4.4,4.4,0,0,0,3.111,3.791l2.107.634" transform="translate(-83.741 -132.393)" fill="none" stroke="#9ab3da" stroke-linecap="round" stroke-linejoin="round" stroke-miterlimit="10" stroke-width="0.586"/>
        <path id="Path_2477" data-name="Path 2477" d="M109.822,177.848,111.136,239l13.779,50.2" transform="translate(-76.93 -130.024)" fill="none" stroke="#9ab3da" stroke-linecap="round" stroke-linejoin="round" stroke-miterlimit="10" stroke-width="0.586"/>
      </g>
    </g>
    <g id="WOMAN_1_BODY" transform="translate(56.266 109.926)">
      <g id="Group_3213" data-name="Group 3213" transform="translate(0 0)">
        <g id="Group_3210" data-name="Group 3210" transform="translate(20.9 3.536)">
          <path id="Path_2478" data-name="Path 2478" d="M113.968,93.909l14.322,16.242s5.692,84.521,5.026,84.433S110.068,198.491,90.9,192.1s-22.041-11.963-22.041-11.963L85.48,128.164l5.589-25.9Z" transform="translate(-68.858 -93.909)" fill="#66fcf1"/>
          <path id="Path_2479" data-name="Path 2479" d="M133.316,176.729c-.666-.089-23.248,3.907-42.418-2.481s-22.041-11.963-22.041-11.963" transform="translate(-68.858 -76.055)" fill="none" stroke="#404b7c" stroke-linecap="round" stroke-linejoin="round" stroke-miterlimit="10" stroke-width="0.586"/>
          <path id="Path_2480" data-name="Path 2480" d="M123.247,174.171s-32.212-1.123-51.532-13.176" transform="translate(-68.112 -76.392)" fill="none" stroke="#404b7c" stroke-linecap="round" stroke-linejoin="round" stroke-miterlimit="10" stroke-width="0.586"/>
        </g>
        <path id="Path_2481" data-name="Path 2481" d="M97.784,158.81c2.7,31.234,5.1,52.6,5.1,52.6,14.862.886,43.268-13.318,43.268-13.318s-18.883-27.76-19.241-47.676,4.084-48.3,4.084-48.3-15.056-8.2-20.082-8.235c-.152,4.2-.96,21.547-4.075,33.623C103.27,141.324,97.784,158.81,97.784,158.81Z" transform="translate(-40.405 -90.381)" fill="#ff2d26"/>
        <g id="Group_3211" data-name="Group 3211" transform="translate(0 2.175)">
          <path id="Path_2482" data-name="Path 2482" d="M114.5,93.05s-3.825-.274-11.278-.21a7.479,7.479,0,0,0-7.039,5.125L93.622,105.7s-5.8,11.108-6.393,13.852-.467,16.506-.467,16.506-15.99,37.589-34.477,48.209a77.129,77.129,0,0,0,10.064,15.627,206.339,206.339,0,0,0,27.682-48.237s13.112-34.08,16.093-41.209S114.5,93.05,114.5,93.05Z" transform="translate(-52.286 -92.83)" fill="#ff2d26"/>
          <path id="Path_2483" data-name="Path 2483" d="M91.213,96.292l-2.745,8.5s-5.8,11.108-6.393,13.852-.467,16.506-.467,16.506-2.226,5.746-9.584,18.881" transform="translate(-47.131 -91.925)" fill="none" stroke="#ecbdbb" stroke-linecap="round" stroke-linejoin="round" stroke-miterlimit="10" stroke-width="0.503"/>
        </g>
        <g id="Group_3212" data-name="Group 3212" transform="translate(37.745)">
          <path id="Path_2484" data-name="Path 2484" d="M112.574,91.346c4.377,1.294,6.94,11.76,7.434,20.782l-5.62,3.919,3.83,9.541s-10,17.785-16.369,33.948c0,0,5.542-26.958,8.87-41.794,1.792-15.453-5.233-16.959-12.893-3.22-7.681,15.31-15.611,37.586-15.611,37.586s2.457-23,5.283-35.2l8.153-4.711L94.2,106.136S104.247,88.883,112.574,91.346Z" transform="translate(-82.216 -91.105)" fill="#f68d88"/>
          <path id="Path_2485" data-name="Path 2485" d="M82.629,147.64s1.936-19.528,4.762-31.721l8.153-4.711-1.451-6.063a55.938,55.938,0,0,1,7.89-10.245" transform="translate(-82.107 -90.114)" fill="none" stroke="#ecbdbb" stroke-linecap="round" stroke-linejoin="round" stroke-miterlimit="10" stroke-width="0.503"/>
          <path id="Path_2486" data-name="Path 2486" d="M112.579,95.942a52.141,52.141,0,0,1,2.834,14.923l-5.62,3.919,3.83,9.541s-7.638,13.579-13.812,27.789" transform="translate(-77.621 -89.842)" fill="none" stroke="#ecbdbb" stroke-linecap="round" stroke-linejoin="round" stroke-miterlimit="10" stroke-width="0.503"/>
        </g>
      </g>
    </g>
    <g id="WOMAN_1_HAIR" transform="translate(113.584 74.765)">
      <g id="Group_3214" data-name="Group 3214">
        <path id="Path_2487" data-name="Path 2487" d="M117.064,73.808s3.948-5.789,9.211-6.466,8.032,5,7.947,11.469-5.484,11.325-11.842,4.41C117.385,77.79,117.064,73.808,117.064,73.808Z" transform="translate(-92.689 -62.164)" fill="#66fcf1"/>
        <path id="Path_2488" data-name="Path 2488" d="M123.432,75.137s7.646,5.406,5.881,12.748-15.447,11.592-21.952,6.546-4.07-10.9-4.07-10.9-6.1-1.281-5.515-7.24,3.768-6.655,6.864-5.672c0,0-.3-7.528,6.615-7.391S122.906,67.639,123.432,75.137Z" transform="translate(-97.736 -63.224)" fill="#66fcf1"/>
        <path id="Path_2489" data-name="Path 2489" d="M118.112,72.67s5.62,3.975,6.112,9.734" transform="translate(-92.415 -60.758)" fill="none" stroke="#9ab3da" stroke-linecap="round" stroke-linejoin="round" stroke-miterlimit="10" stroke-width="0.586"/>
      </g>
    </g>
    <g id="WOMAN_1_NECK" transform="translate(109.625 101.706)">
      <g id="Group_3216" data-name="Group 3216" transform="translate(0 0)">
        <path id="Path_2490" data-name="Path 2490" d="M94.6,114.4s5.941-11.33,7.6-14.721a32.655,32.655,0,0,0,1.69-5.426c.875-3.806,7.127-3.716,6.88,1.409-.526,2.5-.98,4.811-1.2,6.352l-2.076,15.61s-4.6,3.452-9.383,3.186A10.133,10.133,0,0,1,94.6,114.4Z" transform="translate(-94.597 -82.761)" fill="#fff"/>
        <g id="Group_3215" data-name="Group 3215" transform="translate(9.358)">
          <path id="Path_2491" data-name="Path 2491" d="M102.017,95.783c.358-1.221.711-2.513,1.037-3.765.975-3.764,1.74-7.165,1.74-7.165l7.547-.265s-.143.5-.384,1.35c-.653,2.317-2.015,7.21-3.126,11.547C104.812,99.6,102.8,97.2,102.017,95.783Z" transform="translate(-102.017 -84.587)" fill="#fff"/>
          <path id="Path_2492" data-name="Path 2492" d="M102.839,92.018a12.647,12.647,0,0,0,8.9-6.08c.241-.848.384-1.35.384-1.35l-7.547.265S103.814,88.254,102.839,92.018Z" transform="translate(-101.803 -84.587)" fill="#fff"/>
        </g>
      </g>
    </g>
    <g id="WOMAN_1_HEAD" transform="translate(116.339 82.566)">
      <g id="Group_3219" data-name="Group 3219" transform="translate(0 0)">
        <path id="Path_2493" data-name="Path 2493" d="M104.841,74.661A26.273,26.273,0,0,0,100.035,86.2c-.961,6.73,4.309,8.085,9.989,6.434s9.939-9.012,9.939-9.012,3.242-6.406-.916-10.005A9.848,9.848,0,0,0,104.841,74.661Z" transform="translate(-99.921 -68.975)" fill="#fff"/>
        <path id="Path_2494" data-name="Path 2494" d="M117.743,76.092s-7.865,4.844-16.351.057c0,0,8.039-11.61,17.818-4.353s3.762,15.147-2.086,15.817C117.124,87.613,114.433,83.565,117.743,76.092Z" transform="translate(-99.536 -69.41)" fill="#66fcf1"/>
        <g id="Group_3218" data-name="Group 3218" transform="translate(13.494 16.075)">
          <g id="Group_3217" data-name="Group 3217" transform="translate(0.078)">
            <path id="Path_2495" data-name="Path 2495" d="M110.682,86.7l3.086-3.483s3.087-2.2,5.535-.254S118.091,91.98,110.682,86.7Z" transform="translate(-110.682 -82.156)" fill="#fff"/>
            <path id="Path_2496" data-name="Path 2496" d="M117.9,84.05a8.481,8.481,0,0,0-5.716,1" transform="translate(-110.29 -81.696)" fill="none" stroke="#404b7c" stroke-linecap="round" stroke-linejoin="round" stroke-miterlimit="10" stroke-width="0.589"/>
            <path id="Path_2497" data-name="Path 2497" d="M114.627,86.49a7.686,7.686,0,0,0,.356-2.544" transform="translate(-109.652 -81.689)" fill="none" stroke="#000" stroke-linecap="round" stroke-linejoin="round" stroke-miterlimit="10" stroke-width="0.589"/>
          </g>
          <path id="Path_2498" data-name="Path 2498" d="M113.272,85.82c-1.2-.141-2.369,1.393-2.608,3.426s.541,3.8,1.743,3.938,2.369-1.393,2.608-3.426a5.612,5.612,0,0,0-.144-2.155" transform="translate(-110.62 -81.202)" fill="none" stroke="#ff2d26" stroke-linecap="round" stroke-linejoin="round" stroke-miterlimit="10" stroke-width="0.589"/>
        </g>
      </g>
    </g>
    <g id="WOMAN_1_FACE" transform="translate(119.929 89.175)">
      <g id="Group_3220" data-name="Group 3220">
        <path id="Path_2499" data-name="Path 2499" d="M112.5,79.528s-.076-3.014-2.37-2.941c0,0,.208-.58-.273-.818s-1.236,1.262-1.236,1.262A11.6,11.6,0,0,1,112.5,79.528Z" transform="translate(-101.24 -74.366)" fill="#ff2d26"/>
        <path id="Path_2500" data-name="Path 2500" d="M102.969,76.132s1.307-2.428,2.428-1.067c0,0,.251-.444.588-.351.583.161.029,1.646.029,1.646A4.877,4.877,0,0,0,102.969,76.132Z" transform="translate(-102.714 -74.651)" fill="#ff2d26"/>
        <path id="Path_2501" data-name="Path 2501" d="M106.558,79.553l-1.092,2.51s-1.808-.753-1.843.445c-.034,1.177,1.52,1.425,1.52,1.425" transform="translate(-102.544 -73.371)" fill="none" stroke="#000" stroke-linecap="round" stroke-linejoin="round" stroke-miterlimit="10" stroke-width="0.586"/>
        <path id="Path_2502" data-name="Path 2502" d="M102.866,77.512a1.966,1.966,0,0,1,2.416.933" transform="translate(-102.741 -73.934)" fill="none" stroke="#000" stroke-linecap="round" stroke-linejoin="round" stroke-miterlimit="10" stroke-width="0.586"/>
        <path id="Path_2503" data-name="Path 2503" d="M110.847,80.463a2.355,2.355,0,0,0-2.906-1.083" transform="translate(-101.416 -73.462)" fill="none" stroke="#000" stroke-linecap="round" stroke-linejoin="round" stroke-miterlimit="10" stroke-width="0.586"/>
        <path id="Path_2504" data-name="Path 2504" d="M102.767,85.768a7.286,7.286,0,0,0,5.877.035c-2.438-.49-4.567-1.171-5.785-2.413Z" transform="translate(-102.767 -72.369)"/>
      </g>
    </g>
    <g id="WOMAN_1_LEFT_ARM" transform="translate(133.507 120.848)">
      <g id="Group_3221" data-name="Group 3221" transform="translate(0 0)">
        <path id="Path_2505" data-name="Path 2505" d="M130.6,104.746l14.8,33.495-15.077,7.929-14.8-26A14.759,14.759,0,0,1,117.6,102.55c1.931-1.962,4.335-3.227,7.213-2.639A8.247,8.247,0,0,1,130.6,104.746Z" transform="translate(-113.533 -99.766)" fill="#f68d88"/>
        <path id="Path_2506" data-name="Path 2506" d="M121.7,131.006l-6.177-10.855a14.759,14.759,0,0,1,2.074-17.619,8.741,8.741,0,0,1,4.746-2.7" transform="translate(-113.533 -99.748)" fill="none" stroke="#ecbdbb" stroke-linecap="round" stroke-linejoin="round" stroke-miterlimit="10" stroke-width="0.503"/>
        <path id="Path_2507" data-name="Path 2507" d="M142.942,126.482l3.7,5.851s-.105,7.992-6.69,11.77-11.533.095-11.533.095l-5.509-7.7S129.753,123.609,142.942,126.482Z" transform="translate(-111.086 -92.899)" fill="#404b7c"/>
        <path id="Path_2508" data-name="Path 2508" d="M141.892,133.243l10.457,22.169-5.087,2.769s-12.8-11.543-16.532-18.326C130.731,139.855,132.731,132.056,141.892,133.243Z" transform="translate(-109.043 -91.056)" fill="#fff"/>
      </g>
    </g>
    <g id="ORNAMENT_10" transform="translate(58.824 309.037)">
      <g id="Group_3222" data-name="Group 3222">
        <line id="Line_91" data-name="Line 91" y2="4.124" transform="translate(6.325)" fill="none" stroke="#6b81be" stroke-linecap="round" stroke-linejoin="round" stroke-miterlimit="10" stroke-width="0.59"/>
        <line id="Line_92" data-name="Line 92" y2="4.124" transform="translate(6.325 8.526)" fill="none" stroke="#6b81be" stroke-linecap="round" stroke-linejoin="round" stroke-miterlimit="10" stroke-width="0.59"/>
        <line id="Line_93" data-name="Line 93" x1="4.124" transform="translate(8.527 6.326)" fill="none" stroke="#6b81be" stroke-linecap="round" stroke-linejoin="round" stroke-miterlimit="10" stroke-width="0.59"/>
        <line id="Line_94" data-name="Line 94" x1="4.124" transform="translate(0 6.326)" fill="none" stroke="#6b81be" stroke-linecap="round" stroke-linejoin="round" stroke-miterlimit="10" stroke-width="0.59"/>
      </g>
    </g>
    <g id="ORNAMENT_9" transform="translate(359.09 210.947)">
      <g id="Group_3223" data-name="Group 3223">
        <line id="Line_95" data-name="Line 95" y2="4.124" transform="translate(6.326)" fill="none" stroke="#6b81be" stroke-linecap="round" stroke-linejoin="round" stroke-miterlimit="10" stroke-width="0.59"/>
        <line id="Line_96" data-name="Line 96" y2="4.124" transform="translate(6.326 8.527)" fill="none" stroke="#6b81be" stroke-linecap="round" stroke-linejoin="round" stroke-miterlimit="10" stroke-width="0.59"/>
        <line id="Line_97" data-name="Line 97" x1="4.124" transform="translate(8.527 6.326)" fill="none" stroke="#6b81be" stroke-linecap="round" stroke-linejoin="round" stroke-miterlimit="10" stroke-width="0.59"/>
        <line id="Line_98" data-name="Line 98" x1="4.124" transform="translate(0 6.326)" fill="none" stroke="#6b81be" stroke-linecap="round" stroke-linejoin="round" stroke-miterlimit="10" stroke-width="0.59"/>
      </g>
    </g>
    <g id="ORNAMENT_8" transform="translate(321.482 19.03)">
      <g id="Group_3224" data-name="Group 3224">
        <line id="Line_99" data-name="Line 99" y2="4.124" transform="translate(6.326)" fill="none" stroke="#6b81be" stroke-linecap="round" stroke-linejoin="round" stroke-miterlimit="10" stroke-width="0.59"/>
        <line id="Line_100" data-name="Line 100" y2="4.124" transform="translate(6.326 8.526)" fill="none" stroke="#6b81be" stroke-linecap="round" stroke-linejoin="round" stroke-miterlimit="10" stroke-width="0.59"/>
        <line id="Line_101" data-name="Line 101" x1="4.124" transform="translate(8.526 6.325)" fill="none" stroke="#6b81be" stroke-linecap="round" stroke-linejoin="round" stroke-miterlimit="10" stroke-width="0.59"/>
        <line id="Line_102" data-name="Line 102" x1="4.124" transform="translate(0 6.325)" fill="none" stroke="#6b81be" stroke-linecap="round" stroke-linejoin="round" stroke-miterlimit="10" stroke-width="0.59"/>
      </g>
    </g>
    <g id="ORNAMENT_7" transform="translate(170.283 137.11)">
      <g id="Group_3225" data-name="Group 3225" transform="translate(0)">
        <line id="Line_103" data-name="Line 103" y2="3.392" transform="translate(5.202)" fill="none" stroke="#6b81be" stroke-linecap="round" stroke-linejoin="round" stroke-miterlimit="10" stroke-width="0.59"/>
        <line id="Line_104" data-name="Line 104" y2="3.391" transform="translate(5.202 7.013)" fill="none" stroke="#6b81be" stroke-linecap="round" stroke-linejoin="round" stroke-miterlimit="10" stroke-width="0.59"/>
        <line id="Line_105" data-name="Line 105" x1="3.392" transform="translate(7.013 5.202)" fill="none" stroke="#6b81be" stroke-linecap="round" stroke-linejoin="round" stroke-miterlimit="10" stroke-width="0.59"/>
        <line id="Line_106" data-name="Line 106" x1="3.392" transform="translate(0 5.202)" fill="none" stroke="#6b81be" stroke-linecap="round" stroke-linejoin="round" stroke-miterlimit="10" stroke-width="0.59"/>
      </g>
    </g>
    <g id="ORNAMENT_6" transform="translate(37.043 176.031)">
      <circle id="Ellipse_1008" data-name="Ellipse 1008" cx="3.268" cy="3.268" r="3.268" fill="none" stroke="#6b81be" stroke-linecap="round" stroke-linejoin="round" stroke-miterlimit="10" stroke-width="0.59"/>
    </g>
    <g id="ORNAMENT_5" transform="translate(344.123 281.311)">
      <circle id="Ellipse_1009" data-name="Ellipse 1009" cx="3.268" cy="3.268" r="3.268" fill="none" stroke="#6b81be" stroke-linecap="round" stroke-linejoin="round" stroke-miterlimit="10" stroke-width="0.59"/>
    </g>
    <g id="ORNAMENT_4" transform="translate(318.945 61.774)">
      <circle id="Ellipse_1010" data-name="Ellipse 1010" cx="4.431" cy="4.431" r="4.431" fill="#5222d0"/>
    </g>
    <g id="ORNAMENT_3" transform="translate(91.21 76.613)">
      <circle id="Ellipse_1011" data-name="Ellipse 1011" cx="5.264" cy="5.264" r="5.264" transform="translate(0 0)" fill="#e9f3ff"/>
    </g>
    <g id="ORNAMENT_2" transform="translate(243.512 145.667)">
      <circle id="Ellipse_1012" data-name="Ellipse 1012" cx="3.937" cy="3.937" r="3.937" transform="translate(0)" fill="#e9f3ff"/>
    </g>
    <g id="ORNAMENT_1" transform="translate(63.087 27.827)">
      <g id="Group_3226" data-name="Group 3226">
        <line id="Line_107" data-name="Line 107" y2="2.3" transform="translate(3.527)" fill="none" stroke="#6b81be" stroke-linecap="round" stroke-linejoin="round" stroke-miterlimit="10" stroke-width="0.566"/>
        <line id="Line_108" data-name="Line 108" y2="2.3" transform="translate(3.527 4.754)" fill="none" stroke="#6b81be" stroke-linecap="round" stroke-linejoin="round" stroke-miterlimit="10" stroke-width="0.566"/>
        <line id="Line_109" data-name="Line 109" x1="2.3" transform="translate(4.754 3.527)" fill="none" stroke="#6b81be" stroke-linecap="round" stroke-linejoin="round" stroke-miterlimit="10" stroke-width="0.566"/>
        <line id="Line_110" data-name="Line 110" x1="2.3" transform="translate(0 3.527)" fill="none" stroke="#6b81be" stroke-linecap="round" stroke-linejoin="round" stroke-miterlimit="10" stroke-width="0.566"/>
      </g>
    </g>
    <g id="BOX" transform="translate(171.25 307.497)">
      <g id="Group_3227" data-name="Group 3227">
        <path id="Path_2509" data-name="Path 2509" d="M219.571,257.161H151.135a4.847,4.847,0,0,0-4.852,4.845v44.8a4.847,4.847,0,0,0,4.852,4.845h68.436a4.845,4.845,0,0,0,4.845-4.845v-44.8A4.845,4.845,0,0,0,219.571,257.161Zm-23.5,18.831a3.85,3.85,0,0,1-2.733,1.135H177.365a3.867,3.867,0,0,1,0-7.735h15.976a3.87,3.87,0,0,1,2.733,6.6Z" transform="translate(-142.724 -245.315)" fill="#404b7c"/>
        <path id="Path_2510" data-name="Path 2510" d="M225.85,265.232H146.328a2.866,2.866,0,0,1-2.866-2.866V250.634a2.866,2.866,0,0,1,2.866-2.866H225.85a2.866,2.866,0,0,1,2.866,2.866v11.731A2.867,2.867,0,0,1,225.85,265.232Z" transform="translate(-143.461 -247.768)" fill="#404b7c"/>
        <line id="Line_111" data-name="Line 111" x1="75.187" transform="translate(2.866 17.464)" fill="none" stroke="#9ab3da" stroke-linecap="round" stroke-linejoin="round" stroke-miterlimit="10" stroke-width="0.59"/>
      </g>
    </g>
    <g id="MAN_LEFT_UPPER_ARM" transform="translate(233.148 188.625)">
      <path id="Path_2511" data-name="Path 2511" d="M194.876,153.543c9.154-.53,12.226,5.235,15.014,14.56s14.487,49.806,14.487,49.806L204.2,224.218,192.543,184.2Z" transform="translate(-192.543 -153.509)" fill="#39a199"/>
    </g>
    <g id="MAN_BODY" transform="translate(169.911 187.973)">
      <g id="Group_3234" data-name="Group 3234" transform="translate(0)">
        <g id="Group_3229" data-name="Group 3229" transform="translate(0 0.686)">
          <g id="Group_3228" data-name="Group 3228">
            <path id="Path_2512" data-name="Path 2512" d="M209.287,238.428a77.69,77.69,0,0,1-2.749-11.668c-1.527-12.215,5.795-49.231,1.432-73.224,0,0-19.156.866-28.613,2.2-12.651-1.745-30.313-2.165-30.313-2.165s-3.144,68.17-3.58,72.533A81.049,81.049,0,0,1,142.4,236.5l33.261,15.641Z" transform="translate(-142.4 -153.536)" fill="#39a199"/>
            <circle id="Ellipse_1013" data-name="Ellipse 1013" cx="1.854" cy="1.854" r="1.854" transform="translate(28.987 68.104)" fill="#404b7c"/>
            <path id="Path_2513" data-name="Path 2513" d="M195.047,189.023c.794-11.524,1.141-23.65-.371-33.778" transform="translate(-128.749 -153.089)" fill="none" stroke="#404b7c" stroke-linecap="round" stroke-linejoin="round" stroke-miterlimit="10" stroke-width="0.595"/>
            <path id="Path_2514" data-name="Path 2514" d="M145.145,219.743c.819-12.011,2.206-51.351,2.893-62.458" transform="translate(-141.683 -152.557)" fill="none" stroke="#404b7c" stroke-linecap="round" stroke-linejoin="round" stroke-miterlimit="10" stroke-width="0.595"/>
          </g>
          <path id="Path_2515" data-name="Path 2515" d="M171.814,237.532a333.779,333.779,0,0,1-2.424-39.078" transform="translate(-135.352 -141.806)" fill="none" stroke="#404b7c" stroke-linecap="round" stroke-linejoin="round" stroke-miterlimit="10" stroke-width="0.595"/>
        </g>
        <g id="Group_3233" data-name="Group 3233" transform="translate(10.315)">
          <path id="Path_2516" data-name="Path 2516" d="M176.818,153.009s5.62.733,15.533,5.343a49.592,49.592,0,0,1,8.343,14.8l-10.744,2.874,5.548,9.262-21.2,23.944-18.377-23.011,5.379-11.565-10.724-1.353s4.389-11.1,6.969-14.034S172.428,152.708,176.818,153.009Z" transform="translate(-150.579 -152.992)" fill="#5222d0"/>
          <g id="Group_3231" data-name="Group 3231" transform="translate(10.185 2.842)">
            <path id="Path_2517" data-name="Path 2517" d="M175.112,155.292c3.22.432,9.869,2.887,13.223,4.181-1.337,6.574-7.43,32.056-16.141,44.657,0,0-9.376-29.907-13.539-44.923C162.77,157.775,171.759,154.841,175.112,155.292Z" transform="translate(-158.655 -155.245)" fill="#fff"/>
            <g id="Group_3230" data-name="Group 3230" transform="translate(8.91 8.112)">
              <path id="Path_2518" data-name="Path 2518" d="M165.721,187.511c.385-4.562,1.564-16.656,3.822-24.936l3.2-.9,2.358,1.27a152.894,152.894,0,0,1,2.969,23.87,76.333,76.333,0,0,1-7.724,15.632S168.314,195.958,165.721,187.511Z" transform="translate(-165.721 -161.678)" fill="#5222d0"/>
              <path id="Path_2519" data-name="Path 2519" d="M174.084,167.208a45.465,45.465,0,0,0-5.293.121" transform="translate(-164.919 -160.241)" fill="none" stroke="#9ab3da" stroke-linecap="round" stroke-linejoin="round" stroke-miterlimit="10" stroke-width="0.595"/>
            </g>
          </g>
          <g id="Group_3232" data-name="Group 3232" transform="translate(16.801 1.464)">
            <path id="Path_2520" data-name="Path 2520" d="M172.556,164.96a35.9,35.9,0,0,1,9.116,5.827s.021-15.593-8.276-16.591-9.5,15.544-9.5,15.544S165.866,167.429,172.556,164.96Z" transform="translate(-163.901 -154.153)" fill="#fff"/>
            <path id="Path_2521" data-name="Path 2521" d="M167.764,156.416c-3.266,4.5-3.862,12.734-3.862,12.734s1.965-2.312,8.655-4.78a35.9,35.9,0,0,1,9.116,5.827s.011-8.025-3.047-12.93" transform="translate(-163.901 -153.562)" fill="none" stroke="#9ab3da" stroke-linecap="round" stroke-linejoin="round" stroke-miterlimit="10" stroke-width="0.595"/>
          </g>
        </g>
      </g>
    </g>
    <g id="MAN_RIGHT_ARM" transform="translate(166.379 188.263)">
      <g id="Group_3241" data-name="Group 3241" transform="translate(0)">
        <g id="Group_3237" data-name="Group 3237">
          <g id="Group_3235" data-name="Group 3235">
            <path id="Path_2522" data-name="Path 2522" d="M161.145,172.914c-.759-22.842-17.027-26.323-19.3-7.757,0,0-2,43.438-2.242,59.1a7.3,7.3,0,0,0,5.091,7.065h0A7.306,7.306,0,0,0,151.543,230l10.534-8.653Z" transform="translate(-139.599 -153.223)" fill="#39a199"/>
          </g>
          <g id="Group_3236" data-name="Group 3236" transform="translate(21.609 22.978)">
            <line id="Line_112" data-name="Line 112" x1="0.547" y1="28.456" fill="none" stroke="#404b7c" stroke-linecap="round" stroke-linejoin="round" stroke-miterlimit="10" stroke-width="0.595"/>
          </g>
        </g>
        <g id="Group_3240" data-name="Group 3240" transform="translate(5.871 24.255)">
          <g id="Group_3238" data-name="Group 3238" transform="translate(27.932)">
            <path id="Path_2523" data-name="Path 2523" d="M195.387,180.6a1.567,1.567,0,0,1-1.848,1.463c-.749-.15-2.49-1.627-3.8-2.811a3.429,3.429,0,0,1,.014,1.349c-.214.557-1.684,1.263-1.684,1.263a3.049,3.049,0,0,1-.164,2.476,2.592,2.592,0,0,1-1.984,1.227,3.561,3.561,0,0,1-.485,2.276c-.685,1.163-3.282.878-3.282.878s-2.005,2.719-3.618,2.975a7.388,7.388,0,0,1-3.446-.542l-5.758,5.009-2.933-9.483,5.437-4.181s3.939-8.734,5.444-9.747,10.075.878,11.417,1.32c.243.079.481.172.713.272h0l.006,0a4.436,4.436,0,0,1,1.242.753l.578.357S195.387,180.09,195.387,180.6Z" transform="translate(-166.403 -172.455)" fill="#fff"/>
            <line id="Line_113" data-name="Line 113" x2="8.005" y2="2.541" transform="translate(14.339 2.865)" fill="none" stroke="#000" stroke-linecap="round" stroke-linejoin="round" stroke-miterlimit="10" stroke-width="0.595"/>
            <line id="Line_114" data-name="Line 114" x2="5.138" y2="1.829" transform="translate(15.59 6.929)" fill="none" stroke="#000" stroke-linecap="round" stroke-linejoin="round" stroke-miterlimit="10" stroke-width="0.595"/>
            <path id="Path_2524" data-name="Path 2524" d="M175.411,173.479c-.339.9,1.145,1.872,1.145,1.872s-1.45,1.145-1,1.908a8.35,8.35,0,0,0,1.725,1.723s-1.19.637-1.36,1.595,1.441,1.9,1.441,1.9a5.423,5.423,0,0,0-.509,2.035c.085.721,1.7,1.992,1.7,1.992" transform="translate(-164.064 -172.188)" fill="none" stroke="#000" stroke-linecap="round" stroke-linejoin="round" stroke-miterlimit="10" stroke-width="0.595"/>
            <line id="Line_115" data-name="Line 115" x2="4.103" y2="1.628" transform="translate(15.06 11.178)" fill="none" stroke="#000" stroke-linecap="round" stroke-linejoin="round" stroke-miterlimit="10" stroke-width="0.595"/>
          </g>
          <g id="Group_3239" data-name="Group 3239" transform="translate(23.535 12.096)">
            <path id="Path_2525" data-name="Path 2525" d="M171.676,200.12l5.943-4.355-8.588-13.718-6.115,3.922Z" transform="translate(-162.916 -182.047)" fill="#fff"/>
          </g>
          <path id="Path_2526" data-name="Path 2526" d="M145.82,214.446l4.014,8.231c1.887-1.667,29.075-22.558,29.075-22.558l-9.452-16.845L151.475,194.6A15.452,15.452,0,0,0,145.82,214.446Z" transform="translate(-144.254 -169.631)" fill="#39a199"/>
          <path id="Path_2527" data-name="Path 2527" d="M149.565,218.275c5.529-4.412,27.957-21.645,27.957-21.645" transform="translate(-142.867 -166.143)" fill="none" stroke="#404b7c" stroke-linecap="round" stroke-linejoin="round" stroke-miterlimit="10" stroke-width="0.595"/>
          <path id="Path_2528" data-name="Path 2528" d="M169.328,183.273,151.346,194.6a15.415,15.415,0,0,0-6.6,8.74" transform="translate(-144.125 -169.631)" fill="none" stroke="#404b7c" stroke-linecap="round" stroke-linejoin="round" stroke-miterlimit="10" stroke-width="0.595"/>
          <circle id="Ellipse_1014" data-name="Ellipse 1014" cx="1.854" cy="1.854" r="1.854" transform="translate(26.648 28.097)" fill="#404b7c"/>
        </g>
      </g>
    </g>
    <g id="MAN_LEFT_ARM" transform="translate(219.032 215.512)">
      <g id="Group_3246" data-name="Group 3246">
        <path id="Path_2529" data-name="Path 2529" d="M200.059,199.093s2.009,11.692,4.082,14.966,11.967,6.355,15.281.642,1.464-10.183.107-12.309-9.431-12.7-9.431-12.7C203.826,189.433,199.78,191.966,200.059,199.093Z" transform="translate(-176.468 -170.952)" fill="#39a199"/>
        <g id="Group_3242" data-name="Group 3242" transform="translate(21.759 16.659)">
          <circle id="Ellipse_1015" data-name="Ellipse 1015" cx="1.854" cy="1.854" r="1.854" transform="translate(4.802 15.25)" fill="#404b7c"/>
          <path id="Path_2530" data-name="Path 2530" d="M200.059,199.093s2.009,11.692,4.082,14.966,11.967,6.355,15.281.642,1.464-10.183.107-12.309-9.431-12.7-9.431-12.7C203.826,189.433,199.78,191.966,200.059,199.093Z" transform="translate(-198.228 -187.611)" fill="none" stroke="#404b7c" stroke-linecap="round" stroke-linejoin="round" stroke-miterlimit="10" stroke-width="0.595"/>
          <path id="Path_2531" data-name="Path 2531" d="M201.536,201.174s2.48,1.553,6.231-.418,2.543-9.41,2.543-9.41l-2.219-2.925s-3.566-1.664-7.191,1.955-1.873,6.82-1.873,6.82Z" transform="translate(-198.604 -188.039)" fill="#fff"/>
        </g>
        <g id="Group_3245" data-name="Group 3245">
          <g id="Group_3243" data-name="Group 3243">
            <path id="Path_2532" data-name="Path 2532" d="M204.537,214.081H183.6a2.247,2.247,0,0,1-2.247-2.247V177.076a2.247,2.247,0,0,1,2.247-2.247h20.94a2.247,2.247,0,0,1,2.247,2.247v34.759A2.246,2.246,0,0,1,204.537,214.081Z" transform="translate(-181.35 -174.829)" fill="#5222d0"/>
            <path id="Path_2533" data-name="Path 2533" d="M183.367,176.779v34.081a.933.933,0,0,0,.933.933h19.414" transform="translate(-180.824 -174.32)" fill="none" stroke="#9ab3da" stroke-linecap="round" stroke-linejoin="round" stroke-miterlimit="10" stroke-width="0.595"/>
          </g>
          <g id="Group_3244" data-name="Group 3244" transform="translate(11.575 7.344)">
            <path id="Path_2534" data-name="Path 2534" d="M205.513,200.8c-.014,0-.029.007-.043.007a2.941,2.941,0,0,1-2.419-.642c-1.02-.956-2.54-4.324-2.54-4.324s-5.473.442-6.236,0a1.381,1.381,0,0,1-.635-1.784c.243-.535,4.388-1.184,4.909-1.263-.564.057-5.409.521-6.372-.2a1.547,1.547,0,0,1-.128-2.476c.6-.3,5.216-1.156,5.794-1.263-.542.021-4.809.243-5.28.243-.514,0-2.034-.314-2.034-1.777s1.905-1.72,1.905-1.72c-1.784-.314-1.905-1.713-.956-2.54s6.272-1.862,11.7-2.355c2.8-.257,3.5.378,3.81,1.02s3.182,11.2,3.182,11.2S211.136,199.684,205.513,200.8Z" transform="translate(-190.529 -180.652)" fill="#fff"/>
            <path id="Path_2535" data-name="Path 2535" d="M202.535,181.623s1.1,1.187.085,2.119,2.119,2.077.509,3.518,1.78,2.374.3,3.815.3,2.713-.933,3.6" transform="translate(-187.426 -180.399)" fill="none" stroke="#000" stroke-linecap="round" stroke-linejoin="round" stroke-miterlimit="10" stroke-width="0.595"/>
            <line id="Line_116" data-name="Line 116" y1="1.145" x2="9.665" transform="translate(2.901 3.513)" fill="none" stroke="#000" stroke-linecap="round" stroke-linejoin="round" stroke-miterlimit="10" stroke-width="0.595"/>
            <line id="Line_117" data-name="Line 117" y1="0.593" x2="4.238" transform="translate(8.878 11.355)" fill="none" stroke="#000" stroke-linecap="round" stroke-linejoin="round" stroke-miterlimit="10" stroke-width="0.595"/>
            <line id="Line_118" data-name="Line 118" y1="0.594" x2="4.069" transform="translate(8.411 7.158)" fill="none" stroke="#000" stroke-linecap="round" stroke-linejoin="round" stroke-miterlimit="10" stroke-width="0.595"/>
          </g>
        </g>
      </g>
    </g>
    <g id="MAN_LEFT_LEG" transform="translate(198.898 250.352)">
      <g id="Group_3251" data-name="Group 3251" transform="translate(0)">
        <path id="Path_2536" data-name="Path 2536" d="M220.318,217.778a29.761,29.761,0,0,0-17.911-11.654l-12.089,11.654Z" transform="translate(-158.874 -201.497)" fill="#404b7c"/>
        <path id="Path_2537" data-name="Path 2537" d="M244.824,216.075l-1.22,10.967c-17.96,9.447-37.633,30.69-52.81,32.559-1.448.15-23.462,0-23.462,0l-1.947-6.684a40.171,40.171,0,0,1,20.479-28.228c9.754-5.266,14.164-9.7,38.7-21.642A16.163,16.163,0,0,1,244.824,216.075Z" transform="translate(-165.384 -202.455)" fill="#ff2d26"/>
        <g id="Group_3247" data-name="Group 3247" transform="translate(7.284 4.627)">
          <path id="Path_2538" data-name="Path 2538" d="M171.16,230.654l30.645-2.024s-.669-15.17,5.6-22.506A336.6,336.6,0,0,0,171.16,230.654Z" transform="translate(-171.16 -206.124)" fill="#39a199"/>
          <path id="Path_2539" data-name="Path 2539" d="M207.41,206.124a336.567,336.567,0,0,0-36.25,24.53" transform="translate(-171.16 -206.124)" fill="none" stroke="#404b7c" stroke-linecap="round" stroke-linejoin="round" stroke-miterlimit="10" stroke-width="0.595"/>
        </g>
        <line id="Line_119" data-name="Line 119" y1="25.695" x2="43.793" transform="translate(16.033 17.334)" fill="none" stroke="#ecbdbb" stroke-linecap="round" stroke-linejoin="round" stroke-miterlimit="10" stroke-width="0.595"/>
        <g id="Group_3249" data-name="Group 3249" transform="translate(51.354 0.63)">
          <g id="Group_3248" data-name="Group 3248" transform="translate(8.472 82.508)">
            <path id="Path_2540" data-name="Path 2540" d="M223.7,268.379s-.186,8.611-.21,11.021c-.019,3.992-.054,9.322-.031,9.46a33.2,33.2,0,0,1-4,2.14l-4.727-.984-.656-6.94-1.255-12.861Z" transform="translate(-212.822 -268.379)" fill="#fff"/>
            <path id="Path_2541" data-name="Path 2541" d="M223.7,268.379s-.186,8.611-.21,11.021c-2.185.849-6.137,2.407-9.411,3.675l-1.255-12.861Z" transform="translate(-212.822 -268.379)" fill="#ededed"/>
          </g>
          <path id="Path_2542" data-name="Path 2542" d="M212.682,293.753l16.4-.132s4.78-58.441,4.573-65.269c-.041-1.338.145-4.854.45-9.911a14.6,14.6,0,0,0-17.284-15.226L206.134,206.8c-.1,7.969.08,20.451.1,20.733C206.272,228.217,212.682,293.753,212.682,293.753Z" transform="translate(-206.105 -202.955)" fill="#ff2d26"/>
          <line id="Line_120" data-name="Line 120" x2="1.282" y2="13.224" transform="translate(0.244 25.84)" fill="none" stroke="#ecbdbb" stroke-linecap="round" stroke-linejoin="round" stroke-miterlimit="10" stroke-width="0.595"/>
          <path id="Path_2543" data-name="Path 2543" d="M206.128,221.229l10.1-5.317,3.744,69" transform="translate(-206.099 -199.572)" fill="none" stroke="#ecbdbb" stroke-linecap="round" stroke-linejoin="round" stroke-miterlimit="10" stroke-width="0.595"/>
          <line id="Line_121" data-name="Line 121" x2="13.819" transform="translate(7.78 86.695)" fill="none" stroke="#ecbdbb" stroke-linecap="round" stroke-linejoin="round" stroke-miterlimit="10" stroke-width="0.595"/>
          <path id="Path_2544" data-name="Path 2544" d="M215.508,202.955c-2.517,3.812-1.6,9.456,2.381,13.271,4.016,3.85,9.761,4.506,13.46,1.744" transform="translate(-204.016 -202.955)" fill="none" stroke="#ecbdbb" stroke-linecap="round" stroke-linejoin="round" stroke-miterlimit="10" stroke-width="0.595"/>
        </g>
        <g id="Group_3250" data-name="Group 3250" transform="translate(55.185 100.713)">
          <path id="Path_2545" data-name="Path 2545" d="M214.187,282.315s6.348,2.053,11.622.587c0,0,8.99,6.848,14.751,9.1s11.246,3.923,11.013,13.081l-41.793-1.065S209.348,289.567,214.187,282.315Z" transform="translate(-208.979 -282.315)" fill="#404b7c"/>
          <path id="Path_2546" data-name="Path 2546" d="M229.4,292.13a70.914,70.914,0,0,1-9.63-7.391" transform="translate(-206.368 -281.682)" fill="none" stroke="#9ab3da" stroke-linecap="round" stroke-linejoin="round" stroke-miterlimit="10" stroke-width="0.595"/>
          <path id="Path_2547" data-name="Path 2547" d="M231.638,297.284s2.241-6.6,6.879-8.771c0,0,7.674,2.814,10.9,4.751s3.339,5.976,3.23,10.228l-43.5-.023.145-5.669Z" transform="translate(-209.143 -280.697)" fill="#ff2d26"/>
        </g>
      </g>
    </g>
    <g id="MAN_RIGHT_LEG" transform="translate(137.856 254.515)">
      <g id="Group_3259" data-name="Group 3259">
        <g id="Group_3255" data-name="Group 3255">
          <path id="Path_2548" data-name="Path 2548" d="M176.185,225.628c21.423,10.693,21.419,21.435,15.674,28.869-4.021,5.2-11.2,5.17-17.778,5.017a29.974,29.974,0,0,1-9.925-1.875,212.551,212.551,0,0,1-45.6-27.819l-1.57-10.922c1.219-9.558,11.031-14.892,20.4-12.621C162.28,217.424,166.268,220.677,176.185,225.628Z" transform="translate(-116.982 -205.756)" fill="#ff2d26"/>
          <path id="Path_2549" data-name="Path 2549" d="M169.6,225.908l.945,10.992,3.529,3.509s.254,7.046-1.272,11.751" transform="translate(-103.242 -200.494)" fill="none" stroke="#ecbdbb" stroke-linecap="round" stroke-linejoin="round" stroke-miterlimit="10" stroke-width="0.595"/>
          <path id="Path_2550" data-name="Path 2550" d="M172.914,227.566c.16,4.206.344,9.838.3,12.412" transform="translate(-102.377 -200.061)" fill="none" stroke="#ecbdbb" stroke-linecap="round" stroke-linejoin="round" stroke-miterlimit="10" stroke-width="0.595"/>
          <g id="Group_3254" data-name="Group 3254" transform="translate(39.43 8.907)">
            <g id="Group_3252" data-name="Group 3252">
              <path id="Path_2551" data-name="Path 2551" d="M148.247,212.819a30.825,30.825,0,0,1,7.6,14.714l21.293,1.372C168.307,222.871,156.581,216.84,148.247,212.819Z" transform="translate(-148.247 -212.819)" fill="#39a199"/>
            </g>
            <g id="Group_3253" data-name="Group 3253" transform="translate(2.037 0.99)">
              <path id="Path_2552" data-name="Path 2552" d="M176.721,228.7c-8.138-5.558-18.726-11.112-26.859-15.1" transform="translate(-149.863 -213.604)" fill="none" stroke="#404b7c" stroke-linecap="round" stroke-linejoin="round" stroke-miterlimit="10" stroke-width="0.595"/>
            </g>
          </g>
          <line id="Line_122" data-name="Line 122" x1="43.792" y1="25.694" transform="translate(19.964 16.808)" fill="none" stroke="#ecbdbb" stroke-linecap="round" stroke-linejoin="round" stroke-miterlimit="10" stroke-width="0.595"/>
        </g>
        <g id="Group_3258" data-name="Group 3258" transform="translate(0.252 3.655)">
          <g id="Group_3257" data-name="Group 3257" transform="translate(36.369 72.705)">
            <path id="Path_2553" data-name="Path 2553" d="M150.817,269.984s4.345,7.437,5.537,9.531c1.955,3.48,4.575,8.122,4.622,8.254a33.2,33.2,0,0,0,4.533-.07l4.2-.823-3.7-8.647-4.791-11.923Z" transform="translate(-144.768 -266.305)" fill="#fff"/>
            <g id="Group_3256" data-name="Group 3256" transform="translate(0 19.735)">
              <path id="Path_2554" data-name="Path 2554" d="M159.5,282.409s6.613-1.024,11.318,0a64.593,64.593,0,0,1,1.78,20.735H149.964v-7.5A84.49,84.49,0,0,0,159.5,282.409Z" transform="translate(-144.991 -281.954)" fill="#404b7c"/>
              <path id="Path_2555" data-name="Path 2555" d="M159.5,282.409s6.613-1.024,11.318,0a64.593,64.593,0,0,1,1.78,20.735H149.964v-7.5A84.49,84.49,0,0,0,159.5,282.409Z" transform="translate(-144.991 -281.954)" fill="none" stroke="#9ab3da" stroke-linecap="round" stroke-linejoin="round" stroke-miterlimit="10" stroke-width="0.595"/>
              <path id="Path_2556" data-name="Path 2556" d="M163.977,283.934s-4.723,8.266-9.174,12.081" transform="translate(-143.727 -281.437)" fill="none" stroke="#9ab3da" stroke-linecap="round" stroke-linejoin="round" stroke-miterlimit="10" stroke-width="0.595"/>
              <path id="Path_2557" data-name="Path 2557" d="M146.251,303.414h28.528v-4.581h-10.7s-2.046-10.11-10.49-10.11C144,288.724,146.251,303.414,146.251,303.414Z" transform="translate(-146.021 -280.187)" fill="#ff2d26"/>
            </g>
            <path id="Path_2558" data-name="Path 2558" d="M150.817,269.984s4.345,7.437,5.537,9.531c2.323-.319,6.174-.806,9.652-1.287l-4.791-11.923Z" transform="translate(-144.768 -266.305)" fill="#ededed"/>
          </g>
          <path id="Path_2559" data-name="Path 2559" d="M174.789,286.081l-14.4,7.853s-32.565-48.762-35.7-54.831c-.615-1.19-2.485-4.173-5.208-8.445a14.6,14.6,0,0,1,7.712-21.7l.206-.038a15.4,15.4,0,0,1,16.322,7.749c2.455,4.485,4.473,8.249,4.544,8.4C148.559,225.682,174.789,286.081,174.789,286.081Z" transform="translate(-117.182 -208.654)" fill="#ff2d26"/>
          <path id="Path_2560" data-name="Path 2560" d="M144.819,228.529c2.59,5.95,5.591,12.856,9.735,22.393" transform="translate(-109.965 -203.465)" fill="none" stroke="#ecbdbb" stroke-linecap="round" stroke-linejoin="round" stroke-miterlimit="10" stroke-width="0.595"/>
          <path id="Path_2561" data-name="Path 2561" d="M146.472,227.007l-14.75-8.211L161.964,282.2" transform="translate(-113.385 -206.006)" fill="none" stroke="#ecbdbb" stroke-linecap="round" stroke-linejoin="round" stroke-miterlimit="10" stroke-width="0.595"/>
          <line id="Line_123" data-name="Line 123" x1="12.079" y2="6.712" transform="translate(42.484 74.424)" fill="none" stroke="#ecbdbb" stroke-linecap="round" stroke-linejoin="round" stroke-miterlimit="10" stroke-width="0.595"/>
          <path id="Path_2562" data-name="Path 2562" d="M125.839,209.008c4.052,2.11,5.99,7.489,4.365,12.757-1.64,5.316-6.343,8.68-10.918,8.063" transform="translate(-116.633 -208.562)" fill="none" stroke="#ecbdbb" stroke-linecap="round" stroke-linejoin="round" stroke-miterlimit="10" stroke-width="0.595"/>
        </g>
      </g>
    </g>
    <g id="MAN_NECK" transform="translate(201.303 172.489)">
      <g id="Group_3260" data-name="Group 3260">
        <path id="Path_2563" data-name="Path 2563" d="M169.422,163.43a6.3,6.3,0,0,0,5.574-.1l.349-7.948.389-8.724-8.367-5.893-.075-.054.052.538.417,4.43Z" transform="translate(-167.292 -140.714)" fill="#fff" stroke="#000" stroke-width="0.566"/>
        <path id="Path_2564" data-name="Path 2564" d="M167.75,145.672c.687,3.414,2.547,8.17,7.585,9.7l.389-8.724-8.367-5.893c-.017.186-.02.344-.023.484a6.384,6.384,0,0,0,.016.717A19.689,19.689,0,0,0,167.75,145.672Z" transform="translate(-167.282 -140.703)" fill="#ededed"/>
      </g>
    </g>
    <g id="MAN_HEAD" transform="translate(188.954 142.132)">
      <g id="Group_3267" data-name="Group 3267" transform="translate(0)">
        <g id="Group_3263" data-name="Group 3263">
          <path id="Path_2565" data-name="Path 2565" d="M184.037,136.913s-2,8.322-7.073,11.7-2.3-13.779-2.3-13.779Z" transform="translate(-153.215 -111.892)" fill="#ff2d26"/>
          <g id="Group_3261" data-name="Group 3261" transform="translate(24.519 28.228)">
            <path id="Path_2566" data-name="Path 2566" d="M178.643,140.16s2.364-2.219,4.179-.45-1.124,6.982-5.88,6.566Z" transform="translate(-176.942 -139.026)" fill="#fff"/>
            <path id="Path_2567" data-name="Path 2567" d="M181.331,140.733a6.007,6.007,0,0,0-3.308,2.632" transform="translate(-176.659 -138.58)" fill="none" stroke="#000" stroke-linecap="round" stroke-linejoin="round" stroke-miterlimit="10" stroke-width="0.595"/>
          </g>
          <path id="Path_2568" data-name="Path 2568" d="M173.579,129.312c4.184-.468,8.188,1.7,9.314,6.156.742,2.934.029,6.777-.732,10.435-1.521,7.308-6.741,12.551-13.194,7.089S159.387,130.9,173.579,129.312Z" transform="translate(-155.927 -113.351)" fill="#fff"/>
          <path id="Path_2569" data-name="Path 2569" d="M168.656,154.256l-1.442-3.555.527-4.2,1.852-2.538s5.541-.028,3.134-6.319c0,0,7.342,7.37,14.129,6.378s11.223-9.292,9.859-11.532c-1.3-2.147-4.312.534-4.552.752.3-.5,6.164-10.161,1.532-15.219-4.752-5.184-16,5.47-22.5,11.935-1,.988-1.971,1.908-2.9,2.773.5-1.625,1.241-4.23,1.791-6.926.9-4.45-5.58-2.633-4.209,9.054,0,0-5.142-5.9-7.768-4.051-2.216,1.548,2.1,4.759,5.959,5.795-3,2.831-4.994,5.188-4.968,7.951C159.138,149.175,168.656,154.256,168.656,154.256Z" transform="translate(-157.499 -116.643)" fill="#ff2d26"/>
          <g id="Group_3262" data-name="Group 3262" transform="translate(4.266 28.58)">
            <path id="Path_2570" data-name="Path 2570" d="M167.008,141.453a3.8,3.8,0,0,0-4.633-1.957c-3.327.95-.961,8.327,5.79,6.518Z" transform="translate(-160.882 -139.305)" fill="#fff"/>
            <path id="Path_2571" data-name="Path 2571" d="M166.325,143.7s-1.254-2.843-4.125-2.865" transform="translate(-160.537 -138.907)" fill="none" stroke="#000" stroke-linecap="round" stroke-linejoin="round" stroke-miterlimit="10" stroke-width="0.595"/>
            <path id="Path_2572" data-name="Path 2572" d="M163.343,143.524a3.321,3.321,0,0,1,.82-2.142" transform="translate(-160.239 -138.763)" fill="none" stroke="#000" stroke-linecap="round" stroke-linejoin="round" stroke-miterlimit="10" stroke-width="0.595"/>
          </g>
        </g>
        <g id="Group_3266" data-name="Group 3266" transform="translate(11.874 24.82)">
          <path id="Path_2573" data-name="Path 2573" d="M167.094,138.577s1.406-2.713,3.463-1.629c0,0,.068-.621.612-.625s.566,1.7.566,1.7A11.755,11.755,0,0,0,167.094,138.577Z" transform="translate(-166.868 -136.324)"/>
          <path id="Path_2574" data-name="Path 2574" d="M177.575,138.481s-.876-2.653-2.235-1.493c0,0-.172-.487-.524-.454-.61.058-.319,1.638-.319,1.638A4.947,4.947,0,0,1,177.575,138.481Z" transform="translate(-164.953 -136.269)"/>
          <g id="Group_3264" data-name="Group 3264" transform="translate(2.051 4.574)">
            <ellipse id="Ellipse_1016" data-name="Ellipse 1016" cx="1.418" cy="1.147" rx="1.418" ry="1.147" transform="matrix(0.05, -0.999, 0.999, 0.05, 0, 2.833)"/>
            <circle id="Ellipse_1017" data-name="Ellipse 1017" cx="0.305" cy="0.305" r="0.305" transform="translate(1.19 0.68)" fill="#fff"/>
          </g>
          <g id="Group_3265" data-name="Group 3265" transform="translate(8.8 4.912)">
            <ellipse id="Ellipse_1018" data-name="Ellipse 1018" cx="1.418" cy="1.147" rx="1.418" ry="1.147" transform="matrix(0.05, -0.999, 0.999, 0.05, 0, 2.833)"/>
            <circle id="Ellipse_1019" data-name="Ellipse 1019" cx="0.305" cy="0.305" r="0.305" transform="translate(1.189 0.679)" fill="#fff"/>
          </g>
          <path id="Path_2575" data-name="Path 2575" d="M173.055,143.617s1.341.569.993,1.538c-.4,1.123-2.016.625-2.016.625" transform="translate(-165.579 -134.419)" fill="none" stroke="#000" stroke-linecap="round" stroke-linejoin="round" stroke-miterlimit="10" stroke-width="0.595"/>
          <circle id="Ellipse_1020" data-name="Ellipse 1020" cx="3.18" cy="3.18" r="3.18" transform="translate(0 2.908)" fill="none" stroke="#000" stroke-linecap="round" stroke-linejoin="round" stroke-miterlimit="10" stroke-width="0.595"/>
          <circle id="Ellipse_1021" data-name="Ellipse 1021" cx="3.18" cy="3.18" r="3.18" transform="translate(7.854 3.095)" fill="none" stroke="#000" stroke-linecap="round" stroke-linejoin="round" stroke-miterlimit="10" stroke-width="0.595"/>
          <path id="Path_2576" data-name="Path 2576" d="M173.559,147.515a4.981,4.981,0,0,1-4.95-1.895" transform="translate(-166.473 -133.896)" fill="none" stroke="#000" stroke-linecap="round" stroke-linejoin="round" stroke-miterlimit="10" stroke-width="0.595"/>
        </g>
      </g>
    </g>
    <g id="WOMAN_2_RIGHT_HAND" transform="translate(225.749 184.125)">
      <g id="Group_3268" data-name="Group 3268" transform="translate(0)">
        <path id="Path_2577" data-name="Path 2577" d="M190.624,151.6c-3.9,4.183-4.493,8.732-3.561,9.58s1.78-.424,1.78-.424.254,1.7,1.611,1.7a2.176,2.176,0,0,0,1.865-1.462,2.285,2.285,0,0,0,1.356,1.971c1.272.424,2.374-2.035,2.374-2.035s0,2.628,1.78,2.374,2.543-5.765,5.341-7.121,1.187,2.543,1.1,4.663,2.035,2.8,3.306-.254.763-8.139-1.611-9.749a5.3,5.3,0,0,0-4.917-.424,2.883,2.883,0,0,0-3.264.085s-1.335-1.272-3.5.191C194.291,150.691,192.679,149.4,190.624,151.6Z" transform="translate(-186.676 -149.941)" fill="#fff"/>
        <path id="Path_2578" data-name="Path 2578" d="M194.109,159.693a17.343,17.343,0,0,1,3.349-7.291" transform="translate(-184.735 -149.298)" fill="none" stroke="#000" stroke-linecap="round" stroke-linejoin="round" stroke-miterlimit="10" stroke-width="0.586"/>
        <path id="Path_2579" data-name="Path 2579" d="M191.252,159.78a15.821,15.821,0,0,1,3.73-7.715" transform="translate(-185.481 -149.386)" fill="none" stroke="#000" stroke-linecap="round" stroke-linejoin="round" stroke-miterlimit="10" stroke-width="0.586"/>
        <path id="Path_2580" data-name="Path 2580" d="M188.563,159.51a15.627,15.627,0,0,1,4.281-7.545" transform="translate(-186.183 -149.412)" fill="none" stroke="#000" stroke-linecap="round" stroke-linejoin="round" stroke-miterlimit="10" stroke-width="0.586"/>
      </g>
    </g>
    <g id="WOMAN_1_LEFT_HAND" transform="translate(169.911 183.543)">
      <g id="Group_3269" data-name="Group 3269">
        <path id="Path_2581" data-name="Path 2581" d="M160.033,151.142c3.9,4.183,4.493,8.732,3.561,9.58s-1.78-.424-1.78-.424-.254,1.7-1.611,1.7a2.176,2.176,0,0,1-1.865-1.462,2.285,2.285,0,0,1-1.356,1.971c-1.272.424-2.374-2.035-2.374-2.035s0,2.628-1.78,2.374-2.543-5.765-5.341-7.121-1.187,2.543-1.1,4.663-2.035,2.8-3.306-.254-.763-8.139,1.611-9.749a5.3,5.3,0,0,1,4.917-.424,2.883,2.883,0,0,1,3.264.085s1.335-1.272,3.5.191C156.366,150.23,157.977,148.937,160.033,151.142Z" transform="translate(-142.4 -149.48)" fill="#fff"/>
        <path id="Path_2582" data-name="Path 2582" d="M152.773,159.231a17.344,17.344,0,0,0-3.349-7.291" transform="translate(-140.566 -148.837)" fill="none" stroke="#000" stroke-linecap="round" stroke-linejoin="round" stroke-miterlimit="10" stroke-width="0.586"/>
        <path id="Path_2583" data-name="Path 2583" d="M155.709,159.319a15.822,15.822,0,0,0-3.73-7.715" transform="translate(-139.899 -148.925)" fill="none" stroke="#000" stroke-linecap="round" stroke-linejoin="round" stroke-miterlimit="10" stroke-width="0.586"/>
        <path id="Path_2584" data-name="Path 2584" d="M158.512,159.048a15.627,15.627,0,0,0-4.281-7.545" transform="translate(-139.311 -148.951)" fill="none" stroke="#000" stroke-linecap="round" stroke-linejoin="round" stroke-miterlimit="10" stroke-width="0.586"/>
      </g>
    </g>
    <g id="BULB" transform="translate(161.08 35.877)">
      <g id="Group_3271" data-name="Group 3271">
        <circle id="Ellipse_1022" data-name="Ellipse 1022" cx="7.625" cy="7.625" r="7.625" transform="translate(63.372 71.497)" fill="#5222d0"/>
        <path id="Path_2585" data-name="Path 2585" d="M195.165,52.785a27.862,27.862,0,0,1,6.77,20.16,25.876,25.876,0,0,1-.3,2.633q-.143.9-.344,1.785a20.691,20.691,0,0,0,3.368,16.907l-15.2,11.961a18.917,18.917,0,0,0-10.747-6.637,17.877,17.877,0,0,0-4.341-.507,27.819,27.819,0,0,1-3.331-.163c-.6-.061-1.2-.148-1.808-.251a27.977,27.977,0,1,1,25.926-45.889Z" transform="translate(-132.617 -29.576)" fill="#5222d0"/>
        <g id="Group_3270" data-name="Group 3270">
          <line id="Line_124" data-name="Line 124" x2="5.404" y2="6.866" transform="translate(15.44 8.544)" fill="none" stroke="#ecbdbb" stroke-linecap="round" stroke-linejoin="round" stroke-miterlimit="10" stroke-width="0.586"/>
          <line id="Line_125" data-name="Line 125" x2="8.676" y2="1.033" transform="translate(0 36.068)" fill="none" stroke="#ecbdbb" stroke-linecap="round" stroke-linejoin="round" stroke-miterlimit="10" stroke-width="0.586"/>
          <line id="Line_126" data-name="Line 126" y1="5.404" x2="6.866" transform="translate(8.544 61.043)" fill="none" stroke="#ecbdbb" stroke-linecap="round" stroke-linejoin="round" stroke-miterlimit="10" stroke-width="0.586"/>
          <line id="Line_127" data-name="Line 127" y1="8.676" x2="1.033" transform="translate(36.068 73.21)" fill="none" stroke="#ecbdbb" stroke-linecap="round" stroke-linejoin="round" stroke-miterlimit="10" stroke-width="0.586"/>
          <line id="Line_128" data-name="Line 128" x1="1.033" y2="8.676" transform="translate(44.785)" fill="none" stroke="#ecbdbb" stroke-linecap="round" stroke-linejoin="round" stroke-miterlimit="10" stroke-width="0.586"/>
          <line id="Line_129" data-name="Line 129" x1="6.866" y2="5.404" transform="translate(66.476 15.439)" fill="none" stroke="#ecbdbb" stroke-linecap="round" stroke-linejoin="round" stroke-miterlimit="10" stroke-width="0.586"/>
          <line id="Line_130" data-name="Line 130" x1="8.676" y1="1.033" transform="translate(73.21 44.786)" fill="none" stroke="#ecbdbb" stroke-linecap="round" stroke-linejoin="round" stroke-miterlimit="10" stroke-width="0.586"/>
        </g>
        <path id="Path_2586" data-name="Path 2586" d="M175.626,77.454s-8.587.717-12.4-5.964,10.208-7.6,9.849-1.912c-.452,7.167-8.874-7.14-1.261-9.223,5.652-1.546,8.441,8,6.965,14.185" transform="translate(-128.304 -25.13)" fill="none" stroke="#ecbdbb" stroke-linecap="round" stroke-linejoin="round" stroke-miterlimit="10" stroke-width="0.586"/>
        <path id="Path_2587" data-name="Path 2587" d="M204.045,92.238l-17.133,13.486a1.769,1.769,0,0,1-2.484-.3l-6.85-8.7a1.769,1.769,0,0,1,.3-2.484l17.133-13.486a1.769,1.769,0,0,1,2.484.3l6.85,8.7A1.769,1.769,0,0,1,204.045,92.238Z" transform="translate(-124.482 -19.858)" fill="#9ab3da"/>
      </g>
    </g>
    <g id="GROUND" transform="translate(42.017 373.861)">
      <g id="Group_3275" data-name="Group 3275">
        <g id="Group_3272" data-name="Group 3272">
          <line id="Line_131" data-name="Line 131" x2="73.655" transform="translate(248.654)" fill="none" stroke="#6b81be" stroke-linecap="round" stroke-linejoin="round" stroke-miterlimit="10" stroke-width="0.566"/>
          <line id="Line_132" data-name="Line 132" x2="230.977" fill="none" stroke="#6b81be" stroke-linecap="round" stroke-linejoin="round" stroke-miterlimit="10" stroke-width="0.566"/>
        </g>
        <g id="Group_3273" data-name="Group 3273" transform="translate(36.383 12.65)">
          <line id="Line_133" data-name="Line 133" x1="36.808" fill="none" stroke="#6b81be" stroke-linecap="round" stroke-linejoin="round" stroke-miterlimit="10" stroke-width="0.566"/>
          <line id="Line_134" data-name="Line 134" x1="211.337" transform="translate(48.792)" fill="none" stroke="#6b81be" stroke-linecap="round" stroke-linejoin="round" stroke-miterlimit="10" stroke-width="0.566"/>
        </g>
        <g id="Group_3274" data-name="Group 3274" transform="translate(73.478 25.3)">
          <line id="Line_135" data-name="Line 135" x2="24.946" transform="translate(120.414)" fill="none" stroke="#6b81be" stroke-linecap="round" stroke-linejoin="round" stroke-miterlimit="10" stroke-width="0.566"/>
          <line id="Line_136" data-name="Line 136" x2="112.181" fill="none" stroke="#6b81be" stroke-linecap="round" stroke-linejoin="round" stroke-miterlimit="10" stroke-width="0.566"/>
        </g>
      </g>
    </g>
  </g>
</svg>
