<svg width="1297" height="785" viewBox="0 0 1297 785" fill="none" xmlns="http://www.w3.org/2000/svg">
<g clip-path="url(#clip0_310_1434)">
<path d="M1276.78 2.17352e-08H374.969C371.534 0.00312189 368.241 1.36829 365.812 3.79583C363.383 6.22337 362.017 9.5149 362.014 12.9479V623.698C362.017 627.131 363.383 630.423 365.812 632.85C368.241 635.278 371.534 636.643 374.969 636.646H1276.78C1278.65 636.646 1280.5 636.24 1282.2 635.456C1283.9 634.671 1285.41 633.527 1286.63 632.103C1286.73 631.991 1286.83 631.872 1286.91 631.746C1287.68 630.801 1288.31 629.745 1288.77 628.613C1289.42 627.057 1289.75 625.385 1289.75 623.698V12.948C1289.74 9.51251 1288.38 6.21909 1285.94 3.79125C1283.51 1.36342 1280.21 -0.000198784 1276.78 2.17352e-08ZM1286.05 623.698C1286.05 625.505 1285.52 627.271 1284.52 628.776C1283.63 630.101 1282.42 631.183 1281.01 631.924C1279.7 632.6 1278.25 632.952 1276.78 632.949H374.969C372.515 632.946 370.162 631.97 368.427 630.236C366.692 628.502 365.716 626.151 365.713 623.698V12.948C365.716 10.4954 366.692 8.14424 368.427 6.41005C370.162 4.67586 372.515 3.7003 374.969 3.69732H1276.78C1279.23 3.697 1281.59 4.67103 1283.33 6.4055C1285.07 8.13996 1286.04 10.493 1286.05 12.948V623.698Z" fill="#3F3D56"/>
<path d="M1287.89 51.8945H363.86V55.5959H1287.89V51.8945Z" fill="#3F3D56"/>
<path d="M395.341 38.8654C401.477 38.8654 406.451 33.8938 406.451 27.761C406.451 21.6282 401.477 16.6566 395.341 16.6566C389.204 16.6566 384.23 21.6282 384.23 27.761C384.23 33.8938 389.204 38.8654 395.341 38.8654Z" fill="#3F3D56"/>
<path d="M427.283 38.8654C433.42 38.8654 438.394 33.8938 438.394 27.761C438.394 21.6282 433.42 16.6566 427.283 16.6566C421.147 16.6566 416.173 21.6282 416.173 27.761C416.173 33.8938 421.147 38.8654 427.283 38.8654Z" fill="#3F3D56"/>
<path d="M459.226 38.8654C465.362 38.8654 470.337 33.8938 470.337 27.761C470.337 21.6282 465.362 16.6566 459.226 16.6566C453.09 16.6566 448.116 21.6282 448.116 27.761C448.116 33.8938 453.09 38.8654 459.226 38.8654Z" fill="#3F3D56"/>
<path d="M1178.32 320.24H457.76C451.063 320.233 444.644 317.571 439.909 312.839C435.174 308.107 432.51 301.69 432.503 294.998V142.058C432.51 135.366 435.174 128.949 439.909 124.217C444.644 119.485 451.063 116.823 457.76 116.815H1178.32C1185.01 116.823 1191.43 119.485 1196.17 124.217C1200.9 128.949 1203.56 135.366 1203.57 142.058V294.998C1203.56 301.69 1200.9 308.107 1196.17 312.839C1191.43 317.571 1185.01 320.233 1178.32 320.24ZM457.76 119.785C451.851 119.792 446.187 122.141 442.009 126.316C437.831 130.492 435.481 136.153 435.474 142.058V294.998C435.481 300.903 437.831 306.564 442.009 310.74C446.187 314.915 451.851 317.264 457.76 317.271H1178.32C1184.22 317.264 1189.89 314.915 1194.07 310.74C1198.24 306.564 1200.59 300.903 1200.6 294.998V142.058C1200.59 136.153 1198.24 130.492 1194.07 126.316C1189.89 122.141 1184.22 119.792 1178.32 119.785H457.76Z" fill="#F2F2F2"/>
<path d="M616.728 596.424H457.76C451.063 596.416 444.644 593.754 439.909 589.022C435.174 584.29 432.51 577.873 432.503 571.181V458.332C432.51 451.64 435.174 445.223 439.909 440.491C444.644 435.759 451.063 433.097 457.76 433.089H616.728C623.424 433.097 629.843 435.759 634.578 440.491C639.313 445.223 641.977 451.64 641.984 458.332V571.181C641.977 577.873 639.313 584.29 634.578 589.022C629.843 593.754 623.424 596.416 616.728 596.424ZM457.76 436.059C451.851 436.066 446.187 438.415 442.009 442.59C437.831 446.766 435.481 452.427 435.474 458.332V571.181C435.481 577.086 437.831 582.747 442.009 586.923C446.187 591.098 451.851 593.447 457.76 593.454H616.728C622.636 593.447 628.3 591.098 632.478 586.923C636.656 582.747 639.006 577.086 639.013 571.181V458.332C639.006 452.427 636.656 446.766 632.478 442.59C628.3 438.415 622.636 436.066 616.728 436.059H457.76Z" fill="#F2F2F2"/>
<path d="M1178.32 596.424H1019.35C1012.65 596.416 1006.23 593.754 1001.5 589.022C996.762 584.29 994.098 577.873 994.091 571.181V458.332C994.098 451.64 996.762 445.223 1001.5 440.491C1006.23 435.759 1012.65 433.097 1019.35 433.089H1178.32C1185.01 433.097 1191.43 435.759 1196.17 440.491C1200.9 445.223 1203.56 451.64 1203.57 458.332V571.181C1203.56 577.873 1200.9 584.29 1196.17 589.022C1191.43 593.754 1185.01 596.416 1178.32 596.424ZM1019.35 436.059C1013.44 436.066 1007.77 438.415 1003.6 442.59C999.419 446.766 997.069 452.427 997.062 458.332V571.181C997.069 577.086 999.419 582.747 1003.6 586.923C1007.77 591.098 1013.44 593.447 1019.35 593.454H1178.32C1184.22 593.447 1189.89 591.098 1194.07 586.923C1198.24 582.747 1200.59 577.086 1200.6 571.181V458.332C1200.59 452.427 1198.24 446.766 1194.07 442.59C1189.89 438.415 1184.22 436.066 1178.32 436.059H1019.35Z" fill="#F2F2F2"/>
<path d="M909.407 596.424H750.439C743.743 596.416 737.323 593.754 732.588 589.022C727.853 584.29 725.19 577.873 725.183 571.181V458.332C725.19 451.64 727.853 445.223 732.588 440.491C737.323 435.759 743.743 433.097 750.439 433.089H909.407C916.103 433.097 922.523 435.759 927.258 440.491C931.993 445.223 934.656 451.64 934.664 458.332V571.181C934.656 577.873 931.993 584.29 927.258 589.022C922.523 593.754 916.103 596.416 909.407 596.424ZM750.439 436.059C744.531 436.066 738.866 438.415 734.688 442.59C730.511 446.766 728.161 452.427 728.154 458.332V571.181C728.161 577.086 730.511 582.747 734.688 586.923C738.866 591.098 744.531 593.447 750.439 593.454H909.407C915.315 593.447 920.98 591.098 925.158 586.923C929.336 582.747 931.686 577.086 931.692 571.181V458.332C931.686 452.427 929.336 446.766 925.158 442.59C920.98 438.415 915.315 436.066 909.407 436.059H750.439Z" fill="#F2F2F2"/>
<path d="M441.344 123.779L440.638 126.664L1201.73 312.773L1202.44 309.889L441.344 123.779Z" fill="#F2F2F2"/>
<path d="M1194.71 123.734L440.645 310.44L441.359 313.323L1195.43 126.616L1194.71 123.734Z" fill="#F2F2F2"/>
<path d="M1208.03 371.468H487.473C480.974 371.46 474.743 368.877 470.147 364.284C465.552 359.691 462.967 353.463 462.959 346.968V194.028C462.967 187.532 465.552 181.305 470.147 176.711C474.743 172.118 480.974 169.535 487.473 169.527H1208.03C1214.53 169.535 1220.76 172.119 1225.35 176.712C1229.95 181.305 1232.54 187.532 1232.54 194.028V346.968C1232.54 353.463 1229.95 359.69 1225.35 364.284C1220.76 368.877 1214.53 371.46 1208.03 371.468V371.468Z" fill="white"/>
<path d="M735.146 439.794L733.318 442.136L923.732 590.589L925.559 588.247L735.146 439.794Z" fill="#F2F2F2"/>
<path d="M924.683 439.795L736.769 590.079L738.625 592.397L926.54 442.114L924.683 439.795Z" fill="#F2F2F2"/>
<path d="M442.466 439.795L440.638 442.137L631.052 590.59L632.879 588.249L442.466 439.795Z" fill="#F2F2F2"/>
<path d="M632.004 439.795L444.089 590.079L445.945 592.397L633.86 442.114L632.004 439.795Z" fill="#F2F2F2"/>
<path d="M1004.06 439.793L1002.23 442.135L1192.64 590.588L1194.47 588.246L1004.06 439.793Z" fill="#F2F2F2"/>
<path d="M1193.59 439.795L1005.68 590.079L1007.53 592.398L1195.45 442.114L1193.59 439.795Z" fill="#F2F2F2"/>
<path d="M931.692 704.075H772.724C766.225 704.068 759.994 701.485 755.398 696.891C750.802 692.298 748.217 686.071 748.21 679.575V566.726C748.217 560.231 750.802 554.003 755.398 549.41C759.994 544.817 766.225 542.234 772.724 542.226H931.692C938.191 542.234 944.422 544.817 949.017 549.41C953.613 554.003 956.198 560.231 956.205 566.726V679.575C956.198 686.071 953.613 692.298 949.017 696.891C944.422 701.485 938.191 704.068 931.692 704.075Z" fill="#FF2D26"/>
<path d="M1014.72 706.303H689.356C688.962 706.303 688.584 706.146 688.305 705.868C688.027 705.589 687.87 705.212 687.87 704.818C687.87 704.424 688.027 704.046 688.305 703.768C688.584 703.489 688.962 703.333 689.356 703.333H1014.72C1015.11 703.333 1015.49 703.489 1015.77 703.768C1016.05 704.046 1016.21 704.424 1016.21 704.818C1016.21 705.212 1016.05 705.589 1015.77 705.868C1015.49 706.146 1015.11 706.303 1014.72 706.303Z" fill="#CCCCCC"/>
<path d="M326.85 785H1.48568C1.09165 785 0.713764 784.844 0.435145 784.565C0.156526 784.287 0 783.909 0 783.515C0 783.121 0.156526 782.744 0.435145 782.465C0.713764 782.187 1.09165 782.03 1.48568 782.03H326.85C327.244 782.03 327.622 782.187 327.9 782.465C328.179 782.744 328.336 783.121 328.336 783.515C328.336 783.909 328.179 784.287 327.9 784.565C327.622 784.844 327.244 785 326.85 785Z" fill="#CCCCCC"/>
<path d="M872.938 614.984H831.339C828.186 614.984 825.163 613.733 822.934 611.505C820.705 609.277 819.453 606.256 819.453 603.105C819.453 599.955 820.705 596.933 822.934 594.706C825.163 592.478 828.186 591.227 831.339 591.227H872.938C876.09 591.227 879.113 592.478 881.342 594.706C883.571 596.933 884.823 599.955 884.823 603.105C884.823 606.256 883.571 609.277 881.342 611.505C879.113 613.733 876.09 614.984 872.938 614.984Z" fill="white"/>
<path d="M897.522 655.075H806.895C803.743 655.075 800.72 653.824 798.491 651.596C796.262 649.368 795.01 646.347 795.01 643.196C795.01 640.046 796.262 637.025 798.491 634.797C800.72 632.569 803.743 631.318 806.895 631.318H897.522C900.674 631.318 903.697 632.569 905.926 634.797C908.155 637.025 909.407 640.046 909.407 643.196C909.407 646.347 908.155 649.368 905.926 651.596C903.697 653.824 900.674 655.075 897.522 655.075Z" fill="white"/>
<path d="M641.984 617.954H483.016C476.517 617.947 470.286 615.363 465.69 610.77C461.095 606.177 458.51 599.949 458.502 593.454V480.605C458.51 474.109 461.095 467.882 465.69 463.289C470.286 458.696 476.517 456.112 483.016 456.105H641.984C648.483 456.112 654.714 458.696 659.31 463.289C663.906 467.882 666.491 474.109 666.498 480.605V593.454C666.491 599.949 663.906 606.177 659.31 610.77C654.714 615.363 648.483 617.947 641.984 617.954Z" fill="#FF2D26"/>
<path d="M583.23 528.863H541.631C538.478 528.863 535.455 527.611 533.226 525.383C530.997 523.156 529.745 520.134 529.745 516.984C529.745 513.833 530.997 510.812 533.226 508.584C535.455 506.356 538.478 505.105 541.631 505.105H583.23C586.382 505.105 589.405 506.356 591.634 508.584C593.863 510.812 595.115 513.833 595.115 516.984C595.115 520.134 593.863 523.156 591.634 525.383C589.405 527.611 586.382 528.863 583.23 528.863Z" fill="white"/>
<path d="M607.813 568.954H517.187C514.035 568.954 511.011 567.702 508.782 565.474C506.553 563.247 505.301 560.225 505.301 557.075C505.301 553.924 506.553 550.903 508.782 548.675C511.011 546.448 514.035 545.196 517.187 545.196H607.813C610.966 545.196 613.989 546.448 616.218 548.675C618.447 550.903 619.699 553.924 619.699 557.075C619.699 560.225 618.447 563.247 616.218 565.474C613.989 567.702 610.966 568.954 607.813 568.954Z" fill="white"/>
<path d="M1212.49 661.015H1053.52C1047.02 661.007 1040.79 658.424 1036.19 653.831C1031.6 649.238 1029.01 643.01 1029 636.515V523.666C1029.01 517.17 1031.6 510.943 1036.19 506.35C1040.79 501.756 1047.02 499.173 1053.52 499.166H1212.49C1218.98 499.173 1225.22 501.756 1229.81 506.35C1234.41 510.943 1236.99 517.17 1237 523.666V636.515C1236.99 643.01 1234.41 649.238 1229.81 653.831C1225.22 658.424 1218.98 661.007 1212.49 661.015Z" fill="#E6E6E6"/>
<path d="M1153.73 571.923H1112.13C1108.98 571.923 1105.96 570.672 1103.73 568.444C1101.5 566.217 1100.25 563.195 1100.25 560.045C1100.25 556.894 1101.5 553.873 1103.73 551.645C1105.96 549.417 1108.98 548.166 1112.13 548.166H1153.73C1156.88 548.166 1159.91 549.417 1162.13 551.645C1164.36 553.873 1165.62 556.894 1165.62 560.045C1165.62 563.195 1164.36 566.217 1162.13 568.444C1159.91 570.672 1156.88 571.923 1153.73 571.923Z" fill="white"/>
<path d="M1178.31 612.015H1087.69C1084.54 612.015 1081.51 610.763 1079.28 608.535C1077.05 606.308 1075.8 603.286 1075.8 600.136C1075.8 596.985 1077.05 593.964 1079.28 591.736C1081.51 589.508 1084.54 588.257 1087.69 588.257H1178.31C1181.47 588.257 1184.49 589.508 1186.72 591.736C1188.95 593.964 1190.2 596.985 1190.2 600.136C1190.2 603.286 1188.95 606.308 1186.72 608.535C1184.49 610.763 1181.47 612.015 1178.31 612.015Z" fill="white"/>
<path d="M447.703 514.662V496.458L377.448 487.797L377.449 514.665L447.703 514.662Z" fill="#A0616A"/>
<path d="M464.614 461.349L464.616 518.562L442.499 518.563L442.498 483.455C442.497 477.593 444.827 471.97 448.975 467.825C453.122 463.679 458.748 461.35 464.614 461.349V461.349V461.349Z" fill="#2F2E41"/>
<path d="M134.833 764.586L153.048 764.584L161.712 694.368L134.83 694.37L134.833 764.586Z" fill="#A0616A"/>
<path d="M188.175 781.487L130.931 781.489L130.93 759.384L166.057 759.383C171.923 759.382 177.549 761.711 181.697 765.856C185.845 770.002 188.175 775.624 188.175 781.487V781.487Z" fill="#2F2E41"/>
<path d="M157.359 739.283C157.142 739.283 156.923 739.273 156.703 739.254L131.896 737.189C130.868 737.104 129.867 736.811 128.955 736.329C128.043 735.846 127.238 735.184 126.59 734.382C125.941 733.58 125.461 732.655 125.18 731.663C124.899 730.671 124.822 729.632 124.954 728.609L137.828 628.532C137.878 628.143 137.878 627.749 137.829 627.36L117.378 466.061C117.243 464.995 117.335 463.913 117.647 462.885C117.96 461.857 118.486 460.906 119.191 460.095C119.896 459.284 120.764 458.631 121.739 458.179C122.714 457.726 123.773 457.484 124.848 457.469L197.19 456.444C197.559 456.442 197.927 456.464 198.293 456.508L198.491 456.563L212.406 462.582L414.699 484.849C416.538 485.092 418.227 485.993 419.452 487.386C420.677 488.778 421.355 490.567 421.36 492.421V518.453C421.36 519.53 421.132 520.594 420.691 521.577C420.25 522.559 419.606 523.437 418.802 524.154C417.997 524.87 417.05 525.408 416.023 525.732C414.995 526.057 413.911 526.16 412.841 526.037L295.974 512.422C295.383 512.35 294.784 512.396 294.211 512.557L201.794 538.013C200.952 538.246 200.193 538.713 199.605 539.36C199.017 540.006 198.624 540.805 198.471 541.665L164.864 732.969C164.558 734.737 163.637 736.34 162.264 737.495C160.891 738.65 159.153 739.283 157.359 739.283V739.283Z" fill="#2F2E41"/>
<path d="M151.431 310.304C178.973 310.304 201.3 287.989 201.3 260.463C201.3 232.936 178.973 210.621 151.431 210.621C123.889 210.621 101.562 232.936 101.562 260.463C101.562 287.989 123.889 310.304 151.431 310.304Z" fill="#2F2E41"/>
<path d="M133.986 228.629C145.382 228.629 154.621 219.395 154.621 208.005C154.621 196.615 145.382 187.381 133.986 187.381C122.589 187.381 113.35 196.615 113.35 208.005C113.35 219.395 122.589 228.629 133.986 228.629Z" fill="#2F2E41"/>
<path d="M106.471 196.834C106.472 191.736 108.361 186.819 111.775 183.031C115.188 179.243 119.884 176.853 124.957 176.321C124.243 176.247 123.526 176.21 122.808 176.21C117.338 176.214 112.094 178.389 108.228 182.257C104.362 186.124 102.19 191.367 102.19 196.834C102.19 202.301 104.362 207.544 108.228 211.411C112.094 215.278 117.338 217.453 122.808 217.458C123.526 217.458 124.243 217.42 124.957 217.346C119.884 216.815 115.188 214.424 111.775 210.637C108.361 206.849 106.472 201.932 106.471 196.834V196.834Z" fill="#2F2E41"/>
<path d="M157.305 484.569C144.917 484.569 131.138 481.141 116.792 471.583L116.549 471.42L116.482 471.137C116.349 470.578 103.15 414.746 102.89 371.504C102.81 363.911 104.549 356.409 107.96 349.624C111.371 342.838 116.357 336.967 122.501 332.499C128.406 328.078 135.283 325.134 142.559 323.911C149.835 322.688 157.298 323.223 164.325 325.471C165.254 325.765 166.185 326.081 167.118 326.418C176.86 330.053 185.139 336.782 190.686 345.573C196.233 354.364 198.742 364.73 197.826 375.083C195.945 397.932 195.19 439.545 211.28 461.531L211.656 462.046L211.204 462.495C210.894 462.804 188.518 484.569 157.305 484.569Z" fill="#CCCCCC"/>
<path d="M151.288 312.796C171.441 312.796 187.778 296.468 187.778 276.326C187.778 256.185 171.441 239.857 151.288 239.857C131.135 239.857 114.798 256.185 114.798 276.326C114.798 296.468 131.135 312.796 151.288 312.796Z" fill="#A0616A"/>
<path d="M106.592 273.92C107.116 276.039 107.168 278.247 106.745 280.389C106.323 282.53 105.436 284.553 104.146 286.315C102.857 288.077 101.196 289.535 99.2822 290.586C97.368 291.637 95.2465 292.256 93.0671 292.399L78.9876 343.56L60.8086 322.819L76.9659 277.416C76.9681 273.741 78.3192 270.194 80.763 267.448C83.2067 264.702 86.5735 262.947 90.2252 262.516C93.877 262.085 97.56 263.008 100.577 265.11C103.593 267.211 105.733 270.346 106.592 273.92V273.92Z" fill="#A0616A"/>
<path d="M51.244 386.652C48.9838 386.643 46.7586 386.093 44.7548 385.048C42.751 384.003 41.027 382.493 39.7273 380.645C38.4276 378.797 37.5901 376.664 37.2848 374.426C36.9796 372.188 37.2156 369.909 37.973 367.781L64.7392 292.616C65.374 290.863 66.6403 289.41 68.2903 288.541C69.9403 287.671 71.8553 287.449 73.6609 287.916L93.1666 293.077C94.1706 293.343 95.1078 293.815 95.9182 294.464C96.7285 295.113 97.3941 295.925 97.8721 296.846C98.3502 297.768 98.6302 298.779 98.6941 299.815C98.758 300.851 98.6044 301.889 98.2432 302.862L81.0411 349.204L110.219 339.928C112.716 339.135 115.349 338.866 117.955 339.14C120.56 339.414 123.08 340.224 125.357 341.519C127.634 342.814 129.617 344.566 131.183 346.665C132.749 348.764 133.863 351.165 134.455 353.715C135.046 356.265 135.103 358.911 134.622 361.484C134.141 364.058 133.131 366.504 131.658 368.669C130.184 370.833 128.278 372.669 126.059 374.061C123.84 375.453 121.357 376.371 118.766 376.757L53.3728 386.492C52.6682 386.598 51.9566 386.652 51.244 386.652V386.652Z" fill="#CCCCCC"/>
<path d="M157.231 270.519C176.226 270.519 191.624 261.285 191.624 249.895C191.624 238.505 176.226 229.271 157.231 229.271C138.237 229.271 122.839 238.505 122.839 249.895C122.839 261.285 138.237 270.519 157.231 270.519Z" fill="#2F2E41"/>
<path d="M261.923 496.693C259.815 496.12 257.859 495.092 256.192 493.682C254.525 492.272 253.188 490.513 252.274 488.531C251.361 486.548 250.893 484.389 250.905 482.206C250.917 480.023 251.407 477.87 252.341 475.897L214.455 438.726L241.428 432.933L273.27 469.119C276.483 470.908 278.927 473.812 280.14 477.281C281.352 480.751 281.25 484.545 279.851 487.943C278.452 491.342 275.855 494.11 272.551 495.723C269.246 497.336 265.465 497.681 261.923 496.693Z" fill="#A0616A"/>
<path d="M244.435 476.469C243.42 476.472 242.417 476.251 241.499 475.82C240.58 475.39 239.768 474.761 239.122 473.98L197.763 423.829L165.392 361.696C164.379 358.573 164.129 355.253 164.663 352.014C165.197 348.775 166.501 345.711 168.463 343.079C170.346 340.521 172.818 338.456 175.67 337.057C178.522 335.659 181.669 334.969 184.845 335.046C186.45 335.079 188.048 335.262 189.62 335.592C192.833 336.314 195.816 337.826 198.296 339.992C200.777 342.158 202.677 344.909 203.824 347.995L231.246 412.383L264.11 453.817C265.232 455.238 265.748 457.044 265.547 458.843C265.347 460.642 264.446 462.29 263.039 463.43L248.738 474.957C247.519 475.939 246 476.473 244.435 476.469V476.469Z" fill="#CCCCCC"/>
<path d="M1295.51 663.242H970.15C969.756 663.242 969.378 663.085 969.099 662.807C968.821 662.529 968.664 662.151 968.664 661.757C968.664 661.363 968.821 660.986 969.099 660.707C969.378 660.429 969.756 660.272 970.15 660.272H1295.51C1295.91 660.272 1296.29 660.429 1296.56 660.707C1296.84 660.986 1297 661.363 1297 661.757C1297 662.151 1296.84 662.529 1296.56 662.807C1296.29 663.085 1295.91 663.242 1295.51 663.242Z" fill="#CCCCCC"/>
<path d="M1009.35 368.848V370.726H691.858V368.76L693.568 366.344L794.222 224.322C794.688 223.676 795.301 223.151 796.01 222.788C796.719 222.426 797.504 222.236 798.3 222.236C799.097 222.236 799.882 222.426 800.591 222.788C801.3 223.151 801.913 223.676 802.378 224.322L869.873 319.556L917.92 252.359C918.386 251.717 918.998 251.194 919.706 250.833C920.414 250.473 921.196 250.285 921.991 250.285C922.785 250.285 923.568 250.473 924.275 250.833C924.983 251.194 925.595 251.717 926.061 252.359L1007.64 366.446L1009.35 368.848Z" fill="#FF2D26"/>
<path d="M691.2 274.354C711.609 274.354 728.154 257.819 728.154 237.421C728.154 217.023 711.609 200.488 691.2 200.488C670.791 200.488 654.246 217.023 654.246 237.421C654.246 257.819 670.791 274.354 691.2 274.354Z" fill="#FF2D26"/>
<path d="M1208.03 372.21H487.473C480.777 372.203 474.358 369.541 469.623 364.809C464.888 360.077 462.224 353.66 462.217 346.968V194.028C462.224 187.336 464.888 180.919 469.623 176.187C474.358 171.455 480.777 168.793 487.473 168.785H1208.03C1214.73 168.793 1221.14 171.455 1225.88 176.187C1230.61 180.919 1233.28 187.336 1233.29 194.028V346.968C1233.28 353.66 1230.61 360.077 1225.88 364.809C1221.14 369.541 1214.73 372.203 1208.03 372.21ZM487.473 171.755C481.565 171.762 475.901 174.111 471.723 178.286C467.545 182.462 465.195 188.123 465.188 194.028V346.968C465.195 352.873 467.545 358.534 471.723 362.71C475.901 366.885 481.565 369.234 487.473 369.241H1208.03C1213.94 369.234 1219.6 366.885 1223.78 362.71C1227.96 358.534 1230.31 352.873 1230.31 346.968V194.028C1230.31 188.123 1227.96 182.462 1223.78 178.286C1219.6 174.111 1213.94 171.762 1208.03 171.755H487.473Z" fill="#3F3D56"/>
</g>
<defs>
<clipPath id="clip0_310_1434">
<rect width="1297" height="785" fill="white"/>
</clipPath>
</defs>
</svg>
