<svg width="14" height="23" viewBox="0 0 14 23" fill="none" xmlns="http://www.w3.org/2000/svg">
<path d="M7.10208 19.6649C6.72103 19.0509 6.3484 18.4499 5.97471 17.8499C5.36313 16.8689 4.73787 15.8959 4.14419 14.9049C3.5905 13.9799 3.06734 13.0379 2.53682 12.1049C2.11723 11.3617 1.75998 10.5883 1.4684 9.79186C1.29998 9.33286 1.18313 8.85686 1.05577 8.38586C0.934949 7.92812 0.875183 7.45777 0.877871 6.98586C0.873971 6.39024 0.961922 5.79728 1.13892 5.22586C1.42765 4.28461 1.96125 3.42758 2.6905 2.73386C3.36687 2.0904 4.19012 1.60353 5.09644 1.31098C6.00276 1.01843 6.96781 0.928057 7.91682 1.04686C9.10082 1.18697 10.2152 1.65509 11.121 2.39286C11.8116 2.9439 12.3661 3.6325 12.7452 4.40986C13.1604 5.23421 13.356 6.14286 13.3147 7.05586C13.3032 7.42422 13.2681 7.79157 13.2095 8.15586C13.1495 8.49286 13.0368 8.82286 12.9452 9.15586C12.7498 9.82589 12.4931 10.4784 12.1779 11.1059C11.9452 11.5869 11.7063 12.0669 11.4473 12.5359C11.1158 13.1359 10.7705 13.7359 10.4168 14.3239C9.99577 15.0239 9.5684 15.7109 9.13998 16.4009C8.62208 17.2362 8.10243 18.0695 7.58103 18.9009L7.10208 19.6649ZM7.09471 4.66486C6.65889 4.66655 6.23327 4.79025 5.87104 5.02048C5.50881 5.25071 5.22605 5.57726 5.05811 5.95932C4.89017 6.34138 4.8445 6.76199 4.92681 7.16857C5.00911 7.57515 5.21575 7.94966 5.52087 8.24529C5.826 8.54092 6.21609 8.74455 6.64236 8.83073C7.06864 8.9169 7.5122 8.88179 7.91759 8.7298C8.32299 8.5778 8.67222 8.31566 8.92165 7.97613C9.17108 7.63661 9.30963 7.23478 9.31998 6.82086C9.32687 6.53945 9.27431 6.25957 9.1654 5.99778C9.05649 5.73599 8.89345 5.49759 8.68589 5.29669C8.47834 5.09579 8.2305 4.93645 7.95702 4.8281C7.68354 4.71975 7.38997 4.66459 7.09366 4.66586L7.09471 4.66486Z" fill="black" stroke="#707070" stroke-width="0.042"/>
<path d="M4.20421 18.1039C3.81473 18.2249 3.44 18.3329 3.07158 18.4599C2.76045 18.5554 2.47366 18.7114 2.22947 18.9179C2.16234 18.9633 2.1076 19.0233 2.06983 19.0929C2.03207 19.1625 2.01236 19.2396 2.01236 19.3179C2.01236 19.3962 2.03207 19.4734 2.06983 19.5429C2.1076 19.6125 2.16234 19.6725 2.22947 19.7179C2.53275 19.9784 2.8951 20.169 3.28842 20.2749C3.6821 20.3959 4.08737 20.4819 4.48842 20.5839C5.07206 20.7108 5.66624 20.7891 6.26421 20.8179C7.04707 20.8749 7.83403 20.8551 8.61263 20.7589C8.93057 20.7321 9.24679 20.6894 9.56 20.6309C10.3193 20.5147 11.0505 20.2702 11.7189 19.9089C11.8525 19.8254 11.9729 19.7244 12.0768 19.6089C12.157 19.5226 12.1994 19.4103 12.1953 19.2952C12.1912 19.1802 12.1409 19.0709 12.0547 18.9899C11.8087 18.749 11.5045 18.5687 11.1684 18.4649C10.7947 18.3239 10.4042 18.2239 9.99895 18.0999C10.0663 17.9829 10.1347 17.8579 10.2095 17.7369C10.4063 17.4189 10.6063 17.1029 10.8042 16.7839C10.8421 16.7239 10.8737 16.6939 10.9632 16.7209C11.6244 16.9048 12.2505 17.1877 12.8179 17.5589C13.3007 17.8526 13.6621 18.2955 13.8411 18.8129C13.9247 19.0729 13.9446 19.3477 13.8994 19.6161C13.8541 19.8846 13.7449 20.1397 13.58 20.3619C13.1389 20.9345 12.5333 21.3741 11.8358 21.6279C11.1313 21.9206 10.3901 22.1263 9.63052 22.2399C9.06421 22.3299 8.48842 22.3669 7.91579 22.4109C7.57263 22.4369 7.22737 22.4369 6.8821 22.4359C5.8564 22.436 4.83426 22.3212 3.83684 22.0939C2.92977 21.9187 2.07158 21.5644 1.31789 21.0539C0.992212 20.8554 0.726708 20.5796 0.547632 20.2537C0.368556 19.9279 0.282109 19.5633 0.296839 19.1959C0.338339 18.7001 0.577403 18.238 0.96526 17.9039C1.36755 17.5351 1.84214 17.245 2.3621 17.0499C2.65368 16.9359 2.95052 16.8309 3.24737 16.7299C3.27236 16.7249 3.29827 16.726 3.32273 16.733C3.34719 16.74 3.36942 16.7527 3.38737 16.7699C3.65579 17.1889 3.91368 17.6119 4.18 18.0349C4.19125 18.0568 4.19939 18.08 4.20421 18.1039Z" fill="black" stroke="#707070" stroke-width="0.042"/>
</svg>
