<svg width="920" height="782" viewBox="0 0 920 782" fill="none" xmlns="http://www.w3.org/2000/svg">
<g clip-path="url(#clip0_310_1483)">
<path d="M808.838 752.908C818.897 772.444 840.881 781.172 840.881 781.172C840.881 781.172 846.556 758.226 836.497 738.69C826.437 719.154 804.453 710.426 804.453 710.426C804.453 710.426 798.779 733.372 808.838 752.908Z" fill="#F1F1F1"/>
<path d="M816.133 746.686C834.751 758.374 841.57 781.007 841.57 781.007C841.57 781.007 818.203 784.689 799.585 773.001C780.967 761.312 774.147 738.68 774.147 738.68C774.147 738.68 797.515 734.997 816.133 746.686Z" fill="#F1F1F1"/>
<path d="M554.508 767.647H541.451L535.24 717.329L554.51 717.33L554.508 767.647Z" fill="#FFB7B7"/>
<path d="M557.837 780.293L515.737 780.291V779.759C515.738 775.417 517.464 771.253 520.537 768.183C523.61 765.112 527.778 763.387 532.124 763.387H532.125L557.837 763.388L557.837 780.293Z" fill="#2F2E41"/>
<path d="M635.445 767.647H622.389L616.178 717.329L635.448 717.33L635.445 767.647Z" fill="#FFB7B7"/>
<path d="M638.775 780.293L596.676 780.291V779.759C596.676 775.417 598.403 771.253 601.476 768.182C604.548 765.112 608.716 763.387 613.062 763.387H613.063L638.776 763.388L638.775 780.293Z" fill="#2F2E41"/>
<path d="M597.533 484.221L571.844 432.569L578.46 389.726L547.576 381.214L544.381 438.674L584.432 493.057C584.145 495.094 584.454 497.17 585.323 499.035C586.193 500.9 587.584 502.473 589.33 503.563C591.076 504.653 593.101 505.215 595.159 505.178C597.218 505.142 599.222 504.51 600.928 503.36C602.635 502.209 603.97 500.588 604.773 498.694C605.577 496.8 605.813 494.714 605.454 492.688C605.094 490.663 604.155 488.785 602.749 487.282C601.343 485.779 599.531 484.716 597.533 484.221V484.221Z" fill="#FFB7B7"/>
<path d="M653.105 484.221L678.794 432.569L672.178 389.726L703.063 381.214L706.258 438.674L666.206 493.057C666.494 495.094 666.185 497.17 665.315 499.035C664.446 500.9 663.054 502.473 661.308 503.563C659.562 504.653 657.538 505.215 655.479 505.178C653.421 505.142 651.417 504.51 649.71 503.36C648.004 502.209 646.668 500.588 645.865 498.694C645.062 496.8 644.826 494.714 645.185 492.688C645.544 490.663 646.484 488.785 647.889 487.282C649.295 485.779 651.107 484.716 653.105 484.221V484.221Z" fill="#FFB7B7"/>
<path d="M635.959 307.693C651.477 307.693 664.056 295.124 664.056 279.619C664.056 264.115 651.477 251.546 635.959 251.546C620.441 251.546 607.861 264.115 607.861 279.619C607.861 295.124 620.441 307.693 635.959 307.693Z" fill="#FFB9B9"/>
<path d="M608.074 279.469C608.074 279.469 605.026 274.9 606.198 269.98C606.899 267.186 607.175 264.304 607.019 261.428C608.33 257.165 609.977 253.013 611.943 249.01C614.406 244.558 613.233 242.684 620.972 241.278C628.71 239.872 625.544 229.797 645.946 240.692C646.634 241.652 647.592 242.387 648.698 242.804C649.804 243.221 651.009 243.302 652.16 243.035C656.381 242.215 657.906 248.073 657.906 248.073C657.906 248.073 660.72 246.432 661.775 248.775C662.83 251.119 670.354 247.369 670.354 263.185C670.354 279 661.792 293.127 661.792 293.127C661.792 293.127 655.779 312.083 641.826 309.388C627.873 306.694 625.852 308.324 616.267 290.235C614.305 295.89 611.292 274.422 608.074 279.469Z" fill="#2F2E41"/>
<path d="M574.2 461.019L570.942 473.782C570.942 473.782 555.598 481.191 549.457 547.719L541.186 647.472L528.562 752.013L554.804 754.047L573.001 687.815L612.313 548.554L619.768 653.907L611.474 749.385L639.164 750.449L658.333 644.041C658.333 644.041 687.7 488.181 668.757 483.645L666.853 467.404L574.2 461.019Z" fill="#2F2E41"/>
<path d="M568.125 341.058L613.327 316.17L651.69 318.216L697.511 345.315L678.413 464.484C678.413 464.484 689.36 476.713 656.275 473.122C623.189 469.532 569.714 466.62 569.714 466.62C569.714 466.62 565.413 458.093 574.599 456.896C583.785 455.699 576.104 455.979 576.104 455.979C576.104 455.979 570.553 438.169 576.104 434.697L578.79 398.121L568.125 341.058Z" fill="#3F3D56"/>
<path d="M580.591 342.907L568.125 341.058L541.718 388.13L584.624 407.031L580.591 342.907Z" fill="#3F3D56"/>
<path d="M682.828 351.42L697.511 345.315L712.114 411.54L672.484 419.039L682.828 351.42Z" fill="#3F3D56"/>
<path d="M343.828 782H918.824C919.136 782 919.435 781.876 919.656 781.656C919.876 781.436 920 781.137 920 780.825C920 780.514 919.876 780.215 919.656 779.994C919.435 779.774 919.136 779.65 918.824 779.65H343.828C343.516 779.65 343.217 779.774 342.997 779.994C342.776 780.215 342.652 780.514 342.652 780.825C342.652 781.137 342.776 781.436 342.997 781.656C343.217 781.876 343.516 782 343.828 782Z" fill="#CBCBCB"/>
<path d="M282.206 467.135H132.872V542.327H282.206V467.135Z" fill="white"/>
<path d="M264.563 486.383H150.516V490.246H264.563V486.383Z" fill="#FF2D26"/>
<path d="M264.563 502.8H150.516V506.662H264.563V502.8Z" fill="#FF2D26"/>
<path d="M264.563 519.216H150.516V523.079H264.563V519.216Z" fill="#FF2D26"/>
<path d="M283.382 543.502H131.696V465.96H283.382V543.502ZM134.048 541.152H281.031V468.31H134.048V541.152Z" fill="#3F3D56"/>
<path d="M174.894 373.743C143.279 373.769 112.284 364.978 85.3977 348.358L84.7148 347.935L85.1371 347.253L174.446 202.835H345.142V203.638C345.142 297.435 268.769 373.743 174.894 373.743Z" fill="#FF2D26"/>
<path d="M65.3782 312.423L64.8294 312.084C34.6968 293.468 12.9741 263.891 4.23918 229.587C-4.49573 195.282 0.439448 158.929 18.0046 128.188L18.325 127.63L137.558 195.705L65.3782 312.423Z" fill="#F1F1F1"/>
<path d="M345.142 180.05H173.894L210.81 12.9462L211.595 13.1184C249.459 21.4802 283.333 42.5029 307.616 72.7107C331.9 102.918 345.138 140.502 345.142 179.247V180.05Z" fill="#FF2D26"/>
<path d="M146.618 153.732L30.5869 87.4845L30.8988 86.9405C44.9657 62.3883 66.5118 42.9656 92.3978 31.5025C118.284 20.0394 147.157 17.1349 174.811 23.2121L175.423 23.3467L146.618 153.732Z" fill="#F1F1F1"/>
<path d="M580.88 1.17505H431.546V76.3666H580.88V1.17505Z" fill="white"/>
<path d="M563.236 20.4229H449.189V24.2856H563.236V20.4229Z" fill="#FF2D26"/>
<path d="M563.236 36.8394H449.189V40.7022H563.236V36.8394Z" fill="#FF2D26"/>
<path d="M563.236 53.256H449.189V57.1188H563.236V53.256Z" fill="#FF2D26"/>
<path d="M582.056 77.5413H430.37V0H582.056V77.5413ZM432.722 75.1916H579.704V2.34974H432.722V75.1916Z" fill="#3F3D56"/>
<path d="M209.034 272.533H206.683V465.96H209.034V272.533Z" fill="#3F3D56"/>
<path d="M430.965 38.858L254.42 118.643L255.389 120.784L431.934 40.9989L430.965 38.858Z" fill="#3F3D56"/>
</g>
<defs>
<clipPath id="clip0_310_1483">
<rect width="920" height="782" fill="white"/>
</clipPath>
</defs>
</svg>
