<svg width="21" height="20" viewBox="0 0 21 20" fill="none" xmlns="http://www.w3.org/2000/svg">
<path d="M14.8084 19.1197C13.7094 19.0727 12.6313 18.8184 11.6368 18.3717C9.27074 17.397 7.13218 15.9853 5.34537 14.2186C3.55856 12.452 2.15912 10.3656 1.22836 8.08071C0.88712 7.30256 0.715935 6.46664 0.725206 5.62371C0.718131 5.3236 0.774061 5.02516 0.889729 4.74582C1.0054 4.46647 1.17849 4.21181 1.39889 3.99671C1.93784 3.48471 2.46205 2.95571 3.0231 2.46571C3.14311 2.32797 3.29363 2.21708 3.46394 2.14097C3.63425 2.06486 3.82015 2.02539 4.00836 2.02539C4.19658 2.02539 4.38247 2.06486 4.55278 2.14097C4.72309 2.21708 4.87362 2.32797 4.99363 2.46571C5.87047 3.25071 6.72205 4.06571 7.55047 4.89371C7.67434 5.0014 7.77353 5.13218 7.84184 5.2779C7.91015 5.42362 7.94612 5.58115 7.9475 5.74066C7.94889 5.90017 7.91565 6.05824 7.84988 6.20501C7.7841 6.35178 7.6872 6.4841 7.56521 6.59371C7.10731 7.09371 6.61784 7.56571 6.12836 8.03571C6.01723 8.12011 5.9437 8.24123 5.92243 8.37487C5.90116 8.50852 5.93373 8.64487 6.01363 8.75671C6.80113 10.1243 7.84079 11.3463 9.0831 12.3647C9.8868 13.1052 10.8145 13.7135 11.8284 14.1647C11.9046 14.2117 11.9965 14.2302 12.0862 14.2167C12.176 14.2032 12.2574 14.1587 12.3147 14.0917C12.8684 13.5777 13.4273 13.0677 14.0063 12.5807C14.2319 12.3817 14.5284 12.2712 14.8363 12.2712C15.1441 12.2712 15.4406 12.3817 15.6663 12.5807C16.5936 13.4217 17.5073 14.2807 18.3957 15.1567C18.512 15.2637 18.6046 15.3917 18.668 15.5332C18.7315 15.6747 18.7646 15.8267 18.7654 15.9805C18.7662 16.1343 18.7346 16.2867 18.6726 16.4287C18.6106 16.5708 18.5193 16.6996 18.4042 16.8077C17.7726 17.4417 17.1199 18.0537 16.4515 18.6497C15.9791 18.9852 15.3972 19.1516 14.8084 19.1197Z" fill="black"/>
<path d="M10.8042 1.63891C10.8758 1.15591 10.9431 0.702914 11.0147 0.211914C13.399 0.532212 15.6155 1.56059 17.3473 3.14997C19.0792 4.73935 20.2376 6.8083 20.6568 9.06091C20.2063 9.14191 19.7884 9.23091 19.3653 9.28091C19.2884 9.28991 19.1431 9.14791 19.1084 9.05091C18.9137 8.50591 18.7926 7.93291 18.5547 7.40691C17.9385 5.94644 16.9416 4.65876 15.6576 3.66483C14.3737 2.6709 12.8448 2.00336 11.2147 1.72491C11.0905 1.70091 10.9726 1.67591 10.8042 1.63891Z" fill="black"/>
<path d="M10.6052 5.40079C10.6736 4.92679 10.741 4.46579 10.8105 3.98779C12.2334 4.17761 13.5561 4.7922 14.5873 5.74279C15.5628 6.62372 16.2472 7.75546 16.5568 8.99979C16.621 9.24179 16.5568 9.35679 16.2989 9.38779C16.0347 9.40579 15.7725 9.44391 15.5147 9.50179C15.1779 9.59579 15.0694 9.46079 14.9979 9.17679C14.7452 8.18922 14.1696 7.30312 13.3536 6.64579C12.6762 6.08412 11.8623 5.69133 10.9852 5.50279C10.8705 5.47679 10.7558 5.44079 10.6052 5.40079Z" fill="black"/>
</svg>
