<svg xmlns="http://www.w3.org/2000/svg" xmlns:xlink="http://www.w3.org/1999/xlink" width="813" height="791" viewBox="0 0 813 791"><defs><clipPath id="a"><rect width="813" height="791" fill="#fff" stroke="#707070" stroke-width="1"/></clipPath></defs><g clip-path="url(#a)"><g transform="translate(0.802 66.425)"><g transform="translate(0 0)"><g transform="translate(35.976)"><ellipse cx="8.356" cy="8.354" rx="8.356" ry="8.354" transform="translate(44.236 105.535)" fill="#ff2d26"/><rect transform="translate(70.348 128.64)" fill="#ec615b"/><ellipse cx="6.136" cy="6.135" rx="6.136" ry="6.135" transform="translate(180.996 434.616)" fill="#ec615b"/><ellipse cx="8.747" cy="8.746" rx="8.747" ry="8.746" transform="translate(597.867 68.202)" fill="#ff2d26"/><ellipse cx="3.656" cy="3.655" rx="3.656" ry="3.655" transform="translate(284.463 68.267)" fill="#ff2d26"/><ellipse cx="5.94" cy="5.939" rx="5.94" ry="5.939" transform="translate(55.987 77.013)" fill="#5222d0"/><ellipse cx="3.264" cy="3.263" rx="3.264" ry="3.263" transform="translate(199.078 427.306)" fill="#5222d0"/><ellipse cx="3.851" cy="3.851" rx="3.851" ry="3.851" transform="translate(286.16 49.209)" fill="#5222d0"/><ellipse cx="2.219" cy="2.219" rx="2.219" ry="2.219" transform="translate(583.701 54.952)" fill="#5222d0"/><g transform="translate(572.31 315.351)"><path d="M285.98,149.887c1.7-3.394,5.679.979,6.854,2.284s2.611,2.741,4.439,3.068c3.46.653,5.092-2.48,7.833-3.655,3.851-1.762,4.765,4.7,7.572,6.07,1.306.653,2.35.326,3.656-.065,1.5-.392,2.611-1.305,4.243-.849a4.889,4.889,0,0,1,3.59,4.177c.131,1.24,2.089,1.24,1.958,0-.392-3.981-4.178-7.179-8.225-6.135-1.7.457-3.394,1.827-4.961.587-.914-.718-1.436-2.154-2.089-3.133-.914-1.371-1.958-2.676-3.656-2.937-1.958-.326-3.46.783-4.961,1.893-1.567,1.175-2.546,2.219-4.569,1.893-2.024-.392-3-1.893-4.374-3.329-2.154-2.35-7.05-4.7-9.009-.849-.522,1.109,1.175,2.088,1.7.979Z" transform="translate(-284.184 -146.864)" fill="#ec615b"/></g><g transform="translate(587.939 330.216)"><path d="M291.276,154.42a10.587,10.587,0,0,1,8.421,2.35c1.632,1.371,2.154,3.068,3.264,4.765,2.285,3.459,5.157.457,8.16.131,4.635-.522,7.05,4.9,11.489,5.613a5.213,5.213,0,0,0,5.94-3.2c.457-1.175-1.436-1.7-1.893-.522-2.219,5.548-9.27-2.089-11.946-3.329a7.512,7.512,0,0,0-3.721-.783c-1.7.131-4.765,2.611-6.332,1.175-.914-.848-1.306-2.741-2.22-3.785a10.71,10.71,0,0,0-3.068-2.611,12.64,12.64,0,0,0-8.682-1.632c-1.175.131-.653,2.023.588,1.828Z" transform="translate(-290.03 -152.425)" fill="#ec615b"/></g><g transform="translate(0 186.005)"><g transform="translate(0 0)"><path d="M72.374,135.421c-.718-3.981-.849-7.9,3.721-9.464,1.828-.653,3.786-.979,5.288-2.284,2.742-2.35,2.546-6.07,2.35-9.4-.131-2.415-.718-6.135,2.938-5.156,1.175.326,2.415.783,3.59.2a3.118,3.118,0,0,0,1.567-2.154c.587-1.958,0-3.524,1.7-5.156a5.549,5.549,0,0,1,4.961-1.5c1.24.2,1.24-1.762,0-1.958a7.357,7.357,0,0,0-5.679,1.5c-2.089,1.632-2.154,3.329-2.807,5.678-.979,3.329-3.395.587-5.81,1.044a3.049,3.049,0,0,0-2.481,2.676c-.588,2.611.261,5.417.2,8.028-.2,4.9-3.46,5.352-7.181,6.853-5.092,2.023-5.027,6.853-4.178,11.552.131,1.305,2.024.783,1.828-.457Z" transform="translate(-70.112 -98.474)" fill="#ff2d26"/></g></g><g transform="translate(20.754 183.02)"><path d="M81.186,124.366c-3.917-5.026.587-9.986,6.006-9.529,1.632.13,3,0,3.851-1.5,1.175-1.958.783-4.634,1.7-6.723a12.86,12.86,0,0,1,8.095-7.31c1.175-.392.653-2.284-.522-1.893a15.111,15.111,0,0,0-8.029,5.874,13.622,13.622,0,0,0-2.219,5.417c-.131.653-.131,1.893-.326,2.48-.522,1.7-2.154,1.5-3.656,1.566-6.92.392-10.771,7.245-6.267,13.054.718.979,2.089-.392,1.371-1.436Z" transform="translate(-77.874 -97.358)" fill="#ff2d26"/></g><g transform="translate(206.668 39.217)"><path d="M149.618,51.462c-1.11-3.655,2.481-7.441,6.136-5.483,3.982,2.089,2.611,7.9-1.762,8.354-1.24.131-1.24,2.089,0,1.958,5.875-.587,8.486-8.224,3.2-11.683-5.092-3.329-11.228,1.828-9.465,7.441.392,1.11,2.285.587,1.893-.587Z" transform="translate(-147.416 -43.559)" fill="#5222d0"/></g><g transform="translate(424.337 417.439)"><path d="M229.768,185.395c-2.676,3.2.979,5.939,3.786,7.049,2.154.848,3.59,1.958,3.917,4.373a26.236,26.236,0,0,0,.392,3.263,5.194,5.194,0,0,0,1.175,2.219c.914.979,4.439,1.893,3.917,3.72a.982.982,0,0,0,1.893.522,3.413,3.413,0,0,0-1.436-3.916c-.914-.718-2.219-.914-3-1.762-1.24-1.305-.849-3.394-1.11-4.96a6.2,6.2,0,0,0-1.893-3.851c-1.24-1.044-8.421-2.741-6.267-5.352.849-.914-.522-2.284-1.371-1.305Z" transform="translate(-228.835 -185.057)" fill="#5222d0"/></g><g transform="translate(433.644 410.584)"><path d="M232.559,183.159a3.191,3.191,0,0,0,1.11,3.785c1.11.914,2.872.979,3.851,2.023,1.045,1.11.914,2.611,1.175,4.047a5.18,5.18,0,0,0,2.676,4.112c1.24.653,2.611.848,3.786,1.566a8.553,8.553,0,0,1,3.721,6.2c.131,1.24,2.089,1.24,1.958,0-.522-4.634-3.2-7.506-7.442-9.137-3.329-1.24-2.35-4.047-3.46-6.657a4.079,4.079,0,0,0-1.5-1.958c-1.11-.783-4.831-1.436-3.982-3.525.457-1.109-1.436-1.632-1.893-.457Z" transform="translate(-232.316 -182.492)" fill="#5222d0"/></g><g transform="translate(454.272)"><path d="M242.429,47.355c-2.024-2.676,2.024-4.569,4.047-4.83,1.5-.2,3.068-.065,4.57-.326a9.391,9.391,0,0,0,5.418-3c1.306-1.5,1.5-3,2.089-4.83.326-1.11,1.175-2.937,2.415-3.459.457-.2,1.567.131,2.154.131a10.57,10.57,0,0,0,3.2-.2c1.24-.261.718-2.154-.522-1.893-2.611.522-6.2-1.11-8.16,1.305a5.853,5.853,0,0,0-.914,3.133c-.392,3-1.828,5.613-4.9,6.527-3.395,1.044-7.376-.326-10.184,2.48-1.632,1.632-2.219,3.916-.849,5.809.718,1.11,2.415.131,1.632-.848Z" transform="translate(-240.032 -28.887)" fill="#5222d0"/></g><g transform="translate(474.553 4.25)"><path d="M249.513,43.912a9.343,9.343,0,0,1,4.57-7.963c2.154-1.305,4.569-1.175,7.05-1.175,3.329.065,6.528,0,8.682-2.872.718-1.044-.979-2.023-1.7-.979-2.872,3.851-10.118.979-14.231,2.937a11.256,11.256,0,0,0-6.267,10.051c-.065,1.24,1.893,1.24,1.893,0Z" transform="translate(-247.619 -30.477)" fill="#5222d0"/></g><g transform="translate(207.55 235.816)"><path d="M149.653,119.779c.588-.131,1.175-.326,1.828-.457.261.587.522,1.24.783,1.828a8.684,8.684,0,0,1-.326,2.611,13.62,13.62,0,0,0-.261,2.807,4.6,4.6,0,0,0,2.024,3.72c1.958,1.044,4.178-.457,6.2.587,2.676,1.305,4.113,4.5,5.288,7.114.522,1.175,2.219.131,1.7-.979-1.24-2.806-2.872-5.939-5.614-7.571a8.229,8.229,0,0,0-3.917-.914c-1.567-.131-2.089,1.7-3.656-1.5-.457-1.044.131-2.611.261-3.655.326-2.284.457-5.026-2.089-6-1.7-.653-3.786-.065-4.113,1.893-.2,1.24,1.7,1.762,1.893.522Z" transform="translate(-147.746 -117.109)" fill="#5222d0"/></g><g transform="translate(221.711 235.897)"><path d="M154.171,117.313c-1.893,1.305-1.11,3.394.2,4.96a64.13,64.13,0,0,1,4.374,4.96,27.164,27.164,0,0,1,3.329,7.114c.392,1.175,2.285.718,1.893-.522a30.044,30.044,0,0,0-3.525-7.636c-.718-1.044-6.071-6.657-5.222-7.245.979-.653,0-2.35-1.044-1.632Z" transform="translate(-153.043 -117.14)" fill="#5222d0"/></g></g><g transform="translate(0 369.787)"><g transform="translate(5.201 112.418)"><path d="M58.606,210.518q5.386,38.182,8.943,76.559c.131,1.24,2.089,1.24,1.958,0Q65.885,248.406,60.5,210c-.2-1.24-2.024-.718-1.893.522Z" transform="translate(-58.6 -209.287)" fill="#e8e8e8"/></g><g transform="translate(13.728 189.434)"><path d="M62.278,239.918a77.826,77.826,0,0,0,67.237.718c1.11-.522.131-2.219-.979-1.7a75.762,75.762,0,0,1-65.279-.718c-1.11-.587-2.089,1.11-.979,1.7Z" transform="translate(-61.789 -238.1)" fill="#e8e8e8"/></g><g transform="translate(81.256 114.155)"><path d="M88.682,210.867q-.1,38.084-1.632,76.037c-.065,1.24,1.893,1.24,1.958,0,1.044-25.324,1.567-50.713,1.632-76.037a.98.98,0,0,0-1.958,0Z" transform="translate(-87.048 -209.937)" fill="#e8e8e8"/></g><g transform="translate(5.067 112.03)"><path d="M59.212,211.087c25.459,7.7,52.288,4.96,78.269,2.023,1.24-.131,1.24-2.089,0-1.958-25.85,2.872-52.419,5.678-77.747-1.958-1.175-.392-1.7,1.5-.522,1.893Z" transform="translate(-58.55 -209.142)" fill="#e8e8e8"/></g><g transform="translate(13.572 178.25)"><path d="M63.55,237.194c2.219-4.438,7.246,1.828,9.008,3.394a7.813,7.813,0,0,0,5.745,2.154c5.483-.261,10.118-5.678,15.732-4.308,5.483,1.371,8.356,6.984,14.622,6.4,7.05-.653,14.231-9.007,21.412-4.83a.98.98,0,0,0,.979-1.7c-6.854-3.981-13.186,1.762-19.584,3.916-4.9,1.632-8.095-.261-11.946-3-2.35-1.632-4.765-3.068-7.768-2.872-6.854.392-12.6,8.028-18.866,1.893-1.828-1.828-3.329-3.786-6.071-4.242a4.436,4.436,0,0,0-4.961,2.219c-.588,1.109,1.11,2.089,1.7.979Z" transform="translate(-61.731 -233.915)" fill="#e8e8e8"/></g><g transform="translate(12.854 166.986)"><path d="M62.172,232.952a121.5,121.5,0,0,0,68.608-1.305c1.175-.392.718-2.284-.522-1.893a120.2,120.2,0,0,1-67.564,1.305.982.982,0,0,0-.522,1.893Z" transform="translate(-61.462 -229.701)" fill="#e8e8e8"/></g><g transform="translate(9.655 143.961)"><path d="M60.975,224.65a139.78,139.78,0,0,0,72.786-1.632.983.983,0,0,0-.522-1.893A137.227,137.227,0,0,1,61.5,222.757a.982.982,0,0,0-.522,1.893Z" transform="translate(-60.266 -221.088)" fill="#e8e8e8"/></g><g transform="translate(7.821 127.541)"><path d="M61.013,217.957c3.917-2.937,7.768,1.371,10.771,3.524a10.807,10.807,0,0,0,7.768,2.219c5.94-.783,11.62-6.918,17.821-5.352,3.395.848,5.549,4.177,9.008,4.765,2.611.457,5.027-.783,7.115-2.154,3.525-2.219,6.4-3.981,10.771-3.655,3.982.261,7.7,1.24,11.75.587,1.24-.2.718-2.089-.522-1.893-4.5.653-8.878-.914-13.382-.718-3.264.131-5.81,1.436-8.486,3.263a15.293,15.293,0,0,1-4.765,2.545c-2.676.653-4.7-.914-6.724-2.35-2.35-1.632-4.7-2.806-7.7-2.48-6.071.587-11.62,6.788-17.886,5.483-5.418-1.109-10.379-10.117-16.646-5.483-.849.783.131,2.48,1.11,1.7Z" transform="translate(-59.58 -214.944)" fill="#e8e8e8"/></g><path d="M79.944,282.576c-3-3.068-12.338-13.119-7.181-17.427a.9.9,0,0,0,.131-1.175c-4.047-5.809-8.486-12.009-8.943-19.319-.2-3.2,1.175-5.744,1.436-8.746.261-2.872-1.24-6.07-1.958-8.811-3.525-14.228-6.006-29.762-4.635-44.448a35.012,35.012,0,0,1,2.415-10.639c2.742-6.527,8.29-.522,10.64,2.741a73.453,73.453,0,0,1,8.878,18.014A356.042,356.042,0,0,1,92.739,234.6a368.448,368.448,0,0,1,7.7,50c.131,1.24,2.089,1.24,1.958,0a380.533,380.533,0,0,0-7.507-49.277c-3.525-16.121-7.9-32.438-14.035-47.711-2.481-6.135-5.549-12.988-10.445-17.622-3.656-3.525-8.617-4.177-10.836,1.044C56.77,177.56,56.509,185,56.7,192.049a171.787,171.787,0,0,0,2.676,25.193c.849,4.569,1.828,9.072,3,13.51.718,2.676,1.24,4.634.457,7.245a18.414,18.414,0,0,0-.849,5.678c0,8.093,4.765,15.077,9.2,21.408a7.19,7.19,0,0,0,.131-1.175c-6.4,5.417,3.329,16.382,7.181,20.233.979.653,2.35-.718,1.436-1.566Z" transform="translate(-56.654 -167.23)" fill="#e8e8e8"/><g transform="translate(36.541 29.223)"><path d="M72.412,213.311c.587-5.744,1.175-11.552,3.264-16.97a30.121,30.121,0,0,1,5.157-8.42c1.5-1.827,2.546-3.72,3.917-5.613,3.982-5.613,7.768.587,8.486,4.634a86.7,86.7,0,0,1,.979,10.9A114.632,114.632,0,0,1,93.04,218.99c-.131,1.044,1.175,1.762,1.763.783,1.5-2.415,6.136-7.506,8.421-2.089.718,1.7.261,4.177.2,5.939-.261,5.026-.718,9.986-1.436,14.946A158.585,158.585,0,0,1,95.651,265.4c-.392,1.175,1.5,1.7,1.893.522a164.309,164.309,0,0,0,7.638-39.226c.261-3.72,1.7-10.7-2.742-12.793-4.047-1.893-7.442,1.828-9.4,4.9l1.763.783a114.18,114.18,0,0,0,.914-26.695c-.457-4.9-.914-15.4-8.356-14.685-2.742.261-4.113,2.676-5.418,4.765-2.024,3.394-4.961,6-6.789,9.529-3.395,6.462-4.113,13.837-4.831,20.951,0,1.11,1.958,1.11,2.089-.131Z" transform="translate(-70.323 -178.162)" fill="#e8e8e8"/></g><g transform="translate(5.855 2.293)"><path d="M58.915,169.272c14.035,36.811,21.607,75.515,29.049,114.023.261,1.24,2.154.718,1.893-.522C82.415,244.265,74.843,205.5,60.808,168.75c-.457-1.175-2.35-.653-1.893.522Z" transform="translate(-58.844 -168.087)" fill="#e8e8e8"/></g><g transform="translate(4.525 56.785)"><path d="M58.833,190.317a58.361,58.361,0,0,1,22.325,23.235c.587,1.11,2.285.131,1.7-.979A60.534,60.534,0,0,0,59.878,188.62a1,1,0,0,0-1.044,1.7Z" transform="translate(-58.347 -188.474)" fill="#e8e8e8"/></g><g transform="translate(21.314 19.974)"><path d="M66.146,175.632c-1.175,10.9-2.219,21.865-.914,32.765.131,1.24,2.089,1.24,1.958,0-1.306-10.965-.261-21.865.914-32.765.131-1.24-1.828-1.24-1.958,0Z" transform="translate(-64.627 -174.702)" fill="#e8e8e8"/></g><g transform="translate(49.661 30.433)"><path d="M79.671,179.594q-2.252,41.119-4.439,82.3c-.065,1.24,1.893,1.24,1.958,0q2.252-41.119,4.439-82.3c.065-1.305-1.893-1.305-1.958,0Z" transform="translate(-75.23 -178.615)" fill="#e8e8e8"/></g><g transform="translate(36.815 62.06)"><path d="M70.478,191.65A208.907,208.907,0,0,0,83.273,223.7c.587,1.11,2.285.131,1.7-.979a205.547,205.547,0,0,1-12.6-31.59c-.392-1.175-2.285-.718-1.893.522Z" transform="translate(-70.425 -190.447)" fill="#e8e8e8"/></g><g transform="translate(50.349 86.01)"><path d="M76.955,218.3a47.7,47.7,0,0,0,17.691-17.427.98.98,0,0,0-1.7-.979A45.319,45.319,0,0,1,75.976,216.6a.98.98,0,0,0,.979,1.7Z" transform="translate(-75.488 -199.407)" fill="#e8e8e8"/></g><g transform="translate(5.517 111.873)"><path d="M59.649,211.577c3.917-.261,10.053-1.632,12.925,1.893l1.175-1.566a27.094,27.094,0,0,0-8.095-2.807c-.2.653-.326,1.24-.522,1.893a76.27,76.27,0,0,1,9.27,2.154c1.24.392,1.7-1.5.522-1.893a76.267,76.267,0,0,0-9.27-2.154c-1.24-.2-1.763,1.632-.522,1.893A28.577,28.577,0,0,1,72.77,213.6a.991.991,0,0,0,1.175-1.566c-3.329-4.112-9.727-2.741-14.3-2.48-1.24.131-1.24,2.089,0,2.023Z" transform="translate(-58.718 -209.083)" fill="#e8e8e8"/></g><g transform="translate(62.954 112.569)"><path d="M82.121,211.86c-.131-.653,7.9-.261,8.356-.2,2.742.131,5.549.261,8.29.326v-1.958c-5.157.261-10.314.522-15.471.718a.98.98,0,0,0,0,1.958c2.872.131,5.745.2,8.617.131a.98.98,0,0,0,0-1.958c-2.872.065-5.745.065-8.617-.131v1.958c5.157-.261,10.314-.522,15.471-.718a.98.98,0,0,0,0-1.958c-5.026-.2-10.249-.848-15.275-.653-1.893.065-3.721.718-3.2,3,.2,1.24,2.089.718,1.828-.522Z" transform="translate(-80.202 -209.343)" fill="#e8e8e8"/></g><g transform="translate(142.125 210.175)"><path d="M111.421,316.419c9.792-12.27,19.518-24.475,29.31-36.746,8.943-11.161,17.886-22.387,28.331-32.177.914-.848-.457-2.219-1.371-1.371-10.445,9.855-19.388,21.016-28.331,32.177-9.792,12.27-19.518,24.475-29.31,36.746-.783.979.587,2.35,1.371,1.371Z" transform="translate(-109.816 -245.859)" fill="#e8e8e8"/></g><g transform="translate(199.02 209.463)"><path d="M132.077,247.551H451.291a.98.98,0,0,0,0-1.958H132.077a.979.979,0,1,0,0,1.958Z" transform="translate(-131.098 -245.592)" fill="#e8e8e8"/></g><g transform="translate(518.594 209.945)"><path d="M250.928,247.445a869.24,869.24,0,0,1,65.605,75.58c.783.979,2.481,0,1.7-.979A868.449,868.449,0,0,0,252.3,246.074c-.849-.914-2.285.457-1.371,1.371Z" transform="translate(-250.635 -245.773)" fill="#e8e8e8"/></g><g transform="translate(35.742 216.903)"><path d="M70.954,250.334h91a.98.98,0,0,0,0-1.958h-91a.98.98,0,0,0,0,1.958Z" transform="translate(-70.024 -248.376)" fill="#e8e8e8"/></g><g transform="translate(205.728 177.416)"><path d="M134.537,235.561H558.524a.98.98,0,0,0,0-1.958H134.537a.98.98,0,0,0,0,1.958Z" transform="translate(-133.607 -233.603)" fill="#e8e8e8"/></g><g transform="translate(672.668 178.265)"><path d="M309.2,235.879h138.2a.98.98,0,0,0,0-1.958H309.2a.98.98,0,0,0,0,1.958Z" transform="translate(-308.266 -233.921)" fill="#e8e8e8"/></g><g transform="translate(555.949 206.591)"><g transform="translate(0)"><path d="M265.538,246.476h75.528a.98.98,0,0,0,0-1.958H265.538a.98.98,0,0,0,0,1.958Z" transform="translate(-264.608 -244.518)" fill="#e8e8e8"/></g></g><g transform="translate(668.36 214.293)"><path d="M307.585,249.357H365.1a.98.98,0,0,0,0-1.958H307.585a.98.98,0,0,0,0,1.958Z" transform="translate(-306.655 -247.399)" fill="#e8e8e8"/></g></g><g transform="translate(25.966 545.898)"><g transform="translate(111.758)"><path d="M109.149,235.073h71.089a.98.98,0,0,0,0-1.958H109.149a.979.979,0,1,0,0,1.958Z" transform="translate(-108.17 -233.115)" fill="#161616"/></g><g transform="translate(178.652 8.485)"><path d="M134.122,238.247H311.877a.98.98,0,0,0,0-1.958H134.122a.98.98,0,0,0,0,1.958Z" transform="translate(-133.192 -236.289)" fill="#161616"/></g><g transform="translate(316.652)"><path d="M185.741,235.073H426.163a.98.98,0,0,0,0-1.958H185.741a.98.98,0,0,0,0,1.958Z" transform="translate(-184.811 -233.115)" fill="#161616"/></g><g transform="translate(557.074 12.727)"><g transform="translate(0)"><path d="M275.671,239.835H445a.98.98,0,0,0,0-1.958H275.671a.98.98,0,0,0,0,1.958Z" transform="translate(-274.741 -237.877)" fill="#161616"/></g></g><g transform="translate(0 79.562)"><path d="M67.346,264.838h53.333a.98.98,0,0,0,0-1.958H67.346a.979.979,0,1,0,0,1.958Z" transform="translate(-66.367 -262.88)" fill="#161616"/></g><g transform="translate(453.754 67.748)"><path d="M237.073,260.419H314.1a.98.98,0,0,0,0-1.958H237.073a.979.979,0,1,0,0,1.958Z" transform="translate(-236.094 -258.461)" fill="#161616"/></g><g transform="translate(656.951 70.228)"><g transform="translate(0)"><path d="M313.03,261.347h69.391a.98.98,0,0,0,0-1.958H313.03a.98.98,0,0,0,0,1.958Z" transform="translate(-312.1 -259.388)" fill="#161616"/></g></g></g></g><g transform="translate(56.378 153.502)"><g transform="translate(14.631 164.767)"><path d="M94.325,172.434V421.039c5.745-.587,11.424-1.175,17.168-1.827V170.606C105.814,171.193,100.07,171.781,94.325,172.434Z" transform="translate(-64.623 -110.062)" fill="#fff"/><path d="M280.307,173.721q-.2,122.084-.457,244.1h16.711V171.436C291.209,172.219,285.791,173,280.307,173.721Z" transform="translate(245.841 -108.673)" fill="#fff"/><path d="M138.719,344.529q-.979-52.573-.457-107.562c.261-23.562.718-46.732,1.371-69.641-6.92-.131-13.839-.326-20.824-.457q-.2,88.405-.457,176.746C125.141,343.942,131.93,344.268,138.719,344.529Z" transform="translate(-24.416 -116.312)"/><path d="M255.164,170.369q.2,86.35.457,172.7c6.2-.131,12.338-.326,18.539-.457q.685-87.72,1.371-175.375C268.742,168.215,261.953,169.325,255.164,170.369Z" transform="translate(204.53 -115.7)"/><path d="M84.136,173.212c-.131,4.83-.326,9.66-.457,14.49q280.732.489,561.529.914c-.457-5.091-.914-10.247-1.371-15.338q-90.966-4.014-185.849-5.417C328.345,165.9,203.6,167.991,84.136,173.212Z" transform="translate(-82.439 -115.867)"/><path d="M83.85,204.329q279.851.2,559.767.457-29.865-28.294-59.665-56.522-225.8.2-451.665.457Q108,176.525,83.85,204.329Z" transform="translate(-82.153 -147.44)" fill="#fff"/><g transform="translate(0.158)"><path d="M84.879,206.15q24.186-28.881,49.808-56.522c.849-.914-.522-2.284-1.371-1.371q-25.655,27.608-49.808,56.522c-.783.914.588,2.35,1.371,1.371Z" transform="translate(-83.274 -147.956)" fill="#161616"/></g><g transform="translate(0 57.264)"><path d="M83.215,170.309v12.205a.98.98,0,0,0,1.958,0V170.309a.98.98,0,0,0-1.958,0Z" transform="translate(-83.215 -169.379)" fill="#161616"/></g><g transform="translate(1.632 71.052)"><path d="M84.8,176.5h559.44a.98.98,0,0,0,0-1.958H84.8a.979.979,0,1,0,0,1.958Z" transform="translate(-83.826 -174.537)" fill="#161616"/></g><g transform="translate(561.856 55.632)"><path d="M295.336,184.319V169.7a.981.981,0,0,0-1.958,0v14.62a.979.979,0,0,0,1.958,0Z" transform="translate(-293.378 -168.769)" fill="#161616"/></g><g transform="translate(0.024 71.052)"><path d="M84.179,176.5a.98.98,0,0,0,0-1.958.98.98,0,0,0,0,1.958Z" transform="translate(-83.224 -174.537)" fill="#161616"/></g><g transform="translate(0.832 56.432)"><path d="M84.457,171.026H643.9a.98.98,0,0,0,0-1.958H84.457a.98.98,0,0,0,0,1.958Z" transform="translate(-83.527 -169.068)" fill="#161616"/></g><g transform="translate(51.162 0.432)"><path d="M103.283,150.075H553.055a.98.98,0,0,0,0-1.958H103.283a.98.98,0,0,0,0,1.958Z" transform="translate(-102.353 -148.117)" fill="#161616"/></g><g transform="translate(500.584 0.818)"><path d="M270.76,149.9q29.669,27.51,59.4,55.086c.914.848,2.285-.522,1.371-1.371q-29.669-27.51-59.4-55.086c-.914-.848-2.285.522-1.371,1.371Z" transform="translate(-270.459 -148.262)" fill="#161616"/></g><g transform="translate(29.245 71.052)"><path d="M94.154,175.516v237.9a.98.98,0,0,0,1.958,0v-237.9a.979.979,0,0,0-1.958,0Z" transform="translate(-94.154 -174.537)" fill="#161616"/></g><g transform="translate(46.283 71.884)"><path d="M100.527,175.779v236.27a.98.98,0,0,0,1.958,0V175.779a.98.98,0,0,0-1.958,0Z" transform="translate(-100.527 -174.849)" fill="#161616"/></g><g transform="translate(29.269 308.952)"><path d="M95.118,266.412c5.157-.326,10.249-.653,15.406-.914,1.24-.065,1.24-2.023,0-1.958-5.157.326-10.249.653-15.406.914-1.24.131-1.306,2.089,0,1.958Z" transform="translate(-94.163 -263.539)" fill="#161616"/></g><g transform="translate(524.516 71.052)"><path d="M279.411,175.516v237.9a.98.98,0,0,0,1.958,0v-237.9a.979.979,0,0,0-1.958,0Z" transform="translate(-279.411 -174.537)" fill="#161616"/></g><g transform="translate(541.554 71.884)"><path d="M285.784,175.779v236.27a.98.98,0,0,0,1.958,0V175.779a.98.98,0,0,0-1.958,0Z" transform="translate(-285.784 -174.849)" fill="#161616"/></g><g transform="translate(525.348 307.647)"><path d="M280.652,265.924c5.157-.326,10.249-.653,15.406-.914,1.24-.065,1.24-2.023,0-1.958-5.157.326-10.249.653-15.406.914-1.24.065-1.24,2.023,0,1.958Z" transform="translate(-279.722 -263.051)" fill="#161616"/></g><g transform="translate(93.61 72.015)"><path d="M118.23,175.827V329.533a.98.98,0,0,0,1.958,0V175.827a.98.98,0,0,0-1.958,0Z" transform="translate(-118.23 -174.897)" fill="#161616"/></g><g transform="translate(113.128 72.928)"><path d="M125.531,176.169V328.962a.98.98,0,0,0,1.958,0V176.169a.98.98,0,0,0-1.958,0Z" transform="translate(-125.531 -175.239)" fill="#161616"/></g><g transform="translate(94.508 226.585)"><path d="M119.5,234.682h18.67a.98.98,0,0,0,0-1.958H119.5a.98.98,0,0,0,0,1.958Z" transform="translate(-118.566 -232.724)" fill="#161616"/></g><g transform="translate(459.694 71.141)"><path d="M255.164,175.525V330.08a.981.981,0,0,0,1.958,0V175.525a.98.98,0,0,0-1.958,0Z" transform="translate(-255.164 -174.571)" fill="#161616"/></g><g transform="translate(478.299 72.928)"><path d="M262.123,176.169V328.962a.98.98,0,0,0,1.958,0V176.169a.98.98,0,0,0-1.958,0Z" transform="translate(-262.123 -175.239)" fill="#161616"/></g><g transform="translate(460.592 226.585)"><path d="M256.43,234.682h17.756a.98.98,0,0,0,0-1.958H256.43a.98.98,0,0,0,0,1.958Z" transform="translate(-255.5 -232.724)" fill="#161616"/></g></g><g transform="translate(405.718 150.878)"><path d="M232.463,146.264a7.8,7.8,0,0,0-1.5,4.242,100.527,100.527,0,0,0-.914,18.34c.261,3.916.522,9.725.718,17.165a17.67,17.67,0,0,0,7.181,4.7c4.9,1.632,9.531.522,18.539-1.762,3.656-.914,6.528-1.827,8.486-2.48A16.776,16.776,0,0,0,267,180.007c.261-3.2-.718-4.7.457-6.331s2.872-1.305,3.656-3.068c.457-1.044.392-2.611-.326-3.2-1.24-.848-3.46,1.371-4.569.457-.326-.261-.326-.522-.457-2.937-.2-3.263-.261-3.655.13-3.981.326-.392,1.436-.392,3.525-.326,1.567,0,2.285,0,2.611.261,1.24.979.718,4.177-.457,6.462-1.5,2.872-3.786,3.786-3.525,4.373.326.587,3.2,0,5.549-1.436,1.371-.848,3.395-2.023,3.852-4.242.783-3.263-2.35-6.135-2.807-6.592-3.851-3.59-9.465-2.415-10.184-2.219.065-3.133.131-6.266.261-9.4a52.99,52.99,0,0,0-19.845-4.7C235.662,142.8,233.246,145.154,232.463,146.264Z" transform="translate(-228.743 -142.19)" fill="#fff"/><g transform="translate(0 6.081)"><path d="M230.349,145.965a254.354,254.354,0,0,0-.392,35.963c.065,1.24,2.024,1.24,1.958,0a254.266,254.266,0,0,1,.392-35.963c.131-1.24-1.828-1.24-1.958,0Z" transform="translate(-229.502 -145.035)" fill="#161616"/></g><g transform="translate(0.319 41.824)"><path d="M229.888,160.078c8.747,9.66,22.391,6.657,33.031,2.545,1.175-.457.653-2.35-.522-1.893-9.988,3.851-22.913,7.114-31.138-2.023-.849-.914-2.219.457-1.371,1.371Z" transform="translate(-229.621 -158.407)" fill="#161616"/></g><g transform="translate(0.921)"><path d="M231.665,149.705c2.546-4.634,11.163-5.091,15.863-4.96a35.033,35.033,0,0,1,15.928,4.308c1.11.587,2.089-1.109.979-1.7a36.625,36.625,0,0,0-19.061-4.569c-5.026.2-12.664,1.044-15.406,5.939-.588,1.11,1.11,2.089,1.7.979Z" transform="translate(-229.846 -142.76)" fill="#161616"/></g><g transform="translate(32.281 5.542)"><path d="M244.023,145.78v8.811a.992.992,0,0,0,1.24.914c3.264-.718,8.421,0,10.314,3.2,3.721,6.135-3.525,7.441-7.246,9.921-1.632,1.044-1.893,2.154-1.893,4.047,0,4.242,0,9.138-4.374,11.291-1.11.587-.131,2.219.979,1.7,3.851-1.893,5.092-5.874,5.287-9.921.065-1.827-.522-3.916.914-5.417.718-.718,2.154-1.044,3.068-1.5a12.438,12.438,0,0,0,5.092-3.655c2.481-3.329,1.11-6.788-1.828-9.2a12.922,12.922,0,0,0-10.836-2.415,15.065,15.065,0,0,0,1.24.914v-8.811c-.065-1.11-2.024-1.11-1.958.13Z" transform="translate(-241.576 -144.833)" fill="#161616"/></g><g transform="translate(36.098 17.894)"><path d="M243.135,150.384a22.076,22.076,0,0,0,.392,7.179c.261,1.24,2.154.718,1.893-.522a20.78,20.78,0,0,1-.326-6.657c.13-1.24-1.828-1.24-1.958,0Z" transform="translate(-243.004 -149.454)" fill="#161616"/></g><g transform="translate(35.993 17.648)"><path d="M244.7,152.5a4.123,4.123,0,0,1,3.721-1.044,2.419,2.419,0,0,1,1.632,3.133c-.849,1.762-3.721,1.762-5.418,1.762a.98.98,0,0,0,0,1.958c3.068.065,8.029-.848,7.507-5.026a4.673,4.673,0,0,0-3.2-3.72,6.135,6.135,0,0,0-5.679,1.566c-.914.783.457,2.154,1.436,1.371Z" transform="translate(-242.965 -149.362)" fill="#161616"/></g><g transform="translate(4.682 3.645)"><path d="M234.926,144.356c-1.306,1.044-3.46.522-3.656,2.741a3.259,3.259,0,0,0,2.807,3.329c3.394.718,7.572-.131,11.1-.065,4.178.065,8.421.392,12.6.848.522.065.979-.522.979-.979a2.876,2.876,0,0,0-.588-2.154c-.653-1.044-2.35-.065-1.7.979.131.392.2.783.326,1.175l.979-.979a129.742,129.742,0,0,0-15.079-.848c-1.24,0-2.546,0-3.786.065-.914,0-2.807.522-3.59.131-.392-.587-.849-1.175-1.24-1.762a6.122,6.122,0,0,0,1.044-.261c.326-.261.914-.522,1.24-.783.979-.848-.457-2.219-1.436-1.436Z" transform="translate(-231.253 -144.123)" fill="#161616"/></g><path d="M248.7,143.513c-.261-.914-5.81-.522-10.836,1.044a39.416,39.416,0,0,0-6.724,2.807c-.522,7.179-.849,14.62-1.045,22.452q-.2,8.322,0,16.252a24.494,24.494,0,0,0,12.664,4.9,23.957,23.957,0,0,0,9.792-1.305l-3.329-38.182c-5.222-.065-9.335-.522-9.531-1.828C239.3,147.625,249.1,144.753,248.7,143.513Z" transform="translate(-228.665 -142.311)" fill="#4c4c4c" opacity="0.09"/><path d="M231.447,146.188c2.742,8.681,5.614,17.492,8.486,26.3,1.436,4.438,2.938,8.811,4.374,13.184a21.332,21.332,0,0,1-7.964-1.827A21.657,21.657,0,0,1,230.4,180a164.754,164.754,0,0,1-.261-19.058C230.4,155.652,230.86,150.692,231.447,146.188Z" transform="translate(-228.707 -137.024)" fill="#4c4c4c" opacity="0.11"/></g><path d="M240.969,106.317c-.588,3-1.306,7.441-2.089,12.858A282.609,282.609,0,0,0,236.6,161.6c.065,7.9.392,18.145,1.371,30.219a148.925,148.925,0,0,0,14.688,4.373c11.163,2.741,17.69,3,36.23,5.482,11.424,1.566,8.747,1.436,18.8,2.741,14.818,1.958,24.153,3.2,35.969,3.459a206.123,206.123,0,0,0,22.26-.718,236.97,236.97,0,0,0,4.569-26.564,248.441,248.441,0,0,0,1.371-30.676,280.923,280.923,0,0,0-3.2-38.508c-2.481-.587-5.94-1.436-10.053-2.284a316.223,316.223,0,0,0-45.369-5.939,340.476,340.476,0,0,0-49.938.457C254.156,104.359,246.583,105.4,240.969,106.317Z" transform="translate(188.052 -59.253)" fill="#fff"/><path d="M78.356,150.036q16.94,43.175,33.814,86.35,49.547-30.056,99.093-60.177-14.3-35.049-28.527-70.163c-16.777,5.678-34.467,12.336-52.941,20.1C111.257,133.98,94.154,142.008,78.356,150.036Z" transform="translate(-76.716 -53.304)" fill="#fff"/><path d="M90.785,193.279a439.409,439.409,0,0,0,41.06,22.061c9.4,4.5,18.6,8.42,27.352,11.944,15.079-10.182,30.159-20.364,45.173-30.676,14.818-10.182,29.637-20.364,44.39-30.676q-28.2-16.741-56.466-33.417Q141.474,162.962,90.785,193.279Z" transform="translate(-55.918 -9.022)" fill="#fff"/><g transform="translate(51.85 130.433)"><path d="M98.563,190.371c28.527-17.231,57.511-34,84.667-53.389,1.044-.718.065-2.415-.979-1.7-27.156,19.385-56.14,36.159-84.667,53.389-1.044.653-.065,2.35.979,1.7Z" transform="translate(-97.137 -135.111)" fill="#161616"/></g><g transform="translate(62.686 137.156)"><path d="M102.616,192.886c28.527-17.231,57.511-34,84.667-53.389,1.044-.718.065-2.415-.979-1.7-27.156,19.385-56.14,36.158-84.667,53.389-1.044.653-.065,2.35.979,1.7Z" transform="translate(-101.191 -137.626)" fill="#161616"/></g><g transform="translate(75.896 143.487)"><path d="M107.6,195.254c28.527-17.231,57.511-34,84.667-53.389,1.044-.718.065-2.415-.979-1.7-27.156,19.385-56.14,36.158-84.667,53.389a.98.98,0,0,0,.979,1.7Z" transform="translate(-106.132 -139.995)" fill="#161616"/></g><g transform="translate(86.733 150.209)"><path d="M111.652,197.769c28.527-17.231,57.511-34,84.667-53.389,1.044-.718.065-2.415-.979-1.7-27.156,19.385-56.14,36.158-84.667,53.389a.98.98,0,0,0,.979,1.7Z" transform="translate(-110.185 -142.51)" fill="#161616"/></g><g transform="translate(61.707 177.714)"><path d="M101.271,154.643c7.181,4.569,14.427,9.072,21.607,13.641,1.044.653,2.024-1.044.979-1.7-7.181-4.569-14.427-9.072-21.607-13.641-1.044-.653-2.024,1.044-.979,1.7Z" transform="translate(-100.824 -152.799)" fill="#161616"/></g><g transform="translate(72.976 171.16)"><path d="M105.445,152.218c6.724,4.765,13.447,9.464,20.171,14.228,1.044.718,2.024-.979.979-1.7-6.724-4.765-13.447-9.464-20.171-14.228-.979-.718-1.958.979-.979,1.7Z" transform="translate(-105.039 -150.348)" fill="#161616"/></g><g transform="translate(83.706 164.575)"><path d="M109.5,149.747c6.463,4.7,12.86,9.529,19.061,14.62.979.783,2.35-.587,1.371-1.371-6.332-5.156-12.86-10.117-19.453-14.881-1.044-.849-2.024.848-.979,1.632Z" transform="translate(-109.053 -147.884)" fill="#161616"/></g><g transform="translate(94.934 158.172)"><path d="M113.7,147.359a194.466,194.466,0,0,1,18.082,14.62c.914.848,2.285-.522,1.371-1.371a203.075,203.075,0,0,0-18.474-14.946c-1.044-.718-2.024.979-.979,1.7Z" transform="translate(-113.253 -145.489)" fill="#161616"/></g><g transform="translate(105.366 152.825)"><path d="M117.483,145.093A169.032,169.032,0,0,1,134,160.626c.849.914,2.219-.457,1.371-1.371a176.774,176.774,0,0,0-16.516-15.534c-.914-.783-2.35.587-1.371,1.371Z" transform="translate(-117.155 -143.488)" fill="#161616"/></g><g transform="translate(113.526 146.429)"><path d="M120.536,142.7a132.435,132.435,0,0,1,17.56,16.643c.849.979,2.219-.457,1.371-1.371a132.438,132.438,0,0,0-17.56-16.643c-.914-.783-2.35.587-1.371,1.371Z" transform="translate(-120.207 -141.095)" fill="#161616"/></g><g transform="translate(123.701 139.445)"><path d="M124.35,140.087c6.267,5.026,12.4,10.247,18.213,15.73.914.848,2.285-.522,1.371-1.371-5.875-5.483-11.946-10.769-18.213-15.73-.979-.783-2.35.587-1.371,1.371Z" transform="translate(-124.013 -138.483)" fill="#161616"/></g><g transform="translate(132.169 134.401)"><path d="M127.667,138.414c3.46,1.958,6.2,5.091,9.074,7.832,2.807,2.676,5.549,5.352,8.356,8.028.914.848,2.285-.522,1.371-1.371-3.068-2.937-6.136-5.939-9.2-8.876-2.676-2.611-5.288-5.417-8.552-7.31-1.175-.587-2.154,1.11-1.045,1.7Z" transform="translate(-127.18 -136.595)" fill="#161616"/></g><g transform="translate(51.524 183.979)"><path d="M97.462,156.987A207.483,207.483,0,0,0,121.288,170.3c1.11.522,2.154-1.175.979-1.7A224.049,224.049,0,0,1,98.441,155.29c-1.044-.653-2.024,1.044-.979,1.7Z" transform="translate(-97.015 -155.144)" fill="#161616"/></g><g transform="translate(137.102 130.965)"><path d="M129.736,137.171l.783.2a.907.907,0,0,0,1.175-.653.934.934,0,0,0-.653-1.175l-.783-.2a.95.95,0,1,0-.522,1.828Z" transform="translate(-129.026 -135.31)" fill="#161616"/></g><g transform="translate(137.099 130.899)"><path d="M129.542,137.081c8.225,3.655,15.341,9.268,23.3,13.38,1.11.587,2.089-1.11.979-1.7-7.964-4.112-15.079-9.725-23.3-13.38-1.11-.522-2.154,1.175-.979,1.7Z" transform="translate(-129.025 -135.286)" fill="#161616"/></g><g transform="translate(74.46 197.254)"><path d="M106.083,161.928a99.483,99.483,0,0,1,11.685,6.853c1.044.718,2.024-.979.979-1.7a105.127,105.127,0,0,0-11.685-6.853c-1.11-.587-2.089,1.11-.979,1.7Z" transform="translate(-105.595 -160.11)" fill="#161616"/></g><g transform="translate(83.943 191.691)"><path d="M109.547,159.927a90.387,90.387,0,0,1,8.617,7.245c.914.848,2.285-.522,1.371-1.371a83.748,83.748,0,0,0-9.008-7.571c-.979-.783-1.958.914-.979,1.7Z" transform="translate(-109.142 -158.029)" fill="#161616"/></g><g transform="translate(93.343 185.78)"><path d="M113.063,157.688a65.964,65.964,0,0,1,9.009,8.028c.849.914,2.22-.457,1.371-1.371a67.214,67.214,0,0,0-9.4-8.354c-.979-.718-1.958.979-.979,1.7Z" transform="translate(-112.658 -155.817)" fill="#161616"/></g><g transform="translate(103.304 179.713)"><path d="M116.685,155.219c2.742,2.611,5.353,5.352,7.9,8.093.849.914,2.22-.457,1.371-1.371-2.546-2.807-5.157-5.483-7.9-8.093a.969.969,0,1,0-1.371,1.371Z" transform="translate(-116.384 -153.547)" fill="#161616"/></g><g transform="translate(130.56 162.455)"><path d="M126.846,148.79c2.611,3.068,5.222,6.2,7.9,9.268.783.979,2.22-.457,1.371-1.371-2.611-3.068-5.222-6.2-7.9-9.268-.849-.979-2.219.457-1.371,1.371Z" transform="translate(-126.579 -147.091)" fill="#161616"/></g><g transform="translate(142.114 155.564)"><path d="M131.168,146.185c2.611,2.741,5.092,5.613,7.572,8.485.849.979,2.219-.457,1.371-1.371-2.481-2.872-4.961-5.744-7.572-8.485-.849-.914-2.22.457-1.371,1.371Z" transform="translate(-130.901 -144.513)" fill="#161616"/></g><g transform="translate(149.502 150.349)"><path d="M134.181,144.358c4.178,1.958,8.29,3.851,12.468,5.809,1.11.522,2.154-1.175.979-1.7-4.178-1.958-8.29-3.851-12.468-5.809-1.11-.522-2.154,1.175-.979,1.7Z" transform="translate(-133.664 -142.562)" fill="#161616"/></g><g transform="translate(160.278 143.682)"><path d="M138.141,141.938c3.656,2.284,7.377,4.438,11.163,6.4,1.11.587,2.089-1.11.979-1.7-3.786-1.958-7.507-4.112-11.163-6.4-1.044-.718-2.024.979-.979,1.7Z" transform="translate(-137.695 -140.068)" fill="#161616"/></g><path d="M161.211,98.293c-.783,7.245-1.436,14.685-1.828,22.452a371.715,371.715,0,0,0,5.483,85.044c13.774-.065,24.871-.261,31.856-.457,47.915-1.175,68.673-3.981,111.366-4.112,10.836,0,19.518.131,24.545.261,1.7-6.788,3.2-13.967,4.374-21.538a241.154,241.154,0,0,0-3.2-88.438,283.242,283.242,0,0,0-38.058-4.569c-10.51-.522-13.447-.131-55.683,1.827C210.039,90.135,202.01,90.4,188.04,92.68A232.836,232.836,0,0,0,161.211,98.293Z" transform="translate(58.069 -85.626)" fill="#fff"/><g transform="translate(476.216 141.833)"><path d="M256.33,140.355a212.065,212.065,0,0,1-.457,26.564c-.065,1.24,1.893,1.24,1.958,0a212.276,212.276,0,0,0,.457-26.564c-.065-1.305-2.024-1.305-1.958,0Z" transform="translate(-255.872 -139.376)" fill="#161616"/></g><g transform="translate(488.164 143.725)"><path d="M260.341,141.063v24.671a.98.98,0,0,0,1.958,0V141.063a.979.979,0,0,0-1.958,0Z" transform="translate(-260.341 -140.084)" fill="#161616"/></g><g transform="translate(467.776 168.382)"><path d="M261.418,149.388c-2.089-.131-10.118,1.305-8.486,5.026.718,1.7,3.59,1.828,5.026,2.089a65.021,65.021,0,0,0,10.053.653,97,97,0,0,0,9.727-.457c1.5-.2,4.57-.522,5.483-2.023,2.024-3.459-6.985-5.091-8.682-5.352-1.24-.2-1.763,1.7-.522,1.893a25.162,25.162,0,0,1,4.243,1.044c1.893.653,3.721,1.044,1.371,2.154-2.611,1.175-6.854.718-9.661.783a71.088,71.088,0,0,1-9.857-.326c-1.24-.131-6.2-.065-3.786-2.415,1.175-1.175,3.656-1.175,5.157-1.11,1.24.065,1.24-1.893-.065-1.958Z" transform="translate(-252.714 -149.308)" fill="#161616"/></g><g transform="translate(425.617 132.12)"><path d="M237.607,137.623a252.573,252.573,0,0,0,50.2,9.594c1.24.13,1.24-1.828,0-1.958A247.3,247.3,0,0,1,238.13,135.8c-1.175-.392-1.7,1.5-.522,1.828Z" transform="translate(-236.945 -135.742)" fill="#161616"/></g><g transform="translate(487.65 142.993)"><path d="M260.858,141.717c21.8,3.851,44,5.287,66,3.068,1.24-.131,1.24-2.089,0-1.958a239.383,239.383,0,0,1-65.475-3c-1.24-.2-1.763,1.7-.522,1.893Z" transform="translate(-260.149 -139.81)" fill="#161616"/></g><g transform="translate(423.68 46.289)"><path d="M239.473,189.777c-1.567-28.326-3-56.979,3.264-84.914.261-1.24-1.632-1.762-1.893-.522-6.267,28.065-4.831,56.914-3.329,85.436.065,1.24,2.024,1.24,1.958,0Z" transform="translate(-236.221 -103.632)" fill="#161616"/></g><g transform="translate(428.116 42.493)"><path d="M239.111,107.892c20.889-4.438,43.019-3.851,64.3-3.459,20.954.392,42.039,2.284,62.145,8.55,1.175.392,1.7-1.5.522-1.893-20.3-6.331-41.517-8.224-62.668-8.615C282,102.083,259.674,101.5,238.589,106a.982.982,0,0,0,.522,1.893Z" transform="translate(-237.88 -102.211)" fill="#161616"/></g><g transform="translate(553.418 51.576)"><path d="M287.189,106.841a269.488,269.488,0,0,1-2.415,93.79c-.261,1.24,1.632,1.762,1.893.522a272.361,272.361,0,0,0,2.415-94.834c-.2-1.24-2.089-.718-1.893.522Z" transform="translate(-284.749 -105.61)" fill="#161616"/></g><g transform="translate(0.59 96.723)"><path d="M78.034,123.684q17.038,43.86,34.076,87.655c.457,1.175,2.35.653,1.893-.522q-17.038-43.86-34.076-87.655c-.457-1.175-2.35-.653-1.893.522Z" transform="translate(-77.963 -122.5)" fill="#161616"/></g><g transform="translate(33.857 184.392)"><path d="M90.895,157.12q33.292,18.112,68.021,33.352c1.175.522,2.154-1.175.979-1.7Q125.232,173.5,91.874,155.423a.98.98,0,0,0-.979,1.7Z" transform="translate(-90.407 -155.298)" fill="#161616"/></g><g transform="translate(102.245 156.279)"><path d="M117.413,208.2q44.651-30.741,89.367-61.548c1.044-.718.065-2.415-.979-1.7Q161.15,175.7,116.434,206.5c-1.044.718-.065,2.415.979,1.7Z" transform="translate(-115.988 -144.78)" fill="#161616"/></g><g transform="translate(0 51.579)"><path d="M79.252,151.743a905.4,905.4,0,0,1,104.773-44.186c1.175-.392.653-2.284-.522-1.893a918.2,918.2,0,0,0-105.23,44.382c-1.175.587-.2,2.219.979,1.7Z" transform="translate(-77.743 -105.611)" fill="#161616"/></g><g transform="translate(34.616 122.497)"><path d="M92.117,194.489q49.449-30.252,98.963-60.5c1.044-.653.065-2.35-.979-1.7q-49.449,30.252-98.963,60.5c-1.044.653-.065,2.35.979,1.7Z" transform="translate(-90.691 -132.142)" fill="#161616"/></g><g transform="translate(104.906 52.08)"><path d="M117.053,106.982q14.394,34.755,28.723,69.445c.457,1.175,2.35.653,1.893-.522q-14.394-34.755-28.723-69.445c-.457-1.175-2.35-.653-1.893.522Z" transform="translate(-116.983 -105.798)" fill="#161616"/></g><g transform="translate(134.582 122.065)"><path d="M128.571,133.8q28.788,16.447,57.511,32.96a.98.98,0,0,0,.979-1.7q-28.788-16.447-57.511-32.96c-1.11-.587-2.089,1.11-.979,1.7Z" transform="translate(-128.083 -131.981)" fill="#161616"/></g><g transform="translate(216.489 12.194)"><path d="M159.684,91.806c-2.676,35.571.718,71.207,4.178,106.583.131,1.24,2.089,1.24,1.958,0-3.46-35.441-6.854-71.012-4.178-106.583.131-1.24-1.828-1.24-1.958,0Z" transform="translate(-158.721 -90.876)" fill="#161616"/></g><g transform="translate(217.834)"><path d="M160.408,100.287c20.759-7.571,43.149-8.093,64.953-9.4,22.652-1.371,45.369-3.133,68.021-2.48a232.2,232.2,0,0,1,39.69,4.308c1.24.261,1.763-1.632.522-1.893-22.586-4.634-45.63-5.026-68.543-4.112-23.109.914-46.413,2.023-69.391,4.242-12.142,1.175-24.218,3.2-35.773,7.375-1.175.522-.653,2.415.522,1.958Z" transform="translate(-159.224 -86.314)" fill="#161616"/></g><g transform="translate(222.397 4.322)"><path d="M330.215,89.162a282.056,282.056,0,0,1-1.436,109.454,11.149,11.149,0,0,0,.914-.718q-65.409,2.154-130.754,4.242l-37.078,1.175c-1.24.065-1.24,2.023,0,1.958q65.409-2.154,130.754-4.242l37.078-1.175a.908.908,0,0,0,.914-.718,286.113,286.113,0,0,0,1.436-110.5c-.2-1.24-2.089-.718-1.828.522Z" transform="translate(-160.93 -87.931)" fill="#161616"/></g><path d="M262.1,139.644c0,3.655-.065,7.375-.131,11.1-.131,5.221-.261,10.443-.457,15.534a8.849,8.849,0,0,0-4.7.587c-.2.065-3.851,1.632-3.721,3,.326,2.35,12.011,2.676,18.409,2.415,3.655-.131,10.379-.392,10.575-1.827.131-1.11-3.264-2.546-8.095-3.981-.2-8.615-.392-17.3-.587-25.911C269.606,140.232,265.82,139.905,262.1,139.644Z" transform="translate(215.685 2.906)"/><g transform="translate(432.358 53.77)"><path d="M242.2,107.36a389.309,389.309,0,0,0-2.285,64.681c.065,1.24,2.024,1.24,1.958,0a403.93,403.93,0,0,1,2.285-64.681c.13-1.24-1.828-1.24-1.958,0Z" transform="translate(-239.467 -106.43)" fill="#e8e8e8"/></g><g transform="translate(435.488 49.189)"><path d="M241.808,111.011c9.008-3.329,18.539-4.177,28.07-4.308,9.4-.065,18.8.261,28.135.848a420.383,420.383,0,0,1,57.837,7.832c1.24.261,1.763-1.632.522-1.893a418.016,418.016,0,0,0-58.359-7.9c-9.727-.653-19.584-.979-29.31-.848-9.27.131-18.6,1.11-27.352,4.373-1.24.392-.718,2.284.457,1.893Z" transform="translate(-240.637 -104.717)" fill="#e8e8e8"/></g><g transform="translate(546.648 58.143)"><path d="M286.14,109c.979,25.455-1.371,50.909-3.917,76.233-.131,1.24,1.828,1.24,1.958,0,2.546-25.324,4.831-50.779,3.917-76.233-.065-1.24-2.024-1.24-1.958,0Z" transform="translate(-282.217 -108.066)" fill="#e8e8e8"/></g><g transform="translate(432.646 119.011)"><path d="M240.062,132.643c7.7,4.569,17.495,6,26.112,7.9,9.988,2.219,20.106,4.047,30.289,5.483,9.6,1.371,19.257,2.35,28.984,3,9.531.653,19.649,1.7,29.049-.2,1.24-.261.718-2.154-.522-1.893-9.4,1.958-19.649.718-29.18.131-9.727-.653-19.453-1.7-29.049-3.068-9.335-1.371-18.6-3-27.809-5.026-8.813-1.958-19-3.394-26.895-7.963a.952.952,0,1,0-.979,1.632Z" transform="translate(-239.574 -130.838)" fill="#e8e8e8"/></g><g transform="translate(434.554 61.68)"><path d="M241.218,112c38.71-2.35,77.421,1.958,115.674,7.31,1.24.2,1.762-1.7.522-1.893-38.449-5.417-77.29-9.725-116.2-7.375-1.24.065-1.24,2.023,0,1.958Z" transform="translate(-240.288 -109.39)" fill="#e8e8e8"/></g><g transform="translate(446.382 54.902)"><path d="M247.066,109.785a.434.434,0,0,1,0-.848c.588-.261,1.044.392.979.914-.065.848-1.044.261-.914-.2l.2-.2c-.065.065-.131-.065-.131-.065.065-.131.457-.457.457,0a.981.981,0,0,0-1.958,0,1.7,1.7,0,0,0,1.763,1.7,1.64,1.64,0,0,0,1.632-1.958,1.915,1.915,0,0,0-2.154-1.632,2.264,2.264,0,0,0-1.828,2.35c.2,2.415,3.721,3.263,4.635.849a2.794,2.794,0,0,0-3.068-3.786,2.364,2.364,0,0,0-1.958,2.219,2.527,2.527,0,0,0,1.763,2.48.96.96,0,0,0,.587-1.828Z" transform="translate(-244.712 -106.854)" fill="#e8e8e8"/></g><g transform="translate(456.972 54.178)"><path d="M250.881,109c-.326-.065,0-.326.2-.326.392.065.326.522,0,.522h-.065a.286.286,0,0,1-.065-.2v-.2a.064.064,0,0,1-.065.065c-.131,0,.131-.065.065,0,.457-.2-.065.131.065,0v-.131h0a.934.934,0,0,0-1.175.653.987.987,0,0,0,.653,1.175,1.86,1.86,0,0,0,2.219-.979,1.746,1.746,0,0,0-.522-2.284,2.038,2.038,0,0,0-3.264,1.762,2.134,2.134,0,0,0,3.721,1.24,2.256,2.256,0,1,0-3.917-1.958,2.056,2.056,0,0,0,1.5,2.415.943.943,0,1,0,.653-1.762Z" transform="translate(-248.673 -106.583)" fill="#e8e8e8"/></g><g transform="translate(452.105 82.218)"><path d="M273.446,117.163c-8.813,3.655-17.495,7.506-26.112,11.487-.849.392-.457,1.566.261,1.762a132.581,132.581,0,0,1,21.216,9.725.98.98,0,0,0,.979-1.7,132.56,132.56,0,0,0-21.673-9.921,16.415,16.415,0,0,0,.261,1.762c8.486-3.916,17.038-7.7,25.655-11.291,1.11-.457.588-2.35-.587-1.828Z" transform="translate(-246.853 -117.073)" fill="#e8e8e8"/></g><g transform="translate(481.01 79.043)"><path d="M279.963,116.214c-7.377,9.333-14.688,18.6-22.064,27.935-.783.979.587,2.35,1.371,1.371,7.377-9.333,14.688-18.6,22.064-27.935.783-.914-.587-2.35-1.371-1.371Z" transform="translate(-257.665 -115.885)" fill="#e8e8e8"/></g><g transform="translate(510.654 88.335)"><path d="M271.265,121.232a154.789,154.789,0,0,0,19.127,10.378v-1.7c-7.05,3.981-14.1,7.963-21.15,11.879-1.11.587-.131,2.284.979,1.7,7.05-3.981,14.1-7.963,21.15-11.879a1.006,1.006,0,0,0,0-1.7,154.779,154.779,0,0,1-19.127-10.378c-1.045-.718-2.024.979-.979,1.7Z" transform="translate(-268.753 -119.362)" fill="#e8e8e8"/></g><g transform="translate(513.476 130.019)"><path d="M270.739,136.914c8.095.2,16.124.392,24.218.522a.98.98,0,0,0,0-1.958c-8.095-.2-16.124-.392-24.218-.522a.98.98,0,0,0,0,1.958Z" transform="translate(-269.809 -134.956)" fill="#e8e8e8"/></g><g transform="translate(6.968 98.485)"><path d="M80.439,124.343q15.079,35.93,28.331,72.578c.457,1.175,2.35.653,1.893-.522q-13.317-36.615-28.331-72.578c-.522-1.175-2.415-.653-1.893.522Z" transform="translate(-80.349 -123.159)" fill="#e8e8e8"/></g><g transform="translate(7.049 58.667)"><path d="M81.564,148.743c31.073-12.727,62.146-25.52,93.022-38.7,1.175-.522.131-2.154-.979-1.7-30.746,13.119-61.623,25.846-92.565,38.508-1.175.522-.653,2.415.522,1.893Z" transform="translate(-80.379 -108.262)" fill="#e8e8e8"/></g><g transform="translate(100.961 58.432)"><path d="M115.606,109.664q13.709,29.273,25.524,59.263c.457,1.175,2.35.653,1.893-.522q-11.946-30.252-25.72-59.785c-.522-1.044-2.219-.065-1.7,1.044Z" transform="translate(-115.507 -108.175)" fill="#e8e8e8"/></g><g transform="translate(36.272 119.412)"><path d="M92.778,185.194q22.913-12.825,45.3-26.3c7.376-4.438,14.753-8.942,22.064-13.51,7.181-4.5,14.361-9.072,22.13-12.6,1.175-.522.131-2.219-.979-1.7-7.768,3.524-14.949,8.093-22.13,12.6-7.311,4.569-14.688,9.072-22.064,13.51-14.949,9.007-30.094,17.753-45.3,26.3a.98.98,0,0,0,.979,1.7Z" transform="translate(-91.31 -130.988)" fill="#e8e8e8"/></g><g transform="translate(93.629 121.126)"><path d="M114.19,142.937c4.9-3.133,9.857-6.331,14.753-9.464,1.044-.653.065-2.35-.979-1.7-4.9,3.133-9.857,6.331-14.753,9.464-1.044.718-.065,2.415.979,1.7Z" transform="translate(-112.765 -131.629)" fill="#e8e8e8"/></g><g transform="translate(112.489 117.258)"><path d="M121.315,133.74c1.24-.587,2.481-1.175,3.786-1.762,1.11-.522.131-2.219-.979-1.7-1.24.587-2.481,1.175-3.786,1.762-1.175.522-.131,2.219.979,1.7Z" transform="translate(-119.819 -130.182)" fill="#e8e8e8"/></g><g transform="translate(83.21 69.655)"><path d="M109.549,114.584h0a4.147,4.147,0,0,0,.131-.457c0-.065.065-.065.065-.131a2.836,2.836,0,0,1,.457-.261c-.2.065.392.065.457.065.2.065.2.2.261.326s0-.131,0,0c-.065.2,0-.131,0,0h0l-.065.065a.228.228,0,0,0-.131.065c-.131.065-.065-.065,0,0h-.065a.064.064,0,0,1-.065-.065c-.065-.065,0-.065,0,.065h0s-.065-.2,0-.2a.657.657,0,0,0-.065.2c.065-.2-.065.065,0-.065l.065-.065c-.065.065.131,0,.131,0,.065,0,.131,0,.131.065.065,0,.065.065,0,0,0,0,.065.2.065.065v.261a.406.406,0,0,1-.392.261h-.065c.131.065,0,0-.065,0,.131.065-.065-.065-.065-.065a.588.588,0,0,1-.065-.326c0-.2,0-.261.2-.392l.065-.065c.065,0,.065-.065.131-.065h.131c-.131-.065.065.065.131.065a.661.661,0,0,1,.261.457.979.979,0,0,0-1.958,0c0,1.828,2.938,1.828,3,.065s-2.742-2.089-3.133-.392a1.792,1.792,0,0,0,1.24,2.023,1.716,1.716,0,0,0,1.958-.914,1.9,1.9,0,0,0-2.611-2.545,1.765,1.765,0,0,0-.588,2.35,1.53,1.53,0,0,0,1.175.718,1.214,1.214,0,0,0,1.175-1.175,1,1,0,0,0-.979-.979,1.187,1.187,0,0,0-.914,1.044Z" transform="translate(-108.867 -112.373)" fill="#e8e8e8"/></g><g transform="translate(91.361 66.755)"><path d="M113.325,112.483c.522-.131.718.718.2.783-.065,0-.261-.065-.2-.065h0c-.131-.131-.065-.065,0,.065,0-.065,0-.065-.065-.131h0v-.065a.5.5,0,0,1,.131-.261c.065-.065.2-.065.261-.131h0c.065,0,.065,0,.131.065h0l.065.065h0c0,.065,0,.326.065.2l-.653.653a1.21,1.21,0,0,1,.457-.131h0c-.065-.065-.131-.065-.2-.2,0-.065-.065-.261-.065-.2,0,.131.065-.2,0-.065a.627.627,0,0,1,.587-.457.979.979,0,1,0,0,1.958c1.5,0,1.828-2.089.587-2.806a2.285,2.285,0,0,0-1.958,0,1.338,1.338,0,0,0-.522,1.958,1.641,1.641,0,0,0,3-.131,1.816,1.816,0,0,0-1.958-2.284,1.617,1.617,0,0,0-1.24,1.893,1.514,1.514,0,0,0,1.893,1.11.913.913,0,0,0,.653-1.175.987.987,0,0,0-1.175-.653Z" transform="translate(-111.916 -111.288)" fill="#e8e8e8"/></g><g transform="translate(223.262 15.604)"><path d="M161.254,93.131q.783,49.049,5.222,97.9c.131,1.24,2.089,1.24,1.958,0q-4.406-48.853-5.222-97.9a.979.979,0,0,0-1.958,0Z" transform="translate(-161.254 -92.152)" fill="#e8e8e8"/></g><g transform="translate(224.362 8.294)"><path d="M162.85,98.751c13.382-2.35,26.96-2.807,40.473-3.394,13.121-.522,26.307-1.044,39.429-1.5q39.755-1.469,79.51-2.48a.98.98,0,0,0,0-1.958q-40.44,1.077-80.815,2.48c-13.382.457-26.7.979-40.081,1.566-13.056.522-26.112,1.11-39.037,3.394-1.175.2-.653,2.089.522,1.893Z" transform="translate(-161.666 -89.417)" fill="#e8e8e8"/></g><g transform="translate(384.51 8.328)"><path d="M221.691,90.9c3.656,6.984,3.46,15.077,3.656,22.713q.294,11.944.2,23.888c-.131,15.925-.718,31.785-1.828,47.711-.065,1.24,1.893,1.24,1.958,0,1.11-16.709,1.763-33.482,1.828-50.256.065-8.158-.065-16.317-.261-24.541-.2-7.049-.457-14.1-3.851-20.494-.587-1.11-2.285-.131-1.7.979Z" transform="translate(-221.569 -89.43)" fill="#e8e8e8"/></g><g transform="translate(228.689 103.651)"><path d="M164.515,136.187c51.44-9.529,104.316-8.289,156.343-9.137a.98.98,0,0,0,0-1.958c-52.288.848-105.295-.326-156.865,9.2-1.24.261-.718,2.154.522,1.893Z" transform="translate(-163.284 -125.092)" fill="#e8e8e8"/></g><g transform="translate(235.19 21.958)"><path d="M173.437,94.7a63.958,63.958,0,0,0-7.442,5.874,1.026,1.026,0,0,0,.2,1.566c2.35,1.436,5.81,1.11,7.638,3.263.783.979,2.154-.392,1.371-1.371-2.024-2.48-5.484-2.023-8.029-3.59l.2,1.566a64.279,64.279,0,0,1,7.05-5.548c1.045-.783.065-2.48-.979-1.762Z" transform="translate(-165.716 -94.529)" fill="#e8e8e8"/></g><g transform="translate(246.794 20.706)"><path d="M176.944,94.507a76.9,76.9,0,0,0-6.789,12.466c-.522,1.175,1.175,2.154,1.7.979a74.264,74.264,0,0,1,6.789-12.466c.653-1.044-1.045-2.023-1.7-.979Z" transform="translate(-170.056 -94.061)" fill="#e8e8e8"/></g><g transform="translate(256.579 26.478)"><path d="M174.671,98.531a42.2,42.2,0,0,1,9.074-.2c1.24.131,1.24-1.827,0-1.958a42.109,42.109,0,0,0-9.074.2c-1.24.13-1.306,2.089,0,1.958Z" transform="translate(-173.716 -96.22)" fill="#e8e8e8"/></g><g transform="translate(268.625 20.331)"><g transform="translate(0)"><path d="M178.424,95.329c2.35,3.263,6.658,3.524,9.335,6.331l.2-1.566a40.339,40.339,0,0,0-7.833,5.744c-.914.848.457,2.219,1.371,1.371a40.168,40.168,0,0,1,7.442-5.417.987.987,0,0,0,.2-1.566c-2.546-2.611-6.92-2.937-9.074-5.939-.718-.914-2.415.065-1.632,1.044Z" transform="translate(-178.222 -93.921)" fill="#e8e8e8"/></g></g><g transform="translate(228.533 43.211)"><path d="M164.156,105.027l8.029-.587c1.24-.065,1.24-2.023,0-1.958l-8.029.587c-1.24.131-1.24,2.089,0,1.958Z" transform="translate(-163.226 -102.48)" fill="#e8e8e8"/></g><g transform="translate(242.805 39.556)"><path d="M169.519,106.271c18.082-1.044,36.165-2.154,54.247-3.2,1.24-.065,1.24-2.023,0-1.958-18.082,1.044-36.165,2.154-54.247,3.2-1.24.065-1.306,2.023,0,1.958Z" transform="translate(-168.564 -101.113)" fill="#e8e8e8"/></g><g transform="translate(229.529 51.632)"><path d="M164.577,107.589h4.439a.98.98,0,0,0,0-1.958h-4.439a.979.979,0,1,0,0,1.958Z" transform="translate(-163.598 -105.631)" fill="#e8e8e8"/></g><g transform="translate(239.435 50.354)"><path d="M168.234,107.605a15.646,15.646,0,0,0,5.222-.522.982.982,0,0,0-.522-1.893,14.2,14.2,0,0,1-4.7.392c-1.24,0-1.24,1.958,0,2.023Z" transform="translate(-167.303 -105.153)" fill="#e8e8e8"/></g><g transform="translate(255.494 47.779)"><path d="M174.24,107.847a379.488,379.488,0,0,1,51.7-1.371c1.24.065,1.24-1.893,0-1.958a380.048,380.048,0,0,0-51.7,1.371c-1.24.065-1.24,2.023,0,1.958Z" transform="translate(-173.31 -104.189)" fill="#e8e8e8"/></g><g transform="translate(229.058 63.016)"><path d="M167.287,110.254a41.194,41.194,0,0,1-3.59,3.981.987.987,0,0,0,.457,1.632,25,25,0,0,0,6.2.914.98.98,0,0,0,0-1.958,18.72,18.72,0,0,1-5.679-.848,15.247,15.247,0,0,0,.457,1.632,34.691,34.691,0,0,0,3.59-3.981c.718-.979-.718-2.415-1.436-1.371Z" transform="translate(-163.422 -109.89)" fill="#e8e8e8"/></g><g transform="translate(238.397 62.896)"><path d="M168.1,114.18a133.192,133.192,0,0,1,26.96-2.35.98.98,0,0,0,0-1.958,129.3,129.3,0,0,0-27.482,2.415c-1.175.261-.653,2.089.522,1.893Z" transform="translate(-166.915 -109.845)" fill="#e8e8e8"/></g><g transform="translate(268.732 60.557)"><path d="M178.748,110.748c3.2,1.632,7.05.522,10.118,2.284a16.4,16.4,0,0,1,.261-1.762,18.235,18.235,0,0,0-5.027,2.545c-1.044.718-.065,2.415.979,1.7a18.9,18.9,0,0,1,4.57-2.35.985.985,0,0,0,.261-1.762c-3.133-1.893-6.92-.653-10.118-2.284-1.175-.653-2.154,1.044-1.044,1.632Z" transform="translate(-178.262 -108.97)" fill="#e8e8e8"/></g><g transform="translate(350.296 16.504)"><path d="M214.123,92.5a3.392,3.392,0,0,0-2.872,2.872,8.077,8.077,0,0,0,.326,3.068c.653,2.872.261,4.308-2.35,5.874a.99.99,0,0,0,.522,1.828c2.742-.065,1.763,12.6,7.572,8.354,1.044-.718.065-2.415-.979-1.7-2.676,1.893-2.481-4.308-2.611-4.96a6.3,6.3,0,0,0-.653-1.958,3.4,3.4,0,0,0-3.329-1.7c.2.587.326,1.24.522,1.827,1.5-.914,3.068-1.958,3.656-3.72.522-1.566-1.7-7.441.783-7.9,1.175-.2.653-2.089-.587-1.893Z" transform="translate(-208.771 -92.489)" fill="#e8e8e8"/></g><g transform="translate(367.463 15.339)"><path d="M216.107,94.015c2.219-.326,3.068.979,2.676,4.047-.2.392-.392.718-.588,1.11A8.264,8.264,0,0,0,217.8,101c0,1.371.914,1.632,1.371,2.676.392.979-.065.848-.2,2.089-.392,2.611,3.2,4.765-.2,7.114-1.044.718-.065,2.415.979,1.7a5.139,5.139,0,0,0,2.481-4.242,7.107,7.107,0,0,0-.522-2.023,7.69,7.69,0,0,1,.326-4.373,1.092,1.092,0,0,0-.261-.979,8.775,8.775,0,0,1-.914-.718c-1.567-1.566-.522-2.35.2-4.112a4.376,4.376,0,0,0,.392-3c-.588-2.35-3.068-3.133-5.222-3.068a.981.981,0,0,0-.13,1.958Z" transform="translate(-215.192 -92.053)" fill="#e8e8e8"/></g><g transform="translate(296.032 23.3)"><path d="M189.4,99.476c10.314-.848,20.563-1.632,30.877-2.48,1.24-.131,1.24-2.089,0-1.958-10.314.848-20.563,1.632-30.877,2.48-1.24.065-1.24,2.023,0,1.958Z" transform="translate(-188.474 -95.031)" fill="#e8e8e8"/></g><g transform="translate(340.421 22.574)"><path d="M206.008,96.8a22.759,22.759,0,0,0,6.985-.131c1.24-.2.718-2.089-.522-1.893a23.814,23.814,0,0,1-6.463.065c-1.24-.2-1.24,1.762,0,1.958Z" transform="translate(-205.078 -94.76)" fill="#e8e8e8"/></g><g transform="translate(235.779 75.453)"><path d="M166.866,119.9c17.3-1.11,34.6-2.284,51.9-3.394,1.24-.065,1.24-2.023,0-1.958-17.3,1.11-34.6,2.284-51.9,3.394-1.24.065-1.24,2.023,0,1.958Z" transform="translate(-165.936 -114.542)" fill="#e8e8e8"/></g><g transform="translate(298.904 72.251)"><g transform="translate(0)"><path d="M190.478,117.136c6.593-.653,13.121-1.24,19.714-1.827,1.24-.131,1.24-2.089,0-1.958-6.593.522-13.186,1.175-19.714,1.827-1.24.131-1.24,2.089,0,1.958Z" transform="translate(-189.548 -113.344)" fill="#e8e8e8"/></g></g><g transform="translate(333.437 68.666)"><path d="M203.4,116.835c12.86-1.305,25.785-2.284,38.645-2.872,1.24-.065,1.24-2.023,0-1.958-12.925.653-25.785,1.566-38.645,2.872-1.24.131-1.24,2.089,0,1.958Z" transform="translate(-202.465 -112.003)" fill="#e8e8e8"/></g><g transform="translate(236.64 87.066)"><path d="M174.03,119.089c-2.415,1.7-4.9,3.459-7.311,5.156a.964.964,0,0,0,.261,1.762,76.659,76.659,0,0,0,7.7,1.566c1.24.2,1.763-1.7.522-1.893a76.659,76.659,0,0,1-7.7-1.566,16.374,16.374,0,0,0,.261,1.762c2.415-1.7,4.9-3.459,7.311-5.156.979-.718,0-2.415-1.045-1.632Z" transform="translate(-166.258 -118.887)" fill="#e8e8e8"/></g><g transform="translate(246.458 85.831)"><path d="M177.872,118.753a92.616,92.616,0,0,0-7.768,10.312c-.718,1.044.979,2.023,1.7.979a83.67,83.67,0,0,1,7.442-9.921c.849-.914-.522-2.35-1.371-1.371Z" transform="translate(-169.931 -118.425)" fill="#e8e8e8"/></g><g transform="translate(257.911 87.132)"><path d="M176.513,120.745a9.237,9.237,0,0,0,2.676,1.305c.588.2,1.175.326,1.763.522a4.663,4.663,0,0,1,.979.522q-.1-.685-.588-.392c-.849-.065-2.481.979-3.264,1.371a23.579,23.579,0,0,0-3.46,2.154c-.979.718,0,2.415.979,1.7a21.093,21.093,0,0,1,4.7-2.741c1.044-.457,3.264-.653,3.59-2.023.261-1.175-1.044-1.827-1.893-2.219-1.5-.653-3.2-.848-4.569-1.827-.914-.783-1.893.914-.914,1.632Z" transform="translate(-174.215 -118.912)" fill="#e8e8e8"/></g><g transform="translate(280.969 88.575)"><path d="M183.818,122.583c8.029-.653,16.059-1.5,24.088-1.044,1.24.065,1.24-1.893,0-1.958-8.095-.457-16.059.392-24.088,1.044-1.306.065-1.306,2.023,0,1.958Z" transform="translate(-182.839 -119.451)" fill="#e8e8e8"/></g><g transform="translate(322.535 84.646)"><path d="M199.317,122.105a329.947,329.947,0,0,1,45.434-2.089.98.98,0,0,0,0-1.958,341.021,341.021,0,0,0-45.434,2.089c-1.24.13-1.24,2.089,0,1.958Z" transform="translate(-198.387 -117.982)" fill="#e8e8e8"/></g><path d="M241.208,109.54c-.326,3.263-.653,6.592-.914,9.855,18.866-.587,39.559-.392,61.754,1.044,19.649,1.305,37.992,3.394,54.769,6,.392-4.112.718-8.224,1.11-12.336-7.572-1.5-17.56-3.263-29.31-4.9-15.079-2.089-26.569-3-32.835-3.459-15.863-1.11-23.957-1.632-34.728-.326A140.179,140.179,0,0,0,241.208,109.54Z" transform="translate(194.276 -55.624)" fill="#5222d0" opacity="0.16"/><path d="M116.863,115.764a109.711,109.711,0,0,0-6.006,24.932,184.5,184.5,0,0,0-1.432,19.409c-.166,13.966,2.157,30.276,13.443,36.852,11.881,6.918,30.812,1.436,46.8-11.618,2.742,2.219,5.549,4.373,8.29,6.592L129.2,221.5c11.489,6.853,22.978,13.641,34.4,20.494,12.4-7.375,24.741-14.685,37.144-22.061,6.267,3.068,12.534,6.2,18.735,9.268-12.991,9.138-25.916,18.275-38.906,27.478Q146.6,239.741,112.685,222.8q-17.234-44.741-34.4-89.548C91.208,127.512,104.068,121.638,116.863,115.764Z" transform="translate(-76.839 -37.046)" fill="#4c4c4c" opacity="0.12"/><path d="M118.4,154.686" transform="translate(-9.703 28.07)" fill="#4c4c4c"/><path d="M307.9,103.189a73.417,73.417,0,0,1,4.635,15.73c.457,2.741,4.047,24.476-5.549,43.6C296.734,183.012,273.56,196.2,247.448,197.7a376.47,376.47,0,0,0,69.326,8.42c10.967.326,21.412.131,31.2-.457a224.324,224.324,0,0,0,6.006-39.879,230.14,230.14,0,0,0-3.525-55.8C336.228,107.823,322.062,105.473,307.9,103.189Z" transform="translate(206.248 -58.083)" fill="#4c4c4c" opacity="0.08"/><path d="M252.04,86.878a56.5,56.5,0,0,1,6.332,18.8c2.938,19.711-5.875,35.441-11.946,46.014-18.278,31.655-48.763,46.862-62.341,52.671,28.331-.2,57.445-1.044,87.213-2.807,6.658-.392,13.252-.783,19.845-1.24a266.461,266.461,0,0,0,6.136-44.513,263.923,263.923,0,0,0-4.831-65.333Q272.276,88.608,252.04,86.878Z" transform="translate(100.213 -85.372)" fill="#4c4c4c" opacity="0.09"/></g><g transform="translate(201.043 170.093)"><g transform="translate(169.857 264.395)"><path d="M202.666,244.723q.979,6.657,1.762,13.9c.588,5.548.914,10.9,1.175,15.991a9.509,9.509,0,0,0,2.938,3.329c2.35,1.632,4.9,1.632,7.638,1.566,7.964-.2,11.946-.261,13.709-.587,6.2-1.24,12.077-2.35,13.317-6.266.849-2.611-.849-5.483-.979-5.678-.979-1.632-2.285-2.35-4.5-3.524a19.157,19.157,0,0,0-14.884-1.958c-.849-6.918-1.7-13.837-2.546-20.69Z" transform="translate(-183.213 -108.838)"/><path d="M202.928,198.155c-5.288,5.744-3.656,11.879-5.81,48.886-.849,14.881-1.175,14.163-1.436,23.1a313.722,313.722,0,0,0,1.044,41.38c.457,5.156,1.044,9.464,1.436,12.466a33.25,33.25,0,0,0,18.539,3.72,36.284,36.284,0,0,0,11.032-3.133,49.344,49.344,0,0,0,12.925-8.093q-1.665-61.776-3.329-123.552C214.287,188.56,206,194.826,202.928,198.155Z" transform="translate(-195.291 -191.435)" fill="#fff"/><g transform="translate(0 11.207)"><path d="M198.523,196.558A742.065,742.065,0,0,0,197.152,315.8c.065,1.24,2.024,1.24,1.958,0a742.159,742.159,0,0,1,1.371-119.245c.131-1.24-1.828-1.24-1.958,0Z" transform="translate(-195.39 -195.628)" fill="#161616"/></g><g transform="translate(2.254 124.196)"><path d="M196.721,246.977c14.492,7.506,31.138,3.2,42.758-7.441.914-.849-.457-2.219-1.371-1.371-10.967,10.051-26.7,14.229-40.408,7.18-1.11-.653-2.089,1.044-.979,1.632Z" transform="translate(-196.233 -237.899)" fill="#161616"/></g><g transform="translate(40.538 2.265)"><path d="M210.553,193.213q1.567,60.5,3.133,121.007c.065,1.24,2.024,1.24,1.958,0q-1.567-60.5-3.133-121.007a.98.98,0,0,0-1.958,0Z" transform="translate(-210.553 -192.283)" fill="#161616"/></g><g transform="translate(18.58 135.502)"><path d="M202.364,243.36a163.554,163.554,0,0,1,2.938,23.888c.065,1.24,2.024,1.24,1.958,0a160.912,160.912,0,0,0-3-24.41c-.261-1.24-2.154-.718-1.893.522Z" transform="translate(-202.34 -242.129)" fill="#161616"/></g><g transform="translate(36.098 130.908)"><path d="M208.894,241.34c.392,8.55,1.175,17.035,2.35,25.52.2,1.24,2.089.718,1.893-.522a246.968,246.968,0,0,1-2.285-25c-.065-1.24-2.024-1.24-1.958,0Z" transform="translate(-208.892 -240.41)" fill="#161616"/></g><g transform="translate(38.498 150.878)"><path d="M210.72,250.053a23.883,23.883,0,0,1,19.257,5.939c.914.848,2.35-.522,1.371-1.371a25.734,25.734,0,0,0-20.628-6.527c-1.24.131-1.24,2.089,0,1.958Z" transform="translate(-209.79 -247.881)" fill="#161616"/></g><g transform="translate(21.438 157.432)"><path d="M203.513,252.8c-.326,4.112-.131,9.072,4.243,10.965a18.478,18.478,0,0,0,5.679.914,75.376,75.376,0,0,0,9.4.261c7.507-.392,22.064-3.394,19.91-13.9-.261-1.24-2.154-.718-1.893.522,1.893,9.268-12.991,11.291-19.192,11.487a64,64,0,0,1-9.988-.457c-5.875-.718-6.593-4.569-6.2-9.725a.98.98,0,0,0-1.958-.065Z" transform="translate(-203.409 -250.333)" fill="#161616"/></g><path d="M199.288,200.078c6.4-2.284,12.795-4.569,19.192-6.788-1.11,21.212-1.371,44.382-.261,69.184.914,21.147,2.742,40.988,5.026,59.329a25.642,25.642,0,0,1-4.308,1.5c-9.008,2.35-17.038-.653-20.955-2.545a643.438,643.438,0,0,1-2.024-71.729C196.481,231.733,197.656,215.416,199.288,200.078Z" transform="translate(-194.849 -188.333)" fill="#4c4c4c" opacity="0.11"/><path d="M198.356,196.318c.261,11.422.979,26.238,2.546,43.4,1.24,13.641,2.611,23.823,3,27.021,1.893,13.771,4.765,31.655,9.6,52.541-5.483-1.24-10.967-2.545-16.385-3.786-.979-20.951-1.436-43.142-.979-66.443C196.4,230.714,197.181,213.092,198.356,196.318Z" transform="translate(-194.439 -183.267)" fill="#4c4c4c" opacity="0.1"/></g><g transform="translate(109.457 267.647)"><path d="M208.9,218.743c.392,2.023.914,4.96,1.567,8.615,3.851,23.235,3.786,39.944,4.178,54.042.326,12.009,1.11,29.175,3.329,50.517-1.371.588-3.46,1.566-5.94,2.872-6.136,3.2-14.361,7.506-22.064,15.468a65.593,65.593,0,0,0-8.617,11.03,217.892,217.892,0,0,0,79.64-7.049c-3.525-3-7.442-6-11.685-9.072a180.76,180.76,0,0,0-22.913-13.706c-1.567-15.208-2.807-31.2-3.525-47.842-1.11-25.716-.979-49.93,0-72.382C218.167,213.782,213.532,216.263,208.9,218.743Z" transform="translate(-158.485 -161.559)"/><path d="M173.585,217.569c0-3,3.46-5.548,10.379-10.573,3.264-2.415,12.272-8.485,27.352-11.944,13.252-3,23.435-2.154,35.773-1.11,17.56,1.5,25.655,5.026,27.809,5.939a65.366,65.366,0,0,1,14.361,8.811,36.774,36.774,0,0,1-7.964,14.751c-3.2,3.655-11.946,12.009-36.164,13.9C211.512,240.087,173.52,228.469,173.585,217.569Z" transform="translate(-171.479 -192.106)" fill="#fff"/><path d="M176.476,203.417a34.28,34.28,0,0,0-2.219,6.2,39.865,39.865,0,0,0,.2,20.3A108.745,108.745,0,0,0,189.2,235.4c19.061,5.678,34.6,4.9,47.2,4.177,16.581-.914,27.287-1.7,39.69-8.159a69.258,69.258,0,0,0,15.21-10.835c-.2-7.114-.457-14.294-.653-21.408a100.991,100.991,0,0,1-18.539,9.725C231.636,225.086,191.555,210.074,176.476,203.417Z" transform="translate(-172.411 -181.739)"/><g transform="translate(0 25.407)"><path d="M173.793,202.866a60.386,60.386,0,0,0,.065,22.191c.261,1.24,2.089.718,1.893-.522a57.578,57.578,0,0,1-.065-21.147c.261-1.24-1.632-1.762-1.893-.522Z" transform="translate(-172.797 -202.157)" fill="#161616"/></g><g transform="translate(1.202 37.528)"><path d="M173.693,217.471c8.813,5.678,19.453,7.114,29.637,8.615,10.967,1.566,22,2.48,33.1,1.566,19-1.566,42.431-3.394,55.422-19.254.783-.979-.588-2.35-1.371-1.371-6.136,7.506-14.949,11.813-24.218,14.228-10.053,2.611-20.693,3.786-31.073,4.5-10.9.783-21.8-.2-32.574-1.762-9.6-1.436-19.649-2.807-27.939-8.224-1.045-.653-2.024,1.044-.979,1.7Z" transform="translate(-173.247 -206.691)" fill="#161616"/></g><g transform="translate(117.048 16.531)"><path d="M216.593,200.067A79.451,79.451,0,0,1,217.7,220.5c-.065,1.24,1.893,1.24,1.958,0a83.394,83.394,0,0,0-1.175-20.951c-.2-1.24-2.089-.718-1.893.522Z" transform="translate(-216.579 -198.836)" fill="#161616"/></g><g transform="translate(1.055)"><path d="M174.961,218.964c10.379-17.883,33.619-23.1,52.811-24.214a118.322,118.322,0,0,1,33.88,2.872,111.01,111.01,0,0,1,15.667,4.765c4.831,1.893,9.531,4.438,11.946,9.268.588,1.11,2.285.131,1.7-.979-4.635-9.138-17.364-12.075-26.438-14.359a121.9,121.9,0,0,0-36.687-3.459c-19.845,1.175-43.672,6.657-54.443,25.193-.783.979.914,1.958,1.567.914Z" transform="translate(-173.192 -192.652)" fill="#161616"/></g><g transform="translate(50.21 56.971)"><path d="M191.585,214.9q6.169,55.706,8.29,111.739c.065,1.24,2.024,1.24,1.958,0q-2.056-56-8.29-111.739c-.13-1.24-2.089-1.24-1.958,0Z" transform="translate(-191.578 -213.966)" fill="#161616"/></g><g transform="translate(62.618 56.971)"><path d="M196.221,214.9q.2,56.294,3.786,112.457c.065,1.24,2.024,1.24,1.958,0q-3.623-56.2-3.786-112.457c-.065-1.24-2.024-1.24-1.958,0Z" transform="translate(-196.219 -213.966)" fill="#161616"/></g><g transform="translate(21.56 168.954)"><path d="M217.678,255.959a94.457,94.457,0,0,0-36.687,30.089.993.993,0,0,0,.587,1.436c13.513,2.219,27.156,1.109,40.669-.392,13.186-1.436,26.5-2.872,39.233-6.657.653-.2,1.044-1.175.457-1.632A166.206,166.206,0,0,0,227.4,256.481c-1.11-.522-2.154,1.175-.979,1.7a162.148,162.148,0,0,1,34.141,22,15.273,15.273,0,0,1,.457-1.632c-12.6,3.786-25.72,5.156-38.71,6.592-13.317,1.5-26.83,2.611-40.147.457.2.457.392.979.588,1.436a92.114,92.114,0,0,1,35.969-29.37c1.044-.522.065-2.219-1.044-1.7Z" transform="translate(-180.862 -255.86)" fill="#161616"/></g></g><g transform="translate(63.566 98.271)"><path d="M192.031,192.317c1.5,5.939,3.068,11.879,4.57,17.818a129.863,129.863,0,0,0-20.171-4.764c-3.656-.522-19.127-2.872-20.171.392-.392,1.24,1.436,3.133,1.632,3.329,1.5,1.5,3.329,1.632,4.961,2.023,3.329.718,4.439,1.958,7.9,3.655,5.222,2.611,16.516,6.723,29.18,9.007a118.216,118.216,0,0,0,16.711,1.827c-2.676-11.683-5.418-23.366-8.095-35.049C203.063,191.077,197.515,191.665,192.031,192.317Z" transform="translate(-154.675 -26.784)"/><path d="M185.358,130.6c-2.938,1.175-5.222,3.524-8.878,10.639-5.875,11.357-7.7,19.45-7.7,19.45-5.483,24.345-8.16,36.55-9.139,46.014-3,30.023,1.958,31.329,1.763,62.853a22.956,22.956,0,0,0,2.938,12.4c4.765,7.767,13.97,9.986,16.516,10.639,7.507,1.827,14.622.522,20.693-.587,1.7-.326,3.133-.653,4.113-.914a86.9,86.9,0,0,0,12.077,7.963c5.94,3.2,11.1,6,18.278,6.788a56.091,56.091,0,0,0,10.64,0,68.826,68.826,0,0,0,7.964-1.175,45.652,45.652,0,0,0,13.578,2.35c3.656.065,15.667.13,26.242-7.7,9.465-6.984,12.729-16.382,15.079-23.3,2.219-6.657,10.706-31.916-2.089-45.426-11.1-11.748-32.183-8.354-49.024-5.613a108.235,108.235,0,0,0-19.453,5.026c-7.768-20.1-13.513-35.963-17.43-46.928-3.721-10.378-9.139-20.168-12.4-30.676-2.938-9.4-4.5-16.9-11.228-20.69C197.434,131.451,191.3,128.187,185.358,130.6Z" transform="translate(-150.547 -128.565)" fill="#fff"/><g transform="translate(102.057 110.634)"><path d="M194.515,237.715c17.3,3.981,37.144,1.371,49.024-13.119,5.94-7.245,7.833-16.252,9.465-25.259,1.632-9.333,2.546-18.862-.457-28-.392-1.175-2.285-.653-1.893.522,2.938,8.811,2.089,18.014.457,26.956-1.5,8.615-3.264,17.427-8.943,24.41-11.359,13.967-30.485,16.382-47.131,12.6a.982.982,0,0,0-.522,1.893Z" transform="translate(-193.806 -170.676)" fill="#161616"/></g><g transform="translate(6.996)"><path d="M215.047,165.524c-.914-8.746-3.2-17.753-7.572-25.455-3.264-5.678-8.486-11.1-15.536-10.769-7.442.326-12.925,6.331-15.993,12.531-4.178,8.224-6.789,17.557-9.2,26.368a238.637,238.637,0,0,0-8.356,55.543,252.874,252.874,0,0,0,.783,29.827c.783,8.942,1.436,18.667,3.982,27.282,2.154,7.375,12.011,11.748,18.866,13.51a37.553,37.553,0,0,0,24.48-2.023c1.175-.522.131-2.219-.979-1.7a35.563,35.563,0,0,1-22.064,2.089c-6.463-1.436-16.32-5.417-18.409-12.336a86.574,86.574,0,0,1-2.089-11.618c-.718-4.634-1.24-9.268-1.7-13.967-.718-7.9-1.11-15.86-1.044-23.823a237.707,237.707,0,0,1,5.353-49.473,235.2,235.2,0,0,1,6.2-23.04c2.481-7.571,4.831-16.513,10.51-22.387,3.2-3.263,7.768-5.548,12.4-4.7,4.439.848,7.833,4.308,10.184,7.963,4.961,7.571,7.376,17.165,8.356,26.107,0,1.305,1.958,1.371,1.828.065Z" transform="translate(-158.249 -129.286)" fill="#161616"/></g><g transform="translate(28.931 54.766)"><path d="M167.241,150.7a183.787,183.787,0,0,0,7.311,70.946c3.395,10.965,7.377,23.1,14.3,32.438,6.136,8.289,15.732,13.772,25.459,16.839,11.228,3.59,23.566,3.786,34.206-1.632,1.11-.587.131-2.284-.979-1.7-9.727,4.96-20.889,4.96-31.138,1.958-10.51-3.068-21.02-9.072-27.156-18.34-6.006-9.137-9.792-20.168-12.925-30.611a179.627,179.627,0,0,1-6.789-32.7,185.813,185.813,0,0,1-.326-37.138c.13-1.305-1.828-1.305-1.958-.065Z" transform="translate(-166.453 -149.775)" fill="#161616"/></g><g transform="translate(25.474 47.839)"><path d="M165.162,148.113a122.373,122.373,0,0,0,3.786,25.259.982.982,0,0,0,1.893-.522,113.317,113.317,0,0,1-3.721-24.737c-.065-1.24-2.024-1.24-1.958,0Z" transform="translate(-165.16 -147.183)" fill="#161616"/></g><g transform="translate(62.333 35.231)"><path d="M179.038,143.6q18.507,44.154,32.7,90.07c.392,1.175,2.285.718,1.893-.522q-14.1-45.818-32.7-90.07c-.522-1.11-2.415-.587-1.893.522Z" transform="translate(-178.947 -142.466)" fill="#161616"/></g><g transform="translate(36.128 165.263)"><path d="M169.2,192.3c1.7,5.874,3.395,11.748,5.092,17.688a.982.982,0,0,0,1.893-.522c-1.7-5.874-3.395-11.748-5.092-17.688-.392-1.175-2.285-.653-1.893.522Z" transform="translate(-169.145 -191.113)" fill="#161616"/></g><g transform="translate(0 177.168)"><path d="M197.688,201.359a82.34,82.34,0,0,0-41.06-5.091c-.522.065-1.24.587-.914,1.24,1.7,4.177,6.463,5.417,10.249,7.049,5.418,2.35,10.836,4.634,16.385,6.592,11.1,3.981,22.652,6.723,34.467,6.4a.98.98,0,0,0,0-1.958c-10.445.261-20.693-1.827-30.551-5.156-4.765-1.566-9.4-3.394-14.035-5.352-2.481-1.044-5.027-2.089-7.507-3.2-2.546-1.11-6.006-2.154-7.181-4.96a15.058,15.058,0,0,0-.914,1.24,81.1,81.1,0,0,1,40.538,5.026c1.175.522,1.632-1.371.522-1.828Z" transform="translate(-155.632 -195.567)" fill="#161616"/></g><g transform="translate(52.625 161.993)"><path d="M175.322,190.82c1.371,12.075,7.115,23.17,7.964,35.31.065,1.24,2.024,1.24,1.958,0-.849-12.14-6.593-23.235-7.964-35.31-.131-1.24-2.089-1.24-1.958,0Z" transform="translate(-175.316 -189.89)" fill="#161616"/></g><path d="M178.135,272.831c-2.22-5.678-5.288-14.163-8.225-24.606a242.539,242.539,0,0,1-7.507-72.056c.457-9.986,1.567-21.016,9.531-29.044,3.068-3.068,6.528-6.527,9.531-5.809,12.534,2.937-9.988,69.51,21.542,105.473,16.189,18.471,39.559,20.821,43.345,21.147,33.553,3,56.205-21.082,59.077-24.214a41.738,41.738,0,0,1-2.742,17.1,43.436,43.436,0,0,1-17.756,21.147c-16.255,9.921-33.292,5.287-36.165,4.438a59.387,59.387,0,0,1-18.082,0,61.681,61.681,0,0,1-31.726-15.338,25.737,25.737,0,0,1-10.9,3.068A24.666,24.666,0,0,1,178.135,272.831Z" transform="translate(-144.696 -109.321)" fill="#4c4c4c" opacity="0.1"/><path d="M167.146,147.287c.849-.065,1.175,7.636,5.483,32.765,5.026,29.7,7.572,44.513,11.293,52.932,4.7,10.7,16.842,29.893,53.268,44.056a61.629,61.629,0,0,1-43.672-15.73c-4.113.914-8.225,1.827-12.272,2.741a293.531,293.531,0,0,1-8.225-29.7C162.838,188.6,165.253,147.418,167.146,147.287Z" transform="translate(-139.19 -99.171)" fill="#4c4c4c" opacity="0.13"/></g><g transform="translate(0 90.124)"><path d="M136.448,155.677c-.326,1.371,1.7,3.2,3.329,3.981a6.683,6.683,0,0,0,5.614,0,20.76,20.76,0,0,1,11.554,2.611c1.7.979,3.264,3.068,6.267,7.245,5.549,7.571,6.267,10.117,9.922,12.531a16.993,16.993,0,0,0,6.593,2.611c1.567,1.762,3.982,4.5,6.919,7.9,10.51,12.27,11.228,14.489,16.189,18.8,5.353,4.7,11.815,10.443,19.453,9.594,4.047-.457,7.311-2.676,12.534-7.9,10.836-10.9,18.343-22.909,25.067-36.615,7.246-14.751,8.878-21.93,9.6-25.389.392-2.154,4.243-21.6-1.306-24.084-2.154-.979-4.961.914-9.2,4.308a138.23,138.23,0,0,0-25.067,26.042,211.2,211.2,0,0,0-16.842,29.044l-28-14.49a13.139,13.139,0,0,1-1.306-5.613c0-3.981,2.024-5.483,3.329-9.921,1.371-4.569,1.567-10.834-.653-11.879-1.567-.718-4.57,1.044-5.94,3.329-1.436,2.35-.587,4.438-1.958,5.287-1.763,1.11-4.961-1.11-5.288-1.305-3.525-2.48-3.2-5.548-5.94-10.573a31.729,31.729,0,0,0-9.2-10.247c-3.264-2.48-6.92-5.287-10.575-4.308a5.56,5.56,0,0,0-3.851,3,4.575,4.575,0,0,0-.131,2.611,6.05,6.05,0,0,0-5.222-.653,5.722,5.722,0,0,0-3.656,4.308,5.184,5.184,0,0,0,.131,2.089,5.676,5.676,0,0,0-5.092.849,3.621,3.621,0,0,0-1.436,2.611c0,1.11.783,2.023,2.154,3.133,2.938,2.415,5.157,3,7.9,4.5a26.59,26.59,0,0,1,5.288,3.851C144.02,152.936,136.97,153.262,136.448,155.677Z" transform="translate(-131.159 -125.912)" fill="#fff"/><g transform="translate(84.913 1.207)"><path d="M165.4,186.25c11.424-22.256,24.023-46.079,47.458-57.762,1.11-.587.131-2.219-.979-1.7-23.7,11.748-36.556,35.9-48.111,58.415-.653,1.175,1.044,2.154,1.632,1.044Z" transform="translate(-163.616 -126.689)" fill="#161616"/></g><g transform="translate(57.457 45.321)"><path d="M153.793,145.064c10.053,6.723,22.586,9.529,31.2,18.34a.969.969,0,1,0,1.371-1.371c-8.747-8.942-21.411-11.813-31.6-18.667-1.044-.718-2.024.979-.979,1.7Z" transform="translate(-153.347 -143.193)" fill="#161616"/></g><g transform="translate(49.597 22.047)"><path d="M150.553,172.554a100.057,100.057,0,0,0,17.56,22.256c6.136,5.809,14.165,13.249,23.174,13.445,8.225.2,13.839-6.657,18.213-12.727,6.528-9.072,12.534-18.471,18.148-28.13,5.745-9.855,11.815-20.3,12.077-31.981a.98.98,0,0,0-1.958,0c-.261,12.531-7.442,23.758-13.709,34.2-6.006,10.117-12.207,20.886-19.975,29.7-3.59,4.112-8.225,7.506-13.9,6.918-6.332-.653-11.946-5.221-16.646-9.2a98.734,98.734,0,0,1-21.346-25.454c-.587-1.11-2.285-.13-1.632.979Z" transform="translate(-150.406 -134.486)" fill="#161616"/></g><g transform="translate(4.876 26.253)"><path d="M180.309,168.681c-2.611-1.24-5.614-1.632-8.16-3.068-2.611-1.5-4.439-4.047-6.136-6.527-3-4.438-5.745-9.072-9.988-12.466A18.462,18.462,0,0,0,149.3,143.1c-2.742-.783-5.222-.326-8.029-.2-1.763.065-5.418.131-5.549-2.545-.2-2.611,3.46-2.219,4.961-2.284a20.817,20.817,0,0,1,9.6,1.305c1.175.457,1.7-1.436.522-1.893-3.656-1.5-7.377-1.567-11.293-1.305-1.893.131-4.374.131-5.418,2.023-.914,1.632-.2,3.72,1.044,5.026,2.089,2.219,5.222,1.762,7.964,1.5,9.792-.979,15.6,6.853,20.432,14.228a29.785,29.785,0,0,0,5.875,7.179c2.938,2.35,6.593,2.676,9.857,4.308,1.175.457,2.219-1.24,1.044-1.762Z" transform="translate(-133.679 -136.06)" fill="#161616"/></g><g transform="translate(49.165 17.967)"><path d="M160.42,161.271c-3.525-4.112-.261-10.508.979-14.946.914-3.2,2.22-7.636.522-10.834a4.282,4.282,0,0,0-5.222-2.284,5.808,5.808,0,0,0-2.742,2.415c-.914,1.5-1.175,5.613-3,6.07-1.24.261-.718,2.154.522,1.893,2.219-.522,2.676-2.741,3.329-4.634.326-.979.979-3.524,2.219-3.72l3.525,1.958a15.247,15.247,0,0,0,.261,1.7,23.045,23.045,0,0,1-1.175,6.984c-1.567,5.287-4.635,11.944-.522,16.839.718.914,2.089-.522,1.306-1.436Z" transform="translate(-150.245 -132.96)" fill="#161616"/></g><g transform="translate(0 11.496)"><path d="M138.188,138.626a13.853,13.853,0,0,1-2.807-1.828,1.5,1.5,0,0,1-.587-2.48c-.065-1.5.718-2.023,2.285-1.762,2.938-.2,5.483,1.24,8.029,2.415a52.055,52.055,0,0,1,12.207,7.506c.914.848,2.35-.522,1.371-1.371a48.934,48.934,0,0,0-10.575-6.853c-3.59-1.827-7.442-4.112-11.62-3.655-2.154.261-4.7,1.044-4.635,3.59.065,2.937,3.068,4.765,5.288,6.07,1.11.653,2.089-1.044,1.044-1.632Z" transform="translate(-131.855 -130.539)" fill="#161616"/></g><g transform="translate(5.934 5.007)"><path d="M137.019,134.79c-3.46-2.611,1.044-4.373,2.415-4.634a8.633,8.633,0,0,1,3.852.522,25.244,25.244,0,0,1,5.81,3.2,65.313,65.313,0,0,1,9.727,8.289.969.969,0,1,0,1.371-1.371c-4.9-4.96-11.946-12.009-19.322-12.662-4.635-.392-9.661,4.634-4.831,8.289.979.848,1.958-.849.979-1.632Z" transform="translate(-134.074 -128.111)" fill="#161616"/></g><g transform="translate(14.941)"><path d="M139.868,132.05c-2.35-2.937,2.938-3.981,4.5-3.72.653.131,1.24.326,1.893.522a18.933,18.933,0,0,1,5.679,3.263,45.41,45.41,0,0,1,7.964,8.615c.783.979,2.481,0,1.7-.979-4.113-5.417-8.943-11.1-15.8-13.054-2.285-.653-5.288-.849-7.115,1.044a4.084,4.084,0,0,0-.2,5.678c.783.979,2.154-.392,1.371-1.371Z" transform="translate(-137.443 -126.238)" fill="#161616"/></g><g transform="translate(36.631 11.633)"><path d="M145.679,132.079c2.415,4.112,4.57,8.485,7.311,12.4,1.7,2.415,4.178,4.177,7.181,2.937,1.175-.457.653-2.35-.522-1.893-3.982,1.566-6.071-3.916-7.638-6.592-1.567-2.611-3.068-5.287-4.635-7.9-.588-1.044-2.285-.065-1.7,1.044Z" transform="translate(-145.557 -130.59)" fill="#161616"/></g><g transform="translate(4.255 18.653)"><path d="M133.893,135.06c3.656,2.415,7.377,4.765,11.032,7.179,1.044.718,2.024-.979.979-1.7-3.656-2.415-7.376-4.765-11.032-7.179-1.044-.653-2.024,1.044-.979,1.7Z" transform="translate(-133.446 -133.216)" fill="#161616"/></g><path d="M133.824,134.07c2.611-1.24,6.593,2.219,9.074,4.242,12.077,9.855,12.664,6.4,19.584,13.511,7.05,7.179,6.854,11.1,13.9,15.4a30.728,30.728,0,0,0,8.617,3.59c1.24,1.762,3.068,4.373,5.483,7.375,8.682,10.9,13.186,16.578,20.236,19.189.588.2,11.881,4.242,21.281-1.24,7.507-4.373,7.507-11.357,16.254-34.135,11.032-28.718,15.471-32.308,18.343-32.047,1.7.131,3.264,1.7,3.982,2.937,1.5,2.545.326,5.287-1.24,11.618-1.5,6-1.175,6.266-2.089,9.921-2.546,9.66-7.115,15.012-20.041,36.876a92.978,92.978,0,0,1-9.727,13.9c-4.113,4.83-6.724,7.7-10.771,9.072-6.789,2.284-13.447-1.24-16.646-2.937-4.308-2.284-7.376-5.091-12.207-10.769a185.059,185.059,0,0,1-16.254-22.126,15.718,15.718,0,0,1-5.875-1.24c-2.024-.914-4.635-2.546-10.967-11.618-4.5-6.462-4.439-7.375-6.724-8.876-3.59-2.35-8.029-2.741-10.314-2.937-5.288-.522-8.095.587-9.465-1.24a3.734,3.734,0,0,1,0-4.242c2.219-2.741,9.792.653,10.118-.2.2-.587-2.807-2.154-8.029-5.287-6.2-3.72-8.16-5.156-8.029-6.723A2.485,2.485,0,0,1,133.824,134.07Z" transform="translate(-131.081 -120.035)" fill="#4c4c4c" opacity="0.12"/></g><g transform="translate(207.822 78.999)"><path d="M218.031,122.221c-3.525.718-4.9,7.31-6.267,13.51a78.806,78.806,0,0,0-1.632,19.776c.457,14.033,3.46,27.413,7.246,35.31,2.024,4.242,3.264,4.765,5.614,10.247.783,1.827,1.371,3.394,2.938,4.634A9,9,0,0,0,233.176,207c4.047-.979,6.2-4.5,7.246-6.266,2.938-5.026,3-10.182,2.285-19.124-1.044-13.51-1.567-20.233-3.656-27.347a75.649,75.649,0,0,0-10.575-22.452C225.081,126.724,221.426,121.568,218.031,122.221Z" transform="translate(-208.799 -121.928)" fill="#fff"/><path d="M218.888,124.131c3.525-.392,6.071,3.916,7.9,6.462,1.632,2.284,3.133,4.7,4.569,7.114a82.334,82.334,0,0,1,6.789,15.795,108.016,108.016,0,0,1,4.7,33.548c-.065,5.874,0,13.576-4.961,17.753-2.285,1.893-5.745,3.068-8.552,1.7-2.937-1.436-4.635-5.352-6.136-8.028a92.856,92.856,0,0,1-11.1-35.179c-1.436-13.38-.457-28.065,6.92-39.618.653-1.044-1.044-2.023-1.7-.979-7.572,11.879-8.617,26.956-7.181,40.6a92.318,92.318,0,0,0,13.709,40.075c2.807,4.373,6.724,6.984,11.946,4.96,5.418-2.089,7.833-7.506,8.551-12.923,1.828-12.793.065-26.956-3.394-39.357a89.012,89.012,0,0,0-8.682-20.755,77.332,77.332,0,0,0-6.136-8.942c-1.893-2.35-3.982-4.569-7.181-4.242-1.306.2-1.306,2.154-.065,2.023Z" transform="translate(-209.591 -122.076)" fill="#161616"/><path d="M220.22,123.638a94.943,94.943,0,0,0-1.5,28.457c1.044,10.117,3.525,17.557,6.724,27.217a210.639,210.639,0,0,0,10.967,26.564,9.081,9.081,0,0,1-5.875,1.5c-4.765-.718-7.572-6.266-9.465-10.573-6.92-15.4-10.379-23.1-10.967-36.289-.849-18.079,3.982-38.116,8.225-38.182C219.11,122.332,219.763,123.05,220.22,123.638Z" transform="translate(-208.899 -121.648)" fill="#4c4c4c" opacity="0.11"/></g><g transform="translate(124.227 71.461)"><path d="M180.553,139.678c-.326,2.806-.653,6.788-.979,11.552-.261,3.59-.914,14.1-.653,24.084.587,19.711,4.9,35.375,7.572,44.839,2.415,8.485,4.961,15.468,6.92,20.429a37.134,37.134,0,0,0,1.632,7.571c4.7,14.1,16.842,21.082,19.78,22.779,14.688,8.224,29.31,5.221,33.619,4.308,4.308-.979,18.213-4.177,27.352-16.513,3-3.981,5.679-9.2,8.225-23.1,1.175-6.462,3.917-23.431,1.958-52.41-2.024-29.5-6.789-40.6-9.6-46.145a87.343,87.343,0,0,0-6.919-11.552,77.737,77.737,0,0,0-34.99-5.939c-11.946.783-21.085,4.373-30.028,7.9A147.1,147.1,0,0,0,180.553,139.678Z" transform="translate(-177.42 -118.988)" fill="#66fcf1"/><g transform="translate(0 21.742)"><path d="M180.084,128.1a183.584,183.584,0,0,0,14.753,101.426c.522,1.175,2.219.131,1.7-.979a180.7,180.7,0,0,1-14.557-99.925c.131-1.24-1.762-1.762-1.893-.522Z" transform="translate(-178.322 -127.39)" fill="#161616"/></g><g transform="translate(13.825 117.802)"><path d="M183.507,164.573c2.35,16.382,14.166,30.545,29.7,36.224,16.581,6.07,36.491,2.48,49.743-9.138,6.919-6,11.685-14.1,12.6-23.3.131-1.24-1.828-1.24-1.958,0-2.154,22-26.5,34.462-46.609,33.221-20.759-1.24-38.645-16.839-41.583-37.594-.2-1.175-2.089-.653-1.893.587Z" transform="translate(-183.493 -163.327)" fill="#161616"/></g><g transform="translate(1.489)"><path d="M180.327,141.707c25.916-16.317,58.359-27.869,88.192-15.012,1.175.522,2.154-1.175.979-1.7-30.55-13.184-63.582-1.762-90.215,15.012-.979.718,0,2.415,1.044,1.7Z" transform="translate(-178.879 -119.256)" fill="#161616"/></g><g transform="translate(90.829 5.606)"><path d="M212.6,122.991c7.05,6.462,9.792,17.3,11.815,26.368a224.12,224.12,0,0,1,4.374,30.284c1.7,20.168,1.11,40.531-2.938,60.438-.261,1.24,1.632,1.762,1.893.522,4.308-20.886,4.831-42.228,2.807-63.44a212.519,212.519,0,0,0-4.765-30.676c-2.154-8.615-5.026-18.667-11.75-24.867-.979-.848-2.35.522-1.436,1.371Z" transform="translate(-212.297 -121.353)" fill="#161616"/></g><g transform="translate(25.065 128.344)"><path d="M188.026,168.94A53,53,0,0,0,217.4,182.516c1.24.131,1.24-1.827,0-1.958a50.3,50.3,0,0,1-28-13.054c-.914-.783-2.35.587-1.371,1.436Z" transform="translate(-187.698 -167.271)" fill="#161616"/></g><path d="M198.882,120.322c2.415,3.786,4.9,7.636,7.311,11.422a248.267,248.267,0,0,1,15.079,52.345c1.893,11.161,3.721,21.6,3.068,34.657-.588,11.748-3.59,33.026-18.735,57.632a47.365,47.365,0,0,0,13.643-2.219c2.285-.718,19.127-6.4,27.287-22.387,3.395-6.657,3.982-12.6,4.5-19.776,2.742-38.508.2-63.375-1.24-71.925a82.036,82.036,0,0,0-7.507-24.475,72.743,72.743,0,0,0-6.724-10.769,64.922,64.922,0,0,0-36.687-4.5Z" transform="translate(-143.917 -118.953)" fill="#4c4c4c" opacity="0.15"/><path d="M232.3,127.485c-2.35.131-3.525,14.294-4.308,23.823a294.458,294.458,0,0,0-.2,43.207c.718,15.273-2.872,37.333-22.195,66.378a53.291,53.291,0,0,0,12.664-5.091c4.308-2.415,10.445-5.874,14.884-13.054a34.2,34.2,0,0,0,4.7-13.445,242.263,242.263,0,0,0,3.46-49.93C240.325,154.832,235.559,127.289,232.3,127.485Z" transform="translate(-132.68 -105.491)" fill="#4c4c4c" opacity="0.11"/></g><g transform="translate(126.9 133.987)"><g transform="translate(0 6.184)"><path d="M181.806,146.87c3.656,53.193.587,106.517-2.481,159.645-.131,2.545,3.786,2.48,3.917,0,3.133-53.128,6.136-106.452,2.481-159.645-.2-2.545-4.113-2.545-3.917,0Z" transform="translate(-179.322 -144.961)"/></g><path d="M180.764,148.326a607.6,607.6,0,0,0,63.059-.718c17.168-1.044,33.292-2.807,48.241-4.96-.326,16.578-.718,33.091-1.044,49.669a401.42,401.42,0,0,1-57.054,7.049,399.23,399.23,0,0,1-51.44-.718Q181.645,173.487,180.764,148.326Z" transform="translate(-176.909 -142.648)" stroke="#000" stroke-miterlimit="10" stroke-width="0.488"/><g transform="translate(97.713 9.105)"><path d="M230.311,147.914q-7.246,75.189-14.427,150.377c-.261,2.48,3.656,2.48,3.917,0q7.246-75.189,14.427-150.377c.261-2.48-3.656-2.48-3.917,0Z" transform="translate(-215.872 -146.054)"/></g></g><g transform="translate(119.393)"><path d="M177.341,108.909c-.457,1.305,0,3.851.522,7.114a45.081,45.081,0,0,0,1.436,5.809,68.951,68.951,0,0,0,3.982,10.182,66.87,66.87,0,0,0,12.011,17.1,67.57,67.57,0,0,0,7.115,6.2c5.679-2.284,11.359-4.634,17.1-6.918a22.863,22.863,0,0,0,7.246-8.746c3.786-8.159,1.763-17.1-1.24-22.322C215.007,98.988,179.625,102.513,177.341,108.909Z" transform="translate(-175.445 -73.738)" fill="#fff"/><g transform="translate(0.827 39.273)"><path d="M176.848,108.4a83.109,83.109,0,0,0,9.922,25.063,83.909,83.909,0,0,0,7.507,10.378c2.415,2.872,4.961,5.678,8.813,6.592,1.24.261,1.763-1.632.522-1.893-4.047-.914-6.789-4.634-9.335-7.767a75.592,75.592,0,0,1-6.919-10.182,79.211,79.211,0,0,1-8.617-22.713c-.261-1.175-2.154-.653-1.893.522Z" transform="translate(-176.823 -107.214)" fill="#161616"/></g><g transform="translate(13.634 50.857)"><path d="M183.584,117.2c-.261-5.678,6.528-3.916,8.747-.979,2.611,3.394,1.893,10.7-3.851,9.725-1.24-.2-1.763,1.7-.522,1.893,7.376,1.24,9.857-7.767,5.94-12.858-3.395-4.438-12.664-5.417-12.272,2.154.065,1.305,2.024,1.305,1.958.065Z" transform="translate(-181.614 -111.548)" fill="#161616"/></g><path d="M177.692,131.543c-.849-3-2.285-7.832.261-12.6a13.94,13.94,0,0,1,7.638-6.266A13.838,13.838,0,0,1,199.234,98a26,26,0,0,1,19.453-5.221c8.356,1.24,9.792,6.266,19.127,10.247a41.237,41.237,0,0,0,14.949,3.133c-1.632,1.893-3.329,3.851-4.961,5.744a22.526,22.526,0,0,1,4.178,6.527c.653,1.5,1.828,4.96,1.567,11.552a63.026,63.026,0,0,1-3.133,15.991c-2.35,7.7-3.721,9.986-2.35,13.119,1.5,3.525,5.092,4.5,4.635,6-.522,1.632-5.092,1.827-8.29,1.436-4.765-.587-7.768-2.676-8.29-1.958-.653.848,3.851,3.851,3.133,5.809-.849,2.545-9.4,2.154-15.536.718a37.6,37.6,0,0,1-10.053-3.981,39.97,39.97,0,0,1-11.293-9.464c1.632-3.655,1.436-7.7-.783-10.508-.2-.261-3.46-4.242-7.376-3.133a6.677,6.677,0,0,0-3.656,3.133C187.745,145.576,180.368,140.681,177.692,131.543Z" transform="translate(-176.514 -92.521)" fill="#ff2d26"/><path d="M180.1,105.953c1.371,4.112,10.314,3.329,16.972,5.548,4.765,1.566,11.1,5.678,16.777,17.035-1.567-5.091-8.813-26.107-26.046-30.806a26.027,26.027,0,0,0-5.418-.914,10.814,10.814,0,0,0-2.35,5.156A11.6,11.6,0,0,0,180.1,105.953Z" transform="translate(-170.889 -85.337)" fill="#4c4c4c" opacity="0.24"/><path d="M185.159,97.16a22.588,22.588,0,0,1,5.026-3,24.159,24.159,0,0,1,4.5-1.371,54.7,54.7,0,0,0,43.345,12.988,16.324,16.324,0,0,1-4.831,5.548c-9.074,6.462-22.652.914-29.114-1.7A58.845,58.845,0,0,1,185.159,97.16Z" transform="translate(-162.047 -92.077)" fill="#4c4c4c" opacity="0.17"/><path d="M197.412,111.229c-1.044.326.326,7.7.783,9.921a49.274,49.274,0,0,0,4.047,11.944c2.089.653,4.178,1.371,6.2,2.023C200.742,115.08,198.261,110.968,197.412,111.229Z" transform="translate(-142.183 -61.242)" fill="#4c4c4c" opacity="0.14"/><path d="M188.814,116.964c.2,1.632.326,3.133-.522,4.373-1.044,1.5-2.676,1.24-4.113,3.394-.522.783-.522,1.175-.392,1.371.326.587,1.7.326,2.35.326,3.394.131,5.418,3.59,7.768,5.613,1.893,1.7,5.157,3.459,11.032,3.59a60.355,60.355,0,0,1-9.6-6.462,59.634,59.634,0,0,1-5.026-4.7,10.468,10.468,0,0,0,.588-7.9c-.914-2.48-3-4.242-3.264-4.047C187.313,112.721,188.488,114.223,188.814,116.964Z" transform="translate(-164.463 -59.08)" fill="#4c4c4c" opacity="0.12"/></g></g></g></g><text transform="translate(374.764 208.251)" fill="#bfbfbf" font-size="30" font-family="Montserrat-Regular, Montserrat"><tspan x="-117.795" y="0">PLACEHOLDER</tspan></text><text transform="translate(374.764 174.251)" fill="#bfbfbf" font-size="20" font-family="Montserrat-Regular, Montserrat"><tspan x="-108.32" y="0">Landing Page Design</tspan></text></svg>