<?xml version="1.0" standalone="no"?>
<!DOCTYPE svg PUBLIC "-//W3C//DTD SVG 20010904//EN"
 "http://www.w3.org/TR/2001/REC-SVG-20010904/DTD/svg10.dtd">
<svg version="1.0" xmlns="http://www.w3.org/2000/svg"
 width="135.000000pt" height="135.000000pt" viewBox="0 0 135.000000 135.000000"
 preserveAspectRatio="xMidYMid meet">
<metadata>
Created by potrace 1.14, written by Peter Selinger 2001-2017
</metadata>
<g transform="translate(0.000000,135.000000) scale(0.100000,-0.100000)"
fill="#000000" stroke="none">
<path d="M259 1067 c-14 -5 -35 -24 -47 -41 -21 -31 -22 -40 -22 -332 l0 -299
-24 30 c-20 25 -31 30 -68 30 -28 0 -51 -6 -61 -17 -62 -62 -26 -160 60 -160
31 0 43 6 69 36 l31 36 13 -25 c23 -42 102 -61 150 -35 12 6 30 26 40 43 18
29 20 52 20 281 l0 250 71 -125 c262 -457 255 -448 321 -449 50 0 81 16 103
52 l18 31 13 -31 c7 -17 24 -38 37 -47 33 -21 98 -22 130 -1 46 31 50 57 50
359 0 190 3 274 10 260 27 -62 131 -61 161 1 20 42 20 50 1 85 -32 62 -141 62
-161 -1 -6 -21 -7 -21 -22 7 -8 16 -24 37 -36 47 -27 23 -103 24 -135 2 -46
-33 -51 -64 -51 -351 l0 -268 -22 41 c-87 158 -277 480 -295 500 -46 50 -132
43 -170 -15 l-23 -34 0 27 c0 31 -21 76 -45 96 -22 18 -85 28 -116 17z"/>
</g>
</svg>
