<svg width="1377" height="794" viewBox="0 0 1377 794" fill="none" xmlns="http://www.w3.org/2000/svg">
<g clip-path="url(#clip0_310_1515)">
<path d="M127.455 620.24C126.363 620.29 125.282 620.003 124.359 619.418C123.435 618.834 122.714 617.979 122.292 616.97C121.871 615.961 121.769 614.847 122.002 613.779C122.234 612.711 122.789 611.74 123.592 610.997C123.726 610.463 123.823 610.079 123.957 609.545C123.909 609.429 123.861 609.312 123.812 609.196C122.712 606.597 120.869 604.381 118.514 602.827C116.159 601.272 113.398 600.449 110.576 600.459C107.755 600.47 105 601.314 102.656 602.886C100.313 604.458 98.4865 606.687 97.4058 609.294C93.087 619.699 87.5883 630.122 86.2344 641.124C85.6381 645.987 85.8896 650.917 86.9778 655.694C76.834 633.559 71.5666 609.501 71.5327 585.152C71.5306 579.042 71.8699 572.936 72.5492 566.864C73.1106 561.886 73.8895 556.943 74.8858 552.036C80.3227 525.41 91.9959 500.454 108.947 479.217C117.151 474.739 123.786 467.853 127.957 459.487C129.468 456.48 130.536 453.27 131.128 449.956C130.203 450.078 129.262 450.154 128.337 450.214C128.048 450.229 127.745 450.245 127.457 450.26L127.348 450.265C126.331 450.31 125.322 450.061 124.443 449.546C123.565 449.032 122.853 448.274 122.395 447.365C121.937 446.455 121.751 445.433 121.86 444.42C121.969 443.408 122.369 442.448 123.01 441.657C123.41 441.165 123.81 440.674 124.21 440.182C124.817 439.423 125.439 438.68 126.045 437.921C126.115 437.849 126.181 437.773 126.243 437.693C126.941 436.828 127.638 435.978 128.336 435.113C127.063 433.135 125.349 431.478 123.33 430.272C116.335 426.174 106.686 429.012 101.634 435.341C96.5663 441.67 95.6105 450.548 97.3704 458.455C99.1011 465.184 101.964 471.568 105.836 477.335C105.457 477.821 105.063 478.291 104.683 478.777C97.7496 487.696 91.7065 497.273 86.6404 507.371C87.8724 496.058 86.402 484.614 82.3502 473.981C78.2437 464.072 70.5466 455.726 63.7684 447.159C55.6267 436.868 38.9314 441.359 37.497 454.404C37.4831 454.53 37.4696 454.656 37.4563 454.782C38.4631 455.351 39.4486 455.954 40.4129 456.592C41.6243 457.401 42.5629 458.558 43.1058 459.91C43.6487 461.263 43.7706 462.747 43.4555 464.17C43.1403 465.593 42.4029 466.888 41.3398 467.884C40.2767 468.88 38.9375 469.532 37.4976 469.754L37.3502 469.777C37.7089 473.407 38.3428 477.004 39.2467 480.538C41.8656 490.402 46.4935 499.619 52.8403 507.611C59.1871 515.602 67.1159 522.196 76.1296 526.979C76.7214 527.282 77.298 527.586 77.8897 527.874C72.7998 542.303 69.6072 557.333 68.392 572.585C67.7041 581.584 67.7447 590.623 68.5134 599.615L68.4679 599.297C66.5257 589.298 61.1935 580.276 53.3717 573.754C41.7544 564.208 25.3413 560.692 12.8083 553.019C11.4764 552.163 9.92762 551.707 8.34477 551.703C6.76191 551.699 5.21097 552.148 3.87486 552.997C2.53874 553.846 1.47319 555.06 0.803874 556.494C0.134559 557.929 -0.110611 559.526 0.0972978 561.095C0.114107 561.207 0.131197 561.319 0.148557 561.43C2.01685 562.191 3.83595 563.068 5.59525 564.056C6.60203 564.624 7.58755 565.227 8.55181 565.865C9.76316 566.674 10.7018 567.831 11.2447 569.184C11.7876 570.536 11.9095 572.021 11.5944 573.444C11.2793 574.867 10.5418 576.161 9.47873 577.157C8.41562 578.154 7.07641 578.806 5.63656 579.028L5.48902 579.05C5.38279 579.066 5.29179 579.081 5.18574 579.096C8.37798 586.721 12.8584 593.739 18.4307 599.843C25.3145 607.232 33.6344 613.136 42.8804 617.194C52.1264 621.253 62.1036 623.379 72.2002 623.443H72.2154C74.9562 635.357 78.9273 646.954 84.0648 658.046H126.394C126.546 657.576 126.683 657.09 126.819 656.619C122.901 656.866 118.968 656.631 115.106 655.921C118.247 652.066 121.388 648.181 124.528 644.326C124.598 644.254 124.664 644.178 124.726 644.099C126.319 642.126 127.927 640.168 129.52 638.195L129.521 638.192C129.606 632.145 128.912 626.111 127.456 620.241L127.455 620.24Z" fill="#F2F2F2"/>
<path d="M648.783 658.618C648.784 658.849 648.739 659.078 648.651 659.291C648.563 659.505 648.434 659.698 648.27 659.862C648.107 660.025 647.913 660.154 647.7 660.242C647.487 660.33 647.258 660.375 647.027 660.374H1.88065C1.41502 660.374 0.96846 660.19 0.639213 659.86C0.309966 659.531 0.125 659.084 0.125 658.618C0.125 658.153 0.309966 657.706 0.639213 657.376C0.96846 657.047 1.41502 656.862 1.88065 656.862H647.027C647.258 656.861 647.487 656.906 647.7 656.994C647.913 657.082 648.107 657.212 648.27 657.375C648.434 657.538 648.563 657.732 648.651 657.945C648.739 658.159 648.784 658.387 648.783 658.618V658.618Z" fill="#CCCCCC"/>
<path d="M304.458 426.963C305.959 427.466 307.333 428.291 308.481 429.381C309.629 430.472 310.524 431.801 311.103 433.275C311.682 434.749 311.932 436.332 311.833 437.912C311.734 439.493 311.29 441.033 310.533 442.423L326.063 461.697L316.656 473.995L295.106 446.468C292.855 445.039 291.207 442.835 290.472 440.272C289.738 437.708 289.969 434.965 291.122 432.561C292.274 430.156 294.269 428.259 296.727 427.227C299.184 426.196 301.935 426.102 304.458 426.963V426.963Z" fill="#A0616A"/>
<path d="M311.402 479.461L302.631 457.634L318.856 446.108L326.441 459.705L337.516 467.261L352.227 480.33C356.214 477.054 386.811 452.526 396.599 462.953C397.789 464.125 398.711 465.539 399.302 467.101C399.894 468.662 400.14 470.333 400.025 471.999C399.414 479.936 390.998 486.6 390.68 486.846L372.104 504.293C371.411 505.475 364.111 517.629 355.766 519.744C354.576 520.07 353.332 520.146 352.111 519.966C350.891 519.786 349.721 519.355 348.676 518.699C329.687 507.035 317.546 495.557 313.087 485.141C312.293 483.324 311.727 481.417 311.402 479.461V479.461Z" fill="#2F2E41"/>
<path d="M302.208 765.123L287.921 765.79L278.547 710.984L299.634 709.998L302.208 765.123Z" fill="#A0616A"/>
<path d="M309.868 791.96L299.73 792.434L297.473 782.944L293.286 792.736L266.398 793.993C265.109 794.054 263.835 793.7 262.761 792.985C261.687 792.269 260.87 791.229 260.429 790.016C259.988 788.804 259.946 787.481 260.309 786.243C260.673 785.004 261.422 783.915 262.448 783.133L283.227 767.294L282.774 757.615L305.422 757.907L309.868 791.96Z" fill="#2F2E41"/>
<path d="M153.043 647.446L147.838 634.121L196.747 607.697L221.452 623.231L153.043 647.446Z" fill="#A0616A"/>
<path d="M130.078 663.295L126.384 653.839L134.65 648.663L124.036 647.828L114.24 622.749C113.771 621.547 113.697 620.226 114.031 618.979C114.365 617.733 115.089 616.625 116.096 615.819C117.104 615.013 118.343 614.55 119.632 614.498C120.921 614.446 122.193 614.808 123.262 615.53L144.913 630.153L153.935 626.626L160.907 648.183L130.078 663.295Z" fill="#2F2E41"/>
<path d="M434.009 607.785C434.009 607.785 428.075 645.678 400.027 648.483C371.979 651.289 346.124 638.648 346.124 638.648L267.589 614.454C267.589 614.454 184.055 638.196 170.031 641.937C170.031 641.937 160.358 619.973 160.682 618.555C163.665 605.501 167.55 614.332 167.55 614.332L256.37 575.052C256.37 575.052 270.394 571.311 294.702 581.599C319.011 591.886 384.133 616.685 384.133 616.685L434.009 607.785Z" fill="#2F2E41"/>
<path d="M433.685 605.462C433.685 605.462 438.362 650.856 411.04 657.79C385.068 664.382 349.242 657.62 349.242 657.62L306.533 653.159C306.533 653.159 304.663 708.054 304.663 735.176C295.985 736.356 287.241 736.981 278.484 737.047C276.614 737.047 276.49 736.067 276.49 736.067L272.87 641.192C272.615 637.067 273.227 632.934 274.666 629.06C276.104 625.186 278.338 621.656 281.222 618.698C284.107 615.739 287.578 613.417 291.414 611.882C295.25 610.346 299.364 609.631 303.493 609.782C305.509 609.859 307.624 610.002 309.838 610.21C336.112 612.731 368.73 607.373 368.73 607.373L433.685 605.462Z" fill="#2F2E41"/>
<path d="M357.9 539.61C357.9 539.61 346.808 606.708 354.304 612.064C361.8 617.42 372.08 617.441 372.08 617.441L374.47 580.394L357.9 539.61Z" fill="#2F2E41"/>
<path d="M376.4 457.204L361.57 471.302C354.676 477.854 350.107 486.476 348.555 495.861C347.003 505.246 348.552 514.88 352.969 523.305L360.058 536.828L376.4 457.204Z" fill="#2F2E41"/>
<path d="M379.717 459.575L359.621 482.471C355.211 487.496 352.478 493.773 351.803 500.426V500.426C351.496 503.447 351.62 506.496 352.169 509.482L359.742 550.665L365.434 610.138C365.434 610.138 409.38 623.458 413.878 602.89C418.376 582.323 379.717 459.575 379.717 459.575Z" fill="#0EF8F6"/>
<path d="M368.259 590.678L361.834 575.895L356.381 537.356C356.085 535.114 362.186 498.423 371.021 459.057L381.758 444.021L387.951 438.342L405.592 449.911C411.956 453.278 425.871 497.23 417.306 528.334C414.36 539.033 419.51 552.353 420.304 562.184L432.531 592.238L435.426 609.619L434.985 609.787C434.544 609.956 427.467 610.912 398.579 615.728C374.644 619.718 387.75 600.085 368.259 590.678Z" fill="#2F2E41"/>
<path d="M311.712 574.528C312.59 573.21 313.746 572.101 315.099 571.279C316.452 570.456 317.968 569.94 319.542 569.768C321.116 569.595 322.708 569.769 324.208 570.279C325.707 570.788 327.076 571.62 328.218 572.716L350.883 562.777L360.281 575.081L328.077 588.669C326.109 590.467 323.55 591.481 320.884 591.518C318.219 591.555 315.633 590.613 313.616 588.87C311.598 587.127 310.29 584.704 309.94 582.061C309.589 579.418 310.219 576.738 311.712 574.528V574.528Z" fill="#A0616A"/>
<path d="M364.178 581.586L340.822 584.332L333.955 565.647L349.061 561.89L359.253 553.18L375.717 542.404C373.602 537.696 357.959 501.729 370.585 495.014C372.026 494.173 373.633 493.653 375.294 493.492C376.956 493.33 378.632 493.53 380.209 494.078C387.706 496.749 391.929 506.62 392.083 506.991L404.046 529.497C405.004 530.475 414.815 540.709 414.669 549.318C414.672 550.552 414.418 551.774 413.925 552.905C413.431 554.036 412.708 555.052 411.802 555.889C395.572 571.163 381.317 579.874 370.099 581.448C368.138 581.739 366.15 581.785 364.178 581.586V581.586Z" fill="#2F2E41"/>
<path d="M379.353 436.45C394.79 434.599 405.772 420.302 403.881 404.515C401.99 388.729 387.943 377.431 372.506 379.281C357.068 381.132 346.087 395.429 347.977 411.216C349.868 427.002 363.916 438.3 379.353 436.45Z" fill="#A0616A"/>
<path d="M449.241 386.504C443.826 381.531 440.686 374.448 436.134 368.61C431.582 362.771 424.297 357.93 417.49 360.232C412.797 361.819 409.586 366.513 408.27 371.476C406.955 376.439 407.227 381.705 407.51 386.862C406.367 376.331 398.219 366.966 388.276 364.754C383.238 363.764 378.016 364.4 373.362 366.568C368.709 368.737 364.863 372.327 362.378 376.821C359.471 374.709 355.891 373.737 352.315 374.089C348.74 374.442 345.418 376.095 342.979 378.734C340.651 381.603 339.363 385.177 339.326 388.872C339.289 392.568 340.504 396.166 342.773 399.082C345.11 401.821 348.365 403.612 351.929 404.119C355.492 404.626 359.118 403.815 362.125 401.837L364.585 403.61C364.272 405.859 364.759 408.145 365.961 410.071C367.163 411.996 369.003 413.438 371.16 414.144C374.617 415.081 379.245 414.301 380.893 417.615C382.045 419.93 380.742 422.704 379.251 424.768C377.759 426.832 375.954 428.995 376.056 431.591C376.21 435.509 380.544 437.746 384.286 438.128C388.86 438.486 393.437 437.471 397.431 435.212C401.425 432.953 404.654 429.553 406.705 425.447C406.785 425.286 406.873 425.123 406.97 424.96C409.376 420.985 410.946 416.561 411.585 411.958C412.224 407.355 411.918 402.67 410.686 398.19C410.186 396.431 410.314 395.063 411.499 394.491C416.619 392.016 432.044 394.074 436.989 397.012C441.935 399.95 446.113 404.122 450.918 407.305C455.724 410.488 461.625 412.68 467.043 411.007C469.208 410.206 471.191 408.978 472.874 407.398C474.557 405.817 475.906 403.915 476.842 401.804C478.754 397.495 480.021 392.929 480.602 388.252C475.952 391.562 470.314 393.193 464.615 392.875C458.916 392.558 453.495 390.311 449.241 386.504V386.504Z" fill="#2F2E41"/>
<path d="M453.499 573.87L453.484 573.85L453.499 573.889V573.87Z" fill="#2F2E41"/>
<path d="M270.371 439.418C258.257 441.277 245.865 439.5 234.761 434.313C223.657 429.126 214.339 420.761 207.987 410.277C201.635 399.793 198.534 387.66 199.075 375.413C199.616 363.166 203.776 351.354 211.028 341.472C218.28 331.589 228.299 324.08 239.817 319.893C251.336 315.707 263.837 315.031 275.739 317.951C287.642 320.872 298.411 327.257 306.686 336.3C314.96 345.343 320.369 356.637 322.226 368.755C323.46 376.801 323.097 385.011 321.158 392.916C319.22 400.822 315.744 408.268 310.929 414.83C306.114 421.391 300.054 426.94 293.095 431.159C286.136 435.378 278.414 438.184 270.371 439.418V439.418ZM252.033 319.801C240.496 321.57 229.743 326.723 221.134 334.606C212.524 342.489 206.445 352.749 203.664 364.088C200.884 375.428 201.527 387.337 205.513 398.311C209.499 409.284 216.649 418.829 226.057 425.738C235.466 432.647 246.712 436.61 258.372 437.125C270.033 437.641 281.584 434.686 291.565 428.635C301.547 422.583 309.511 413.707 314.449 403.128C319.387 392.549 321.079 380.743 319.31 369.202C318.135 361.54 315.463 354.184 311.446 347.554C307.43 340.924 302.147 335.151 295.9 330.564C289.652 325.976 282.563 322.665 275.036 320.818C267.51 318.971 259.693 318.626 252.033 319.801V319.801Z" fill="#3F3D56"/>
<path d="M488.088 204.457C475.974 206.315 463.582 204.538 452.478 199.351C441.373 194.164 432.056 185.8 425.704 175.315C419.352 164.831 416.251 152.699 416.792 140.451C417.333 128.204 421.493 116.392 428.745 106.51C435.997 96.6275 446.016 89.1182 457.534 84.9316C469.053 80.745 481.554 80.0691 493.456 82.9895C505.359 85.9098 516.128 92.2953 524.403 101.338C532.677 110.381 538.085 121.676 539.943 133.793C541.177 141.839 540.814 150.049 538.875 157.955C536.937 165.86 533.461 173.306 528.646 179.868C523.83 186.43 517.77 191.978 510.811 196.197C503.853 200.416 496.131 203.223 488.088 204.457V204.457ZM469.75 84.8388C458.213 86.6086 447.46 91.7609 438.85 99.644C430.241 107.527 424.161 117.787 421.381 129.126C418.601 140.466 419.244 152.375 423.23 163.349C427.216 174.322 434.365 183.867 443.774 190.776C453.183 197.685 464.429 201.648 476.089 202.164C487.749 202.679 499.301 199.724 509.282 193.673C519.264 187.622 527.227 178.745 532.166 168.166C537.104 157.587 538.796 145.781 537.027 134.241C534.654 118.765 526.233 104.866 513.616 95.6018C501 86.3372 485.22 82.4656 469.75 84.8388V84.8388Z" fill="#3F3D56"/>
<path d="M739.183 344.882C727.069 346.74 714.677 344.963 703.572 339.776C692.468 334.589 683.151 326.225 676.799 315.741C670.447 305.257 667.345 293.124 667.887 280.876C668.428 268.629 672.588 256.817 679.84 246.935C687.092 237.053 697.111 229.543 708.629 225.357C720.148 221.17 732.648 220.494 744.551 223.415C756.453 226.335 767.223 232.72 775.497 241.763C783.772 250.806 789.18 262.101 791.038 274.218C792.271 282.264 791.908 290.474 789.97 298.38C788.032 306.285 784.556 313.731 779.74 320.293C774.925 326.855 768.865 332.403 761.906 336.622C754.947 340.841 747.226 343.648 739.183 344.882V344.882ZM720.845 225.264C709.308 227.034 698.555 232.186 689.945 240.069C681.336 247.952 675.256 258.212 672.476 269.552C669.695 280.891 670.339 292.8 674.325 303.774C678.311 314.747 685.46 324.292 694.869 331.201C704.278 338.11 715.523 342.073 727.184 342.589C738.844 343.104 750.395 340.15 760.377 334.098C770.359 328.047 778.322 319.17 783.26 308.591C788.199 298.012 789.891 286.206 788.121 274.666C785.749 259.19 777.328 245.291 764.711 236.027C752.094 226.762 736.315 222.891 720.845 225.264Z" fill="#3F3D56"/>
<path d="M1036.85 123.26C1024.74 125.118 1012.34 123.342 1001.24 118.155C990.134 112.968 980.817 104.603 974.465 94.1191C968.113 83.635 965.011 71.5022 965.553 59.255C966.094 47.0077 970.254 35.196 977.506 25.3135C984.758 15.4311 994.776 7.92179 1006.29 3.73518C1017.81 -0.451433 1030.31 -1.12729 1042.22 1.79307C1054.12 4.71343 1064.89 11.0988 1073.16 20.1418C1081.44 29.1848 1086.85 40.4792 1088.7 52.5968C1089.94 60.6426 1089.57 68.8526 1087.64 76.7581C1085.7 84.6636 1082.22 92.1098 1077.41 98.6715C1072.59 105.233 1066.53 110.782 1059.57 115.001C1052.61 119.22 1044.89 122.026 1036.85 123.26V123.26ZM1018.51 3.64244C1006.97 5.41225 996.221 10.5645 987.611 18.4476C979.002 26.3307 972.922 36.5907 970.142 47.9301C967.361 59.2694 968.005 71.1789 971.991 82.1524C975.977 93.1259 983.126 102.671 992.535 109.58C1001.94 116.489 1013.19 120.452 1024.85 120.967C1036.51 121.483 1048.06 118.528 1058.04 112.477C1068.02 106.425 1075.99 97.5487 1080.93 86.9699C1085.86 76.391 1087.56 64.5848 1085.79 53.0442C1083.41 37.5688 1074.99 23.67 1062.38 14.4054C1049.76 5.14075 1033.98 1.26919 1018.51 3.64242V3.64244Z" fill="#3F3D56"/>
<path d="M1319.01 230.774C1306.9 232.633 1294.5 230.856 1283.4 225.669C1272.3 220.482 1262.98 212.117 1256.63 201.633C1250.28 191.149 1247.17 179.016 1247.71 166.769C1248.26 154.522 1252.42 142.71 1259.67 132.828C1266.92 122.945 1276.94 115.436 1288.46 111.249C1299.98 107.063 1312.48 106.387 1324.38 109.307C1336.28 112.228 1347.05 118.613 1355.33 127.656C1363.6 136.699 1369.01 147.993 1370.87 160.111C1373.36 176.36 1369.29 192.934 1359.57 206.186C1349.84 219.438 1335.25 228.282 1319.01 230.774ZM1300.67 111.157C1289.14 112.926 1278.38 118.079 1269.77 125.962C1261.16 133.845 1255.08 144.105 1252.3 155.444C1249.52 166.784 1250.17 178.693 1254.15 189.667C1258.14 200.64 1265.29 210.185 1274.7 217.094C1284.11 224.003 1295.35 227.966 1307.01 228.481C1318.67 228.997 1330.22 226.042 1340.21 219.991C1350.19 213.939 1358.15 205.063 1363.09 194.484C1368.03 183.905 1369.72 172.099 1367.95 160.558C1365.58 145.083 1357.16 131.184 1344.54 121.92C1331.92 112.655 1316.14 108.783 1300.67 111.157V111.157Z" fill="#3F3D56"/>
<path d="M511.122 121.041L518.19 118.464C518.19 118.464 513.116 126.259 512.017 126.876C512.131 128.349 512.355 129.812 512.688 131.252C507.902 193.5 452.209 174.87 452.209 174.87C471.088 172.422 471.506 164.445 471.506 164.445C460.323 164.518 457.04 157.706 457.04 157.706C458.101 158.073 459.26 158.036 460.295 157.602C461.33 157.167 462.168 156.366 462.649 155.352C450.368 154.101 450.205 142.33 450.205 142.33C452.544 143.528 455.15 144.105 457.776 144.006C456.217 142.603 443.099 131.028 448.756 123.143C448.756 123.143 459.159 136.478 480.797 134.502L482.21 133.987C481.801 132.974 481.538 131.909 481.427 130.822C480.804 126.76 481.82 122.616 484.251 119.303C486.682 115.99 490.33 113.779 494.391 113.156C504.598 111.59 507.68 117.09 507.68 117.09L514.301 111.595C514.155 111.617 514.544 119.023 511.122 121.041Z" fill="#3F3D56"/>
<path d="M741.825 250.746C745.907 250.132 750.065 251.159 753.393 253.602C756.72 256.046 758.946 259.707 759.584 263.786L764.306 294.587C764.919 298.67 763.893 302.83 761.45 306.159C759.008 309.487 755.348 311.714 751.27 312.352L720.478 317.075C716.397 317.689 712.238 316.662 708.911 314.219C705.583 311.775 703.358 308.114 702.72 304.035L697.998 273.234C697.384 269.151 698.411 264.991 700.853 261.662C703.296 258.334 706.956 256.107 711.034 255.469L741.825 250.746M740.881 244.586L710.089 249.31C704.38 250.202 699.256 253.319 695.837 257.979C692.418 262.638 690.981 268.462 691.84 274.178L696.562 304.98C697.454 310.691 700.57 315.816 705.228 319.237C709.886 322.657 715.708 324.095 721.423 323.235L752.214 318.512C757.923 317.619 763.047 314.502 766.466 309.842C769.886 305.183 771.323 299.359 770.463 293.643L765.741 262.841C764.849 257.131 761.733 252.005 757.075 248.585C752.417 245.164 746.595 243.727 740.881 244.586V244.586Z" fill="#3F3D56"/>
<path d="M748.805 265.44C747.583 265.624 746.338 265.316 745.344 264.583C744.349 263.85 743.686 262.752 743.5 261.53C743.315 260.308 743.621 259.062 744.353 258.066C745.085 257.07 746.182 256.406 747.403 256.219C748.625 256.032 749.87 256.337 750.867 257.068C751.863 257.799 752.528 258.896 752.717 260.118C752.905 261.339 752.601 262.585 751.871 263.583C751.142 264.58 750.046 265.247 748.825 265.437L748.805 265.44Z" fill="#3F3D56"/>
<path d="M729.263 271.589C731.699 271.215 734.191 271.573 736.424 272.616C738.657 273.659 740.531 275.341 741.808 277.45C743.086 279.558 743.71 281.998 743.601 284.461C743.492 286.924 742.655 289.3 741.197 291.287C739.738 293.275 737.724 294.785 735.407 295.627C733.091 296.469 730.577 296.605 728.183 296.017C725.789 295.43 723.623 294.146 721.959 292.327C720.295 290.508 719.207 288.237 718.834 285.8C718.586 284.182 718.659 282.531 719.049 280.941C719.438 279.351 720.138 277.854 721.106 276.534C722.074 275.214 723.293 274.099 724.693 273.25C726.092 272.402 727.645 271.837 729.263 271.589ZM728.318 265.429C724.664 265.99 721.258 267.622 718.531 270.118C715.804 272.615 713.879 275.865 712.998 279.456C712.117 283.048 712.321 286.82 713.584 290.296C714.846 293.771 717.111 296.795 720.091 298.983C723.071 301.171 726.633 302.426 730.326 302.59C734.019 302.753 737.678 301.817 740.839 299.901C744.001 297.984 746.523 295.172 748.087 291.822C749.651 288.471 750.187 284.732 749.627 281.076V281.076C748.875 276.175 746.208 271.773 742.212 268.838C738.216 265.904 733.218 264.678 728.318 265.429V265.429Z" fill="#3F3D56"/>
<path d="M1305.68 129.498C1296.46 130.913 1288 135.46 1281.74 142.375C1275.47 149.29 1271.77 158.151 1271.27 167.471C1270.76 176.79 1273.47 186 1278.95 193.554C1284.44 201.107 1292.35 206.544 1301.36 208.951C1300.72 205.887 1300.48 202.752 1300.65 199.625C1300.92 196.242 1302.45 176.933 1302.45 176.933C1301.27 175.067 1300.5 172.97 1300.19 170.782C1299.28 164.827 1302.04 159.851 1306.34 159.191C1310 158.63 1312.18 161.104 1312.68 164.387C1313.24 168.063 1311.74 173.912 1311.32 179.19C1311.22 180.171 1311.36 181.159 1311.72 182.077C1312.07 182.995 1312.64 183.815 1313.37 184.473C1314.11 185.131 1314.98 185.607 1315.94 185.863C1316.89 186.119 1317.88 186.147 1318.85 185.947C1326.45 184.781 1330.08 174.219 1328.3 162.632C1326.95 153.826 1320.01 148.154 1309.23 149.807C1297.06 151.674 1290.85 161.934 1292.41 172.086C1292.73 174.967 1294.1 177.627 1296.27 179.553C1296.63 179.768 1296.91 180.093 1297.08 180.48C1297.24 180.867 1297.28 181.297 1297.18 181.707C1297.1 182.472 1296.94 184.314 1296.85 185.062C1296.85 185.284 1296.8 185.503 1296.7 185.7C1296.59 185.897 1296.45 186.067 1296.27 186.195C1296.08 186.323 1295.87 186.407 1295.65 186.438C1295.43 186.469 1295.21 186.447 1295 186.374C1289.04 184.939 1285.48 179.207 1284.42 172.284C1282.67 160.876 1290.2 145.714 1309.28 142.788C1324.61 140.436 1336.4 149.99 1338.23 161.899C1340.65 177.665 1333.68 190.776 1320.77 192.756C1316.43 193.422 1312 191.696 1310.2 189.256C1310.2 189.256 1309.29 198.869 1309.06 200.74C1308.6 203.929 1307.68 207.037 1306.34 209.968C1312.12 210.752 1317.99 210.286 1323.57 208.599C1329.15 206.913 1334.3 204.046 1338.67 200.194C1343.05 196.341 1346.54 191.593 1348.92 186.271C1351.3 180.949 1352.5 175.178 1352.45 169.349C1352.41 163.52 1351.1 157.769 1348.64 152.487C1346.17 147.205 1342.6 142.516 1338.17 138.736C1333.73 134.956 1328.53 132.175 1322.93 130.581C1317.32 128.987 1311.44 128.618 1305.68 129.498L1305.68 129.498Z" fill="#3F3D56"/>
<path d="M1059.31 32.4212L1005.21 24.4476C1003.82 24.1732 1002.38 24.4625 1001.2 25.252C1000.02 26.0416 999.208 27.2666 998.934 28.6576L998.929 28.681L990.94 82.9147C990.763 84.3792 991.153 85.8562 992.031 87.0415C992.909 88.2269 994.208 89.0306 995.66 89.2872L1049.74 97.2585C1051.17 97.4124 1052.61 96.996 1053.73 96.0995C1054.86 95.2029 1055.59 93.8984 1055.76 92.4687L1063.75 38.235C1063.96 36.9201 1063.65 35.5731 1062.87 34.4903C1062.1 33.4076 1060.92 32.6777 1059.61 32.4613C1059.51 32.445 1059.41 32.4316 1059.31 32.4212ZM1011.8 80.6398L1002.52 79.2711L1006.77 50.39L1016.06 51.7587L1011.8 80.6398ZM1012.38 46.7305L1012.32 46.7208C1010.98 46.5152 1009.78 45.7888 1008.98 44.7008C1008.18 43.6127 1007.85 42.2516 1008.05 40.9158C1008.25 39.58 1008.97 38.3784 1010.06 37.5743C1011.14 36.7701 1012.5 36.4291 1013.84 36.6258C1015.17 36.8225 1016.38 37.541 1017.18 38.6238C1017.99 39.7066 1018.34 41.0654 1018.14 42.4025C1017.95 43.7396 1017.24 44.9459 1016.16 45.7572C1015.08 46.5684 1013.72 46.9185 1012.38 46.7305ZM1045.74 85.6421L1036.46 84.2734L1038.78 68.4818C1039.34 64.6985 1038.37 61.9144 1035.01 61.4192C1033.96 61.2727 1032.88 61.4563 1031.94 61.9447C1031 62.4331 1030.23 63.2022 1029.74 64.1461C1029.39 64.8435 1029.16 65.6009 1029.08 66.3797L1026.66 82.8299L1017.38 81.4611L1021.63 52.58L1030.92 53.9487L1030.32 57.9679C1031.38 56.6296 1032.79 55.602 1034.38 54.993C1035.98 54.384 1037.71 54.2162 1039.39 54.5072C1045.49 55.4056 1049.5 60.1045 1048.23 68.7696L1045.74 85.6421Z" fill="#3F3D56"/>
<path fill-rule="evenodd" clip-rule="evenodd" d="M301.054 372.249C299.88 364.595 296.537 357.439 291.423 351.626C286.308 345.814 279.636 341.589 272.196 339.452C264.756 337.315 256.86 337.355 249.442 339.568C242.024 341.781 235.395 346.073 230.34 351.937C225.285 357.802 222.015 364.992 220.918 372.657C219.822 380.322 220.943 388.141 224.151 395.189C227.358 402.236 232.517 408.216 239.017 412.422C245.517 416.627 253.085 418.881 260.825 418.918L256.535 390.932L246.366 392.492L244.591 380.911L254.76 379.351L253.407 370.525C251.868 360.489 256.996 354.023 266.141 352.621C269.15 352.202 272.187 352.004 275.225 352.029L276.736 361.886L271.685 362.661C266.714 363.423 265.632 366.748 266.118 369.92L267.27 377.433L278.374 375.73L278.376 387.583L269.046 389.015L273.336 417.002C282.526 414.065 290.367 407.944 295.448 399.74C300.529 391.536 302.517 381.788 301.054 372.249L301.054 372.249Z" fill="#3F3D56"/>
<path d="M1048.2 630.832L1063.01 634.724L1085.07 579.409L1063.2 573.665L1048.2 630.832Z" fill="#FFB6B6"/>
<path d="M1043.62 646.156L1089.18 658.124L1089.33 657.548C1090.56 652.843 1089.88 647.84 1087.43 643.64C1084.98 639.439 1080.96 636.386 1076.25 635.15L1076.25 635.149L1069.59 626.647L1052.4 628.884L1048.43 627.84L1043.62 646.156Z" fill="#2F2E41"/>
<path d="M1124.15 641.92H1139.47L1146.76 582.813L1124.15 582.815L1124.15 641.92Z" fill="#FFB6B6"/>
<path d="M1123.61 657.905L1170.72 657.903V657.308C1170.72 652.443 1168.79 647.778 1165.35 644.339C1161.91 640.9 1157.24 638.967 1152.38 638.967H1152.38L1143.78 632.437L1127.72 638.968L1123.61 638.968L1123.61 657.905Z" fill="#2F2E41"/>
<path d="M1085.84 359.079C1082.14 363.706 1083.99 379.438 1083.99 379.438C1083.99 379.438 1077.51 430.335 1080.29 434.962C1083.06 439.589 1078.44 443.29 1075.66 449.768C1072.89 456.246 1070.11 471.977 1070.11 471.977C1054.38 484.933 1055.31 544.158 1055.31 544.158L1049.76 596.906C1051.61 602.458 1077.51 603.383 1081.21 602.458C1084.91 601.533 1120.99 471.052 1120.99 471.052C1120.99 471.052 1119.14 596.906 1119.14 602.458C1119.14 608.01 1144.12 605.234 1149.67 605.234C1155.22 605.234 1190.37 378.512 1190.37 378.512V365.557L1185.75 359.079C1185.75 359.079 1089.54 354.452 1085.84 359.079Z" fill="#2F2E41"/>
<path d="M1126.54 189.732C1142.38 189.732 1155.22 176.888 1155.22 161.045C1155.22 145.201 1142.38 132.358 1126.54 132.358C1110.7 132.358 1097.86 145.201 1097.86 161.045C1097.86 176.888 1110.7 189.732 1126.54 189.732Z" fill="#FFB6B6"/>
<path d="M1088.01 379.545L1087.86 379.326C1079.5 367.626 1092.07 339.513 1093.96 335.437C1091.71 334.707 1089.78 333.218 1088.51 331.226C1087.23 329.234 1086.68 326.86 1086.96 324.51L1087.78 317.563L1088.63 310.75L1082.53 304.648L1082.51 304.496L1079 273.768L1073.9 253.359C1071.97 245.644 1072.14 237.556 1074.37 229.925C1076.61 222.294 1080.83 215.395 1086.61 209.936L1098.41 208.062L1112.75 194.242H1135.87L1143.8 201.819C1159.39 214.601 1163.09 209.048 1180.66 233.109L1168.08 266.276L1175.11 315.195L1175.12 324.048L1178.78 328.121C1180.1 329.588 1181.06 331.344 1181.58 333.247C1182.1 335.151 1182.17 337.15 1181.79 339.085L1181.3 341.495C1183.17 342.293 1184.81 343.526 1186.1 345.091C1187.39 346.656 1188.28 348.507 1188.7 350.489L1189.99 356.495C1191.09 357.949 1198.36 367.641 1198.36 370.291C1198.36 370.688 1198.06 371.073 1197.43 371.5C1192.48 374.854 1165.11 381.693 1153 376.843C1140.09 371.682 1088.8 379.425 1088.28 379.504L1088.01 379.545Z" fill="#3F3D56"/>
<path d="M1073.44 263.175L1097.29 258.506C1106.11 271.68 1110.84 307.702 1110.84 307.702L1137.2 362.394C1138.82 363.378 1140.15 364.775 1141.06 366.442C1141.96 368.108 1142.41 369.985 1142.36 371.881C1142.3 373.776 1141.74 375.624 1140.74 377.234C1139.74 378.844 1138.33 380.16 1136.65 381.048C1134.98 381.936 1133.1 382.364 1131.2 382.288C1129.31 382.212 1127.47 381.635 1125.87 380.616C1124.27 379.597 1122.97 378.172 1122.1 376.487C1121.23 374.801 1120.82 372.916 1120.92 371.021L1086.54 306.222L1073.44 263.175Z" fill="#FFB6B6"/>
<path d="M1073.31 268.835L1072.63 233.382L1083.85 218.365C1086.07 215.425 1089.06 213.163 1092.49 211.835C1095.92 210.506 1099.66 210.164 1103.27 210.847V210.847C1108.17 211.806 1112.51 214.589 1115.44 218.632C1118.36 222.676 1119.64 227.679 1119.01 232.629C1117.11 247.641 1112.78 266.427 1103 270.677L1102.9 270.72L1113.04 306.192L1075.44 311.446L1073.31 268.835Z" fill="#3F3D56"/>
<path d="M1227.16 238.864C1227.16 238.864 1191.58 231.568 1176.25 235.6L1172.87 259.669L1216.27 263.523L1290.35 250.053C1292.11 250.749 1294.02 250.967 1295.9 250.685C1297.77 250.402 1299.53 249.629 1301.01 248.444C1302.48 247.259 1303.62 245.705 1304.3 243.938C1304.99 242.172 1305.19 240.257 1304.89 238.387C1304.59 236.517 1303.81 234.759 1302.61 233.291C1301.41 231.824 1299.85 230.699 1298.08 230.032C1296.31 229.364 1294.39 229.177 1292.52 229.49C1290.66 229.802 1288.91 230.603 1287.45 231.812L1227.16 238.864Z" fill="#FFB6B6"/>
<path d="M1184.08 265.305L1148.85 261.419L1135.4 248.356C1132.77 245.782 1130.91 242.523 1130.04 238.948C1129.16 235.373 1129.3 231.625 1130.44 228.126V228.126C1132.02 223.393 1135.34 219.438 1139.73 217.059C1144.11 214.68 1149.24 214.055 1154.06 215.31C1168.7 219.13 1183.35 215.567 1186.3 225.818L1191.58 224.091L1226.22 230.694L1226.6 268.67L1184.08 265.305Z" fill="#3F3D56"/>
<path d="M1094.01 142.195C1097.23 137.212 1103.28 133.891 1109.13 134.824C1109.68 131.084 1111.24 127.566 1113.65 124.651C1116.05 121.737 1119.21 119.539 1122.78 118.297C1126.35 117.054 1130.19 116.815 1133.88 117.605C1137.58 118.394 1140.98 120.183 1143.73 122.776C1144.64 122.139 1145.69 121.747 1146.79 121.636C1147.89 121.526 1149 121.702 1150.01 122.147C1152.03 123.064 1153.78 124.472 1155.11 126.243C1158.48 130.437 1160.64 135.463 1161.37 140.788C1162.1 146.113 1161.38 151.537 1159.27 156.483C1159.99 153.879 1157.38 151.43 1154.74 150.845C1152.11 150.261 1149.34 150.814 1146.67 150.433C1143.25 149.946 1140.17 147.958 1136.74 147.511C1133.83 147.322 1130.91 147.697 1128.14 148.616C1125.38 149.534 1122.46 149.926 1119.55 149.77C1116.66 149.427 1112.94 160.373 1112.99 168.083C1113 169.544 1112.7 171.42 1111.28 171.73C1109.52 172.111 1108.5 169.685 1106.83 169.023C1106.06 168.802 1105.23 168.889 1104.52 169.266C1103.81 169.643 1103.28 170.28 1103.03 171.043C1102.82 171.819 1102.8 172.634 1102.96 173.42C1103.13 174.206 1103.48 174.941 1103.99 175.563C1105.02 176.797 1106.24 177.856 1107.61 178.701L1106.92 179.274C1106.27 179.965 1105.39 180.408 1104.45 180.525C1103.5 180.642 1102.55 180.427 1101.74 179.917C1100.16 178.847 1098.88 177.39 1098.03 175.684C1094.8 170.689 1092.49 165.155 1091.21 159.346C1089.95 153.48 1090.95 147.355 1094.01 142.195V142.195Z" fill="#2F2E41"/>
<path d="M1334.61 634.57L1323.24 616.285L1320.96 626.734C1320.57 628.564 1320.17 630.423 1319.8 632.268C1316.57 629.508 1313.13 626.955 1309.77 624.505C1299.44 617.008 1289.12 609.501 1278.8 601.984L1282.03 620.727C1284.02 632.268 1286.1 644.045 1291.03 654.597C1291.58 655.792 1292.17 656.973 1292.8 658.124H1340.81C1341.19 657.055 1341.46 655.946 1341.6 654.818C1341.62 654.745 1341.62 654.671 1341.62 654.597C1342.37 647.439 1338.42 640.695 1334.61 634.57Z" fill="#F0F0F0"/>
<path d="M1375.24 659.921L968.421 660.375C968.19 660.375 967.961 660.33 967.747 660.242C967.533 660.154 967.339 660.025 967.176 659.862C967.012 659.698 966.882 659.505 966.793 659.291C966.705 659.078 966.659 658.849 966.659 658.617C966.659 658.386 966.705 658.157 966.793 657.944C966.882 657.73 967.012 657.536 967.176 657.373C967.339 657.21 967.533 657.08 967.747 656.992C967.961 656.904 968.19 656.859 968.421 656.86L1375.24 656.407C1375.71 656.407 1376.16 656.592 1376.49 656.921C1376.81 657.251 1377 657.698 1377 658.164C1377 658.63 1376.81 659.077 1376.49 659.406C1376.16 659.736 1375.71 659.921 1375.24 659.921Z" fill="#CACACA"/>
</g>
<defs>
<clipPath id="clip0_310_1515">
<rect width="1377" height="794" fill="white"/>
</clipPath>
</defs>
</svg>
