<svg width="21" height="16" viewBox="0 0 21 16" fill="none" xmlns="http://www.w3.org/2000/svg">
<path d="M18.5076 3.94305C18.5202 4.10905 18.5202 4.27405 18.5202 4.44305C18.53 5.87312 18.2408 7.29079 17.6692 8.6138C17.0976 9.93681 16.2552 11.1388 15.1907 12.15C14.1263 13.1613 12.861 13.9616 11.4684 14.5046C10.0758 15.0475 8.58347 15.3224 7.07813 15.3131C4.88833 15.3174 2.74381 14.7208 0.902344 13.5951C1.22496 13.6287 1.54938 13.6444 1.87392 13.6421C3.68389 13.6465 5.44266 13.0716 6.86655 12.0101C6.02733 11.9955 5.21384 11.7323 4.53973 11.2572C3.86562 10.7821 3.36456 10.1188 3.10655 9.36005C3.35797 9.39781 3.61202 9.41753 3.86655 9.41905C4.22353 9.41806 4.57896 9.37438 4.92445 9.28905C4.01378 9.11419 3.19492 8.64522 2.60698 7.9618C2.01904 7.27838 1.69828 6.42268 1.69919 5.54005V5.48905C2.25647 5.78451 2.87936 5.95069 3.51708 5.97405C2.66428 5.43353 2.06057 4.60439 1.82899 3.65564C1.59741 2.7069 1.75541 1.70997 2.27076 0.868051C3.28076 2.04963 4.54093 3.01632 5.96954 3.70542C7.39814 4.39451 8.96327 4.79062 10.5634 4.86805C10.4988 4.57904 10.4657 4.2845 10.4644 3.98905C10.4644 3.22195 10.7073 2.47258 11.1614 1.8383C11.6156 1.20403 12.2601 0.714175 13.0111 0.432388C13.7621 0.150601 14.585 0.089908 15.3728 0.258195C16.1606 0.426483 16.8769 0.81597 17.4287 1.37605C18.3294 1.21118 19.1931 0.898865 19.9813 0.453051C19.6812 1.33585 19.0524 2.08431 18.2129 2.55805C19.0115 2.47182 19.7921 2.27262 20.5287 1.96705C19.9781 2.72845 19.2962 3.39615 18.5118 3.94205L18.5076 3.94305Z" fill="black"/>
</svg>
