<svg width="21" height="16" fill="none" xmlns="http://www.w3.org/2000/svg"><path d="M18.508 3.943c.012.166.012.331.012.5a10.33 10.33 0 0 1-.85 4.17 10.778 10.778 0 0 1-2.48 3.537 11.428 11.428 0 0 1-3.722 2.355 11.894 11.894 0 0 1-4.39.808 11.81 11.81 0 0 1-6.176-1.718c.323.034.647.05.972.047a8.329 8.329 0 0 0 4.993-1.632 4.169 4.169 0 0 1-2.327-.753A3.84 3.84 0 0 1 3.107 9.36c.251.038.505.058.76.06a4.465 4.465 0 0 0 1.057-.131 4.064 4.064 0 0 1-2.317-1.327 3.705 3.705 0 0 1-.908-2.422v-.051c.557.296 1.18.462 1.818.485A3.831 3.831 0 0 1 1.83 3.656 3.66 3.66 0 0 1 2.271.868 11.342 11.342 0 0 0 5.97 3.705a11.906 11.906 0 0 0 4.593 1.163 4.111 4.111 0 0 1-.099-.879c0-.767.243-1.516.697-2.15a3.996 3.996 0 0 1 1.85-1.407 4.224 4.224 0 0 1 2.362-.174 4.08 4.08 0 0 1 2.056 1.118A8.176 8.176 0 0 0 19.98.453a3.853 3.853 0 0 1-1.768 2.105 8.399 8.399 0 0 0 2.316-.59 8.424 8.424 0 0 1-2.017 1.974l-.004.001Z" fill="#000"/></svg>